<?xml version="1.0" encoding="utf-8"?>
<svg width="74px" height="37px" viewBox="0 0 74 37" version="1.1" xmlns:xlink="http://www.w3.org/1999/xlink" xmlns="http://www.w3.org/2000/svg">
  <defs>
    <filter filterUnits="userSpaceOnUse" color-interpolation-filters="sRGB" id="filter_1">
      <feFlood flood-opacity="0" result="BackgroundImageFix" />
      <feColorMatrix in="SourceAlpha" type="matrix" values="0 0 0 0 0 0 0 0 0 0 0 0 0 0 0 0 0 0 127 0" />
      <feOffset dx="0" dy="2" />
      <feGaussianBlur stdDeviation="2" />
      <feColorMatrix type="matrix" values="0 0 0 0 0.39215687 0 0 0 0 0.39215687 0 0 0 0 0.39215687 0 0 0 0.49803922 0" />
      <feBlend mode="normal" in2="BackgroundImageFix" result="effect0_dropShadow" />
      <feBlend mode="normal" in="SourceGraphic" in2="effect0_dropShadow" result="shape" />
    </filter>
    <path d="M5.499 0L54.501 0Q54.636 0 54.7708 0.00662379Q54.9056 0.0132476 55.04 0.0264792Q55.1743 0.0397108 55.3079 0.0595184Q55.4414 0.0793259 55.5738 0.105662Q55.7062 0.131998 55.8371 0.164798Q55.9681 0.197599 56.0973 0.236785Q56.2265 0.275971 56.3535 0.321449Q56.4807 0.366927 56.6054 0.418586Q56.7301 0.470246 56.8521 0.527963Q56.9741 0.58568 57.0932 0.649315Q57.2123 0.71295 57.328 0.78235Q57.4438 0.85175 57.5561 0.926749Q57.6683 1.00175 57.7767 1.08216Q57.8852 1.16258 57.9895 1.24822Q58.0939 1.33385 58.1939 1.42451Q58.2939 1.51517 58.3894 1.61062Q58.4848 1.70607 58.5755 1.8061Q58.6661 1.90612 58.7518 2.01047Q58.8374 2.11482 58.9178 2.22325Q58.9982 2.33168 59.0732 2.44392Q59.1482 2.55616 59.2176 2.67195Q59.287 2.78774 59.3507 2.90679Q59.4143 3.02584 59.472 3.14787Q59.5297 3.26991 59.5814 3.39462Q59.6331 3.51934 59.6785 3.64644Q59.724 3.77354 59.7632 3.90272Q59.8024 4.0319 59.8352 4.16285Q59.868 4.2938 59.8943 4.4262Q59.9207 4.5586 59.9405 4.69213Q59.9603 4.82566 59.9735 4.96Q59.9867 5.09435 59.9934 5.22918Q60 5.36401 60 5.499L60 5.501Q60 5.63599 59.9934 5.77082Q59.9867 5.90565 59.9735 6.04Q59.9603 6.17434 59.9405 6.30787Q59.9207 6.4414 59.8943 6.5738Q59.868 6.7062 59.8352 6.83715Q59.8024 6.96809 59.7632 7.09728Q59.724 7.22646 59.6785 7.35356Q59.6331 7.48066 59.5814 7.60538Q59.5297 7.73009 59.472 7.85212Q59.4143 7.97416 59.3507 8.09321Q59.287 8.21226 59.2176 8.32805Q59.1482 8.44384 59.0732 8.55608Q58.9982 8.66832 58.9178 8.77675Q58.8374 8.88518 58.7518 8.98953Q58.6661 9.09388 58.5755 9.1939Q58.4848 9.29393 58.3894 9.38938Q58.2939 9.48483 58.1939 9.57549Q58.0939 9.66615 57.9895 9.75178Q57.8852 9.83742 57.7767 9.91784Q57.6683 9.99825 57.5561 10.0733Q57.4438 10.1482 57.328 10.2176Q57.2123 10.287 57.0932 10.3507Q56.9741 10.4143 56.8521 10.472Q56.7301 10.5298 56.6054 10.5814Q56.4807 10.6331 56.3536 10.6785Q56.2265 10.724 56.0973 10.7632Q55.9681 10.8024 55.8371 10.8352Q55.7062 10.868 55.5738 10.8943Q55.4414 10.9207 55.3079 10.9405Q55.1743 10.9603 55.04 10.9735Q54.9057 10.9868 54.7708 10.9934Q54.636 11 54.501 11L5.499 11Q5.36401 11 5.22918 10.9934Q5.09435 10.9868 4.96 10.9735Q4.82566 10.9603 4.69213 10.9405Q4.5586 10.9207 4.4262 10.8943Q4.2938 10.868 4.16285 10.8352Q4.0319 10.8024 3.90272 10.7632Q3.77354 10.724 3.64644 10.6785Q3.51934 10.6331 3.39462 10.5814Q3.26991 10.5298 3.14787 10.472Q3.02584 10.4143 2.90679 10.3507Q2.78774 10.287 2.67195 10.2176Q2.55616 10.1482 2.44392 10.0732Q2.33168 9.99825 2.22325 9.91784Q2.11482 9.83742 2.01047 9.75178Q1.90612 9.66615 1.8061 9.57549Q1.70607 9.48483 1.61062 9.38938Q1.51517 9.29393 1.42451 9.1939Q1.33385 9.09388 1.24822 8.98953Q1.16258 8.88518 1.08216 8.77675Q1.00175 8.66832 0.926749 8.55608Q0.85175 8.44384 0.78235 8.32805Q0.71295 8.21226 0.649315 8.09321Q0.58568 7.97416 0.527963 7.85212Q0.470246 7.73009 0.418586 7.60537Q0.366927 7.48066 0.321449 7.35356Q0.275971 7.22645 0.236785 7.09727Q0.197599 6.96809 0.164798 6.83715Q0.131998 6.7062 0.105662 6.5738Q0.0793259 6.4414 0.0595184 6.30787Q0.0397108 6.17434 0.0264792 6.04Q0.0132476 5.90565 0.00662379 5.77082Q0 5.63599 0 5.501L0 5.499Q0 5.36401 0.00662379 5.22918Q0.0132476 5.09435 0.0264792 4.96Q0.0397108 4.82566 0.0595184 4.69213Q0.0793259 4.5586 0.105662 4.4262Q0.131998 4.2938 0.164798 4.16285Q0.197599 4.0319 0.236785 3.90272Q0.275971 3.77354 0.321449 3.64644Q0.366927 3.51934 0.418586 3.39462Q0.470246 3.26991 0.527963 3.14787Q0.58568 3.02584 0.649315 2.90679Q0.71295 2.78774 0.78235 2.67195Q0.85175 2.55616 0.926749 2.44392Q1.00175 2.33168 1.08216 2.22325Q1.16258 2.11482 1.24822 2.01047Q1.33385 1.90612 1.42451 1.8061Q1.51517 1.70607 1.61062 1.61062Q1.70607 1.51517 1.8061 1.42451Q1.90612 1.33385 2.01047 1.24822Q2.11482 1.16258 2.22325 1.08216Q2.33168 1.00175 2.44392 0.926749Q2.55616 0.85175 2.67195 0.78235Q2.78774 0.71295 2.90679 0.649315Q3.02584 0.58568 3.14787 0.527963Q3.26991 0.470246 3.39462 0.418586Q3.51934 0.366927 3.64644 0.321449Q3.77354 0.275971 3.90272 0.236785Q4.0319 0.197599 4.16285 0.164798Q4.2938 0.131998 4.4262 0.105662Q4.5586 0.0793259 4.69213 0.0595184Q4.82566 0.0397108 4.96 0.0264792Q5.09435 0.0132476 5.22918 0.00662379Q5.36401 0 5.499 0L5.499 0Z" id="path_1" />
  </defs>
  <g filter="url(#filter_1)">
    <g id="7.-AXIS-Bank" transform="translate(7 5)">
      <path d="M48.6533 18.0872C48.6533 18.0872 46.3934 15.9172 44.3488 14.1672C42.3041 12.4172 40.4747 11.0872 40.4747 11.0872L56.832 11.0872L48.6533 18.0872Z" id="Triangle" fill="#FFFFFF" fill-rule="evenodd" stroke="#ED1C24" stroke-width="1" />
      <g id="Rectangle">
        <use xlink:href="#path_1" fill="none" stroke="#ED1C24" stroke-width="2" />
        <use stroke="none" fill="#FFFFFF" xlink:href="#path_1" fill-rule="evenodd" />
      </g>
      <g id="AXIS-BANK" fill="#000000" fill-opacity="0.6392157" transform="translate(3.399994 1.8806915)">
        <path d="M13.2967 4.79297L12.3123 4.88867Q12.4114 5.72949 12.9207 6.1687Q13.43 6.60791 14.3801 6.60791Q15.033 6.60791 15.4705 6.42505Q15.908 6.24219 16.1472 5.86621Q16.3865 5.49023 16.3865 5.05957Q16.3865 4.58447 16.1865 4.26147Q15.9866 3.93848 15.6328 3.7522Q15.2791 3.56592 14.5408 3.3916Q13.8025 3.21729 13.6111 3.05664Q13.4607 2.93018 13.4607 2.75244Q13.4607 2.55762 13.6214 2.44141Q13.8709 2.26025 14.3118 2.26025Q14.739 2.26025 14.9527 2.42944Q15.1663 2.59863 15.2312 2.98486L16.2429 2.94043Q16.219 2.25 15.7422 1.83643Q15.2654 1.42285 14.322 1.42285Q13.7444 1.42285 13.336 1.59717Q12.9275 1.77148 12.7105 2.10474Q12.4934 2.43799 12.4934 2.8208Q12.4934 3.41553 12.9549 3.8291Q13.283 4.12305 14.0965 4.32471Q14.7288 4.48193 14.9065 4.54346Q15.1663 4.63574 15.2705 4.7605Q15.3748 4.88525 15.3748 5.06299Q15.3748 5.33984 15.127 5.54663Q14.8792 5.75342 14.3904 5.75342Q13.929 5.75342 13.6572 5.521Q13.3855 5.28857 13.2967 4.79297ZM4.31765 6.51904L5.41823 6.51904L3.41189 1.5083L2.34206 1.5083L0.390402 6.51904L1.46364 6.51904L1.87722 5.38086L3.88015 5.38086L4.31765 6.51904ZM7.15798 3.9043L5.44558 6.51904L6.65896 6.51904L7.77321 4.78613L8.88405 6.51904L10.1043 6.51904L8.39187 3.94189L9.95046 1.5083L8.7781 1.5083L7.79372 3.11816L6.78884 1.5083L5.60622 1.5083L7.15798 3.9043ZM10.593 6.51904L10.593 1.5083L11.6048 1.5083L11.6048 6.51904L10.593 6.51904ZM19.1858 1.5083L21.1887 1.5083Q21.7835 1.5083 22.0757 1.55786Q22.3679 1.60742 22.5987 1.76465Q22.8294 1.92188 22.9832 2.18335Q23.137 2.44482 23.137 2.76953Q23.137 3.12158 22.9473 3.41553Q22.7576 3.70947 22.4329 3.85645Q22.8909 3.98975 23.137 4.31104Q23.3831 4.63232 23.3831 5.06641Q23.3831 5.4082 23.2241 5.7312Q23.0652 6.0542 22.7901 6.24731Q22.5149 6.44043 22.1116 6.48486Q21.8587 6.51221 20.8914 6.51904L19.1858 6.51904L19.1858 1.5083ZM27.6555 6.51904L28.7561 6.51904L26.7498 1.5083L25.68 1.5083L23.7283 6.51904L24.8015 6.51904L25.2151 5.38086L27.218 5.38086L27.6555 6.51904ZM29.303 6.51904L29.303 1.5083L30.2874 1.5083L32.3382 4.85449L32.3382 1.5083L33.2781 1.5083L33.2781 6.51904L32.263 6.51904L30.2429 3.25146L30.2429 6.51904L29.303 6.51904ZM34.3616 1.5083L34.3616 6.51904L35.3733 6.51904L35.3733 5.00488L36.1936 4.16748L37.5711 6.51904L38.8801 6.51904L36.8909 3.45996L38.7776 1.5083L37.4173 1.5083L35.3733 3.7334L35.3733 1.5083L34.3616 1.5083ZM20.1975 2.34229L20.1975 3.50098L20.8606 3.50098Q21.4519 3.50098 21.5955 3.48389Q21.8552 3.45312 22.0039 3.30444Q22.1526 3.15576 22.1526 2.91309Q22.1526 2.68066 22.0244 2.5354Q21.8963 2.39014 21.6433 2.35938Q21.4929 2.34229 20.7786 2.34229L20.1975 2.34229ZM2.86501 2.67725L3.55544 4.53662L2.18825 4.53662L2.86501 2.67725ZM26.2029 2.67725L26.8933 4.53662L25.5261 4.53662L26.2029 2.67725ZM20.1975 4.33496L20.1975 5.6748L21.1341 5.6748Q21.6809 5.6748 21.8279 5.64404Q22.0535 5.60303 22.1953 5.44409Q22.3372 5.28516 22.3372 5.01855Q22.3372 4.79297 22.2278 4.63574Q22.1184 4.47852 21.9116 4.40674Q21.7049 4.33496 21.0144 4.33496L20.1975 4.33496Z" />
      </g>
      <g id="5-MIN" transform="translate(44.19998 0.9806061)">
        <g id="5" fill="#000000" fill-opacity="0.6392157">
          <path d="M4.95284 3.19531L5.49972 3.13867Q5.52316 3.32422 5.63839 3.43262Q5.75362 3.54102 5.90401 3.54102Q6.07589 3.54102 6.19503 3.40137Q6.31417 3.26172 6.31417 2.98047Q6.31417 2.7168 6.19601 2.58496Q6.07784 2.45312 5.88839 2.45312Q5.65206 2.45312 5.46456 2.66211L5.01925 2.59766L5.3005 1.10742L6.75167 1.10742L6.75167 1.62109L5.71651 1.62109L5.63058 2.10742Q5.81417 2.01562 6.00558 2.01562Q6.37081 2.01562 6.62472 2.28125Q6.87862 2.54688 6.87862 2.9707Q6.87862 3.32422 6.67355 3.60156Q6.39425 3.98047 5.89816 3.98047Q5.50167 3.98047 5.25167 3.76758Q5.00167 3.55469 4.95284 3.19531Z" />
        </g>
        <g id="MIN" fill="#000000" fill-opacity="0.6392157">
          <path d="M2.5046 8.93945L2.5046 6.07617L3.36983 6.07617L3.88937 8.0293L4.40304 6.07617L5.27023 6.07617L5.27023 8.93945L4.73312 8.93945L4.73312 6.68555L4.16476 8.93945L3.60812 8.93945L3.04171 6.68555L3.04171 8.93945L2.5046 8.93945ZM5.82687 8.93945L5.82687 6.07617L6.40499 6.07617L6.40499 8.93945L5.82687 8.93945ZM6.96163 6.07617L6.96163 8.93945L7.49874 8.93945L7.49874 7.07227L8.65304 8.93945L9.23312 8.93945L9.23312 6.07617L8.69601 6.07617L8.69601 7.98828L7.52413 6.07617L6.96163 6.07617Z" />
        </g>
      </g>
      <path d="M47.7782 21.7271C47.7782 21.2044 48.1636 20.7806 48.6391 20.7806C49.1146 20.7806 49.5 21.2044 49.5 21.7271C49.5 22.2499 49.1146 22.6736 48.6391 22.6736C48.1636 22.6736 47.7782 22.2499 47.7782 21.7271Z" id="Ellipse" fill="#D3D3D3" fill-rule="evenodd" stroke="#ED1C24" stroke-width="1" />
      <path d="M48.5161 17.7876L48.5161 20.7876L48.5161 18.9228" id="Line" fill="none" fill-rule="evenodd" stroke="#ED1C24" stroke-width="1" stroke-linecap="square" />
    </g>
  </g>
</svg>