<svg xmlns="http://www.w3.org/2000/svg" width="3750" viewBox="0 0 3750 1875" height="1875" version="1.0"><defs><clipPath id="a"><path d="M 2618 1202.449219 L 2964.464844 1202.449219 L 2964.464844 1352.449219 L 2618 1352.449219 Z M 2618 1202.449219"/></clipPath></defs><path fill="#F9A72B" d="M 874.109375 851.542969 L 2370.765625 851.542969 L 2370.765625 1250.960938 L 874.109375 1250.960938 L 874.109375 851.542969"/><path fill="#77838D" d="M 874.109375 1253.753906 L 871.316406 1253.753906 L 871.316406 848.753906 L 2373.5625 848.753906 L 2373.5625 1253.753906 L 874.109375 1253.753906 M 876.90625 854.335938 L 876.90625 1248.167969 L 2367.972656 1248.167969 L 2367.972656 854.335938 L 876.90625 854.335938"/><path fill="#FFF" d="M 932.785156 910.742188 L 2311.535156 910.742188 L 2311.535156 1192.320312 L 932.785156 1192.320312 L 932.785156 910.742188"/><path fill="#F9A72B" d="M 2376.222656 851.546875 L 3206.882812 851.546875 L 3206.882812 1250.957031 L 2376.222656 1250.957031 L 2376.222656 851.546875"/><path fill="#77838D" d="M 2376.222656 1253.75 L 2373.425781 1253.75 L 2373.425781 848.753906 L 3209.675781 848.753906 L 3209.675781 1253.75 L 2376.222656 1253.75 M 2379.015625 854.339844 L 2379.015625 1248.167969 L 3204.085938 1248.167969 L 3204.085938 854.339844 L 2379.015625 854.339844"/><path fill="#FFF" d="M 2434.914062 910.742188 L 3147.628906 910.742188 L 3147.628906 1192.320312 L 2434.914062 1192.320312 L 2434.914062 910.742188"/><g><g><g><path d="M 98.609375 0 L 5.359375 0 L 5.359375 -22.859375 L 36.734375 -54.578125 C 45.703125 -63.953125 51.5625 -70.351562 54.3125 -73.78125 C 57.070312 -77.207031 58.992188 -80.148438 60.078125 -82.609375 C 61.160156 -85.078125 61.703125 -87.660156 61.703125 -90.359375 C 61.703125 -93.691406 60.617188 -96.320312 58.453125 -98.25 C 56.285156 -100.1875 53.238281 -101.15625 49.3125 -101.15625 C 45.269531 -101.15625 41.179688 -100 37.046875 -97.6875 C 32.910156 -95.375 28.238281 -91.960938 23.03125 -87.453125 L 3.953125 -109.78125 C 10.578125 -115.695312 16.144531 -119.925781 20.65625 -122.46875 C 25.164062 -125.019531 30.070312 -126.96875 35.375 -128.3125 C 40.675781 -129.664062 46.640625 -130.34375 53.265625 -130.34375 C 61.585938 -130.34375 69.015625 -128.875 75.546875 -125.9375 C 82.078125 -123.007812 87.144531 -118.835938 90.75 -113.421875 C 94.351562 -108.003906 96.15625 -101.925781 96.15625 -95.1875 C 96.15625 -90.144531 95.523438 -85.484375 94.265625 -81.203125 C 93.003906 -76.929688 91.054688 -72.726562 88.421875 -68.59375 C 85.785156 -64.46875 82.285156 -60.117188 77.921875 -55.546875 C 73.554688 -50.972656 64.253906 -42.300781 50.015625 -29.53125 L 50.015625 -28.65625 L 98.609375 -28.65625 Z M 98.609375 0" transform="translate(2516.618 1121.104)"/></g></g><g><g><path d="M 3.78125 -34.546875 L 3.78125 -61.96875 L 53.4375 -61.96875 L 53.4375 -34.546875 Z M 3.78125 -34.546875" transform="translate(2622.087 1121.104)"/></g></g><g><g><path d="M 69.875 0 L 43.59375 -92.546875 L 42.796875 -92.546875 C 44.035156 -76.785156 44.65625 -64.539062 44.65625 -55.8125 L 44.65625 0 L 13.890625 0 L 13.890625 -128.5 L 60.125 -128.5 L 86.921875 -37.265625 L 87.625 -37.265625 L 113.90625 -128.5 L 160.21875 -128.5 L 160.21875 0 L 128.328125 0 L 128.328125 -56.34375 C 128.328125 -59.269531 128.367188 -62.519531 128.453125 -66.09375 C 128.535156 -69.664062 128.929688 -78.425781 129.640625 -92.375 L 128.84375 -92.375 L 102.921875 0 Z M 69.875 0" transform="translate(2679.303 1121.104)"/></g></g><g><g><path d="M 13.890625 0 L 13.890625 -128.5 L 48.78125 -128.5 L 48.78125 0 Z M 13.890625 0" transform="translate(2853.327 1121.104)"/></g></g><g><g><path d="M 136.234375 0 L 90.703125 0 L 43.765625 -90.53125 L 42.984375 -90.53125 C 44.097656 -76.289062 44.65625 -65.421875 44.65625 -57.921875 L 44.65625 0 L 13.890625 0 L 13.890625 -128.5 L 59.234375 -128.5 L 106 -39.203125 L 106.53125 -39.203125 C 105.707031 -52.148438 105.296875 -62.550781 105.296875 -70.40625 L 105.296875 -128.5 L 136.234375 -128.5 Z M 136.234375 0" transform="translate(2915.993 1121.104)"/></g></g></g><g><g><g><path d="M 71.109375 -101.859375 C 62.847656 -101.859375 56.398438 -98.472656 51.765625 -91.703125 C 47.140625 -84.941406 44.828125 -75.613281 44.828125 -63.71875 C 44.828125 -38.988281 54.226562 -26.625 73.03125 -26.625 C 78.71875 -26.625 84.226562 -27.414062 89.5625 -29 C 94.894531 -30.582031 100.253906 -32.488281 105.640625 -34.71875 L 105.640625 -5.359375 C 94.921875 -0.609375 82.796875 1.765625 69.265625 1.765625 C 49.867188 1.765625 35 -3.859375 24.65625 -15.109375 C 14.3125 -26.367188 9.140625 -42.628906 9.140625 -63.890625 C 9.140625 -77.191406 11.644531 -88.878906 16.65625 -98.953125 C 21.664062 -109.035156 28.875 -116.785156 38.28125 -122.203125 C 47.6875 -127.628906 58.742188 -130.34375 71.453125 -130.34375 C 85.335938 -130.34375 98.609375 -127.328125 111.265625 -121.296875 L 100.640625 -93.953125 C 95.890625 -96.179688 91.140625 -98.054688 86.390625 -99.578125 C 81.648438 -101.097656 76.554688 -101.859375 71.109375 -101.859375 Z M 71.109375 -101.859375" transform="translate(962.309 1115.55)"/></g></g><g><g><path d="M 134.125 -64.421875 C 134.125 -42.804688 128.820312 -26.367188 118.21875 -15.109375 C 107.613281 -3.859375 92.082031 1.765625 71.625 1.765625 C 51.46875 1.765625 36.015625 -3.890625 25.265625 -15.203125 C 14.515625 -26.515625 9.140625 -42.976562 9.140625 -64.59375 C 9.140625 -85.988281 14.484375 -102.320312 25.171875 -113.59375 C 35.867188 -124.875 51.414062 -130.515625 71.8125 -130.515625 C 92.257812 -130.515625 107.753906 -124.914062 118.296875 -113.71875 C 128.847656 -102.53125 134.125 -86.097656 134.125 -64.421875 Z M 45.703125 -64.421875 C 45.703125 -39.578125 54.34375 -27.15625 71.625 -27.15625 C 80.414062 -27.15625 86.9375 -30.171875 91.1875 -36.203125 C 95.4375 -42.242188 97.5625 -51.648438 97.5625 -64.421875 C 97.5625 -77.253906 95.40625 -86.734375 91.09375 -92.859375 C 86.789062 -98.984375 80.363281 -102.046875 71.8125 -102.046875 C 54.40625 -102.046875 45.703125 -89.503906 45.703125 -64.421875 Z M 45.703125 -64.421875" transform="translate(1079.116 1115.55)"/></g></g><g><g><path d="M 90.171875 0 L 13.890625 0 L 13.890625 -128.5 L 90.171875 -128.5 L 90.171875 -100.640625 L 48.609375 -100.640625 L 48.609375 -80.421875 L 87.09375 -80.421875 L 87.09375 -52.5625 L 48.609375 -52.5625 L 48.609375 -28.296875 L 90.171875 -28.296875 Z M 90.171875 0" transform="translate(1222.553 1115.55)"/></g></g><g><g><path d="M 107.140625 -87.625 C 107.140625 -73.269531 102.90625 -62.179688 94.4375 -54.359375 C 85.96875 -46.535156 73.941406 -42.625 58.359375 -42.625 L 48.609375 -42.625 L 48.609375 0 L 13.890625 0 L 13.890625 -128.5 L 58.359375 -128.5 C 74.585938 -128.5 86.773438 -124.953125 94.921875 -117.859375 C 103.066406 -110.773438 107.140625 -100.695312 107.140625 -87.625 Z M 48.609375 -70.921875 L 54.9375 -70.921875 C 60.144531 -70.921875 64.285156 -72.382812 67.359375 -75.3125 C 70.441406 -78.25 71.984375 -82.296875 71.984375 -87.453125 C 71.984375 -96.117188 67.175781 -100.453125 57.5625 -100.453125 L 48.609375 -100.453125 Z M 48.609375 -70.921875" transform="translate(1321.342 1115.55)"/></g></g><g><g><path d="M 71.109375 -101.859375 C 62.847656 -101.859375 56.398438 -98.472656 51.765625 -91.703125 C 47.140625 -84.941406 44.828125 -75.613281 44.828125 -63.71875 C 44.828125 -38.988281 54.226562 -26.625 73.03125 -26.625 C 78.71875 -26.625 84.226562 -27.414062 89.5625 -29 C 94.894531 -30.582031 100.253906 -32.488281 105.640625 -34.71875 L 105.640625 -5.359375 C 94.921875 -0.609375 82.796875 1.765625 69.265625 1.765625 C 49.867188 1.765625 35 -3.859375 24.65625 -15.109375 C 14.3125 -26.367188 9.140625 -42.628906 9.140625 -63.890625 C 9.140625 -77.191406 11.644531 -88.878906 16.65625 -98.953125 C 21.664062 -109.035156 28.875 -116.785156 38.28125 -122.203125 C 47.6875 -127.628906 58.742188 -130.34375 71.453125 -130.34375 C 85.335938 -130.34375 98.609375 -127.328125 111.265625 -121.296875 L 100.640625 -93.953125 C 95.890625 -96.179688 91.140625 -98.054688 86.390625 -99.578125 C 81.648438 -101.097656 76.554688 -101.859375 71.109375 -101.859375 Z M 71.109375 -101.859375" transform="translate(1481.83 1115.55)"/></g></g><g><g><path d="M 134.125 -64.421875 C 134.125 -42.804688 128.820312 -26.367188 118.21875 -15.109375 C 107.613281 -3.859375 92.082031 1.765625 71.625 1.765625 C 51.46875 1.765625 36.015625 -3.890625 25.265625 -15.203125 C 14.515625 -26.515625 9.140625 -42.976562 9.140625 -64.59375 C 9.140625 -85.988281 14.484375 -102.320312 25.171875 -113.59375 C 35.867188 -124.875 51.414062 -130.515625 71.8125 -130.515625 C 92.257812 -130.515625 107.753906 -124.914062 118.296875 -113.71875 C 128.847656 -102.53125 134.125 -86.097656 134.125 -64.421875 Z M 45.703125 -64.421875 C 45.703125 -39.578125 54.34375 -27.15625 71.625 -27.15625 C 80.414062 -27.15625 86.9375 -30.171875 91.1875 -36.203125 C 95.4375 -42.242188 97.5625 -51.648438 97.5625 -64.421875 C 97.5625 -77.253906 95.40625 -86.734375 91.09375 -92.859375 C 86.789062 -98.984375 80.363281 -102.046875 71.8125 -102.046875 C 54.40625 -102.046875 45.703125 -89.503906 45.703125 -64.421875 Z M 45.703125 -64.421875" transform="translate(1598.637 1115.55)"/></g></g><g><g><path d="M 13.890625 0 L 13.890625 -128.5 L 48.609375 -128.5 L 48.609375 -28.03125 L 98.09375 -28.03125 L 98.09375 0 Z M 13.890625 0" transform="translate(1742.075 1115.55)"/></g></g><g><g><path d="M 13.890625 0 L 13.890625 -128.5 L 48.609375 -128.5 L 48.609375 -28.03125 L 98.09375 -28.03125 L 98.09375 0 Z M 13.890625 0" transform="translate(1846.84 1115.55)"/></g></g><g><g><path d="M 90.171875 0 L 13.890625 0 L 13.890625 -128.5 L 90.171875 -128.5 L 90.171875 -100.640625 L 48.609375 -100.640625 L 48.609375 -80.421875 L 87.09375 -80.421875 L 87.09375 -52.5625 L 48.609375 -52.5625 L 48.609375 -28.296875 L 90.171875 -28.296875 Z M 90.171875 0" transform="translate(1951.606 1115.55)"/></g></g><g><g><path d="M 65.484375 -75.234375 L 120.9375 -75.234375 L 120.9375 -5.984375 C 105.875 -0.816406 89.320312 1.765625 71.28125 1.765625 C 51.476562 1.765625 36.171875 -3.976562 25.359375 -15.46875 C 14.546875 -26.957031 9.140625 -43.332031 9.140625 -64.59375 C 9.140625 -85.34375 15.054688 -101.488281 26.890625 -113.03125 C 38.734375 -124.570312 55.316406 -130.34375 76.640625 -130.34375 C 84.722656 -130.34375 92.351562 -129.578125 99.53125 -128.046875 C 106.707031 -126.523438 112.960938 -124.59375 118.296875 -122.25 L 107.3125 -95.015625 C 98.050781 -99.578125 87.882812 -101.859375 76.8125 -101.859375 C 66.675781 -101.859375 58.835938 -98.5625 53.296875 -91.96875 C 47.765625 -85.382812 45 -75.96875 45 -63.71875 C 45 -51.707031 47.503906 -42.550781 52.515625 -36.25 C 57.523438 -29.957031 64.75 -26.8125 74.1875 -26.8125 C 79.34375 -26.8125 84.085938 -27.304688 88.421875 -28.296875 L 88.421875 -48.421875 L 65.484375 -48.421875 Z M 65.484375 -75.234375" transform="translate(2050.395 1115.55)"/></g></g><g><g><path d="M 90.171875 0 L 13.890625 0 L 13.890625 -128.5 L 90.171875 -128.5 L 90.171875 -100.640625 L 48.609375 -100.640625 L 48.609375 -80.421875 L 87.09375 -80.421875 L 87.09375 -52.5625 L 48.609375 -52.5625 L 48.609375 -28.296875 L 90.171875 -28.296875 Z M 90.171875 0" transform="translate(2183.637 1115.55)"/></g></g></g><g clip-path="url(#a)"><path fill="#F9A72B" d="M 2791.207031 1352.449219 L 2964.21875 1202.449219 L 2618.210938 1202.449219 Z M 2791.207031 1352.449219"/></g></svg>