<?xml version="1.0" encoding="utf-8"?>
<svg width="113px" height="36px" viewBox="0 0 113 36" version="1.1" xmlns:xlink="http://www.w3.org/1999/xlink" xmlns="http://www.w3.org/2000/svg">
  <defs>
    <filter filterUnits="userSpaceOnUse" color-interpolation-filters="sRGB" id="filter_1">
      <feFlood flood-opacity="0" result="BackgroundImageFix" />
      <feColorMatrix in="SourceAlpha" type="matrix" values="0 0 0 0 0 0 0 0 0 0 0 0 0 0 0 0 0 0 127 0" />
      <feOffset dx="0" dy="2" />
      <feGaussianBlur stdDeviation="2" />
      <feColorMatrix type="matrix" values="0 0 0 0 0.39215687 0 0 0 0 0.39215687 0 0 0 0 0.39215687 0 0 0 0.49803922 0" />
      <feBlend mode="normal" in2="BackgroundImageFix" result="effect0_dropShadow" />
      <feBlend mode="normal" in="SourceGraphic" in2="effect0_dropShadow" result="shape" />
    </filter>
    <path d="M6.83525 0.388573L92.1647 0.388573Q92.3325 0.388573 92.5001 0.396806Q92.6677 0.405039 92.8347 0.421486Q93.0017 0.437933 93.1677 0.462554Q93.3337 0.487175 93.4982 0.51991Q93.6628 0.552645 93.8256 0.593417Q93.9883 0.634188 94.1489 0.682896Q94.3095 0.731605 94.4675 0.788134Q94.6254 0.844662 94.7805 0.908875Q94.9355 0.973088 95.0872 1.04483Q95.2389 1.11657 95.3868 1.19567Q95.5348 1.27477 95.6788 1.36103Q95.8227 1.4473 95.9622 1.54052Q96.1017 1.63374 96.2365 1.7337Q96.3713 1.83365 96.501 1.9401Q96.6307 2.04655 96.755 2.15924Q96.8793 2.27192 96.998 2.39057Q97.1166 2.50922 97.2293 2.63355Q97.342 2.75788 97.4485 2.88759Q97.5549 3.0173 97.6549 3.15207Q97.7548 3.28684 97.848 3.42636Q97.9413 3.56588 98.0275 3.7098Q98.1138 3.85373 98.1929 4.00171Q98.272 4.14969 98.3437 4.30138Q98.4155 4.45306 98.4797 4.60809Q98.5439 4.76311 98.6004 4.9211Q98.657 5.07908 98.7057 5.23966Q98.7544 5.40023 98.7952 5.56299Q98.8359 5.72576 98.8687 5.89033Q98.9014 6.0549 98.926 6.22089Q98.9506 6.38687 98.9671 6.55385Q98.9835 6.72084 98.9918 6.88844Q99 7.05603 99 7.22383L99 7.22583Q99 7.39362 98.9918 7.56122Q98.9835 7.72881 98.9671 7.8958Q98.9506 8.06279 98.926 8.22876Q98.9014 8.39474 98.8687 8.55932Q98.8359 8.72389 98.7952 8.88666Q98.7544 9.04942 98.7057 9.20999Q98.657 9.37056 98.6004 9.52855Q98.5439 9.68654 98.4797 9.84156Q98.4155 9.99659 98.3437 10.1483Q98.272 10.3 98.1929 10.4479Q98.1138 10.5959 98.0275 10.7398Q97.9413 10.8838 97.848 11.0233Q97.7548 11.1628 97.6549 11.2976Q97.5549 11.4324 97.4485 11.5621Q97.342 11.6918 97.2293 11.8161Q97.1166 11.9404 96.998 12.0591Q96.8793 12.1777 96.755 12.2904Q96.6307 12.4031 96.501 12.5095Q96.3713 12.616 96.2365 12.716Q96.1017 12.8159 95.9622 12.9091Q95.8227 13.0024 95.6788 13.0886Q95.5348 13.1749 95.3869 13.254Q95.2389 13.3331 95.0872 13.4048Q94.9355 13.4766 94.7805 13.5408Q94.6254 13.605 94.4675 13.6615Q94.3095 13.718 94.1489 13.7668Q93.9883 13.8155 93.8256 13.8562Q93.6628 13.897 93.4982 13.9297Q93.3337 13.9625 93.1677 13.9871Q93.0017 14.0117 92.8347 14.0282Q92.6677 14.0446 92.5001 14.0528Q92.3325 14.0611 92.1647 14.0611L6.83525 14.0611Q6.66746 14.0611 6.49986 14.0528Q6.33227 14.0446 6.16528 14.0282Q5.99829 14.0117 5.83231 13.9871Q5.66633 13.9625 5.50176 13.9297Q5.33719 13.897 5.17442 13.8562Q5.01165 13.8155 4.85108 13.7668Q4.69051 13.718 4.53253 13.6615Q4.37454 13.605 4.21951 13.5408Q4.06449 13.4766 3.91281 13.4048Q3.76112 13.3331 3.61314 13.254Q3.46515 13.1749 3.32123 13.0886Q3.17731 13.0024 3.03779 12.9091Q2.89827 12.8159 2.7635 12.716Q2.62872 12.616 2.49901 12.5095Q2.36931 12.4031 2.24498 12.2904Q2.12065 12.1777 2.002 12.0591Q1.88335 11.9404 1.77066 11.8161Q1.65798 11.6918 1.55153 11.5621Q1.44508 11.4324 1.34513 11.2976Q1.24517 11.1628 1.15195 11.0233Q1.05873 10.8838 0.972461 10.7398Q0.886196 10.5959 0.807098 10.4479Q0.727999 10.3 0.656257 10.1483Q0.584515 9.99659 0.520303 9.84156Q0.45609 9.68654 0.399561 9.52855Q0.343032 9.37056 0.294324 9.20999Q0.245615 9.04942 0.204844 8.88666Q0.164073 8.72389 0.131337 8.55932Q0.0986021 8.39474 0.0739813 8.22876Q0.0493605 8.06279 0.0329136 7.8958Q0.0164667 7.72881 0.00823336 7.56122Q0 7.39362 0 7.22583L0 7.22383Q0 7.05603 0.00823336 6.88844Q0.0164667 6.72084 0.0329136 6.55385Q0.0493605 6.38687 0.0739813 6.22089Q0.0986021 6.05491 0.131337 5.89033Q0.164073 5.72576 0.204844 5.56299Q0.245615 5.40023 0.294324 5.23966Q0.343032 5.07908 0.399561 4.9211Q0.45609 4.76311 0.520303 4.60809Q0.584515 4.45306 0.656257 4.30138Q0.727999 4.14969 0.807098 4.00171Q0.886196 3.85373 0.972461 3.7098Q1.05873 3.56588 1.15195 3.42636Q1.24517 3.28684 1.34513 3.15207Q1.44508 3.01729 1.55153 2.88759Q1.65798 2.75788 1.77066 2.63355Q1.88335 2.50922 2.002 2.39057Q2.12065 2.27192 2.24498 2.15924Q2.36931 2.04655 2.49901 1.9401Q2.62872 1.83365 2.7635 1.7337Q2.89827 1.63374 3.03779 1.54052Q3.17731 1.4473 3.32123 1.36103Q3.46515 1.27477 3.61314 1.19567Q3.76112 1.11657 3.91281 1.04483Q4.06449 0.973088 4.21951 0.908875Q4.37454 0.844662 4.53253 0.788134Q4.69051 0.731605 4.85108 0.682896Q5.01165 0.634188 5.17442 0.593417Q5.33719 0.552645 5.50176 0.51991Q5.66633 0.487175 5.83231 0.462554Q5.99829 0.437933 6.16528 0.421486Q6.33227 0.405039 6.49986 0.396806Q6.66746 0.388573 6.83525 0.388573Z" id="path_1" />
  </defs>
  <g filter="url(#filter_1)">
    <g id="9.-COEP-College" transform="translate(7 5)">
      <path d="M9.83783 19.753C9.83783 19.753 8.24906 18.0085 6.81162 16.6017C5.37417 15.1948 4.08804 14.1257 4.08804 14.1257L15.5876 14.1257L9.83783 19.753Z" id="Triangle" fill="#FFFFFF" fill-rule="evenodd" stroke="#ED1C24" stroke-width="1" />
      <g id="Rectangle">
        <use xlink:href="#path_1" fill="none" stroke="#ED1C24" stroke-width="2" />
        <use stroke="none" fill="#FFFFFF" xlink:href="#path_1" fill-rule="evenodd" />
      </g>
      <g id="COEP-COLLEGE" fill="#000000" fill-opacity="0.6392157" transform="translate(3.6652222 2.8293686)">
        <path d="M5.84034 5.87012L7.10157 6.27002Q6.81153 7.32471 6.13697 7.83667Q5.46241 8.34863 4.4253 8.34863Q3.1421 8.34863 2.31593 7.47192Q1.48975 6.59521 1.48975 5.07471Q1.48975 3.46631 2.32032 2.57642Q3.15089 1.68652 4.5044 1.68652Q5.68653 1.68652 6.42481 2.38525Q6.86427 2.79834 7.08399 3.57178L5.79639 3.87939Q5.68214 3.37842 5.31959 3.08838Q4.95704 2.79834 4.43848 2.79834Q3.72218 2.79834 3.27613 3.3125Q2.83009 3.82666 2.83009 4.97803Q2.83009 6.19971 3.26954 6.71826Q3.70899 7.23682 4.41212 7.23682Q4.93067 7.23682 5.30421 6.90723Q5.67774 6.57764 5.84034 5.87012ZM7.95411 5.05713Q7.95411 4.07275 8.24854 3.40479Q8.46827 2.9126 8.8484 2.52148Q9.22852 2.13037 9.68116 1.94141Q10.2832 1.68652 11.0698 1.68652Q12.4937 1.68652 13.3484 2.56982Q14.2031 3.45312 14.2031 5.02637Q14.2031 6.58643 13.355 7.46753Q12.5068 8.34863 11.0874 8.34863Q9.6504 8.34863 8.80225 7.47192Q7.95411 6.59521 7.95411 5.05713ZM35.1079 6.27002L33.8467 5.87012Q33.6841 6.57764 33.3106 6.90723Q32.937 7.23682 32.4185 7.23682Q31.7153 7.23682 31.2759 6.71826Q30.8364 6.19971 30.8364 4.97803Q30.8364 3.82666 31.2825 3.3125Q31.7285 2.79834 32.4448 2.79834Q32.9634 2.79834 33.3259 3.08838Q33.6885 3.37842 33.8027 3.87939L35.0903 3.57178Q34.8706 2.79834 34.4312 2.38525Q33.6929 1.68652 32.5107 1.68652Q31.1572 1.68652 30.3267 2.57642Q29.4961 3.46631 29.4961 5.07471Q29.4961 6.59521 30.3223 7.47192Q31.1484 8.34863 32.4316 8.34863Q33.4688 8.34863 34.1433 7.83667Q34.8179 7.32471 35.1079 6.27002ZM35.9605 5.05713Q35.9605 4.07275 36.2549 3.40479Q36.4746 2.9126 36.8547 2.52148Q37.2349 2.13037 37.6875 1.94141Q38.2896 1.68652 39.0762 1.68652Q40.5 1.68652 41.3547 2.56982Q42.2095 3.45312 42.2095 5.02637Q42.2095 6.58643 41.3613 7.46753Q40.5132 8.34863 39.0938 8.34863Q37.6567 8.34863 36.8086 7.47192Q35.9605 6.59521 35.9605 5.05713ZM63.2197 5.87012L63.2197 4.78467L66.0234 4.78467L66.0234 7.35107Q65.6148 7.74658 64.8391 8.04761Q64.0635 8.34863 63.2681 8.34863Q62.2573 8.34863 61.5059 7.92456Q60.7544 7.50049 60.3765 6.71167Q59.9985 5.92285 59.9985 4.99561Q59.9985 3.98926 60.4204 3.20703Q60.8423 2.4248 61.6553 2.00732Q62.2749 1.68652 63.1978 1.68652Q64.3975 1.68652 65.072 2.1897Q65.7466 2.69287 65.9399 3.58057L64.648 3.82227Q64.5117 3.34766 64.136 3.073Q63.7603 2.79834 63.1978 2.79834Q62.3452 2.79834 61.842 3.33887Q61.3389 3.87939 61.3389 4.94287Q61.3389 6.08984 61.8486 6.66333Q62.3584 7.23682 63.1846 7.23682Q63.5933 7.23682 64.0042 7.07642Q64.415 6.91602 64.7095 6.6875L64.7095 5.87012L63.2197 5.87012ZM15.2183 1.79639L15.2183 8.23877L20.1182 8.23877L20.1182 7.15332L16.5191 7.15332L16.5191 5.3999L19.7534 5.3999L19.7534 4.31445L16.5191 4.31445L16.5191 2.88623L19.9951 2.88623L19.9951 1.79639L15.2183 1.79639ZM21.2212 8.23877L21.2212 1.79639L23.3086 1.79639Q24.4951 1.79639 24.8555 1.89307Q25.4092 2.03809 25.7827 2.52368Q26.1563 3.00928 26.1563 3.77832Q26.1563 4.37158 25.9409 4.77588Q25.7256 5.18018 25.3938 5.41089Q25.062 5.6416 24.7192 5.71631Q24.2534 5.80859 23.3701 5.80859L22.522 5.80859L22.522 8.23877L21.2212 8.23877ZM54.2197 1.79639L54.2197 8.23877L59.1196 8.23877L59.1196 7.15332L55.5205 7.15332L55.5205 5.3999L58.7549 5.3999L58.7549 4.31445L55.5205 4.31445L55.5205 2.88623L58.9966 2.88623L58.9966 1.79639L54.2197 1.79639ZM67.2232 1.79639L67.2232 8.23877L72.1231 8.23877L72.1231 7.15332L68.5239 7.15332L68.5239 5.3999L71.7583 5.3999L71.7583 4.31445L68.5239 4.31445L68.5239 2.88623L72 2.88623L72 1.79639L67.2232 1.79639ZM43.2598 1.84912L43.2598 8.23877L47.7949 8.23877L47.7949 7.15332L44.5606 7.15332L44.5606 1.84912L43.2598 1.84912ZM48.7573 8.23877L48.7573 1.84912L50.0581 1.84912L50.0581 7.15332L53.2925 7.15332L53.2925 8.23877L48.7573 8.23877ZM9.29444 5.01318Q9.29444 6.10742 9.79981 6.67212Q10.3052 7.23682 11.083 7.23682Q11.8608 7.23682 12.3596 6.67651Q12.8584 6.11621 12.8584 4.99561Q12.8584 3.88818 12.3728 3.34326Q11.8872 2.79834 11.083 2.79834Q10.2788 2.79834 9.78663 3.34985Q9.29444 3.90137 9.29444 5.01318ZM37.3008 5.01318Q37.3008 6.10742 37.8062 6.67212Q38.3115 7.23682 39.0894 7.23682Q39.8672 7.23682 40.366 6.67651Q40.8648 6.11621 40.8648 4.99561Q40.8648 3.88818 40.3792 3.34326Q39.8936 2.79834 39.0894 2.79834Q38.2852 2.79834 37.793 3.34985Q37.3008 3.90137 37.3008 5.01318ZM22.522 2.88623L22.522 4.71436L23.2339 4.71436Q24.0029 4.71436 24.2622 4.61328Q24.5215 4.51221 24.6687 4.29688Q24.8159 4.08154 24.8159 3.7959Q24.8159 3.44434 24.6094 3.21582Q24.4028 2.9873 24.0864 2.93018Q23.8535 2.88623 23.1504 2.88623L22.522 2.88623Z" />
      </g>
      <g id="5-MIN" transform="translate(78.24213 0)">
        <g id="5" fill="#000000" fill-opacity="0.6392157">
          <path d="M5.31181 5.2168L6.26884 5.11768Q6.30985 5.44238 6.51151 5.63208Q6.71317 5.82178 6.97636 5.82178Q7.27714 5.82178 7.48563 5.57739Q7.69413 5.33301 7.69413 4.84082Q7.69413 4.37939 7.48734 4.14868Q7.28056 3.91797 6.94901 3.91797Q6.53544 3.91797 6.20731 4.28369L5.42802 4.1709L5.9202 1.56299L8.45975 1.56299L8.45975 2.46191L6.64823 2.46191L6.49784 3.31299Q6.81913 3.15234 7.15409 3.15234Q7.79325 3.15234 8.23759 3.61719Q8.68192 4.08203 8.68192 4.82373Q8.68192 5.44238 8.32304 5.92773Q7.83427 6.59082 6.9661 6.59082Q6.27225 6.59082 5.83475 6.21826Q5.39725 5.8457 5.31181 5.2168Z" />
        </g>
        <g id="MIN" fill="#000000" fill-opacity="0.6392157">
          <path d="M1.87309 13.6592L1.87309 9.36426L3.17094 9.36426L3.95023 12.2939L4.72074 9.36426L6.02152 9.36426L6.02152 13.6592L5.21586 13.6592L5.21586 10.2783L4.36332 13.6592L3.52836 13.6592L2.67875 10.2783L2.67875 13.6592L1.87309 13.6592ZM6.85648 13.6592L6.85648 9.36426L7.72367 9.36426L7.72367 13.6592L6.85648 13.6592ZM8.55863 9.36426L8.55863 13.6592L9.3643 13.6592L9.3643 10.8584L11.0957 13.6592L11.9659 13.6592L11.9659 9.36426L11.1602 9.36426L11.1602 12.2324L9.40238 9.36426L8.55863 9.36426Z" />
        </g>
      </g>
      <path d="M8.99994 20.9884C8.99994 20.5119 9.38874 20.1257 9.86835 20.1257C10.348 20.1257 10.7368 20.5119 10.7368 20.9884C10.7368 21.4649 10.348 21.8512 9.86835 21.8512C9.38874 21.8512 8.99994 21.4649 8.99994 20.9884Z" id="Ellipse" fill="#D3D3D3" fill-rule="evenodd" stroke="#ED1C24" stroke-width="1" />
    </g>
  </g>
</svg>