<?xml version="1.0" encoding="utf-8"?>
<svg width="123px" height="36px" viewBox="0 0 123 36" version="1.1" xmlns:xlink="http://www.w3.org/1999/xlink" xmlns="http://www.w3.org/2000/svg">
  <defs>
    <filter filterUnits="userSpaceOnUse" color-interpolation-filters="sRGB" id="filter_1">
      <feFlood flood-opacity="0" result="BackgroundImageFix" />
      <feColorMatrix in="SourceAlpha" type="matrix" values="0 0 0 0 0 0 0 0 0 0 0 0 0 0 0 0 0 0 127 0" />
      <feOffset dx="0" dy="2" />
      <feGaussianBlur stdDeviation="2" />
      <feColorMatrix type="matrix" values="0 0 0 0 0.39215687 0 0 0 0 0.39215687 0 0 0 0 0.39215687 0 0 0 0.49803922 0" />
      <feBlend mode="normal" in2="BackgroundImageFix" result="effect0_dropShadow" />
      <feBlend mode="normal" in="SourceGraphic" in2="effect0_dropShadow" result="shape" />
    </filter>
    <path d="M6.83525 0.237335L100.165 0.237335Q100.333 0.237335 100.5 0.245569Q100.668 0.253802 100.835 0.270249Q101.002 0.286696 101.168 0.311317Q101.334 0.335937 101.498 0.368673Q101.663 0.401408 101.826 0.442179Q101.988 0.48295 102.149 0.531659Q102.309 0.580368 102.467 0.636896Q102.625 0.693425 102.78 0.757638Q102.935 0.821851 103.087 0.893593Q103.239 0.965335 103.387 1.04443Q103.535 1.12353 103.679 1.2098Q103.823 1.29606 103.962 1.38928Q104.102 1.48251 104.236 1.58246Q104.371 1.68242 104.501 1.78887Q104.631 1.89531 104.755 2.008Q104.879 2.12068 104.998 2.23933Q105.117 2.35798 105.229 2.48231Q105.342 2.60664 105.448 2.73635Q105.555 2.86606 105.655 3.00083Q105.755 3.13561 105.848 3.27512Q105.941 3.41464 106.028 3.55857Q106.114 3.70249 106.193 3.85047Q106.272 3.99845 106.344 4.15014Q106.415 4.30183 106.48 4.45685Q106.544 4.61187 106.6 4.76986Q106.657 4.92785 106.706 5.08842Q106.754 5.24899 106.795 5.41176Q106.836 5.57452 106.869 5.7391Q106.901 5.90367 106.926 6.06965Q106.951 6.23563 106.967 6.40262Q106.984 6.5696 106.992 6.7372Q107 6.90479 107 7.07259L107 7.07459Q107 7.24238 106.992 7.40998Q106.984 7.57757 106.967 7.74456Q106.951 7.91155 106.926 8.07753Q106.901 8.24351 106.869 8.40808Q106.836 8.57265 106.795 8.73542Q106.754 8.89818 106.706 9.05876Q106.657 9.21933 106.6 9.37731Q106.544 9.5353 106.48 9.69032Q106.415 9.84535 106.344 9.99703Q106.272 10.1487 106.193 10.2967Q106.114 10.4447 106.028 10.5886Q105.941 10.7325 105.848 10.872Q105.755 11.0116 105.655 11.1463Q105.555 11.2811 105.448 11.4108Q105.342 11.5405 105.229 11.6649Q105.117 11.7892 104.998 11.9078Q104.879 12.0265 104.755 12.1392Q104.631 12.2519 104.501 12.3583Q104.371 12.4648 104.236 12.5647Q104.102 12.6647 103.962 12.7579Q103.823 12.8511 103.679 12.9374Q103.535 13.0236 103.387 13.1027Q103.239 13.1818 103.087 13.2536Q102.935 13.3253 102.78 13.3895Q102.625 13.4537 102.467 13.5103Q102.309 13.5668 102.149 13.6155Q101.988 13.6642 101.826 13.705Q101.663 13.7458 101.498 13.7785Q101.334 13.8112 101.168 13.8359Q101.002 13.8605 100.835 13.8769Q100.668 13.8934 100.5 13.9016Q100.333 13.9098 100.165 13.9098L6.83525 13.9098Q6.66746 13.9098 6.49986 13.9016Q6.33227 13.8934 6.16528 13.8769Q5.99829 13.8605 5.83231 13.8359Q5.66633 13.8112 5.50176 13.7785Q5.33719 13.7458 5.17442 13.705Q5.01165 13.6642 4.85108 13.6155Q4.69051 13.5668 4.53253 13.5103Q4.37454 13.4537 4.21951 13.3895Q4.06449 13.3253 3.91281 13.2536Q3.76112 13.1818 3.61314 13.1027Q3.46515 13.0236 3.32123 12.9374Q3.17731 12.8511 3.03779 12.7579Q2.89827 12.6647 2.7635 12.5647Q2.62872 12.4648 2.49901 12.3583Q2.36931 12.2519 2.24498 12.1392Q2.12065 12.0265 2.002 11.9078Q1.88335 11.7892 1.77066 11.6649Q1.65798 11.5405 1.55153 11.4108Q1.44508 11.2811 1.34513 11.1463Q1.24517 11.0116 1.15195 10.872Q1.05873 10.7325 0.972461 10.5886Q0.886196 10.4447 0.807098 10.2967Q0.727999 10.1487 0.656257 9.99703Q0.584515 9.84535 0.520303 9.69032Q0.45609 9.5353 0.399561 9.37731Q0.343032 9.21933 0.294324 9.05876Q0.245615 8.89818 0.204844 8.73542Q0.164073 8.57265 0.131337 8.40808Q0.0986021 8.24351 0.0739813 8.07753Q0.0493605 7.91155 0.0329136 7.74456Q0.0164667 7.57757 0.00823336 7.40998Q0 7.24238 0 7.07459L0 7.07259Q0 6.90479 0.00823336 6.7372Q0.0164667 6.5696 0.0329136 6.40262Q0.0493605 6.23563 0.0739813 6.06965Q0.0986021 5.90367 0.131337 5.7391Q0.164073 5.57452 0.204844 5.41176Q0.245615 5.24899 0.294324 5.08842Q0.343032 4.92785 0.399561 4.76986Q0.45609 4.61187 0.520303 4.45685Q0.584515 4.30183 0.656257 4.15014Q0.727999 3.99845 0.807098 3.85047Q0.886196 3.70249 0.972461 3.55857Q1.05873 3.41464 1.15195 3.27512Q1.24517 3.13561 1.34513 3.00083Q1.44508 2.86606 1.55153 2.73635Q1.65798 2.60664 1.77066 2.48231Q1.88335 2.35798 2.002 2.23933Q2.12065 2.12068 2.24498 2.008Q2.36931 1.89531 2.49901 1.78887Q2.62872 1.68242 2.7635 1.58246Q2.89827 1.48251 3.03779 1.38928Q3.17731 1.29606 3.32123 1.2098Q3.46515 1.12353 3.61314 1.04443Q3.76112 0.965335 3.91281 0.893593Q4.06449 0.821851 4.21951 0.757638Q4.37454 0.693425 4.53253 0.636896Q4.69051 0.580368 4.85108 0.531659Q5.01165 0.48295 5.17442 0.442179Q5.33719 0.401408 5.50176 0.368673Q5.66633 0.335937 5.83231 0.311317Q5.99829 0.286696 6.16528 0.270249Q6.33227 0.253802 6.49986 0.245569Q6.66746 0.237335 6.83525 0.237335L6.83525 0.237335Z" id="path_1" />
  </defs>
  <g filter="url(#filter_1)">
    <g id="9.-COEP-College" transform="translate(7 5)">
      <path d="M10.8378 19.6018C10.8378 19.6018 9.24906 17.8573 7.81162 16.4504C6.37417 15.0436 5.08804 13.9744 5.08804 13.9744L16.5876 13.9744L10.8378 19.6018Z" id="Triangle" fill="#FFFFFF" fill-rule="evenodd" stroke="#FFC600" stroke-width="1" />
      <g id="Rectangle">
        <use xlink:href="#path_1" fill="none" stroke="#FFC600" stroke-width="2" />
        <use stroke="none" fill="#FFFFFF" xlink:href="#path_1" fill-rule="evenodd" />
      </g>
      <g id="2-MIN--COEP-COLLEGE--" fill="#000000" fill-opacity="0.6392157" transform="translate(2.999878 2.9411316)">
        <path d="M35.5386 6.25244L34.2773 5.85254Q34.1147 6.56006 33.7412 6.88965Q33.3677 7.21924 32.8491 7.21924Q32.146 7.21924 31.7065 6.70068Q31.2671 6.18213 31.2671 4.96045Q31.2671 3.80908 31.7131 3.29492Q32.1592 2.78076 32.8755 2.78076Q33.394 2.78076 33.7566 3.0708Q34.1191 3.36084 34.2334 3.86182L35.521 3.5542Q35.3013 2.78076 34.8618 2.36768Q34.1235 1.66895 32.9414 1.66895Q31.5879 1.66895 30.7573 2.55884Q29.9268 3.44873 29.9268 5.05713Q29.9268 6.57764 30.7529 7.45435Q31.5791 8.33105 32.8623 8.33105Q33.8994 8.33105 34.574 7.81909Q35.2485 7.30713 35.5386 6.25244ZM36.3911 5.03955Q36.3911 4.05518 36.6855 3.38721Q36.9053 2.89502 37.2854 2.50391Q37.6655 2.11279 38.1182 1.92383Q38.7202 1.66895 39.5068 1.66895Q40.9307 1.66895 41.7854 2.55225Q42.6401 3.43555 42.6401 5.00879Q42.6401 6.56885 41.792 7.44995Q40.9438 8.33105 39.5244 8.33105Q38.0874 8.33105 37.2393 7.45435Q36.3911 6.57764 36.3911 5.03955ZM63.5449 6.25244L62.2837 5.85254Q62.1211 6.56006 61.7476 6.88965Q61.374 7.21924 60.8555 7.21924Q60.1523 7.21924 59.7129 6.70068Q59.2734 6.18213 59.2734 4.96045Q59.2734 3.80908 59.7195 3.29492Q60.1655 2.78076 60.8818 2.78076Q61.4004 2.78076 61.7629 3.0708Q62.1255 3.36084 62.2397 3.86182L63.5273 3.5542Q63.3076 2.78076 62.8682 2.36768Q62.1299 1.66895 60.9478 1.66895Q59.5942 1.66895 58.7637 2.55884Q57.9331 3.44873 57.9331 5.05713Q57.9331 6.57764 58.7593 7.45435Q59.5854 8.33105 60.8687 8.33105Q61.9058 8.33105 62.5803 7.81909Q63.2549 7.30713 63.5449 6.25244ZM64.3975 5.03955Q64.3975 4.05518 64.6919 3.38721Q64.9116 2.89502 65.2917 2.50391Q65.6719 2.11279 66.1245 1.92383Q66.7266 1.66895 67.5132 1.66895Q68.937 1.66895 69.7917 2.55225Q70.6465 3.43555 70.6465 5.00879Q70.6465 6.56885 69.7983 7.44995Q68.9502 8.33105 67.5308 8.33105Q66.0938 8.33105 65.2456 7.45435Q64.3975 6.57764 64.3975 5.03955ZM91.6567 5.85254L91.6567 4.76709L94.4604 4.76709L94.4604 7.3335Q94.0518 7.729 93.2761 8.03003Q92.5005 8.33105 91.7051 8.33105Q90.6943 8.33105 89.9429 7.90698Q89.1914 7.48291 88.8135 6.69409Q88.4355 5.90527 88.4355 4.97803Q88.4355 3.97168 88.8574 3.18945Q89.2793 2.40723 90.0923 1.98975Q90.7119 1.66895 91.6348 1.66895Q92.8345 1.66895 93.509 2.17212Q94.1836 2.67529 94.377 3.56299L93.085 3.80469Q92.9487 3.33008 92.573 3.05542Q92.1973 2.78076 91.6348 2.78076Q90.7822 2.78076 90.2791 3.32129Q89.7759 3.86182 89.7759 4.92529Q89.7759 6.07227 90.2856 6.64575Q90.7954 7.21924 91.6216 7.21924Q92.0303 7.21924 92.4412 7.05884Q92.8521 6.89844 93.1465 6.66992L93.1465 5.85254L91.6567 5.85254ZM4.55273 8.22119L4.55273 7.07422L2.10059 7.07422Q2.19727 6.90723 2.35327 6.73145Q2.50928 6.55566 3.09375 6.01953Q3.67822 5.4834 3.90234 5.19775Q4.24072 4.76709 4.39673 4.37378Q4.55273 3.98047 4.55273 3.54541Q4.55273 2.78076 4.00781 2.2666Q3.46289 1.75244 2.50928 1.75244Q1.63916 1.75244 1.05908 2.19629Q0.479004 2.64014 0.369141 3.65967L1.59961 3.78271Q1.63477 3.24219 1.86328 3.00928Q2.0918 2.77637 2.47852 2.77637Q2.86963 2.77637 3.09155 2.99829Q3.31348 3.22021 3.31348 3.6333Q3.31348 4.00684 3.05859 4.38916Q2.86963 4.66602 2.03467 5.44385Q0.997559 6.40625 0.645996 6.98853Q0.294434 7.5708 0.224121 8.22119L4.55273 8.22119ZM8.63965 8.22119L8.63965 1.77881L10.5864 1.77881L11.7554 6.17334L12.9111 1.77881L14.8623 1.77881L14.8623 8.22119L13.6538 8.22119L13.6538 3.1499L12.375 8.22119L11.1226 8.22119L9.84814 3.1499L9.84814 8.22119L8.63965 8.22119ZM16.1147 1.77881L16.1147 8.22119L17.4155 8.22119L17.4155 1.77881L16.1147 1.77881ZM18.668 8.22119L18.668 1.77881L19.9336 1.77881L22.5703 6.08105L22.5703 1.77881L23.7788 1.77881L23.7788 8.22119L22.4736 8.22119L19.8765 4.02002L19.8765 8.22119L18.668 8.22119ZM43.6553 1.77881L43.6553 8.22119L48.5552 8.22119L48.5552 7.13574L44.9561 7.13574L44.9561 5.38232L48.1904 5.38232L48.1904 4.29688L44.9561 4.29688L44.9561 2.86865L48.4321 2.86865L48.4321 1.77881L43.6553 1.77881ZM49.6582 8.22119L49.6582 1.77881L51.7456 1.77881Q52.9321 1.77881 53.2925 1.87549Q53.8462 2.02051 54.2197 2.5061Q54.5933 2.9917 54.5933 3.76074Q54.5933 4.354 54.3779 4.7583Q54.1626 5.1626 53.8308 5.39331Q53.499 5.62402 53.1562 5.69873Q52.6904 5.79102 51.8071 5.79102L50.959 5.79102L50.959 8.22119L49.6582 8.22119ZM82.6567 1.77881L82.6567 8.22119L87.5566 8.22119L87.5566 7.13574L83.9575 7.13574L83.9575 5.38232L87.1919 5.38232L87.1919 4.29688L83.9575 4.29688L83.9575 2.86865L87.4336 2.86865L87.4336 1.77881L82.6567 1.77881ZM95.6602 1.77881L95.6602 8.22119L100.56 8.22119L100.56 7.13574L96.9609 7.13574L96.9609 5.38232L100.195 5.38232L100.195 4.29688L96.9609 4.29688L96.9609 2.86865L100.437 2.86865L100.437 1.77881L95.6602 1.77881ZM71.6968 1.83154L71.6968 8.22119L76.2319 8.22119L76.2319 7.13574L72.9976 7.13574L72.9976 1.83154L71.6968 1.83154ZM77.1943 8.22119L77.1943 1.83154L78.4951 1.83154L78.4951 7.13574L81.7295 7.13574L81.7295 8.22119L77.1943 8.22119ZM37.7314 4.99561Q37.7314 6.08984 38.2368 6.65454Q38.7422 7.21924 39.52 7.21924Q40.2979 7.21924 40.7966 6.65894Q41.2954 6.09863 41.2954 4.97803Q41.2954 3.87061 40.8098 3.32568Q40.3242 2.78076 39.52 2.78076Q38.7158 2.78076 38.2236 3.33228Q37.7314 3.88379 37.7314 4.99561ZM65.7378 4.99561Q65.7378 6.08984 66.2432 6.65454Q66.7485 7.21924 67.5264 7.21924Q68.3042 7.21924 68.803 6.65894Q69.3018 6.09863 69.3018 4.97803Q69.3018 3.87061 68.8162 3.32568Q68.3306 2.78076 67.5264 2.78076Q66.7222 2.78076 66.23 3.33228Q65.7378 3.88379 65.7378 4.99561ZM50.959 4.69678L51.6709 4.69678Q52.4399 4.69678 52.6992 4.5957Q52.9585 4.49463 53.1057 4.2793Q53.2529 4.06396 53.2529 3.77832Q53.2529 3.42676 53.0464 3.19824Q52.8398 2.96973 52.5234 2.9126Q52.2905 2.86865 51.5874 2.86865L50.959 2.86865L50.959 4.69678ZM5.51074 5.26807L5.51074 6.50293L7.93652 6.50293L7.93652 5.26807L5.51074 5.26807Z" />
      </g>
      <path d="M9.99994 20.8372C9.99994 20.3607 10.3887 19.9744 10.8684 19.9744C11.348 19.9744 11.7368 20.3607 11.7368 20.8372C11.7368 21.3137 11.348 21.7 10.8684 21.7C10.3887 21.7 9.99994 21.3137 9.99994 20.8372Z" id="Ellipse" fill="#D3D3D3" fill-rule="evenodd" stroke="#FFC600" stroke-width="1" />
      <path d="M30.0001 0L30.0001 14.1" id="Line" fill="none" fill-rule="evenodd" stroke="#FFC600" stroke-width="1" stroke-linecap="square" />
    </g>
  </g>
</svg>