<?xml version="1.0" encoding="utf-8"?>
<svg width="95px" height="45px" viewBox="0 0 95 45" version="1.1" xmlns:xlink="http://www.w3.org/1999/xlink" xmlns="http://www.w3.org/2000/svg">
  <defs>
    <filter filterUnits="userSpaceOnUse" color-interpolation-filters="sRGB" id="filter_1">
      <feFlood flood-opacity="0" result="BackgroundImageFix" />
      <feColorMatrix in="SourceAlpha" type="matrix" values="0 0 0 0 0 0 0 0 0 0 0 0 0 0 0 0 0 0 127 0" />
      <feOffset dx="0" dy="2" />
      <feGaussianBlur stdDeviation="2" />
      <feColorMatrix type="matrix" values="0 0 0 0 0.39215687 0 0 0 0 0.39215687 0 0 0 0 0.39215687 0 0 0 0.49803922 0" />
      <feBlend mode="normal" in2="BackgroundImageFix" result="effect0_dropShadow" />
      <feBlend mode="normal" in="SourceGraphic" in2="effect0_dropShadow" result="shape" />
    </filter>
    <path d="M7.14139 0.700012L73.8586 0.700012Q74.0339 0.700012 74.209 0.708614Q74.3841 0.717216 74.5586 0.7344Q74.733 0.751584 74.9065 0.777307Q75.0799 0.803031 75.2518 0.837232Q75.4238 0.871434 75.5938 0.914031Q75.7639 0.956628 75.9316 1.00752Q76.0994 1.05841 76.2645 1.11747Q76.4295 1.17653 76.5915 1.24362Q76.7534 1.31071 76.9119 1.38566Q77.0704 1.46062 77.225 1.54326Q77.3796 1.6259 77.53 1.71603Q77.6804 1.80616 77.8261 1.90355Q77.9719 2.00095 78.1127 2.10538Q78.2535 2.20982 78.3891 2.32103Q78.5246 2.43225 78.6545 2.54998Q78.7844 2.66771 78.9083 2.79168Q79.0323 2.91564 79.15 3.04554Q79.2678 3.17544 79.379 3.31095Q79.4902 3.44647 79.5946 3.58728Q79.699 3.72809 79.7964 3.87386Q79.8939 4.01963 79.984 4.17Q80.0741 4.32037 80.1567 4.47498Q80.2394 4.62959 80.3143 4.78807Q80.3893 4.94655 80.4564 5.10851Q80.5235 5.27048 80.5825 5.43554Q80.6416 5.60061 80.6925 5.76837Q80.7434 5.93613 80.786 6.10619Q80.8286 6.27625 80.8628 6.44819Q80.897 6.62013 80.9227 6.79355Q80.9484 6.96696 80.9656 7.14143Q80.9828 7.31589 80.9914 7.49099Q81 7.66609 81 7.84141L81 7.84341Q81 8.01872 80.9914 8.19382Q80.9828 8.36892 80.9656 8.54339Q80.9484 8.71785 80.9227 8.89127Q80.897 9.06468 80.8628 9.23662Q80.8286 9.40856 80.786 9.57862Q80.7434 9.74868 80.6925 9.91644Q80.6416 10.0842 80.5825 10.2493Q80.5235 10.4143 80.4564 10.5763Q80.3893 10.7383 80.3143 10.8967Q80.2394 11.0552 80.1567 11.2098Q80.0741 11.3644 79.984 11.5148Q79.8939 11.6652 79.7964 11.811Q79.699 11.9567 79.5946 12.0975Q79.4902 12.2383 79.379 12.3739Q79.2678 12.5094 79.15 12.6393Q79.0323 12.7692 78.9083 12.8931Q78.7844 13.0171 78.6545 13.1348Q78.5246 13.2526 78.3891 13.3638Q78.2535 13.475 78.1127 13.5794Q77.9719 13.6839 77.8261 13.7813Q77.6804 13.8787 77.53 13.9688Q77.3796 14.0589 77.225 14.1416Q77.0704 14.2242 76.9119 14.2991Q76.7535 14.3741 76.5915 14.4412Q76.4295 14.5083 76.2645 14.5673Q76.0994 14.6264 75.9316 14.6773Q75.7639 14.7282 75.5938 14.7708Q75.4238 14.8134 75.2518 14.8476Q75.0799 14.8818 74.9065 14.9075Q74.733 14.9332 74.5586 14.9504Q74.3841 14.9676 74.209 14.9762Q74.0339 14.9848 73.8586 14.9848L7.14139 14.9848Q6.96608 14.9848 6.79098 14.9762Q6.61588 14.9676 6.44142 14.9504Q6.26695 14.9332 6.09353 14.9075Q5.92012 14.8818 5.74818 14.8476Q5.57623 14.8134 5.40618 14.7708Q5.23612 14.7282 5.06836 14.6773Q4.90059 14.6264 4.73553 14.5673Q4.57047 14.5083 4.4085 14.4412Q4.24653 14.3741 4.08805 14.2991Q3.92957 14.2242 3.77496 14.1416Q3.62035 14.0589 3.46998 13.9688Q3.31961 13.8787 3.17385 13.7813Q3.02808 13.6839 2.88727 13.5794Q2.74646 13.475 2.61094 13.3638Q2.47542 13.2526 2.34553 13.1348Q2.21563 13.0171 2.09167 12.8931Q1.9677 12.7692 1.84997 12.6393Q1.73224 12.5094 1.62102 12.3739Q1.50981 12.2383 1.40537 12.0975Q1.30094 11.9567 1.20354 11.811Q1.10614 11.6652 1.01602 11.5148Q0.925888 11.3644 0.843247 11.2098Q0.760606 11.0552 0.68565 10.8967Q0.610695 10.7383 0.543606 10.5763Q0.476517 10.4143 0.417457 10.2493Q0.358396 10.0842 0.307506 9.91644Q0.256616 9.74868 0.214019 9.57862Q0.171421 9.40856 0.13722 9.23662Q0.103018 9.06468 0.0772948 8.89127Q0.0515713 8.71785 0.0343878 8.54339Q0.0172042 8.36892 0.00860212 8.19382Q0 8.01872 0 7.84341L0 7.84141Q0 7.66609 0.00860212 7.49099Q0.0172042 7.31589 0.0343878 7.14143Q0.0515713 6.96696 0.0772948 6.79355Q0.103018 6.62013 0.13722 6.44819Q0.171421 6.27625 0.214019 6.10619Q0.256616 5.93613 0.307506 5.76837Q0.358396 5.60061 0.417457 5.43554Q0.476517 5.27048 0.543606 5.10851Q0.610695 4.94655 0.68565 4.78807Q0.760606 4.62959 0.843247 4.47498Q0.925888 4.32037 1.01602 4.17Q1.10614 4.01963 1.20354 3.87386Q1.30094 3.72809 1.40537 3.58728Q1.50981 3.44647 1.62102 3.31095Q1.73224 3.17544 1.84997 3.04554Q1.9677 2.91564 2.09167 2.79168Q2.21563 2.66771 2.34553 2.54998Q2.47542 2.43225 2.61094 2.32103Q2.74646 2.20982 2.88727 2.10538Q3.02808 2.00095 3.17385 1.90355Q3.31961 1.80616 3.46998 1.71603Q3.62035 1.6259 3.77496 1.54326Q3.92957 1.46062 4.08805 1.38566Q4.24653 1.31071 4.4085 1.24362Q4.57047 1.17653 4.73553 1.11747Q4.90059 1.05841 5.06836 1.00752Q5.23612 0.956628 5.40618 0.914031Q5.57623 0.871434 5.74818 0.837232Q5.92012 0.803031 6.09353 0.777307Q6.26695 0.751584 6.44142 0.7344Q6.61588 0.717216 6.79098 0.708614Q6.96608 0.700012 7.14139 0.700012L7.14139 0.700012Z" id="path_1" />
  </defs>
  <g filter="url(#filter_1)">
    <g id="1.-D-Mart" transform="translate(7 5)">
      <path d="M16 24.1317L6.50003 14.9787L25.5 14.9787L16 24.1317Z" id="Triangle" fill="#FFFFFF" fill-rule="evenodd" stroke="#ED1C24" stroke-width="1" />
      <g id="Rectangle">
        <use xlink:href="#path_1" fill="none" stroke="#ED1C24" stroke-width="2" />
        <use stroke="none" fill="#FFFFFF" xlink:href="#path_1" fill-rule="evenodd" />
      </g>
      <g id="D-MART" fill="#000000" fill-opacity="0.6392157" transform="translate(26 2.0805054)">
        <path d="M6.51221 2.58447L3.60645 2.58447L3.60645 10.4585L6.59814 10.4585Q7.479 10.4585 8.00537 10.292Q8.70898 10.0664 9.12256 9.66357Q9.67041 9.13184 9.96582 8.27246Q10.2075 7.56885 10.2075 6.59668Q10.2075 5.49023 9.94971 4.7356Q9.69189 3.98096 9.19775 3.45996Q8.70361 2.93896 8.01074 2.73486Q7.49512 2.58447 6.51221 2.58447ZM15.1973 10.4585L15.1973 2.58447L17.5767 2.58447L19.0054 7.95557L20.418 2.58447L22.8027 2.58447L22.8027 10.4585L21.3257 10.4585L21.3257 4.26025L19.7627 10.4585L18.2319 10.4585L16.6743 4.26025L16.6743 10.4585L15.1973 10.4585ZM29.7529 10.4585L31.4824 10.4585L28.3296 2.58447L26.6484 2.58447L23.5815 10.4585L25.2681 10.4585L25.918 8.66992L29.0654 8.66992L29.7529 10.4585ZM32.3311 10.4585L32.3311 2.58447L35.6772 2.58447Q36.9395 2.58447 37.5115 2.79663Q38.0835 3.00879 38.4272 3.55127Q38.771 4.09375 38.771 4.79199Q38.771 5.67822 38.25 6.25562Q37.729 6.83301 36.6924 6.9834Q37.208 7.28418 37.5437 7.64404Q37.8794 8.00391 38.4487 8.92236L39.4102 10.4585L37.5088 10.4585L36.3594 8.74512Q35.7471 7.82666 35.5215 7.58765Q35.2959 7.34863 35.0435 7.26001Q34.791 7.17139 34.2432 7.17139L33.9209 7.17139L33.9209 10.4585L32.3311 10.4585ZM42.042 3.9165L42.042 10.4585L43.6318 10.4585L43.6318 3.9165L45.9629 3.9165L45.9629 2.58447L39.7056 2.58447L39.7056 3.9165L42.042 3.9165ZM5.19629 9.13184L5.19629 3.9165L5.91064 3.9165Q6.88281 3.9165 7.21582 3.9917Q7.66162 4.08838 7.95166 4.3623Q8.2417 4.63623 8.40283 5.125Q8.56396 5.61377 8.56396 6.52686Q8.56396 7.43994 8.40283 7.96899Q8.2417 8.49805 7.98657 8.729Q7.73145 8.95996 7.34473 9.05664Q7.04932 9.13184 6.3833 9.13184L5.19629 9.13184ZM33.9209 5.91455L35.0972 5.91455Q36.2412 5.91455 36.5259 5.81787Q36.8105 5.72119 36.9717 5.48486Q37.1328 5.24854 37.1328 4.89404Q37.1328 4.49658 36.9207 4.2522Q36.7085 4.00781 36.3218 3.94336Q36.1284 3.9165 35.1616 3.9165L33.9209 3.9165L33.9209 5.91455ZM27.4702 4.42139L28.5552 7.34326L26.4067 7.34326L27.4702 4.42139ZM11.373 6.84912L11.373 8.3584L14.3379 8.3584L14.3379 6.84912L11.373 6.84912Z" />
      </g>
      <g id="2-MIN" transform="translate(7 0)">
        <g id="2" fill="#000000" fill-opacity="0.6392157">
          <path d="M9.59448 5.61328L9.59448 6.50537L6.22778 6.50537Q6.28247 5.99951 6.55591 5.54663Q6.82935 5.09375 7.63599 4.34521Q8.2854 3.74023 8.43237 3.5249Q8.63062 3.22754 8.63062 2.93701Q8.63062 2.61572 8.45801 2.44312Q8.2854 2.27051 7.9812 2.27051Q7.68042 2.27051 7.50269 2.45166Q7.32495 2.63281 7.29761 3.05322L6.34058 2.95752Q6.42603 2.16455 6.8772 1.81934Q7.32837 1.47412 8.00513 1.47412Q8.74683 1.47412 9.17065 1.87402Q9.59448 2.27393 9.59448 2.86865Q9.59448 3.20703 9.47314 3.51294Q9.35181 3.81885 9.08862 4.15381Q8.91431 4.37598 8.45972 4.79297Q8.00513 5.20996 7.88379 5.34668Q7.76245 5.4834 7.68726 5.61328L9.59448 5.61328Z" />
        </g>
        <g id="MIN" fill="#000000" fill-opacity="0.6392157">
          <path d="M2.92578 13.6592L2.92578 9.36426L4.22363 9.36426L5.00293 12.2939L5.77344 9.36426L7.07422 9.36426L7.07422 13.6592L6.26855 13.6592L6.26855 10.2783L5.41602 13.6592L4.58105 13.6592L3.73145 10.2783L3.73145 13.6592L2.92578 13.6592ZM7.90918 13.6592L7.90918 9.36426L8.77637 9.36426L8.77637 13.6592L7.90918 13.6592ZM9.61133 9.36426L9.61133 13.6592L10.417 13.6592L10.417 10.8584L12.1484 13.6592L13.0186 13.6592L13.0186 9.36426L12.2129 9.36426L12.2129 12.2324L10.4551 9.36426L9.61133 9.36426Z" />
        </g>
      </g>
      <path d="M15 29.8848C15 29.3793 15.4477 28.9695 16 28.9695C16.5523 28.9695 17 29.3793 17 29.8848C17 30.3902 16.5523 30.8 16 30.8C15.4477 30.8 15 30.3902 15 29.8848Z" id="Ellipse" fill="#D3D3D3" fill-rule="evenodd" stroke="#ED1C24" stroke-width="1" />
      <path d="M16 29L16 24.1305" id="Line" fill="none" fill-rule="evenodd" stroke="#ED1C24" stroke-width="1" stroke-linecap="square" />
    </g>
  </g>
</svg>