<svg xmlns="http://www.w3.org/2000/svg" width="3750" viewBox="0 0 3750 1875" height="1875" version="1.0"><defs><clipPath id="a"><path d="M 1369 1186 L 1738 1186 L 1738 1350 L 1369 1350 Z M 1369 1186"/></clipPath><clipPath id="b"><path d="M 1366.0625 1346.320312 L 1369.121094 1186.597656 L 1738.054688 1193.660156 L 1734.996094 1353.378906 Z M 1366.0625 1346.320312"/></clipPath><clipPath id="c"><path d="M 1366.0625 1346.320312 L 1369.121094 1186.597656 L 1738.054688 1193.660156 L 1734.996094 1353.378906 Z M 1366.0625 1346.320312"/></clipPath></defs><path fill="#FF1616" d="M 1370.054688 914.195312 L 2370.949219 914.195312 L 2370.949219 1251.351562 L 1370.054688 1251.351562 L 1370.054688 914.195312"/><path fill="#77838D" d="M 1370.054688 1254.148438 L 1367.261719 1254.148438 L 1367.261719 911.398438 L 2373.746094 911.398438 L 2373.746094 1254.148438 L 1370.054688 1254.148438 M 1372.851562 916.988281 L 1372.851562 1248.558594 L 2368.15625 1248.558594 L 2368.15625 916.988281 L 1372.851562 916.988281"/><path fill="#FFF" d="M 1428.742188 973.453125 L 2311.707031 973.453125 L 2311.707031 1192.652344 L 1428.742188 1192.652344 L 1428.742188 973.453125"/><path fill="#FF1616" d="M 2376.226562 914.195312 L 3171.628906 914.195312 L 3171.628906 1251.351562 L 2376.226562 1251.351562 L 2376.226562 914.195312"/><path fill="#77838D" d="M 2376.226562 1254.148438 L 2373.433594 1254.148438 L 2373.433594 911.398438 L 3174.421875 911.398438 L 3174.421875 1254.148438 L 2376.226562 1254.148438 M 2379.019531 916.988281 L 2379.019531 1248.558594 L 3168.832031 1248.558594 L 3168.832031 916.988281 L 2379.019531 916.988281"/><path fill="#FFF" d="M 2434.886719 973.453125 L 3112.40625 973.453125 L 3112.40625 1192.652344 L 2434.886719 1192.652344 L 2434.886719 973.453125"/><g clip-path="url(#a)"><g clip-path="url(#b)"><g clip-path="url(#c)"><path fill="#FF1616" d="M 1550.523438 1349.847656 L 1737.789062 1193.652344 L 1369.386719 1186.605469 Z M 1550.523438 1349.847656"/></g></g></g><g><g><g><path d="M 98.609375 0 L 5.359375 0 L 5.359375 -22.859375 L 36.734375 -54.578125 C 45.703125 -63.953125 51.5625 -70.351562 54.3125 -73.78125 C 57.070312 -77.207031 58.992188 -80.148438 60.078125 -82.609375 C 61.160156 -85.078125 61.703125 -87.660156 61.703125 -90.359375 C 61.703125 -93.691406 60.617188 -96.320312 58.453125 -98.25 C 56.285156 -100.1875 53.238281 -101.15625 49.3125 -101.15625 C 45.269531 -101.15625 41.179688 -100 37.046875 -97.6875 C 32.910156 -95.375 28.238281 -91.960938 23.03125 -87.453125 L 3.953125 -109.78125 C 10.578125 -115.695312 16.144531 -119.925781 20.65625 -122.46875 C 25.164062 -125.019531 30.070312 -126.96875 35.375 -128.3125 C 40.675781 -129.664062 46.640625 -130.34375 53.265625 -130.34375 C 61.585938 -130.34375 69.015625 -128.875 75.546875 -125.9375 C 82.078125 -123.007812 87.144531 -118.835938 90.75 -113.421875 C 94.351562 -108.003906 96.15625 -101.925781 96.15625 -95.1875 C 96.15625 -90.144531 95.523438 -85.484375 94.265625 -81.203125 C 93.003906 -76.929688 91.054688 -72.726562 88.421875 -68.59375 C 85.785156 -64.46875 82.285156 -60.117188 77.921875 -55.546875 C 73.554688 -50.972656 64.253906 -42.300781 50.015625 -29.53125 L 50.015625 -28.65625 L 98.609375 -28.65625 Z M 98.609375 0" transform="translate(2501.389 1152.426)"/></g></g><g><g><path d="M 3.78125 -34.546875 L 3.78125 -61.96875 L 53.4375 -61.96875 L 53.4375 -34.546875 Z M 3.78125 -34.546875" transform="translate(2606.858 1152.426)"/></g></g><g><g><path d="M 69.875 0 L 43.59375 -92.546875 L 42.796875 -92.546875 C 44.035156 -76.785156 44.65625 -64.539062 44.65625 -55.8125 L 44.65625 0 L 13.890625 0 L 13.890625 -128.5 L 60.125 -128.5 L 86.921875 -37.265625 L 87.625 -37.265625 L 113.90625 -128.5 L 160.21875 -128.5 L 160.21875 0 L 128.328125 0 L 128.328125 -56.34375 C 128.328125 -59.269531 128.367188 -62.519531 128.453125 -66.09375 C 128.535156 -69.664062 128.929688 -78.425781 129.640625 -92.375 L 128.84375 -92.375 L 102.921875 0 Z M 69.875 0" transform="translate(2664.074 1152.426)"/></g></g><g><g><path d="M 13.890625 0 L 13.890625 -128.5 L 48.78125 -128.5 L 48.78125 0 Z M 13.890625 0" transform="translate(2838.098 1152.426)"/></g></g><g><g><path d="M 136.234375 0 L 90.703125 0 L 43.765625 -90.53125 L 42.984375 -90.53125 C 44.097656 -76.289062 44.65625 -65.421875 44.65625 -57.921875 L 44.65625 0 L 13.890625 0 L 13.890625 -128.5 L 59.234375 -128.5 L 106 -39.203125 L 106.53125 -39.203125 C 105.707031 -52.148438 105.296875 -62.550781 105.296875 -70.40625 L 105.296875 -128.5 L 136.234375 -128.5 Z M 136.234375 0" transform="translate(2900.764 1152.426)"/></g></g></g><g><g><g><path d="M 122.953125 -66.96875 C 122.953125 -45.53125 117.050781 -29.007812 105.25 -17.40625 C 93.445312 -5.800781 76.847656 0 55.453125 0 L 13.890625 0 L 13.890625 -128.5 L 58.359375 -128.5 C 78.984375 -128.5 94.90625 -123.222656 106.125 -112.671875 C 117.34375 -102.128906 122.953125 -86.894531 122.953125 -66.96875 Z M 86.921875 -65.75 C 86.921875 -77.519531 84.59375 -86.242188 79.9375 -91.921875 C 75.28125 -97.609375 68.207031 -100.453125 58.71875 -100.453125 L 48.609375 -100.453125 L 48.609375 -28.484375 L 56.34375 -28.484375 C 66.882812 -28.484375 74.613281 -31.539062 79.53125 -37.65625 C 84.457031 -43.78125 86.921875 -53.144531 86.921875 -65.75 Z M 86.921875 -65.75" transform="translate(1513.894 1150.134)"/></g></g><g><g><path d="M 3.78125 -34.546875 L 3.78125 -61.96875 L 53.4375 -61.96875 L 53.4375 -34.546875 Z M 3.78125 -34.546875" transform="translate(1645.993 1150.134)"/></g></g><g><g><path d="M 69.875 0 L 43.59375 -92.546875 L 42.796875 -92.546875 C 44.035156 -76.785156 44.65625 -64.539062 44.65625 -55.8125 L 44.65625 0 L 13.890625 0 L 13.890625 -128.5 L 60.125 -128.5 L 86.921875 -37.265625 L 87.625 -37.265625 L 113.90625 -128.5 L 160.21875 -128.5 L 160.21875 0 L 128.328125 0 L 128.328125 -56.34375 C 128.328125 -59.269531 128.367188 -62.519531 128.453125 -66.09375 C 128.535156 -69.664062 128.929688 -78.425781 129.640625 -92.375 L 128.84375 -92.375 L 102.921875 0 Z M 69.875 0" transform="translate(1703.21 1150.134)"/></g></g><g><g><path d="M 92.71875 0 L 86.390625 -24.078125 L 44.65625 -24.078125 L 38.140625 0 L 0 0 L 41.921875 -129.03125 L 88.25 -129.03125 L 130.6875 0 Z M 79.1875 -52.5625 L 73.65625 -73.65625 C 72.363281 -78.34375 70.796875 -84.40625 68.953125 -91.84375 C 67.109375 -99.289062 65.890625 -104.625 65.296875 -107.84375 C 64.773438 -104.851562 63.738281 -99.929688 62.1875 -93.078125 C 60.632812 -86.222656 57.191406 -72.71875 51.859375 -52.5625 Z M 79.1875 -52.5625" transform="translate(1877.234 1150.134)"/></g></g><g><g><path d="M 48.609375 -46.765625 L 48.609375 0 L 13.890625 0 L 13.890625 -128.5 L 55.984375 -128.5 C 90.910156 -128.5 108.375 -115.84375 108.375 -90.53125 C 108.375 -75.644531 101.109375 -64.128906 86.578125 -55.984375 L 124.015625 0 L 84.640625 0 L 57.390625 -46.765625 Z M 48.609375 -72.859375 L 55.109375 -72.859375 C 67.234375 -72.859375 73.296875 -78.222656 73.296875 -88.953125 C 73.296875 -97.796875 67.347656 -102.21875 55.453125 -102.21875 L 48.609375 -102.21875 Z M 48.609375 -72.859375" transform="translate(2007.927 1150.134)"/></g></g><g><g><path d="M 70.578125 0 L 35.859375 0 L 35.859375 -100.109375 L 4.484375 -100.109375 L 4.484375 -128.5 L 101.859375 -128.5 L 101.859375 -100.109375 L 70.578125 -100.109375 Z M 70.578125 0" transform="translate(2129.743 1150.134)"/></g></g></g></svg>