<svg xmlns="http://www.w3.org/2000/svg" width="3750" viewBox="0 0 3750 1875" height="1875" version="1.0"><defs><clipPath id="a"><path d="M 2618 1202.453125 L 2964.464844 1202.453125 L 2964.464844 1352.453125 L 2618 1352.453125 Z M 2618 1202.453125"/></clipPath></defs><path fill="#F9A72B" d="M 726.199219 849.777344 L 2370.601562 849.777344 L 2370.601562 1251.4375 L 726.199219 1251.4375 L 726.199219 849.777344"/><path fill="#77838D" d="M 726.199219 1254.234375 L 723.40625 1254.234375 L 723.40625 846.984375 L 2373.394531 846.984375 L 2373.394531 1254.234375 L 726.199219 1254.234375 M 728.996094 852.574219 L 728.996094 1248.640625 L 2367.808594 1248.640625 L 2367.808594 852.574219 L 728.996094 852.574219"/><path fill="#FFF" d="M 784.867188 909.046875 L 2311.375 909.046875 L 2311.375 1192.730469 L 784.867188 1192.730469 L 784.867188 909.046875"/><path fill="#F9A72B" d="M 2376.222656 849.78125 L 3206.882812 849.78125 L 3206.882812 1251.4375 L 2376.222656 1251.4375 L 2376.222656 849.78125"/><path fill="#77838D" d="M 2376.222656 1254.234375 L 2373.425781 1254.234375 L 2373.425781 846.984375 L 3209.675781 846.984375 L 3209.675781 1254.234375 L 2376.222656 1254.234375 M 2379.015625 852.578125 L 2379.015625 1248.640625 L 3204.085938 1248.640625 L 3204.085938 852.578125 L 2379.015625 852.578125"/><path fill="#FFF" d="M 2434.914062 909.046875 L 3147.628906 909.046875 L 3147.628906 1192.730469 L 2434.914062 1192.730469 L 2434.914062 909.046875"/><g><g><g><path d="M 98.609375 0 L 5.359375 0 L 5.359375 -22.859375 L 36.734375 -54.578125 C 45.703125 -63.953125 51.5625 -70.351562 54.3125 -73.78125 C 57.070312 -77.207031 58.992188 -80.148438 60.078125 -82.609375 C 61.160156 -85.078125 61.703125 -87.660156 61.703125 -90.359375 C 61.703125 -93.691406 60.617188 -96.320312 58.453125 -98.25 C 56.285156 -100.1875 53.238281 -101.15625 49.3125 -101.15625 C 45.269531 -101.15625 41.179688 -100 37.046875 -97.6875 C 32.910156 -95.375 28.238281 -91.960938 23.03125 -87.453125 L 3.953125 -109.78125 C 10.578125 -115.695312 16.144531 -119.925781 20.65625 -122.46875 C 25.164062 -125.019531 30.070312 -126.96875 35.375 -128.3125 C 40.675781 -129.664062 46.640625 -130.34375 53.265625 -130.34375 C 61.585938 -130.34375 69.015625 -128.875 75.546875 -125.9375 C 82.078125 -123.007812 87.144531 -118.835938 90.75 -113.421875 C 94.351562 -108.003906 96.15625 -101.925781 96.15625 -95.1875 C 96.15625 -90.144531 95.523438 -85.484375 94.265625 -81.203125 C 93.003906 -76.929688 91.054688 -72.726562 88.421875 -68.59375 C 85.785156 -64.46875 82.285156 -60.117188 77.921875 -55.546875 C 73.554688 -50.972656 64.253906 -42.300781 50.015625 -29.53125 L 50.015625 -28.65625 L 98.609375 -28.65625 Z M 98.609375 0" transform="translate(2516.618 1115.25)"/></g></g><g><g><path d="M 3.78125 -34.546875 L 3.78125 -61.96875 L 53.4375 -61.96875 L 53.4375 -34.546875 Z M 3.78125 -34.546875" transform="translate(2622.087 1115.25)"/></g></g><g><g><path d="M 69.875 0 L 43.59375 -92.546875 L 42.796875 -92.546875 C 44.035156 -76.785156 44.65625 -64.539062 44.65625 -55.8125 L 44.65625 0 L 13.890625 0 L 13.890625 -128.5 L 60.125 -128.5 L 86.921875 -37.265625 L 87.625 -37.265625 L 113.90625 -128.5 L 160.21875 -128.5 L 160.21875 0 L 128.328125 0 L 128.328125 -56.34375 C 128.328125 -59.269531 128.367188 -62.519531 128.453125 -66.09375 C 128.535156 -69.664062 128.929688 -78.425781 129.640625 -92.375 L 128.84375 -92.375 L 102.921875 0 Z M 69.875 0" transform="translate(2679.303 1115.25)"/></g></g><g><g><path d="M 13.890625 0 L 13.890625 -128.5 L 48.78125 -128.5 L 48.78125 0 Z M 13.890625 0" transform="translate(2853.327 1115.25)"/></g></g><g><g><path d="M 136.234375 0 L 90.703125 0 L 43.765625 -90.53125 L 42.984375 -90.53125 C 44.097656 -76.289062 44.65625 -65.421875 44.65625 -57.921875 L 44.65625 0 L 13.890625 0 L 13.890625 -128.5 L 59.234375 -128.5 L 106 -39.203125 L 106.53125 -39.203125 C 105.707031 -52.148438 105.296875 -62.550781 105.296875 -70.40625 L 105.296875 -128.5 L 136.234375 -128.5 Z M 136.234375 0" transform="translate(2915.993 1115.25)"/></g></g></g><g><g><g><path d="M 122.953125 -66.96875 C 122.953125 -45.53125 117.050781 -29.007812 105.25 -17.40625 C 93.445312 -5.800781 76.847656 0 55.453125 0 L 13.890625 0 L 13.890625 -128.5 L 58.359375 -128.5 C 78.984375 -128.5 94.90625 -123.222656 106.125 -112.671875 C 117.34375 -102.128906 122.953125 -86.894531 122.953125 -66.96875 Z M 86.921875 -65.75 C 86.921875 -77.519531 84.59375 -86.242188 79.9375 -91.921875 C 75.28125 -97.609375 68.207031 -100.453125 58.71875 -100.453125 L 48.609375 -100.453125 L 48.609375 -28.484375 L 56.34375 -28.484375 C 66.882812 -28.484375 74.613281 -31.539062 79.53125 -37.65625 C 84.457031 -43.78125 86.921875 -53.144531 86.921875 -65.75 Z M 86.921875 -65.75" transform="translate(806.4 1115.55)"/></g></g><g><g><path d="M 13.890625 0 L 13.890625 -128.5 L 48.78125 -128.5 L 48.78125 0 Z M 13.890625 0" transform="translate(938.5 1115.55)"/></g></g><g><g><path d="M 97.90625 -39.03125 C 97.90625 -31.0625 95.882812 -23.984375 91.84375 -17.796875 C 87.800781 -11.617188 81.972656 -6.8125 74.359375 -3.375 C 66.742188 0.0507812 57.804688 1.765625 47.546875 1.765625 C 38.992188 1.765625 31.816406 1.164062 26.015625 -0.03125 C 20.210938 -1.238281 14.175781 -3.335938 7.90625 -6.328125 L 7.90625 -37.265625 C 14.53125 -33.867188 21.414062 -31.21875 28.5625 -29.3125 C 35.707031 -27.40625 42.269531 -26.453125 48.25 -26.453125 C 53.40625 -26.453125 57.179688 -27.34375 59.578125 -29.125 C 61.984375 -30.914062 63.1875 -33.21875 63.1875 -36.03125 C 63.1875 -37.789062 62.703125 -39.328125 61.734375 -40.640625 C 60.773438 -41.960938 59.222656 -43.296875 57.078125 -44.640625 C 54.941406 -45.992188 49.242188 -48.75 39.984375 -52.90625 C 31.609375 -56.71875 25.328125 -60.410156 21.140625 -63.984375 C 16.953125 -67.554688 13.847656 -71.65625 11.828125 -76.28125 C 9.804688 -80.914062 8.796875 -86.394531 8.796875 -92.71875 C 8.796875 -104.5625 13.097656 -113.789062 21.703125 -120.40625 C 30.316406 -127.03125 42.15625 -130.34375 57.21875 -130.34375 C 70.519531 -130.34375 84.082031 -127.265625 97.90625 -121.109375 L 87.28125 -94.3125 C 75.269531 -99.8125 64.894531 -102.5625 56.15625 -102.5625 C 51.644531 -102.5625 48.363281 -101.769531 46.3125 -100.1875 C 44.269531 -98.613281 43.25 -96.65625 43.25 -94.3125 C 43.25 -91.789062 44.550781 -89.53125 47.15625 -87.53125 C 49.757812 -85.539062 56.832031 -81.910156 68.375 -76.640625 C 79.445312 -71.660156 87.132812 -66.3125 91.4375 -60.59375 C 95.75 -54.882812 97.90625 -47.695312 97.90625 -39.03125 Z M 97.90625 -39.03125" transform="translate(1001.166 1115.55)"/></g></g><g><g><path d="M 70.578125 0 L 35.859375 0 L 35.859375 -100.109375 L 4.484375 -100.109375 L 4.484375 -128.5 L 101.859375 -128.5 L 101.859375 -100.109375 L 70.578125 -100.109375 Z M 70.578125 0" transform="translate(1105.053 1115.55)"/></g></g><g><g><path d="M 48.609375 -46.765625 L 48.609375 0 L 13.890625 0 L 13.890625 -128.5 L 55.984375 -128.5 C 90.910156 -128.5 108.375 -115.84375 108.375 -90.53125 C 108.375 -75.644531 101.109375 -64.128906 86.578125 -55.984375 L 124.015625 0 L 84.640625 0 L 57.390625 -46.765625 Z M 48.609375 -72.859375 L 55.109375 -72.859375 C 67.234375 -72.859375 73.296875 -78.222656 73.296875 -88.953125 C 73.296875 -97.796875 67.347656 -102.21875 55.453125 -102.21875 L 48.609375 -102.21875 Z M 48.609375 -72.859375" transform="translate(1211.4 1115.55)"/></g></g><g><g><path d="M 13.890625 0 L 13.890625 -128.5 L 48.78125 -128.5 L 48.78125 0 Z M 13.890625 0" transform="translate(1333.217 1115.55)"/></g></g><g><g><path d="M 71.109375 -101.859375 C 62.847656 -101.859375 56.398438 -98.472656 51.765625 -91.703125 C 47.140625 -84.941406 44.828125 -75.613281 44.828125 -63.71875 C 44.828125 -38.988281 54.226562 -26.625 73.03125 -26.625 C 78.71875 -26.625 84.226562 -27.414062 89.5625 -29 C 94.894531 -30.582031 100.253906 -32.488281 105.640625 -34.71875 L 105.640625 -5.359375 C 94.921875 -0.609375 82.796875 1.765625 69.265625 1.765625 C 49.867188 1.765625 35 -3.859375 24.65625 -15.109375 C 14.3125 -26.367188 9.140625 -42.628906 9.140625 -63.890625 C 9.140625 -77.191406 11.644531 -88.878906 16.65625 -98.953125 C 21.664062 -109.035156 28.875 -116.785156 38.28125 -122.203125 C 47.6875 -127.628906 58.742188 -130.34375 71.453125 -130.34375 C 85.335938 -130.34375 98.609375 -127.328125 111.265625 -121.296875 L 100.640625 -93.953125 C 95.890625 -96.179688 91.140625 -98.054688 86.390625 -99.578125 C 81.648438 -101.097656 76.554688 -101.859375 71.109375 -101.859375 Z M 71.109375 -101.859375" transform="translate(1395.883 1115.55)"/></g></g><g><g><path d="M 70.578125 0 L 35.859375 0 L 35.859375 -100.109375 L 4.484375 -100.109375 L 4.484375 -128.5 L 101.859375 -128.5 L 101.859375 -100.109375 L 70.578125 -100.109375 Z M 70.578125 0" transform="translate(1512.69 1115.55)"/></g></g><g><g><path d="M 71.109375 -101.859375 C 62.847656 -101.859375 56.398438 -98.472656 51.765625 -91.703125 C 47.140625 -84.941406 44.828125 -75.613281 44.828125 -63.71875 C 44.828125 -38.988281 54.226562 -26.625 73.03125 -26.625 C 78.71875 -26.625 84.226562 -27.414062 89.5625 -29 C 94.894531 -30.582031 100.253906 -32.488281 105.640625 -34.71875 L 105.640625 -5.359375 C 94.921875 -0.609375 82.796875 1.765625 69.265625 1.765625 C 49.867188 1.765625 35 -3.859375 24.65625 -15.109375 C 14.3125 -26.367188 9.140625 -42.628906 9.140625 -63.890625 C 9.140625 -77.191406 11.644531 -88.878906 16.65625 -98.953125 C 21.664062 -109.035156 28.875 -116.785156 38.28125 -122.203125 C 47.6875 -127.628906 58.742188 -130.34375 71.453125 -130.34375 C 85.335938 -130.34375 98.609375 -127.328125 111.265625 -121.296875 L 100.640625 -93.953125 C 95.890625 -96.179688 91.140625 -98.054688 86.390625 -99.578125 C 81.648438 -101.097656 76.554688 -101.859375 71.109375 -101.859375 Z M 71.109375 -101.859375" transform="translate(1665.795 1115.55)"/></g></g><g><g><path d="M 134.125 -64.421875 C 134.125 -42.804688 128.820312 -26.367188 118.21875 -15.109375 C 107.613281 -3.859375 92.082031 1.765625 71.625 1.765625 C 51.46875 1.765625 36.015625 -3.890625 25.265625 -15.203125 C 14.515625 -26.515625 9.140625 -42.976562 9.140625 -64.59375 C 9.140625 -85.988281 14.484375 -102.320312 25.171875 -113.59375 C 35.867188 -124.875 51.414062 -130.515625 71.8125 -130.515625 C 92.257812 -130.515625 107.753906 -124.914062 118.296875 -113.71875 C 128.847656 -102.53125 134.125 -86.097656 134.125 -64.421875 Z M 45.703125 -64.421875 C 45.703125 -39.578125 54.34375 -27.15625 71.625 -27.15625 C 80.414062 -27.15625 86.9375 -30.171875 91.1875 -36.203125 C 95.4375 -42.242188 97.5625 -51.648438 97.5625 -64.421875 C 97.5625 -77.253906 95.40625 -86.734375 91.09375 -92.859375 C 86.789062 -98.984375 80.363281 -102.046875 71.8125 -102.046875 C 54.40625 -102.046875 45.703125 -89.503906 45.703125 -64.421875 Z M 45.703125 -64.421875" transform="translate(1782.602 1115.55)"/></g></g><g><g><path d="M 123.140625 -128.5 L 123.140625 -51.15625 C 123.140625 -34.332031 118.378906 -21.304688 108.859375 -12.078125 C 99.335938 -2.847656 85.609375 1.765625 67.671875 1.765625 C 50.148438 1.765625 36.6875 -2.71875 27.28125 -11.6875 C 17.882812 -20.65625 13.1875 -33.546875 13.1875 -50.359375 L 13.1875 -128.5 L 48.078125 -128.5 L 48.078125 -53.09375 C 48.078125 -44.007812 49.773438 -37.414062 53.171875 -33.3125 C 56.566406 -29.207031 61.578125 -27.15625 68.203125 -27.15625 C 75.296875 -27.15625 80.4375 -29.191406 83.625 -33.265625 C 86.820312 -37.335938 88.421875 -44.003906 88.421875 -53.265625 L 88.421875 -128.5 Z M 123.140625 -128.5" transform="translate(1926.04 1115.55)"/></g></g><g><g><path d="M 48.609375 -46.765625 L 48.609375 0 L 13.890625 0 L 13.890625 -128.5 L 55.984375 -128.5 C 90.910156 -128.5 108.375 -115.84375 108.375 -90.53125 C 108.375 -75.644531 101.109375 -64.128906 86.578125 -55.984375 L 124.015625 0 L 84.640625 0 L 57.390625 -46.765625 Z M 48.609375 -72.859375 L 55.109375 -72.859375 C 67.234375 -72.859375 73.296875 -78.222656 73.296875 -88.953125 C 73.296875 -97.796875 67.347656 -102.21875 55.453125 -102.21875 L 48.609375 -102.21875 Z M 48.609375 -72.859375" transform="translate(2062.27 1115.55)"/></g></g><g><g><path d="M 70.578125 0 L 35.859375 0 L 35.859375 -100.109375 L 4.484375 -100.109375 L 4.484375 -128.5 L 101.859375 -128.5 L 101.859375 -100.109375 L 70.578125 -100.109375 Z M 70.578125 0" transform="translate(2184.086 1115.55)"/></g></g></g><g clip-path="url(#a)"><path fill="#F9A72B" d="M 2791.207031 1352.453125 L 2964.21875 1202.453125 L 2618.210938 1202.453125 Z M 2791.207031 1352.453125"/></g></svg>