<?xml version="1.0" encoding="utf-8"?>
<svg width="135px" height="52px" viewBox="0 0 135 52" version="1.1" xmlns:xlink="http://www.w3.org/1999/xlink" xmlns="http://www.w3.org/2000/svg">
  <defs>
    <filter filterUnits="userSpaceOnUse" color-interpolation-filters="sRGB" id="filter_1">
      <feFlood flood-opacity="0" result="BackgroundImageFix" />
      <feColorMatrix in="SourceAlpha" type="matrix" values="0 0 0 0 0 0 0 0 0 0 0 0 0 0 0 0 0 0 127 0" />
      <feOffset dx="0" dy="2" />
      <feGaussianBlur stdDeviation="2" />
      <feColorMatrix type="matrix" values="0 0 0 0 0.39215687 0 0 0 0 0.39215687 0 0 0 0 0.39215687 0 0 0 0.49803922 0" />
      <feBlend mode="normal" in2="BackgroundImageFix" result="effect0_dropShadow" />
      <feBlend mode="normal" in="SourceGraphic" in2="effect0_dropShadow" result="shape" />
    </filter>
    <path d="M7.999 0L113.001 0Q113.197 0 113.393 0.00963514Q113.59 0.0192703 113.785 0.0385174Q113.98 0.0577644 114.175 0.0865771Q114.369 0.11539 114.562 0.153699Q114.754 0.192007 114.945 0.23972Q115.135 0.287433 115.323 0.344434Q115.511 0.401436 115.696 0.467589Q115.881 0.533742 116.062 0.608888Q116.243 0.684033 116.421 0.76799Q116.599 0.851946 116.772 0.944512Q116.945 1.03708 117.113 1.13803Q117.282 1.23898 117.445 1.34807Q117.608 1.45717 117.766 1.57414Q117.924 1.69112 118.076 1.81569Q118.227 1.94026 118.373 2.07213Q118.518 2.204 118.657 2.34285Q118.796 2.4817 118.928 2.6272Q119.06 2.7727 119.184 2.92449Q119.309 3.07628 119.426 3.234Q119.543 3.39172 119.652 3.55499Q119.761 3.71826 119.862 3.88669Q119.963 4.05512 120.055 4.2283Q120.148 4.40148 120.232 4.57899Q120.316 4.7565 120.391 4.93791Q120.466 5.11933 120.532 5.30422Q120.599 5.4891 120.656 5.67701Q120.713 5.86492 120.76 6.0554Q120.808 6.24588 120.846 6.43847Q120.885 6.63106 120.913 6.8253Q120.942 7.01954 120.961 7.21496Q120.981 7.41038 120.99 7.60651Q121 7.80264 121 7.999L121 9.72035Q121 9.91672 120.99 10.1128Q120.981 10.309 120.961 10.5044Q120.942 10.6998 120.913 10.894Q120.885 11.0883 120.846 11.2809Q120.808 11.4735 120.76 11.6639Q120.713 11.8544 120.656 12.0423Q120.599 12.2302 120.532 12.4151Q120.466 12.6 120.391 12.7814Q120.316 12.9629 120.232 13.1404Q120.148 13.3179 120.055 13.4911Q119.963 13.6642 119.862 13.8327Q119.761 14.0011 119.652 14.1644Q119.543 14.3276 119.426 14.4853Q119.309 14.6431 119.184 14.7949Q119.06 14.9467 118.928 15.0922Q118.796 15.2376 118.657 15.3765Q118.518 15.5153 118.373 15.6472Q118.227 15.7791 118.076 15.9037Q117.924 16.0282 117.766 16.1452Q117.608 16.2622 117.445 16.3713Q117.282 16.4804 117.113 16.5813Q116.945 16.6823 116.772 16.7748Q116.599 16.8674 116.421 16.9514Q116.243 17.0353 116.062 17.1105Q115.881 17.1856 115.696 17.2518Q115.511 17.3179 115.323 17.3749Q115.135 17.4319 114.945 17.4796Q114.754 17.5273 114.562 17.5657Q114.369 17.604 114.175 17.6328Q113.98 17.6616 113.785 17.6808Q113.59 17.7001 113.393 17.7097Q113.197 17.7194 113.001 17.7194L7.999 17.7194Q7.80264 17.7194 7.60651 17.7097Q7.41038 17.7001 7.21496 17.6808Q7.01954 17.6616 6.8253 17.6328Q6.63106 17.604 6.43847 17.5657Q6.24588 17.5273 6.0554 17.4796Q5.86492 17.4319 5.67701 17.3749Q5.4891 17.3179 5.30422 17.2518Q5.11933 17.1856 4.93791 17.1105Q4.7565 17.0353 4.57899 16.9514Q4.40148 16.8674 4.2283 16.7748Q4.05512 16.6823 3.88669 16.5813Q3.71826 16.4804 3.55499 16.3713Q3.39172 16.2622 3.234 16.1452Q3.07628 16.0282 2.92449 15.9037Q2.7727 15.7791 2.6272 15.6472Q2.4817 15.5153 2.34285 15.3765Q2.204 15.2376 2.07213 15.0922Q1.94026 14.9467 1.81569 14.7949Q1.69112 14.6431 1.57414 14.4853Q1.45717 14.3276 1.34807 14.1644Q1.23898 14.0011 1.13803 13.8327Q1.03708 13.6642 0.944512 13.4911Q0.851946 13.3179 0.76799 13.1404Q0.684033 12.9629 0.608888 12.7814Q0.533742 12.6 0.467589 12.4151Q0.401436 12.2302 0.344434 12.0423Q0.287433 11.8544 0.23972 11.664Q0.192007 11.4735 0.153699 11.2809Q0.11539 11.0883 0.0865771 10.894Q0.0577644 10.6998 0.0385174 10.5044Q0.0192703 10.309 0.00963514 10.1128Q0 9.91672 0 9.72035L0 7.999Q0 7.80264 0.00963514 7.60651Q0.0192703 7.41038 0.0385174 7.21496Q0.0577644 7.01954 0.0865771 6.8253Q0.11539 6.63106 0.153699 6.43847Q0.192007 6.24588 0.23972 6.0554Q0.287433 5.86492 0.344434 5.67701Q0.401436 5.4891 0.467589 5.30422Q0.533742 5.11933 0.608888 4.93791Q0.684033 4.7565 0.76799 4.57899Q0.851946 4.40148 0.944512 4.2283Q1.03708 4.05512 1.13803 3.88669Q1.23898 3.71826 1.34807 3.55499Q1.45717 3.39172 1.57414 3.234Q1.69112 3.07628 1.81569 2.92449Q1.94026 2.7727 2.07213 2.6272Q2.204 2.4817 2.34285 2.34285Q2.4817 2.204 2.6272 2.07213Q2.7727 1.94026 2.92449 1.81569Q3.07628 1.69112 3.234 1.57414Q3.39172 1.45717 3.55499 1.34807Q3.71826 1.23898 3.88669 1.13803Q4.05512 1.03708 4.2283 0.944512Q4.40148 0.851946 4.57899 0.76799Q4.7565 0.684033 4.93791 0.608888Q5.11933 0.533742 5.30422 0.467589Q5.4891 0.401436 5.67701 0.344434Q5.86492 0.287433 6.0554 0.23972Q6.24588 0.192007 6.43847 0.153699Q6.63106 0.11539 6.8253 0.0865771Q7.01954 0.0577644 7.21496 0.0385174Q7.41038 0.0192703 7.60651 0.00963514Q7.80264 0 7.999 0Z" id="path_1" />
  </defs>
  <g filter="url(#filter_1)">
    <g id="8.-District-Court" transform="translate(7 5)">
      <path d="M107.653 27.2716C107.653 27.2716 105.393 24.3374 103.349 21.9711C101.304 19.6049 99.4747 17.8066 99.4747 17.8066L115.832 17.8066L107.653 27.2716Z" id="Triangle" fill="#FFFFFF" fill-rule="evenodd" stroke="#ED1C24" stroke-width="1" />
      <g id="Rectangle">
        <use xlink:href="#path_1" fill="none" stroke="#ED1C24" stroke-width="2" />
        <use stroke="none" fill="#FFFFFF" xlink:href="#path_1" fill-rule="evenodd" />
      </g>
      <g id="DISTRICT-COURT" fill="#000000" fill-opacity="0.6392157" transform="translate(4.115814 2.3000412)">
        <path d="M14.6453 7.74609L13.0984 7.89648Q13.2542 9.21777 14.0545 9.90796Q14.8548 10.5981 16.3479 10.5981Q17.3738 10.5981 18.0613 10.3108Q18.7488 10.0234 19.1248 9.43262Q19.5008 8.8418 19.5008 8.16504Q19.5008 7.41846 19.1865 6.91089Q18.8723 6.40332 18.3164 6.1106Q17.7605 5.81787 16.6004 5.54395Q15.4402 5.27002 15.1394 5.01758Q14.9031 4.81885 14.9031 4.53955Q14.9031 4.2334 15.1555 4.05078Q15.5476 3.76611 16.2405 3.76611Q16.9119 3.76611 17.2476 4.03198Q17.5833 4.29785 17.6853 4.90479L19.2752 4.83496Q19.2376 3.75 18.4883 3.1001Q17.739 2.4502 16.2566 2.4502Q15.3489 2.4502 14.7071 2.72412Q14.0652 2.99805 13.7241 3.52173Q13.3831 4.04541 13.3831 4.64697Q13.3831 5.58154 14.1082 6.23145Q14.6238 6.69336 15.9021 7.01025Q16.8958 7.25732 17.1751 7.354Q17.5833 7.49902 17.7471 7.69507Q17.9109 7.89111 17.9109 8.17041Q17.9109 8.60547 17.5215 8.93042Q17.1321 9.25537 16.364 9.25537Q15.6389 9.25537 15.2119 8.89014Q14.7849 8.5249 14.6453 7.74609ZM45.137 8.05225L43.5955 7.56348Q43.3968 8.42822 42.9402 8.83105Q42.4837 9.23389 41.8499 9.23389Q40.9905 9.23389 40.4534 8.6001Q39.9163 7.96631 39.9163 6.47314Q39.9163 5.06592 40.4614 4.4375Q41.0066 3.80908 41.8821 3.80908Q42.5159 3.80908 42.959 4.16357Q43.4021 4.51807 43.5418 5.13037L45.1155 4.75439Q44.8469 3.80908 44.3098 3.3042Q43.4075 2.4502 41.9627 2.4502Q40.3084 2.4502 39.2932 3.53784Q38.2781 4.62549 38.2781 6.59131Q38.2781 8.44971 39.2879 9.52124Q40.2976 10.5928 41.866 10.5928Q43.1336 10.5928 43.958 9.96704Q44.7825 9.34131 45.137 8.05225ZM62.8562 8.05225L61.3147 7.56348Q61.116 8.42822 60.6594 8.83105Q60.2029 9.23389 59.5691 9.23389Q58.7097 9.23389 58.1726 8.6001Q57.6355 7.96631 57.6355 6.47314Q57.6355 5.06592 58.1807 4.4375Q58.7259 3.80908 59.6013 3.80908Q60.2351 3.80908 60.6782 4.16357Q61.1214 4.51807 61.261 5.13037L62.8347 4.75439Q62.5662 3.80908 62.0291 3.3042Q61.1267 2.4502 59.6819 2.4502Q58.0276 2.4502 57.0125 3.53784Q55.9973 4.62549 55.9973 6.59131Q55.9973 8.44971 57.0071 9.52124Q58.0169 10.5928 59.5852 10.5928Q60.8528 10.5928 61.6773 9.96704Q62.5017 9.34131 62.8562 8.05225ZM63.8982 6.56982Q63.8982 5.3667 64.2581 4.55029Q64.5266 3.94873 64.9912 3.4707Q65.4558 2.99268 66.0091 2.76172Q66.7449 2.4502 67.7063 2.4502Q69.4466 2.4502 70.4912 3.52979Q71.5359 4.60938 71.5359 6.53223Q71.5359 8.43896 70.4993 9.51587Q69.4627 10.5928 67.7278 10.5928Q65.9715 10.5928 64.9348 9.52124Q63.8982 8.44971 63.8982 6.56982ZM2.49587 2.58447L5.40163 2.58447Q6.38454 2.58447 6.90017 2.73486Q7.59304 2.93896 8.08718 3.45996Q8.58132 3.98096 8.83913 4.7356Q9.09695 5.49023 9.09695 6.59668Q9.09695 7.56885 8.85525 8.27246Q8.55984 9.13184 8.01199 9.66357Q7.59841 10.0664 6.8948 10.292Q6.36843 10.4585 5.48757 10.4585L2.49587 10.4585L2.49587 2.58447ZM10.3968 10.4585L10.3968 2.58447L11.9866 2.58447L11.9866 10.4585L10.3968 10.4585ZM22.6106 10.4585L22.6106 3.9165L20.2742 3.9165L20.2742 2.58447L26.5315 2.58447L26.5315 3.9165L24.2005 3.9165L24.2005 10.4585L22.6106 10.4585ZM27.5628 2.58447L27.5628 10.4585L29.1526 10.4585L29.1526 7.17139L29.4749 7.17139Q30.0227 7.17139 30.2752 7.26001Q30.5276 7.34863 30.7532 7.58765Q30.9788 7.82666 31.5911 8.74512L32.7405 10.4585L34.6419 10.4585L33.6804 8.92236Q33.1111 8.00391 32.7754 7.64404Q32.4397 7.28418 31.9241 6.9834Q32.9607 6.83301 33.4817 6.25562Q34.0027 5.67822 34.0027 4.79199Q34.0027 4.09375 33.659 3.55127Q33.3152 3.00879 32.7432 2.79663Q32.1712 2.58447 30.909 2.58447L27.5628 2.58447ZM35.4529 10.4585L35.4529 2.58447L37.0427 2.58447L37.0427 10.4585L35.4529 10.4585ZM48.2737 10.4585L48.2737 3.9165L45.9373 3.9165L45.9373 2.58447L52.1946 2.58447L52.1946 3.9165L49.8635 3.9165L49.8635 10.4585L48.2737 10.4585ZM74.3557 2.58447L72.7659 2.58447L72.7659 6.78467Q72.7659 8.10596 72.9217 8.78271Q73.0291 9.23926 73.3675 9.65552Q73.7058 10.0718 74.2886 10.3323Q74.8714 10.5928 75.9993 10.5928Q76.9339 10.5928 77.5139 10.3538Q78.094 10.1147 78.4405 9.71191Q78.7869 9.30908 78.9158 8.72363Q79.0447 8.13818 79.0447 6.72021L79.0447 2.58447L77.4549 2.58447L77.4549 6.94043Q77.4549 7.875 77.385 8.27783Q77.3152 8.68066 76.9715 8.95728Q76.6277 9.23389 75.951 9.23389Q75.2849 9.23389 74.9009 8.94116Q74.5169 8.64844 74.4148 8.16504Q74.3557 7.86426 74.3557 6.84912L74.3557 2.58447ZM80.7259 10.4585L80.7259 2.58447L84.072 2.58447Q85.3343 2.58447 85.9063 2.79663Q86.4783 3.00879 86.822 3.55127Q87.1658 4.09375 87.1658 4.79199Q87.1658 5.67822 86.6448 6.25562Q86.1238 6.83301 85.0872 6.9834Q85.6028 7.28418 85.9385 7.64404Q86.2742 8.00391 86.8435 8.92236L87.805 10.4585L85.9036 10.4585L84.7542 8.74512Q84.1419 7.82666 83.9163 7.58765Q83.6907 7.34863 83.4383 7.26001Q83.1858 7.17139 82.638 7.17139L82.3157 7.17139L82.3157 10.4585L80.7259 10.4585ZM90.4368 3.9165L90.4368 10.4585L92.0266 10.4585L92.0266 3.9165L94.3577 3.9165L94.3577 2.58447L88.1004 2.58447L88.1004 3.9165L90.4368 3.9165ZM65.5364 6.51611Q65.5364 7.85352 66.1541 8.5437Q66.7718 9.23389 67.7224 9.23389Q68.6731 9.23389 69.2827 8.54907Q69.8924 7.86426 69.8924 6.49463Q69.8924 5.14111 69.2989 4.4751Q68.7053 3.80908 67.7224 3.80908Q66.7395 3.80908 66.138 4.48315Q65.5364 5.15723 65.5364 6.51611ZM4.08572 3.9165L4.08572 9.13184L5.27273 9.13184Q5.93874 9.13184 6.23415 9.05664Q6.62087 8.95996 6.876 8.729Q7.13113 8.49805 7.29226 7.96899Q7.45339 7.43994 7.45339 6.52686Q7.45339 5.61377 7.29226 5.125Q7.13113 4.63623 6.84109 4.3623Q6.55105 4.08838 6.10525 3.9917Q5.77224 3.9165 4.80007 3.9165L4.08572 3.9165ZM30.3289 5.91455L29.1526 5.91455L29.1526 3.9165L30.3933 3.9165Q31.3601 3.9165 31.5535 3.94336Q31.9402 4.00781 32.1524 4.2522Q32.3645 4.49658 32.3645 4.89404Q32.3645 5.24854 32.2034 5.48486Q32.0423 5.72119 31.7576 5.81787Q31.4729 5.91455 30.3289 5.91455ZM82.3157 5.91455L83.492 5.91455Q84.636 5.91455 84.9207 5.81787Q85.2053 5.72119 85.3665 5.48486Q85.5276 5.24854 85.5276 4.89404Q85.5276 4.49658 85.3155 4.2522Q85.1033 4.00781 84.7166 3.94336Q84.5232 3.9165 83.5564 3.9165L82.3157 3.9165L82.3157 5.91455Z" />
      </g>
      <g id="5-MIN" transform="translate(100.42108 2.2930527)">
        <g id="5" fill="#000000" fill-opacity="0.6392157">
          <path d="M5.25191 5.2168L6.20895 5.11768Q6.24996 5.44238 6.45162 5.63208Q6.65328 5.82178 6.91647 5.82178Q7.21725 5.82178 7.42574 5.57739Q7.63424 5.33301 7.63424 4.84082Q7.63424 4.37939 7.42745 4.14868Q7.22066 3.91797 6.88912 3.91797Q6.47555 3.91797 6.14742 4.28369L5.36813 4.1709L5.86031 1.56299L8.39986 1.56299L8.39986 2.46191L6.58834 2.46191L6.43795 3.31299Q6.75924 3.15234 7.0942 3.15234Q7.73336 3.15234 8.1777 3.61719Q8.62203 4.08203 8.62203 4.82373Q8.62203 5.44238 8.26315 5.92773Q7.77438 6.59082 6.90621 6.59082Q6.21236 6.59082 5.77486 6.21826Q5.33736 5.8457 5.25191 5.2168Z" />
        </g>
        <g id="MIN" fill="#000000" fill-opacity="0.6392157">
          <path d="M1.81319 13.6592L1.81319 9.36426L3.11105 9.36426L3.89034 12.2939L4.66085 9.36426L5.96163 9.36426L5.96163 13.6592L5.15597 13.6592L5.15597 10.2783L4.30343 13.6592L3.46847 13.6592L2.61886 10.2783L2.61886 13.6592L1.81319 13.6592ZM6.79659 13.6592L6.79659 9.36426L7.66378 9.36426L7.66378 13.6592L6.79659 13.6592ZM8.49874 9.36426L8.49874 13.6592L9.30441 13.6592L9.30441 10.8584L11.0359 13.6592L11.906 13.6592L11.906 9.36426L11.1003 9.36426L11.1003 12.2324L9.34249 9.36426L8.49874 9.36426Z" />
        </g>
      </g>
      <path d="M106.795 36.4535C106.795 35.9307 107.18 35.507 107.656 35.507C108.131 35.507 108.517 35.9307 108.517 36.4535C108.517 36.9762 108.131 37.4 107.656 37.4C107.18 37.4 106.795 36.9762 106.795 36.4535Z" id="Ellipse" fill="#D3D3D3" fill-rule="evenodd" stroke="#ED1C24" stroke-width="1" />
      <path d="M107.655 26.9882L107.655 35.507L107.655 30.2118" id="Line" fill="none" fill-rule="evenodd" stroke="#ED1C24" stroke-width="1" stroke-linecap="square" />
    </g>
  </g>
</svg>