<?xml version="1.0" encoding="utf-8"?>
<svg width="107px" height="52px" viewBox="0 0 107 52" version="1.1" xmlns:xlink="http://www.w3.org/1999/xlink" xmlns="http://www.w3.org/2000/svg">
  <defs>
    <filter filterUnits="userSpaceOnUse" color-interpolation-filters="sRGB" id="filter_1">
      <feFlood flood-opacity="0" result="BackgroundImageFix" />
      <feColorMatrix in="SourceAlpha" type="matrix" values="0 0 0 0 0 0 0 0 0 0 0 0 0 0 0 0 0 0 127 0" />
      <feOffset dx="0" dy="2" />
      <feGaussianBlur stdDeviation="2" />
      <feColorMatrix type="matrix" values="0 0 0 0 0.39215687 0 0 0 0 0.39215687 0 0 0 0 0.39215687 0 0 0 0.49803922 0" />
      <feBlend mode="normal" in2="BackgroundImageFix" result="effect0_dropShadow" />
      <feBlend mode="normal" in="SourceGraphic" in2="effect0_dropShadow" result="shape" />
    </filter>
    <path d="M7.999 0L85.001 0Q85.1974 0 85.3935 0.00963514Q85.5896 0.0192703 85.785 0.0385174Q85.9805 0.0577644 86.1747 0.0865771Q86.3689 0.11539 86.5615 0.153699Q86.7541 0.192007 86.9446 0.23972Q87.1351 0.287433 87.323 0.344434Q87.5109 0.401436 87.6958 0.467589Q87.8807 0.533742 88.0621 0.608888Q88.2435 0.684033 88.421 0.76799Q88.5985 0.851946 88.7717 0.944512Q88.9449 1.03708 89.1133 1.13803Q89.2817 1.23898 89.445 1.34807Q89.6083 1.45717 89.766 1.57414Q89.9237 1.69112 90.0755 1.81569Q90.2273 1.94026 90.3728 2.07213Q90.5183 2.204 90.6571 2.34285Q90.796 2.4817 90.9279 2.6272Q91.0597 2.7727 91.1843 2.92449Q91.3089 3.07628 91.4258 3.234Q91.5428 3.39172 91.6519 3.55499Q91.761 3.71826 91.862 3.88669Q91.9629 4.05512 92.0555 4.2283Q92.1481 4.40148 92.232 4.57899Q92.316 4.7565 92.3911 4.93791Q92.4662 5.11933 92.5324 5.30422Q92.5985 5.4891 92.6556 5.67701Q92.7125 5.86492 92.7603 6.0554Q92.808 6.24588 92.8463 6.43847Q92.8846 6.63106 92.9134 6.8253Q92.9422 7.01954 92.9615 7.21496Q92.9807 7.41038 92.9904 7.60651Q93 7.80264 93 7.999L93 9.72035Q93 9.91672 92.9904 10.1128Q92.9807 10.309 92.9615 10.5044Q92.9422 10.6998 92.9134 10.894Q92.8846 11.0883 92.8463 11.2809Q92.808 11.4735 92.7603 11.6639Q92.7125 11.8544 92.6555 12.0423Q92.5985 12.2302 92.5324 12.4151Q92.4662 12.6 92.3911 12.7814Q92.316 12.9629 92.232 13.1404Q92.1481 13.3179 92.0555 13.4911Q91.9629 13.6642 91.862 13.8327Q91.761 14.0011 91.6519 14.1644Q91.5428 14.3276 91.4258 14.4853Q91.3089 14.6431 91.1843 14.7949Q91.0597 14.9467 90.9279 15.0922Q90.796 15.2376 90.6571 15.3765Q90.5183 15.5153 90.3728 15.6472Q90.2273 15.7791 90.0755 15.9037Q89.9237 16.0282 89.766 16.1452Q89.6083 16.2622 89.445 16.3713Q89.2817 16.4804 89.1133 16.5813Q88.9449 16.6823 88.7717 16.7748Q88.5985 16.8674 88.421 16.9514Q88.2435 17.0353 88.0621 17.1105Q87.8807 17.1856 87.6958 17.2518Q87.5109 17.3179 87.323 17.3749Q87.1351 17.4319 86.9446 17.4796Q86.7541 17.5273 86.5615 17.5657Q86.3689 17.604 86.1747 17.6328Q85.9805 17.6616 85.785 17.6808Q85.5896 17.7001 85.3935 17.7097Q85.1974 17.7194 85.001 17.7194L7.999 17.7194Q7.80264 17.7194 7.60651 17.7097Q7.41038 17.7001 7.21496 17.6808Q7.01954 17.6616 6.8253 17.6328Q6.63106 17.604 6.43847 17.5657Q6.24588 17.5273 6.0554 17.4796Q5.86492 17.4319 5.67701 17.3749Q5.4891 17.3179 5.30422 17.2518Q5.11933 17.1856 4.93791 17.1105Q4.7565 17.0353 4.57899 16.9514Q4.40148 16.8674 4.2283 16.7748Q4.05512 16.6823 3.88669 16.5813Q3.71826 16.4804 3.55499 16.3713Q3.39172 16.2622 3.234 16.1452Q3.07628 16.0282 2.92449 15.9037Q2.7727 15.7791 2.6272 15.6472Q2.4817 15.5153 2.34285 15.3765Q2.204 15.2376 2.07213 15.0922Q1.94026 14.9467 1.81569 14.7949Q1.69112 14.6431 1.57414 14.4853Q1.45717 14.3276 1.34807 14.1644Q1.23898 14.0011 1.13803 13.8327Q1.03708 13.6642 0.944512 13.4911Q0.851946 13.3179 0.76799 13.1404Q0.684033 12.9629 0.608888 12.7814Q0.533742 12.6 0.467589 12.4151Q0.401436 12.2302 0.344434 12.0423Q0.287433 11.8544 0.23972 11.664Q0.192007 11.4735 0.153699 11.2809Q0.11539 11.0883 0.0865771 10.894Q0.0577644 10.6998 0.0385174 10.5044Q0.0192703 10.309 0.00963514 10.1128Q0 9.91672 0 9.72035L0 7.999Q0 7.80264 0.00963514 7.60651Q0.0192703 7.41038 0.0385174 7.21496Q0.0577644 7.01954 0.0865771 6.8253Q0.11539 6.63106 0.153699 6.43847Q0.192007 6.24588 0.23972 6.0554Q0.287433 5.86492 0.344434 5.67701Q0.401436 5.4891 0.467589 5.30422Q0.533742 5.11933 0.608888 4.93791Q0.684033 4.7565 0.76799 4.57899Q0.851946 4.40148 0.944512 4.2283Q1.03708 4.05512 1.13803 3.88669Q1.23898 3.71826 1.34807 3.55499Q1.45717 3.39172 1.57414 3.234Q1.69112 3.07628 1.81569 2.92449Q1.94026 2.7727 2.07213 2.6272Q2.204 2.4817 2.34285 2.34285Q2.4817 2.204 2.6272 2.07213Q2.7727 1.94026 2.92449 1.81569Q3.07628 1.69112 3.234 1.57414Q3.39172 1.45717 3.55499 1.34807Q3.71826 1.23898 3.88669 1.13803Q4.05512 1.03708 4.2283 0.944512Q4.40148 0.851946 4.57899 0.76799Q4.7565 0.684033 4.93791 0.608888Q5.11933 0.533742 5.30422 0.467589Q5.4891 0.401436 5.67701 0.344434Q5.86492 0.287433 6.0554 0.23972Q6.24588 0.192007 6.43847 0.153699Q6.63106 0.11539 6.8253 0.0865771Q7.01954 0.0577644 7.21496 0.0385174Q7.41038 0.0192703 7.60651 0.00963514Q7.80264 0 7.999 0Z" id="path_1" />
  </defs>
  <g filter="url(#filter_1)">
    <g id="5.-HDFC-Bank" transform="translate(7 5)">
      <path d="M79.6533 27.2716C79.6533 27.2716 77.3934 24.3374 75.3488 21.9711C73.3041 19.6049 71.4747 17.8066 71.4747 17.8066L87.832 17.8066L79.6533 27.2716Z" id="Triangle" fill="#FFFFFF" fill-rule="evenodd" stroke="#ED1C24" stroke-width="1" />
      <g id="Rectangle">
        <use xlink:href="#path_1" fill="none" stroke="#ED1C24" stroke-width="2" />
        <use stroke="none" fill="#FFFFFF" xlink:href="#path_1" fill-rule="evenodd" />
      </g>
      <g id="HDFC-BANK" fill="#000000" fill-opacity="0.6392157" transform="translate(2.5000153 2.3000412)">
        <path d="M31.9378 8.05225L30.3963 7.56348Q30.1975 8.42822 29.741 8.83105Q29.2844 9.23389 28.6507 9.23389Q27.7913 9.23389 27.2542 8.6001Q26.7171 7.96631 26.7171 6.47314Q26.7171 5.06592 27.2622 4.4375Q27.8074 3.80908 28.6829 3.80908Q29.3167 3.80908 29.7598 4.16357Q30.2029 4.51807 30.3426 5.13037L31.9163 4.75439Q31.6477 3.80908 31.1106 3.3042Q30.2083 2.4502 28.7635 2.4502Q27.1092 2.4502 26.094 3.53784Q25.0789 4.62549 25.0789 6.59131Q25.0789 8.44971 26.0886 9.52124Q27.0984 10.5928 28.6668 10.5928Q29.9343 10.5928 30.7588 9.96704Q31.5833 9.34131 31.9378 8.05225ZM2.75661 2.58447L2.75661 10.4585L4.34646 10.4585L4.34646 7.01562L7.46169 7.01562L7.46169 10.4585L9.05154 10.4585L9.05154 2.58447L7.46169 2.58447L7.46169 5.68359L4.34646 5.68359L4.34646 2.58447L2.75661 2.58447ZM13.5955 2.58447L10.6897 2.58447L10.6897 10.4585L13.6814 10.4585Q14.5623 10.4585 15.0886 10.292Q15.7923 10.0664 16.2058 9.66357Q16.7537 9.13184 17.0491 8.27246Q17.2908 7.56885 17.2908 6.59668Q17.2908 5.49023 17.033 4.7356Q16.7752 3.98096 16.281 3.45996Q15.7869 2.93896 15.094 2.73486Q14.5784 2.58447 13.5955 2.58447ZM18.6497 10.4585L18.6497 2.58447L24.0476 2.58447L24.0476 3.9165L20.2395 3.9165L20.2395 5.78027L23.5266 5.78027L23.5266 7.1123L20.2395 7.1123L20.2395 10.4585L18.6497 10.4585ZM36.3635 2.58447L39.511 2.58447Q40.4456 2.58447 40.9048 2.66235Q41.364 2.74023 41.7266 2.9873Q42.0891 3.23438 42.3308 3.64526Q42.5725 4.05615 42.5725 4.56641Q42.5725 5.11963 42.2744 5.58154Q41.9763 6.04346 41.4661 6.27441Q42.1858 6.48389 42.5725 6.98877Q42.9593 7.49365 42.9593 8.17578Q42.9593 8.71289 42.7095 9.22046Q42.4597 9.72803 42.0274 10.0315Q41.595 10.335 40.9612 10.4048Q40.5637 10.4478 39.0437 10.4585L36.3635 10.4585L36.3635 2.58447ZM49.6731 10.4585L51.4026 10.4585L48.2498 2.58447L46.5686 2.58447L43.5017 10.4585L45.1883 10.4585L45.8382 8.66992L48.9856 8.66992L49.6731 10.4585ZM52.262 10.4585L52.262 2.58447L53.8089 2.58447L57.0315 7.84277L57.0315 2.58447L58.5086 2.58447L58.5086 10.4585L56.9134 10.4585L53.739 5.32373L53.739 10.4585L52.262 10.4585ZM60.2112 2.58447L60.2112 10.4585L61.801 10.4585L61.801 8.0791L63.0901 6.76318L65.2547 10.4585L67.3118 10.4585L64.1858 5.65137L67.1507 2.58447L65.013 2.58447L61.801 6.08105L61.801 2.58447L60.2112 2.58447ZM37.9534 3.89502L37.9534 5.71582L38.9954 5.71582Q39.9246 5.71582 40.1502 5.68896Q40.5584 5.64062 40.792 5.40698Q41.0257 5.17334 41.0257 4.79199Q41.0257 4.42676 40.8242 4.19849Q40.6228 3.97021 40.2254 3.92188Q39.989 3.89502 38.8665 3.89502L37.9534 3.89502ZM12.2796 9.13184L12.2796 3.9165L12.9939 3.9165Q13.9661 3.9165 14.2991 3.9917Q14.7449 4.08838 15.0349 4.3623Q15.325 4.63623 15.4861 5.125Q15.6472 5.61377 15.6472 6.52686Q15.6472 7.43994 15.4861 7.96899Q15.325 8.49805 15.0698 8.729Q14.8147 8.95996 14.428 9.05664Q14.1326 9.13184 13.4666 9.13184L12.2796 9.13184ZM47.3904 4.42139L48.4754 7.34326L46.3269 7.34326L47.3904 4.42139ZM37.9534 7.02637L37.9534 9.13184L39.4251 9.13184Q40.2844 9.13184 40.5154 9.0835Q40.8699 9.01904 41.0928 8.76929Q41.3157 8.51953 41.3157 8.10059Q41.3157 7.74609 41.1438 7.49902Q40.9719 7.25195 40.647 7.13916Q40.322 7.02637 39.2371 7.02637L37.9534 7.02637Z" />
      </g>
      <g id="5-MIN" transform="translate(72.42108 2.2930527)">
        <g id="5" fill="#000000" fill-opacity="0.6392157">
          <path d="M5.25191 5.2168L6.20895 5.11768Q6.24996 5.44238 6.45162 5.63208Q6.65328 5.82178 6.91647 5.82178Q7.21725 5.82178 7.42574 5.57739Q7.63424 5.33301 7.63424 4.84082Q7.63424 4.37939 7.42745 4.14868Q7.22066 3.91797 6.88912 3.91797Q6.47555 3.91797 6.14742 4.28369L5.36813 4.1709L5.86031 1.56299L8.39986 1.56299L8.39986 2.46191L6.58834 2.46191L6.43795 3.31299Q6.75924 3.15234 7.0942 3.15234Q7.73336 3.15234 8.1777 3.61719Q8.62203 4.08203 8.62203 4.82373Q8.62203 5.44238 8.26315 5.92773Q7.77438 6.59082 6.90621 6.59082Q6.21236 6.59082 5.77486 6.21826Q5.33736 5.8457 5.25191 5.2168Z" />
        </g>
        <g id="MIN" fill="#000000" fill-opacity="0.6392157">
          <path d="M1.81319 13.6592L1.81319 9.36426L3.11105 9.36426L3.89034 12.2939L4.66085 9.36426L5.96163 9.36426L5.96163 13.6592L5.15597 13.6592L5.15597 10.2783L4.30343 13.6592L3.46847 13.6592L2.61886 10.2783L2.61886 13.6592L1.81319 13.6592ZM6.79659 13.6592L6.79659 9.36426L7.66378 9.36426L7.66378 13.6592L6.79659 13.6592ZM8.49874 9.36426L8.49874 13.6592L9.30441 13.6592L9.30441 10.8584L11.0359 13.6592L11.906 13.6592L11.906 9.36426L11.1003 9.36426L11.1003 12.2324L9.34249 9.36426L8.49874 9.36426Z" />
        </g>
      </g>
      <path d="M78.7947 36.4535C78.7947 35.9307 79.1801 35.507 79.6556 35.507C80.1311 35.507 80.5165 35.9307 80.5165 36.4535C80.5165 36.9762 80.1311 37.4 79.6556 37.4C79.1801 37.4 78.7947 36.9762 78.7947 36.4535Z" id="Ellipse" fill="#D3D3D3" fill-rule="evenodd" stroke="#ED1C24" stroke-width="1" />
      <path d="M79.6552 26.9882L79.6552 35.507L79.6552 30.2118" id="Line" fill="none" fill-rule="evenodd" stroke="#ED1C24" stroke-width="1" stroke-linecap="square" />
    </g>
  </g>
</svg>