<?xml version="1.0" encoding="utf-8"?>
<svg width="111px" height="53px" viewBox="0 0 111 53" version="1.1" xmlns:xlink="http://www.w3.org/1999/xlink" xmlns="http://www.w3.org/2000/svg">
  <defs>
    <filter filterUnits="userSpaceOnUse" color-interpolation-filters="sRGB" id="filter_1">
      <feFlood flood-opacity="0" result="BackgroundImageFix" />
      <feColorMatrix in="SourceAlpha" type="matrix" values="0 0 0 0 0 0 0 0 0 0 0 0 0 0 0 0 0 0 127 0" />
      <feOffset dx="0" dy="2" />
      <feGaussianBlur stdDeviation="2" />
      <feColorMatrix type="matrix" values="0 0 0 0 0.39215687 0 0 0 0 0.39215687 0 0 0 0 0.39215687 0 0 0 0.49803922 0" />
      <feBlend mode="normal" in2="BackgroundImageFix" result="effect0_dropShadow" />
      <feBlend mode="normal" in="SourceGraphic" in2="effect0_dropShadow" result="shape" />
    </filter>
    <path d="M7.999 0L89.001 0Q89.1974 0 89.3935 0.00963514Q89.5896 0.0192703 89.785 0.0385174Q89.9805 0.0577644 90.1747 0.0865771Q90.3689 0.11539 90.5615 0.153699Q90.7541 0.192007 90.9446 0.23972Q91.1351 0.287433 91.323 0.344434Q91.5109 0.401436 91.6958 0.467589Q91.8807 0.533742 92.0621 0.608888Q92.2435 0.684033 92.421 0.76799Q92.5985 0.851946 92.7717 0.944512Q92.9449 1.03708 93.1133 1.13803Q93.2817 1.23898 93.445 1.34807Q93.6083 1.45717 93.766 1.57414Q93.9237 1.69112 94.0755 1.81569Q94.2273 1.94026 94.3728 2.07213Q94.5183 2.204 94.6571 2.34285Q94.796 2.4817 94.9279 2.6272Q95.0597 2.7727 95.1843 2.92449Q95.3089 3.07628 95.4258 3.234Q95.5428 3.39172 95.6519 3.55499Q95.761 3.71826 95.862 3.88669Q95.9629 4.05512 96.0555 4.2283Q96.148 4.40148 96.232 4.57899Q96.316 4.7565 96.3911 4.93791Q96.4663 5.11933 96.5324 5.30422Q96.5986 5.4891 96.6556 5.67701Q96.7126 5.86492 96.7603 6.0554Q96.808 6.24588 96.8463 6.43847Q96.8846 6.63106 96.9134 6.8253Q96.9422 7.01954 96.9615 7.21496Q96.9807 7.41038 96.9904 7.60651Q97 7.80264 97 7.999L97 9.72035Q97 9.91672 96.9904 10.1128Q96.9807 10.309 96.9615 10.5044Q96.9422 10.6998 96.9134 10.894Q96.8846 11.0883 96.8463 11.2809Q96.808 11.4735 96.7603 11.6639Q96.7126 11.8544 96.6556 12.0423Q96.5985 12.2302 96.5324 12.4151Q96.4662 12.6 96.3911 12.7814Q96.316 12.9629 96.232 13.1404Q96.148 13.3179 96.0555 13.4911Q95.9629 13.6642 95.862 13.8327Q95.761 14.0011 95.6519 14.1644Q95.5428 14.3276 95.4258 14.4853Q95.3089 14.6431 95.1843 14.7949Q95.0597 14.9467 94.9279 15.0922Q94.796 15.2376 94.6571 15.3765Q94.5183 15.5153 94.3728 15.6472Q94.2273 15.7791 94.0755 15.9037Q93.9237 16.0282 93.766 16.1452Q93.6083 16.2622 93.445 16.3713Q93.2817 16.4804 93.1133 16.5813Q92.9449 16.6823 92.7717 16.7748Q92.5985 16.8674 92.421 16.9514Q92.2435 17.0353 92.0621 17.1105Q91.8807 17.1856 91.6958 17.2518Q91.5109 17.3179 91.323 17.3749Q91.1351 17.4319 90.9446 17.4796Q90.7541 17.5273 90.5615 17.5657Q90.3689 17.604 90.1747 17.6328Q89.9805 17.6616 89.785 17.6808Q89.5896 17.7001 89.3935 17.7097Q89.1974 17.7194 89.001 17.7194L7.999 17.7194Q7.80264 17.7194 7.60651 17.7097Q7.41038 17.7001 7.21496 17.6808Q7.01954 17.6616 6.8253 17.6328Q6.63106 17.604 6.43847 17.5657Q6.24588 17.5273 6.0554 17.4796Q5.86492 17.4319 5.67701 17.3749Q5.4891 17.3179 5.30422 17.2518Q5.11933 17.1856 4.93791 17.1105Q4.7565 17.0353 4.57899 16.9514Q4.40148 16.8674 4.2283 16.7748Q4.05512 16.6823 3.88669 16.5813Q3.71826 16.4804 3.55499 16.3713Q3.39172 16.2622 3.234 16.1452Q3.07628 16.0282 2.92449 15.9037Q2.7727 15.7791 2.6272 15.6472Q2.4817 15.5153 2.34285 15.3765Q2.204 15.2376 2.07213 15.0922Q1.94026 14.9467 1.81569 14.7949Q1.69112 14.6431 1.57414 14.4853Q1.45717 14.3276 1.34807 14.1644Q1.23898 14.0011 1.13803 13.8327Q1.03708 13.6642 0.944512 13.4911Q0.851946 13.3179 0.76799 13.1404Q0.684033 12.9629 0.608888 12.7814Q0.533742 12.6 0.467589 12.4151Q0.401436 12.2302 0.344434 12.0423Q0.287433 11.8544 0.23972 11.664Q0.192007 11.4735 0.153699 11.2809Q0.11539 11.0883 0.0865771 10.894Q0.0577644 10.6998 0.0385174 10.5044Q0.0192703 10.309 0.00963514 10.1128Q0 9.91672 0 9.72035L0 7.999Q0 7.80264 0.00963514 7.60651Q0.0192703 7.41038 0.0385174 7.21496Q0.0577644 7.01954 0.0865771 6.8253Q0.11539 6.63106 0.153699 6.43847Q0.192007 6.24588 0.23972 6.0554Q0.287433 5.86492 0.344434 5.67701Q0.401436 5.4891 0.467589 5.30422Q0.533742 5.11933 0.608888 4.93791Q0.684033 4.7565 0.76799 4.57899Q0.851946 4.40148 0.944512 4.2283Q1.03708 4.05512 1.13803 3.88669Q1.23898 3.71826 1.34807 3.55499Q1.45717 3.39172 1.57414 3.234Q1.69112 3.07628 1.81569 2.92449Q1.94026 2.7727 2.07213 2.6272Q2.204 2.4817 2.34285 2.34285Q2.4817 2.204 2.6272 2.07213Q2.7727 1.94026 2.92449 1.81569Q3.07628 1.69112 3.234 1.57414Q3.39172 1.45717 3.55499 1.34807Q3.71826 1.23898 3.88669 1.13803Q4.05512 1.03708 4.2283 0.944512Q4.40148 0.851946 4.57899 0.76799Q4.7565 0.684033 4.93791 0.608888Q5.11933 0.533742 5.30422 0.467589Q5.4891 0.401436 5.67701 0.344434Q5.86492 0.287433 6.0554 0.23972Q6.24588 0.192007 6.43847 0.153699Q6.63106 0.11539 6.8253 0.0865771Q7.01954 0.0577644 7.21496 0.0385174Q7.41038 0.0192703 7.60651 0.00963514Q7.80264 0 7.999 0L7.999 0Z" id="path_1" />
  </defs>
  <g filter="url(#filter_1)">
    <g id="11.-KBS-Chowk" transform="translate(7 5)">
      <path d="M13.0534 27.5716C13.0534 27.5716 10.7935 24.6374 8.74883 22.2712C6.70417 19.9049 4.87476 18.1066 4.87476 18.1066L21.2321 18.1066L13.0534 27.5716Z" id="Triangle" fill="#FFFFFF" fill-rule="evenodd" stroke="#ED1C24" stroke-width="1" />
      <g id="Rectangle">
        <use xlink:href="#path_1" fill="none" stroke="#ED1C24" stroke-width="2" />
        <use stroke="none" fill="#FFFFFF" xlink:href="#path_1" fill-rule="evenodd" />
      </g>
      <g id="KSB-CHOWK" fill="#000000" fill-opacity="0.6392157" transform="translate(21.600098 2.3000412)">
        <path d="M11.3628 7.74609L9.81592 7.89648Q9.97168 9.21777 10.772 9.90796Q11.5723 10.5981 13.0654 10.5981Q14.0913 10.5981 14.7788 10.3108Q15.4663 10.0234 15.8423 9.43262Q16.2183 8.8418 16.2183 8.16504Q16.2183 7.41846 15.9041 6.91089Q15.5898 6.40332 15.0339 6.1106Q14.478 5.81787 13.3179 5.54395Q12.1577 5.27002 11.8569 5.01758Q11.6206 4.81885 11.6206 4.53955Q11.6206 4.2334 11.873 4.05078Q12.2651 3.76611 12.958 3.76611Q13.6294 3.76611 13.9651 4.03198Q14.3008 4.29785 14.4028 4.90479L15.9927 4.83496Q15.9551 3.75 15.2058 3.1001Q14.4565 2.4502 12.9741 2.4502Q12.0664 2.4502 11.4246 2.72412Q10.7827 2.99805 10.4417 3.52173Q10.1006 4.04541 10.1006 4.64697Q10.1006 5.58154 10.8257 6.23145Q11.3413 6.69336 12.6196 7.01025Q13.6133 7.25732 13.8926 7.354Q14.3008 7.49902 14.4646 7.69507Q14.6284 7.89111 14.6284 8.17041Q14.6284 8.60547 14.239 8.93042Q13.8496 9.25537 13.0815 9.25537Q12.3564 9.25537 11.9294 8.89014Q11.5024 8.5249 11.3628 7.74609ZM35.1353 8.05225L33.5938 7.56348Q33.395 8.42822 32.9385 8.83105Q32.4819 9.23389 31.8481 9.23389Q30.9888 9.23389 30.4517 8.6001Q29.9146 7.96631 29.9146 6.47314Q29.9146 5.06592 30.4597 4.4375Q31.0049 3.80908 31.8804 3.80908Q32.5142 3.80908 32.9573 4.16357Q33.4004 4.51807 33.54 5.13037L35.1138 4.75439Q34.8452 3.80908 34.3081 3.3042Q33.4058 2.4502 31.9609 2.4502Q30.3066 2.4502 29.2915 3.53784Q28.2764 4.62549 28.2764 6.59131Q28.2764 8.44971 29.2861 9.52124Q30.2959 10.5928 31.8643 10.5928Q33.1318 10.5928 33.9563 9.96704Q34.7808 9.34131 35.1353 8.05225ZM44.481 4.55029Q44.1211 5.3667 44.1211 6.56982Q44.1211 8.44971 45.1577 9.52124Q46.1943 10.5928 47.9507 10.5928Q49.6855 10.5928 50.7222 9.51587Q51.7588 8.43896 51.7588 6.53223Q51.7588 4.60938 50.7141 3.52979Q49.6694 2.4502 47.9292 2.4502Q46.9678 2.4502 46.2319 2.76172Q45.6787 2.99268 45.2141 3.4707Q44.7495 3.94873 44.481 4.55029ZM2.29639 2.58447L2.29639 10.4585L3.88623 10.4585L3.88623 8.0791L5.17529 6.76318L7.33984 10.4585L9.39697 10.4585L6.271 5.65137L9.23584 2.58447L7.09814 2.58447L3.88623 6.08105L3.88623 2.58447L2.29639 2.58447ZM17.561 2.58447L20.7085 2.58447Q21.6431 2.58447 22.1023 2.66235Q22.5615 2.74023 22.9241 2.9873Q23.2866 3.23438 23.5283 3.64526Q23.77 4.05615 23.77 4.56641Q23.77 5.11963 23.4719 5.58154Q23.1738 6.04346 22.6636 6.27441Q23.3833 6.48389 23.77 6.98877Q24.1567 7.49365 24.1567 8.17578Q24.1567 8.71289 23.907 9.22046Q23.6572 9.72803 23.2249 10.0315Q22.7925 10.335 22.1587 10.4048Q21.7612 10.4478 20.2412 10.4585L17.561 10.4585L17.561 2.58447ZM36.5049 10.4585L36.5049 2.58447L38.0947 2.58447L38.0947 5.68359L41.21 5.68359L41.21 2.58447L42.7998 2.58447L42.7998 10.4585L41.21 10.4585L41.21 7.01562L38.0947 7.01562L38.0947 10.4585L36.5049 10.4585ZM54.1167 10.4585L52.2368 2.58447L53.8643 2.58447L55.0513 7.99316L56.4907 2.58447L58.3813 2.58447L59.7617 8.08447L60.9702 2.58447L62.5708 2.58447L60.6587 10.4585L58.9722 10.4585L57.4038 4.57178L55.8408 10.4585L54.1167 10.4585ZM63.4033 2.58447L63.4033 10.4585L64.9932 10.4585L64.9932 8.0791L66.2822 6.76318L68.4468 10.4585L70.5039 10.4585L67.3779 5.65137L70.3428 2.58447L68.2051 2.58447L64.9932 6.08105L64.9932 2.58447L63.4033 2.58447ZM46.377 8.5437Q45.7593 7.85352 45.7593 6.51611Q45.7593 5.15723 46.3608 4.48315Q46.9624 3.80908 47.9453 3.80908Q48.9282 3.80908 49.5217 4.4751Q50.1152 5.14111 50.1152 6.49463Q50.1152 7.86426 49.5056 8.54907Q48.896 9.23389 47.9453 9.23389Q46.9946 9.23389 46.377 8.5437ZM19.1509 3.89502L19.1509 5.71582L20.1929 5.71582Q21.1221 5.71582 21.3477 5.68896Q21.7559 5.64062 21.9895 5.40698Q22.2231 5.17334 22.2231 4.79199Q22.2231 4.42676 22.0217 4.19849Q21.8203 3.97021 21.4229 3.92188Q21.1865 3.89502 20.064 3.89502L19.1509 3.89502ZM19.1509 9.13184L20.6226 9.13184Q21.4819 9.13184 21.7129 9.0835Q22.0674 9.01904 22.2903 8.76929Q22.5132 8.51953 22.5132 8.10059Q22.5132 7.74609 22.3413 7.49902Q22.1694 7.25195 21.8445 7.13916Q21.5195 7.02637 20.4346 7.02637L19.1509 7.02637L19.1509 9.13184Z" />
      </g>
      <g id="10-MIN" transform="translate(5.800049 1.6999512)">
        <g id="10" fill="#000000" fill-opacity="0.6392157">
          <path d="M4.78878 6.50537L5.74923 6.50537L5.74923 1.47412L4.96993 1.47412Q4.80587 1.93213 4.36495 2.27563Q3.92403 2.61914 3.54806 2.74219L3.54806 3.61377Q4.26241 3.37793 4.78878 2.88574L4.78878 6.50537ZM9.9465 1.99365Q9.53634 1.47412 8.80831 1.47412Q8.08028 1.47412 7.67355 1.98682Q7.18136 2.60889 7.18136 4.02393Q7.18136 5.46631 7.62911 6.02856Q8.07687 6.59082 8.80831 6.59082Q9.53634 6.59082 9.94308 6.07812Q10.4353 5.45605 10.4353 4.03418Q10.4353 2.60889 9.9465 1.99365ZM8.49728 2.38159Q8.634 2.27051 8.80831 2.27051Q8.98263 2.27051 9.11764 2.38159Q9.25265 2.49268 9.34151 2.82251Q9.43038 3.15234 9.43038 4.03418Q9.43038 4.91602 9.33126 5.28516Q9.25607 5.57227 9.11935 5.68335Q8.98263 5.79443 8.80831 5.79443Q8.634 5.79443 8.49899 5.68506Q8.36398 5.57568 8.27511 5.24585Q8.18624 4.91602 8.18624 4.03418Q8.18624 3.15234 8.28536 2.77979Q8.36056 2.49268 8.49728 2.38159Z" />
        </g>
        <g id="MIN" fill="#000000" fill-opacity="0.6392157">
          <path d="M1.81319 13.6592L1.81319 9.36426L3.11105 9.36426L3.89034 12.2939L4.66085 9.36426L5.96163 9.36426L5.96163 13.6592L5.15597 13.6592L5.15597 10.2783L4.30343 13.6592L3.46847 13.6592L2.61886 10.2783L2.61886 13.6592L1.81319 13.6592ZM6.79659 13.6592L6.79659 9.36426L7.66378 9.36426L7.66378 13.6592L6.79659 13.6592ZM8.49874 9.36426L8.49874 13.6592L9.30441 13.6592L9.30441 10.8584L11.0359 13.6592L11.906 13.6592L11.906 9.36426L11.1003 9.36426L11.1003 12.2324L9.34249 9.36426L8.49874 9.36426Z" />
        </g>
      </g>
      <path d="M12 37.7C12 38.2523 12.4359 38.7 12.9737 38.7C13.5114 38.7 13.9474 38.2523 13.9474 37.7C13.9474 37.1477 13.5114 36.7 12.9737 36.7C12.4359 36.7 12 37.1477 12 37.7Z" id="Ellipse" fill="#D3D3D3" fill-rule="evenodd" stroke="#ED1C24" stroke-width="1" />
      <path d="M12.9999 27.7882L12.9999 36.307L12.9999 31.0118" id="Line" fill="none" fill-rule="evenodd" stroke="#ED1C24" stroke-width="1" stroke-linecap="square" />
    </g>
  </g>
</svg>