<svg xmlns="http://www.w3.org/2000/svg" width="3750" viewBox="0 0 3750 1875" height="1875" version="1.0"><defs><clipPath id="a"><path d="M 1128.140625 1190.804688 L 1474.640625 1190.804688 L 1474.640625 1340.804688 L 1128.140625 1340.804688 Z M 1128.140625 1190.804688"/></clipPath></defs><path fill="#FF1616" d="M 1063.445312 903.722656 L 2370.1875 903.722656 L 2370.1875 1251.210938 L 1063.445312 1251.210938 L 1063.445312 903.722656"/><path fill="#77838D" d="M 1063.445312 1254.09375 L 1060.566406 1254.09375 L 1060.566406 900.84375 L 2373.066406 900.84375 L 2373.066406 1254.09375 L 1063.445312 1254.09375 M 1066.324219 906.605469 L 1066.324219 1248.332031 L 2367.308594 1248.332031 L 2367.308594 906.605469 L 1066.324219 906.605469"/><path fill="#FFF" d="M 1123.90625 964.800781 L 2309.152344 964.800781 L 2309.152344 1190.710938 L 1123.90625 1190.710938 L 1123.90625 964.800781"/><path fill="#FF1616" d="M 2376.304688 903.726562 L 3196.296875 903.726562 L 3196.296875 1251.210938 L 2376.304688 1251.210938 L 2376.304688 903.726562"/><path fill="#77838D" d="M 2376.304688 1254.09375 L 2373.425781 1254.09375 L 2373.425781 900.84375 L 3199.175781 900.84375 L 3199.175781 1254.09375 L 2376.304688 1254.09375 M 2379.1875 906.605469 L 2379.1875 1248.332031 L 3193.417969 1248.332031 L 3193.417969 906.605469 L 2379.1875 906.605469"/><path fill="#FFF" d="M 2436.78125 964.800781 L 3135.246094 964.800781 L 3135.246094 1190.710938 L 2436.78125 1190.710938 L 2436.78125 964.800781"/><g clip-path="url(#a)"><path fill="#FF1616" d="M 1301.386719 1340.804688 L 1474.394531 1190.804688 L 1128.386719 1190.804688 Z M 1301.386719 1340.804688"/></g><g><g><g><path d="M 82.796875 0 L 47.546875 0 L 47.546875 -68.03125 C 47.546875 -76.289062 47.722656 -83.847656 48.078125 -90.703125 C 45.910156 -88.066406 43.210938 -85.3125 39.984375 -82.4375 L 25.40625 -70.40625 L 7.390625 -92.546875 L 51.5 -128.5 L 82.796875 -128.5 Z M 82.796875 0" transform="translate(2448.654 1152.426)"/></g></g><g><g><path d="M 99.140625 -64.078125 C 99.140625 -41.335938 95.332031 -24.675781 87.71875 -14.09375 C 80.101562 -3.519531 68.441406 1.765625 52.734375 1.765625 C 37.378906 1.765625 25.804688 -3.753906 18.015625 -14.796875 C 10.222656 -25.847656 6.328125 -42.273438 6.328125 -64.078125 C 6.328125 -86.921875 10.132812 -103.675781 17.75 -114.34375 C 25.375 -125.007812 37.035156 -130.34375 52.734375 -130.34375 C 68.023438 -130.34375 79.582031 -124.789062 87.40625 -113.6875 C 95.226562 -102.582031 99.140625 -86.046875 99.140625 -64.078125 Z M 40.875 -64.078125 C 40.875 -49.546875 41.78125 -39.550781 43.59375 -34.09375 C 45.40625 -28.644531 48.453125 -25.921875 52.734375 -25.921875 C 57.066406 -25.921875 60.125 -28.734375 61.90625 -34.359375 C 63.695312 -39.984375 64.59375 -49.890625 64.59375 -64.078125 C 64.59375 -78.316406 63.6875 -88.289062 61.875 -94 C 60.0625 -99.707031 57.015625 -102.5625 52.734375 -102.5625 C 48.453125 -102.5625 45.40625 -99.804688 43.59375 -94.296875 C 41.78125 -88.796875 40.875 -78.722656 40.875 -64.078125 Z M 40.875 -64.078125" transform="translate(2554.123 1152.426)"/></g></g><g><g><path d="M 3.78125 -34.546875 L 3.78125 -61.96875 L 53.4375 -61.96875 L 53.4375 -34.546875 Z M 3.78125 -34.546875" transform="translate(2659.592 1152.426)"/></g></g><g><g><path d="M 69.875 0 L 43.59375 -92.546875 L 42.796875 -92.546875 C 44.035156 -76.785156 44.65625 -64.539062 44.65625 -55.8125 L 44.65625 0 L 13.890625 0 L 13.890625 -128.5 L 60.125 -128.5 L 86.921875 -37.265625 L 87.625 -37.265625 L 113.90625 -128.5 L 160.21875 -128.5 L 160.21875 0 L 128.328125 0 L 128.328125 -56.34375 C 128.328125 -59.269531 128.367188 -62.519531 128.453125 -66.09375 C 128.535156 -69.664062 128.929688 -78.425781 129.640625 -92.375 L 128.84375 -92.375 L 102.921875 0 Z M 69.875 0" transform="translate(2716.809 1152.426)"/></g></g><g><g><path d="M 13.890625 0 L 13.890625 -128.5 L 48.78125 -128.5 L 48.78125 0 Z M 13.890625 0" transform="translate(2890.832 1152.426)"/></g></g><g><g><path d="M 136.234375 0 L 90.703125 0 L 43.765625 -90.53125 L 42.984375 -90.53125 C 44.097656 -76.289062 44.65625 -65.421875 44.65625 -57.921875 L 44.65625 0 L 13.890625 0 L 13.890625 -128.5 L 59.234375 -128.5 L 106 -39.203125 L 106.53125 -39.203125 C 105.707031 -52.148438 105.296875 -62.550781 105.296875 -70.40625 L 105.296875 -128.5 L 136.234375 -128.5 Z M 136.234375 0" transform="translate(2953.498 1152.426)"/></g></g></g><g><g><g><path d="M 123.65625 0 L 84.46875 0 L 59.0625 -49.125 L 48.78125 -42.984375 L 48.78125 0 L 13.890625 0 L 13.890625 -128.5 L 48.78125 -128.5 L 48.78125 -72.6875 C 50.539062 -76.144531 54.085938 -81.625 59.421875 -89.125 L 86.390625 -128.5 L 124.359375 -128.5 L 83.84375 -70.921875 Z M 123.65625 0" transform="translate(1161.82 1152.426)"/></g></g><g><g><path d="M 97.90625 -39.03125 C 97.90625 -31.0625 95.882812 -23.984375 91.84375 -17.796875 C 87.800781 -11.617188 81.972656 -6.8125 74.359375 -3.375 C 66.742188 0.0507812 57.804688 1.765625 47.546875 1.765625 C 38.992188 1.765625 31.816406 1.164062 26.015625 -0.03125 C 20.210938 -1.238281 14.175781 -3.335938 7.90625 -6.328125 L 7.90625 -37.265625 C 14.53125 -33.867188 21.414062 -31.21875 28.5625 -29.3125 C 35.707031 -27.40625 42.269531 -26.453125 48.25 -26.453125 C 53.40625 -26.453125 57.179688 -27.34375 59.578125 -29.125 C 61.984375 -30.914062 63.1875 -33.21875 63.1875 -36.03125 C 63.1875 -37.789062 62.703125 -39.328125 61.734375 -40.640625 C 60.773438 -41.960938 59.222656 -43.296875 57.078125 -44.640625 C 54.941406 -45.992188 49.242188 -48.75 39.984375 -52.90625 C 31.609375 -56.71875 25.328125 -60.410156 21.140625 -63.984375 C 16.953125 -67.554688 13.847656 -71.65625 11.828125 -76.28125 C 9.804688 -80.914062 8.796875 -86.394531 8.796875 -92.71875 C 8.796875 -104.5625 13.097656 -113.789062 21.703125 -120.40625 C 30.316406 -127.03125 42.15625 -130.34375 57.21875 -130.34375 C 70.519531 -130.34375 84.082031 -127.265625 97.90625 -121.109375 L 87.28125 -94.3125 C 75.269531 -99.8125 64.894531 -102.5625 56.15625 -102.5625 C 51.644531 -102.5625 48.363281 -101.769531 46.3125 -100.1875 C 44.269531 -98.613281 43.25 -96.65625 43.25 -94.3125 C 43.25 -91.789062 44.550781 -89.53125 47.15625 -87.53125 C 49.757812 -85.539062 56.832031 -81.910156 68.375 -76.640625 C 79.445312 -71.660156 87.132812 -66.3125 91.4375 -60.59375 C 95.75 -54.882812 97.90625 -47.695312 97.90625 -39.03125 Z M 97.90625 -39.03125" transform="translate(1285.481 1152.426)"/></g></g><g><g><path d="M 13.890625 -128.5 L 58.71875 -128.5 C 76.175781 -128.5 89.132812 -125.90625 97.59375 -120.71875 C 106.0625 -115.53125 110.296875 -107.457031 110.296875 -96.5 C 110.296875 -89.289062 108.453125 -83.140625 104.765625 -78.046875 C 101.078125 -72.953125 96.210938 -69.671875 90.171875 -68.203125 L 90.171875 -67.328125 C 98.140625 -65.210938 103.910156 -61.691406 107.484375 -56.765625 C 111.066406 -51.847656 112.859375 -45.46875 112.859375 -37.625 C 112.859375 -25.957031 108.476562 -16.769531 99.71875 -10.0625 C 90.957031 -3.351562 79.015625 0 63.890625 0 L 13.890625 0 Z M 48.609375 -79.1875 L 59.0625 -79.1875 C 64.039062 -79.1875 67.890625 -80.210938 70.609375 -82.265625 C 73.335938 -84.316406 74.703125 -87.363281 74.703125 -91.40625 C 74.703125 -98.613281 69.253906 -102.21875 58.359375 -102.21875 L 48.609375 -102.21875 Z M 48.609375 -53.796875 L 48.609375 -26.8125 L 60.828125 -26.8125 C 71.660156 -26.8125 77.078125 -31.378906 77.078125 -40.515625 C 77.078125 -44.796875 75.625 -48.078125 72.71875 -50.359375 C 69.820312 -52.648438 65.625 -53.796875 60.125 -53.796875 Z M 48.609375 -53.796875" transform="translate(1389.368 1152.426)"/></g></g><g><g><path d="M 71.109375 -101.859375 C 62.847656 -101.859375 56.398438 -98.472656 51.765625 -91.703125 C 47.140625 -84.941406 44.828125 -75.613281 44.828125 -63.71875 C 44.828125 -38.988281 54.226562 -26.625 73.03125 -26.625 C 78.71875 -26.625 84.226562 -27.414062 89.5625 -29 C 94.894531 -30.582031 100.253906 -32.488281 105.640625 -34.71875 L 105.640625 -5.359375 C 94.921875 -0.609375 82.796875 1.765625 69.265625 1.765625 C 49.867188 1.765625 35 -3.859375 24.65625 -15.109375 C 14.3125 -26.367188 9.140625 -42.628906 9.140625 -63.890625 C 9.140625 -77.191406 11.644531 -88.878906 16.65625 -98.953125 C 21.664062 -109.035156 28.875 -116.785156 38.28125 -122.203125 C 47.6875 -127.628906 58.742188 -130.34375 71.453125 -130.34375 C 85.335938 -130.34375 98.609375 -127.328125 111.265625 -121.296875 L 100.640625 -93.953125 C 95.890625 -96.179688 91.140625 -98.054688 86.390625 -99.578125 C 81.648438 -101.097656 76.554688 -101.859375 71.109375 -101.859375 Z M 71.109375 -101.859375" transform="translate(1557.415 1152.426)"/></g></g><g><g><path d="M 124.015625 0 L 89.125 0 L 89.125 -52.390625 L 48.78125 -52.390625 L 48.78125 0 L 13.890625 0 L 13.890625 -128.5 L 48.78125 -128.5 L 48.78125 -80.859375 L 89.125 -80.859375 L 89.125 -128.5 L 124.015625 -128.5 Z M 124.015625 0" transform="translate(1674.222 1152.426)"/></g></g><g><g><path d="M 134.125 -64.421875 C 134.125 -42.804688 128.820312 -26.367188 118.21875 -15.109375 C 107.613281 -3.859375 92.082031 1.765625 71.625 1.765625 C 51.46875 1.765625 36.015625 -3.890625 25.265625 -15.203125 C 14.515625 -26.515625 9.140625 -42.976562 9.140625 -64.59375 C 9.140625 -85.988281 14.484375 -102.320312 25.171875 -113.59375 C 35.867188 -124.875 51.414062 -130.515625 71.8125 -130.515625 C 92.257812 -130.515625 107.753906 -124.914062 118.296875 -113.71875 C 128.847656 -102.53125 134.125 -86.097656 134.125 -64.421875 Z M 45.703125 -64.421875 C 45.703125 -39.578125 54.34375 -27.15625 71.625 -27.15625 C 80.414062 -27.15625 86.9375 -30.171875 91.1875 -36.203125 C 95.4375 -42.242188 97.5625 -51.648438 97.5625 -64.421875 C 97.5625 -77.253906 95.40625 -86.734375 91.09375 -92.859375 C 86.789062 -98.984375 80.363281 -102.046875 71.8125 -102.046875 C 54.40625 -102.046875 45.703125 -89.503906 45.703125 -64.421875 Z M 45.703125 -64.421875" transform="translate(1812.122 1152.426)"/></g></g><g><g><path d="M 152.671875 0 L 111.625 0 L 99.3125 -55.984375 C 98.726562 -58.328125 97.804688 -62.984375 96.546875 -69.953125 C 95.285156 -76.929688 94.363281 -82.765625 93.78125 -87.453125 C 93.3125 -83.640625 92.546875 -78.90625 91.484375 -73.25 C 90.429688 -67.601562 89.394531 -62.40625 88.375 -57.65625 C 87.351562 -52.90625 83.09375 -33.6875 75.59375 0 L 34.546875 0 L 2.71875 -128.5 L 36.21875 -128.5 L 50.1875 -64.078125 C 53.351562 -49.835938 55.519531 -38.5 56.6875 -30.0625 C 57.445312 -36.039062 58.804688 -44.15625 60.765625 -54.40625 C 62.734375 -64.65625 64.566406 -73.148438 66.265625 -79.890625 L 77.609375 -128.5 L 109.78125 -128.5 L 120.765625 -79.890625 C 122.640625 -72.097656 124.539062 -63.101562 126.46875 -52.90625 C 128.40625 -42.71875 129.695312 -35.101562 130.34375 -30.0625 C 131.101562 -36.5625 133.179688 -47.835938 136.578125 -63.890625 L 150.828125 -128.5 L 184.3125 -128.5 Z M 152.671875 0" transform="translate(1955.56 1152.426)"/></g></g><g><g><path d="M 123.65625 0 L 84.46875 0 L 59.0625 -49.125 L 48.78125 -42.984375 L 48.78125 0 L 13.890625 0 L 13.890625 -128.5 L 48.78125 -128.5 L 48.78125 -72.6875 C 50.539062 -76.144531 54.085938 -81.625 59.421875 -89.125 L 86.390625 -128.5 L 124.359375 -128.5 L 83.84375 -70.921875 Z M 123.65625 0" transform="translate(2142.59 1152.426)"/></g></g></g></svg>