<svg xmlns="http://www.w3.org/2000/svg" width="3750" viewBox="0 0 3750 1875" height="1875" version="1.0"><defs><clipPath id="a"><path d="M 2618 1202.453125 L 2964.464844 1202.453125 L 2964.464844 1352.453125 L 2618 1352.453125 Z M 2618 1202.453125"/></clipPath></defs><path fill="#FF1616" d="M 1065.535156 725.386719 L 2370.921875 725.386719 L 2370.921875 1250.800781 L 1065.535156 1250.800781 L 1065.535156 725.386719"/><path fill="#77838D" d="M 1065.535156 1253.59375 L 1062.742188 1253.59375 L 1062.742188 722.59375 L 2373.71875 722.59375 L 2373.71875 1253.59375 L 1065.535156 1253.59375 M 1068.328125 728.175781 L 1068.328125 1248.007812 L 2368.128906 1248.007812 L 2368.128906 728.175781 L 1068.328125 728.175781"/><path fill="#FFF" d="M 1124.214844 784.570312 L 2311.683594 784.570312 L 2311.683594 1192.171875 L 1124.214844 1192.171875 L 1124.214844 784.570312"/><path fill="#FF1616" d="M 2376.222656 725.386719 L 3206.878906 725.386719 L 3206.878906 1250.800781 L 2376.222656 1250.800781 L 2376.222656 725.386719"/><path fill="#77838D" d="M 2376.222656 1253.59375 L 2373.429688 1253.59375 L 2373.429688 722.59375 L 3209.675781 722.59375 L 3209.675781 1253.59375 L 2376.222656 1253.59375 M 2379.019531 728.175781 L 2379.019531 1248.007812 L 3204.085938 1248.007812 L 3204.085938 728.175781 L 2379.019531 728.175781"/><path fill="#FFF" d="M 2434.917969 784.570312 L 3147.625 784.570312 L 3147.625 1192.171875 L 2434.917969 1192.171875 L 2434.917969 784.570312"/><g><g><g><path d="M 58.359375 -84.203125 C 65.742188 -84.203125 72.410156 -82.488281 78.359375 -79.0625 C 84.304688 -75.632812 88.929688 -70.785156 92.234375 -64.515625 C 95.546875 -58.242188 97.203125 -51.003906 97.203125 -42.796875 C 97.203125 -28.441406 92.878906 -17.425781 84.234375 -9.75 C 75.597656 -2.070312 62.519531 1.765625 45 1.765625 C 30 1.765625 17.753906 -0.550781 8.265625 -5.1875 L 8.265625 -33.65625 C 13.359375 -31.3125 19.113281 -29.378906 25.53125 -27.859375 C 31.945312 -26.335938 37.46875 -25.578125 42.09375 -25.578125 C 48.539062 -25.578125 53.492188 -26.9375 56.953125 -29.65625 C 60.410156 -32.382812 62.140625 -36.414062 62.140625 -41.75 C 62.140625 -46.664062 60.378906 -50.5 56.859375 -53.25 C 53.347656 -56.007812 48.019531 -57.390625 40.875 -57.390625 C 35.425781 -57.390625 29.535156 -56.363281 23.203125 -54.3125 L 10.453125 -60.640625 L 15.296875 -128.5 L 88.59375 -128.5 L 88.59375 -99.578125 L 44.828125 -99.578125 L 43.25 -82.625 C 47.8125 -83.5 51.0625 -83.976562 53 -84.0625 C 54.9375 -84.15625 56.722656 -84.203125 58.359375 -84.203125 Z M 58.359375 -84.203125" transform="translate(2516.618 1042.133)"/></g></g><g><g><path d="M 3.78125 -34.546875 L 3.78125 -61.96875 L 53.4375 -61.96875 L 53.4375 -34.546875 Z M 3.78125 -34.546875" transform="translate(2622.087 1042.133)"/></g></g><g><g><path d="M 69.875 0 L 43.59375 -92.546875 L 42.796875 -92.546875 C 44.035156 -76.785156 44.65625 -64.539062 44.65625 -55.8125 L 44.65625 0 L 13.890625 0 L 13.890625 -128.5 L 60.125 -128.5 L 86.921875 -37.265625 L 87.625 -37.265625 L 113.90625 -128.5 L 160.21875 -128.5 L 160.21875 0 L 128.328125 0 L 128.328125 -56.34375 C 128.328125 -59.269531 128.367188 -62.519531 128.453125 -66.09375 C 128.535156 -69.664062 128.929688 -78.425781 129.640625 -92.375 L 128.84375 -92.375 L 102.921875 0 Z M 69.875 0" transform="translate(2679.303 1042.133)"/></g></g><g><g><path d="M 13.890625 0 L 13.890625 -128.5 L 48.78125 -128.5 L 48.78125 0 Z M 13.890625 0" transform="translate(2853.327 1042.133)"/></g></g><g><g><path d="M 136.234375 0 L 90.703125 0 L 43.765625 -90.53125 L 42.984375 -90.53125 C 44.097656 -76.289062 44.65625 -65.421875 44.65625 -57.921875 L 44.65625 0 L 13.890625 0 L 13.890625 -128.5 L 59.234375 -128.5 L 106 -39.203125 L 106.53125 -39.203125 C 105.707031 -52.148438 105.296875 -62.550781 105.296875 -70.40625 L 105.296875 -128.5 L 136.234375 -128.5 Z M 136.234375 0" transform="translate(2915.993 1042.133)"/></g></g></g><g><g><g><path d="M 69.875 0 L 43.59375 -92.546875 L 42.796875 -92.546875 C 44.035156 -76.785156 44.65625 -64.539062 44.65625 -55.8125 L 44.65625 0 L 13.890625 0 L 13.890625 -128.5 L 60.125 -128.5 L 86.921875 -37.265625 L 87.625 -37.265625 L 113.90625 -128.5 L 160.21875 -128.5 L 160.21875 0 L 128.328125 0 L 128.328125 -56.34375 C 128.328125 -59.269531 128.367188 -62.519531 128.453125 -66.09375 C 128.535156 -69.664062 128.929688 -78.425781 129.640625 -92.375 L 128.84375 -92.375 L 102.921875 0 Z M 69.875 0" transform="translate(1154.41 952.274)"/></g></g><g><g><path d="M 134.125 -64.421875 C 134.125 -42.804688 128.820312 -26.367188 118.21875 -15.109375 C 107.613281 -3.859375 92.082031 1.765625 71.625 1.765625 C 51.46875 1.765625 36.015625 -3.890625 25.265625 -15.203125 C 14.515625 -26.515625 9.140625 -42.976562 9.140625 -64.59375 C 9.140625 -85.988281 14.484375 -102.320312 25.171875 -113.59375 C 35.867188 -124.875 51.414062 -130.515625 71.8125 -130.515625 C 92.257812 -130.515625 107.753906 -124.914062 118.296875 -113.71875 C 128.847656 -102.53125 134.125 -86.097656 134.125 -64.421875 Z M 45.703125 -64.421875 C 45.703125 -39.578125 54.34375 -27.15625 71.625 -27.15625 C 80.414062 -27.15625 86.9375 -30.171875 91.1875 -36.203125 C 95.4375 -42.242188 97.5625 -51.648438 97.5625 -64.421875 C 97.5625 -77.253906 95.40625 -86.734375 91.09375 -92.859375 C 86.789062 -98.984375 80.363281 -102.046875 71.8125 -102.046875 C 54.40625 -102.046875 45.703125 -89.503906 45.703125 -64.421875 Z M 45.703125 -64.421875" transform="translate(1328.433 952.274)"/></g></g><g><g><path d="M 97.90625 -39.03125 C 97.90625 -31.0625 95.882812 -23.984375 91.84375 -17.796875 C 87.800781 -11.617188 81.972656 -6.8125 74.359375 -3.375 C 66.742188 0.0507812 57.804688 1.765625 47.546875 1.765625 C 38.992188 1.765625 31.816406 1.164062 26.015625 -0.03125 C 20.210938 -1.238281 14.175781 -3.335938 7.90625 -6.328125 L 7.90625 -37.265625 C 14.53125 -33.867188 21.414062 -31.21875 28.5625 -29.3125 C 35.707031 -27.40625 42.269531 -26.453125 48.25 -26.453125 C 53.40625 -26.453125 57.179688 -27.34375 59.578125 -29.125 C 61.984375 -30.914062 63.1875 -33.21875 63.1875 -36.03125 C 63.1875 -37.789062 62.703125 -39.328125 61.734375 -40.640625 C 60.773438 -41.960938 59.222656 -43.296875 57.078125 -44.640625 C 54.941406 -45.992188 49.242188 -48.75 39.984375 -52.90625 C 31.609375 -56.71875 25.328125 -60.410156 21.140625 -63.984375 C 16.953125 -67.554688 13.847656 -71.65625 11.828125 -76.28125 C 9.804688 -80.914062 8.796875 -86.394531 8.796875 -92.71875 C 8.796875 -104.5625 13.097656 -113.789062 21.703125 -120.40625 C 30.316406 -127.03125 42.15625 -130.34375 57.21875 -130.34375 C 70.519531 -130.34375 84.082031 -127.265625 97.90625 -121.109375 L 87.28125 -94.3125 C 75.269531 -99.8125 64.894531 -102.5625 56.15625 -102.5625 C 51.644531 -102.5625 48.363281 -101.769531 46.3125 -100.1875 C 44.269531 -98.613281 43.25 -96.65625 43.25 -94.3125 C 43.25 -91.789062 44.550781 -89.53125 47.15625 -87.53125 C 49.757812 -85.539062 56.832031 -81.910156 68.375 -76.640625 C 79.445312 -71.660156 87.132812 -66.3125 91.4375 -60.59375 C 95.75 -54.882812 97.90625 -47.695312 97.90625 -39.03125 Z M 97.90625 -39.03125" transform="translate(1471.87 952.274)"/></g></g><g><g><path d="M 124.015625 0 L 89.125 0 L 89.125 -52.390625 L 48.78125 -52.390625 L 48.78125 0 L 13.890625 0 L 13.890625 -128.5 L 48.78125 -128.5 L 48.78125 -80.859375 L 89.125 -80.859375 L 89.125 -128.5 L 124.015625 -128.5 Z M 124.015625 0" transform="translate(1575.757 952.274)"/></g></g><g><g><path d="M 13.890625 0 L 13.890625 -128.5 L 48.78125 -128.5 L 48.78125 0 Z M 13.890625 0" transform="translate(1713.657 952.274)"/></g></g><g><g><path d="M 124.015625 0 L 89.125 0 L 89.125 -52.390625 L 48.78125 -52.390625 L 48.78125 0 L 13.890625 0 L 13.890625 -128.5 L 48.78125 -128.5 L 48.78125 -80.859375 L 89.125 -80.859375 L 89.125 -128.5 L 124.015625 -128.5 Z M 124.015625 0" transform="translate(1823.081 952.274)"/></g></g><g><g><path d="M 13.890625 0 L 13.890625 -128.5 L 48.78125 -128.5 L 48.78125 0 Z M 13.890625 0" transform="translate(1960.982 952.274)"/></g></g><g><g><path d="M 65.484375 -75.234375 L 120.9375 -75.234375 L 120.9375 -5.984375 C 105.875 -0.816406 89.320312 1.765625 71.28125 1.765625 C 51.476562 1.765625 36.171875 -3.976562 25.359375 -15.46875 C 14.546875 -26.957031 9.140625 -43.332031 9.140625 -64.59375 C 9.140625 -85.34375 15.054688 -101.488281 26.890625 -113.03125 C 38.734375 -124.570312 55.316406 -130.34375 76.640625 -130.34375 C 84.722656 -130.34375 92.351562 -129.578125 99.53125 -128.046875 C 106.707031 -126.523438 112.960938 -124.59375 118.296875 -122.25 L 107.3125 -95.015625 C 98.050781 -99.578125 87.882812 -101.859375 76.8125 -101.859375 C 66.675781 -101.859375 58.835938 -98.5625 53.296875 -91.96875 C 47.765625 -85.382812 45 -75.96875 45 -63.71875 C 45 -51.707031 47.503906 -42.550781 52.515625 -36.25 C 57.523438 -29.957031 64.75 -26.8125 74.1875 -26.8125 C 79.34375 -26.8125 84.085938 -27.304688 88.421875 -28.296875 L 88.421875 -48.421875 L 65.484375 -48.421875 Z M 65.484375 -75.234375" transform="translate(2023.648 952.274)"/></g></g><g><g><path d="M 124.015625 0 L 89.125 0 L 89.125 -52.390625 L 48.78125 -52.390625 L 48.78125 0 L 13.890625 0 L 13.890625 -128.5 L 48.78125 -128.5 L 48.78125 -80.859375 L 89.125 -80.859375 L 89.125 -128.5 L 124.015625 -128.5 Z M 124.015625 0" transform="translate(2156.89 952.274)"/></g></g></g><g><g><g><path d="M 97.90625 -39.03125 C 97.90625 -31.0625 95.882812 -23.984375 91.84375 -17.796875 C 87.800781 -11.617188 81.972656 -6.8125 74.359375 -3.375 C 66.742188 0.0507812 57.804688 1.765625 47.546875 1.765625 C 38.992188 1.765625 31.816406 1.164062 26.015625 -0.03125 C 20.210938 -1.238281 14.175781 -3.335938 7.90625 -6.328125 L 7.90625 -37.265625 C 14.53125 -33.867188 21.414062 -31.21875 28.5625 -29.3125 C 35.707031 -27.40625 42.269531 -26.453125 48.25 -26.453125 C 53.40625 -26.453125 57.179688 -27.34375 59.578125 -29.125 C 61.984375 -30.914062 63.1875 -33.21875 63.1875 -36.03125 C 63.1875 -37.789062 62.703125 -39.328125 61.734375 -40.640625 C 60.773438 -41.960938 59.222656 -43.296875 57.078125 -44.640625 C 54.941406 -45.992188 49.242188 -48.75 39.984375 -52.90625 C 31.609375 -56.71875 25.328125 -60.410156 21.140625 -63.984375 C 16.953125 -67.554688 13.847656 -71.65625 11.828125 -76.28125 C 9.804688 -80.914062 8.796875 -86.394531 8.796875 -92.71875 C 8.796875 -104.5625 13.097656 -113.789062 21.703125 -120.40625 C 30.316406 -127.03125 42.15625 -130.34375 57.21875 -130.34375 C 70.519531 -130.34375 84.082031 -127.265625 97.90625 -121.109375 L 87.28125 -94.3125 C 75.269531 -99.8125 64.894531 -102.5625 56.15625 -102.5625 C 51.644531 -102.5625 48.363281 -101.769531 46.3125 -100.1875 C 44.269531 -98.613281 43.25 -96.65625 43.25 -94.3125 C 43.25 -91.789062 44.550781 -89.53125 47.15625 -87.53125 C 49.757812 -85.539062 56.832031 -81.910156 68.375 -76.640625 C 79.445312 -71.660156 87.132812 -66.3125 91.4375 -60.59375 C 95.75 -54.882812 97.90625 -47.695312 97.90625 -39.03125 Z M 97.90625 -39.03125" transform="translate(1429.987 1164.524)"/></g></g><g><g><path d="M 70.578125 0 L 35.859375 0 L 35.859375 -100.109375 L 4.484375 -100.109375 L 4.484375 -128.5 L 101.859375 -128.5 L 101.859375 -100.109375 L 70.578125 -100.109375 Z M 70.578125 0" transform="translate(1533.874 1164.524)"/></g></g><g><g><path d="M 48.609375 -46.765625 L 48.609375 0 L 13.890625 0 L 13.890625 -128.5 L 55.984375 -128.5 C 90.910156 -128.5 108.375 -115.84375 108.375 -90.53125 C 108.375 -75.644531 101.109375 -64.128906 86.578125 -55.984375 L 124.015625 0 L 84.640625 0 L 57.390625 -46.765625 Z M 48.609375 -72.859375 L 55.109375 -72.859375 C 67.234375 -72.859375 73.296875 -78.222656 73.296875 -88.953125 C 73.296875 -97.796875 67.347656 -102.21875 55.453125 -102.21875 L 48.609375 -102.21875 Z M 48.609375 -72.859375" transform="translate(1640.222 1164.524)"/></g></g><g><g><path d="M 90.171875 0 L 13.890625 0 L 13.890625 -128.5 L 90.171875 -128.5 L 90.171875 -100.640625 L 48.609375 -100.640625 L 48.609375 -80.421875 L 87.09375 -80.421875 L 87.09375 -52.5625 L 48.609375 -52.5625 L 48.609375 -28.296875 L 90.171875 -28.296875 Z M 90.171875 0" transform="translate(1762.038 1164.524)"/></g></g><g><g><path d="M 90.171875 0 L 13.890625 0 L 13.890625 -128.5 L 90.171875 -128.5 L 90.171875 -100.640625 L 48.609375 -100.640625 L 48.609375 -80.421875 L 87.09375 -80.421875 L 87.09375 -52.5625 L 48.609375 -52.5625 L 48.609375 -28.296875 L 90.171875 -28.296875 Z M 90.171875 0" transform="translate(1860.827 1164.524)"/></g></g><g><g><path d="M 70.578125 0 L 35.859375 0 L 35.859375 -100.109375 L 4.484375 -100.109375 L 4.484375 -128.5 L 101.859375 -128.5 L 101.859375 -100.109375 L 70.578125 -100.109375 Z M 70.578125 0" transform="translate(1959.616 1164.524)"/></g></g></g><g clip-path="url(#a)"><path fill="#FF1616" d="M 2791.207031 1352.453125 L 2964.21875 1202.453125 L 2618.210938 1202.453125 Z M 2791.207031 1352.453125"/></g></svg>