<?xml version="1.0" encoding="utf-8"?>
<svg width="151px" height="52px" viewBox="0 0 151 52" version="1.1" xmlns:xlink="http://www.w3.org/1999/xlink" xmlns="http://www.w3.org/2000/svg">
  <defs>
    <filter filterUnits="userSpaceOnUse" color-interpolation-filters="sRGB" id="filter_1">
      <feFlood flood-opacity="0" result="BackgroundImageFix" />
      <feColorMatrix in="SourceAlpha" type="matrix" values="0 0 0 0 0 0 0 0 0 0 0 0 0 0 0 0 0 0 127 0" />
      <feOffset dx="0" dy="2" />
      <feGaussianBlur stdDeviation="2" />
      <feColorMatrix type="matrix" values="0 0 0 0 0.39215687 0 0 0 0 0.39215687 0 0 0 0 0.39215687 0 0 0 0.49803922 0" />
      <feBlend mode="normal" in2="BackgroundImageFix" result="effect0_dropShadow" />
      <feBlend mode="normal" in="SourceGraphic" in2="effect0_dropShadow" result="shape" />
    </filter>
    <path d="M7.999 0L129.001 0Q129.197 0 129.393 0.00963514Q129.59 0.0192703 129.785 0.0385174Q129.98 0.0577644 130.175 0.0865771Q130.369 0.11539 130.562 0.153699Q130.754 0.192007 130.945 0.23972Q131.135 0.287433 131.323 0.344434Q131.511 0.401436 131.696 0.467589Q131.881 0.533742 132.062 0.608888Q132.243 0.684033 132.421 0.76799Q132.598 0.851946 132.772 0.944512Q132.945 1.03708 133.113 1.13803Q133.282 1.23898 133.445 1.34807Q133.608 1.45717 133.766 1.57414Q133.924 1.69112 134.076 1.81569Q134.227 1.94026 134.373 2.07213Q134.518 2.204 134.657 2.34285Q134.796 2.4817 134.928 2.6272Q135.06 2.7727 135.184 2.92449Q135.309 3.07628 135.426 3.234Q135.543 3.39172 135.652 3.55499Q135.761 3.71826 135.862 3.88669Q135.963 4.05512 136.055 4.2283Q136.148 4.40148 136.232 4.57899Q136.316 4.7565 136.391 4.93791Q136.466 5.11933 136.532 5.30422Q136.599 5.4891 136.656 5.67701Q136.713 5.86492 136.76 6.0554Q136.808 6.24588 136.846 6.43847Q136.885 6.63106 136.913 6.8253Q136.942 7.01954 136.961 7.21496Q136.981 7.41038 136.99 7.60651Q137 7.80264 137 7.999L137 9.72035Q137 9.91672 136.99 10.1128Q136.981 10.309 136.961 10.5044Q136.942 10.6998 136.913 10.894Q136.885 11.0883 136.846 11.2809Q136.808 11.4735 136.76 11.6639Q136.713 11.8544 136.656 12.0423Q136.599 12.2302 136.532 12.4151Q136.466 12.6 136.391 12.7814Q136.316 12.9629 136.232 13.1404Q136.148 13.3179 136.055 13.4911Q135.963 13.6642 135.862 13.8327Q135.761 14.0011 135.652 14.1644Q135.543 14.3276 135.426 14.4853Q135.309 14.6431 135.184 14.7949Q135.06 14.9467 134.928 15.0922Q134.796 15.2376 134.657 15.3765Q134.518 15.5153 134.373 15.6472Q134.227 15.7791 134.076 15.9037Q133.924 16.0282 133.766 16.1452Q133.608 16.2622 133.445 16.3713Q133.282 16.4804 133.113 16.5813Q132.945 16.6823 132.772 16.7748Q132.598 16.8674 132.421 16.9514Q132.243 17.0353 132.062 17.1105Q131.881 17.1856 131.696 17.2518Q131.511 17.3179 131.323 17.3749Q131.135 17.4319 130.945 17.4796Q130.754 17.5273 130.562 17.5657Q130.369 17.604 130.175 17.6328Q129.98 17.6616 129.785 17.6808Q129.59 17.7001 129.393 17.7097Q129.197 17.7194 129.001 17.7194L7.999 17.7194Q7.80264 17.7194 7.60651 17.7097Q7.41038 17.7001 7.21496 17.6808Q7.01954 17.6616 6.8253 17.6328Q6.63106 17.604 6.43847 17.5657Q6.24588 17.5273 6.0554 17.4796Q5.86492 17.4319 5.67701 17.3749Q5.4891 17.3179 5.30422 17.2518Q5.11933 17.1856 4.93791 17.1105Q4.7565 17.0353 4.57899 16.9514Q4.40148 16.8674 4.2283 16.7748Q4.05512 16.6823 3.88669 16.5813Q3.71826 16.4804 3.55499 16.3713Q3.39172 16.2622 3.234 16.1452Q3.07628 16.0282 2.92449 15.9037Q2.7727 15.7791 2.6272 15.6472Q2.4817 15.5153 2.34285 15.3765Q2.204 15.2376 2.07213 15.0922Q1.94026 14.9467 1.81569 14.7949Q1.69112 14.6431 1.57414 14.4853Q1.45717 14.3276 1.34807 14.1644Q1.23898 14.0011 1.13803 13.8327Q1.03708 13.6642 0.944512 13.4911Q0.851946 13.3179 0.76799 13.1404Q0.684033 12.9629 0.608888 12.7814Q0.533742 12.6 0.467589 12.4151Q0.401436 12.2302 0.344434 12.0423Q0.287433 11.8544 0.23972 11.664Q0.192007 11.4735 0.153699 11.2809Q0.11539 11.0883 0.0865771 10.894Q0.0577644 10.6998 0.0385174 10.5044Q0.0192703 10.309 0.00963514 10.1128Q0 9.91672 0 9.72035L0 7.999Q0 7.80264 0.00963514 7.60651Q0.0192703 7.41038 0.0385174 7.21496Q0.0577644 7.01954 0.0865771 6.8253Q0.11539 6.63106 0.153699 6.43847Q0.192007 6.24588 0.23972 6.0554Q0.287433 5.86492 0.344434 5.67701Q0.401436 5.4891 0.467589 5.30422Q0.533742 5.11933 0.608888 4.93791Q0.684033 4.7565 0.76799 4.57899Q0.851946 4.40148 0.944512 4.2283Q1.03708 4.05512 1.13803 3.88669Q1.23898 3.71826 1.34807 3.55499Q1.45717 3.39172 1.57414 3.234Q1.69112 3.07628 1.81569 2.92449Q1.94026 2.7727 2.07213 2.6272Q2.204 2.4817 2.34285 2.34285Q2.4817 2.204 2.6272 2.07213Q2.7727 1.94026 2.92449 1.81569Q3.07628 1.69112 3.234 1.57414Q3.39172 1.45717 3.55499 1.34807Q3.71826 1.23898 3.88669 1.13803Q4.05512 1.03708 4.2283 0.944512Q4.40148 0.851946 4.57899 0.76799Q4.7565 0.684033 4.93791 0.608888Q5.11933 0.533742 5.30422 0.467589Q5.4891 0.401436 5.67701 0.344434Q5.86492 0.287433 6.0554 0.23972Q6.24588 0.192007 6.43847 0.153699Q6.63106 0.11539 6.8253 0.0865771Q7.01954 0.0577644 7.21496 0.0385174Q7.41038 0.0192703 7.60651 0.00963514Q7.80264 0 7.999 0L7.999 0Z" id="path_1" />
  </defs>
  <g filter="url(#filter_1)">
    <g id="3.-Moshi-High-Street" transform="translate(7 5)">
      <path d="M123.653 27.2716C123.653 27.2716 121.393 24.3374 119.349 21.9711C117.304 19.6049 115.475 17.8066 115.475 17.8066L131.832 17.8066L123.653 27.2716Z" id="Triangle" fill="#FFFFFF" fill-rule="evenodd" stroke="#ED1C24" stroke-width="1" />
      <g id="Rectangle">
        <use xlink:href="#path_1" fill="none" stroke="#ED1C24" stroke-width="2" />
        <use stroke="none" fill="#FFFFFF" xlink:href="#path_1" fill-rule="evenodd" />
      </g>
      <g id="MOSHI-HIGH-STREET" fill="#000000" fill-opacity="0.6392157" transform="translate(3.1158142 2.3000412)">
        <path d="M9.75246 6.56982Q9.75246 5.3667 10.1123 4.55029Q10.3809 3.94873 10.8455 3.4707Q11.3101 2.99268 11.8633 2.76172Q12.5991 2.4502 13.5606 2.4502Q15.3008 2.4502 16.3455 3.52979Q17.3902 4.60938 17.3902 6.53223Q17.3902 8.43896 16.3535 9.51587Q15.3169 10.5928 13.5821 10.5928Q11.8257 10.5928 10.7891 9.52124Q9.75246 8.44971 9.75246 6.56982ZM19.7749 7.74609L18.2281 7.89648Q18.3838 9.21777 19.1841 9.90796Q19.9844 10.5981 21.4776 10.5981Q22.5034 10.5981 23.1909 10.3108Q23.8784 10.0234 24.2544 9.43262Q24.6304 8.8418 24.6304 8.16504Q24.6304 7.41846 24.3162 6.91089Q24.002 6.40332 23.4461 6.1106Q22.8902 5.81787 21.73 5.54395Q20.5698 5.27002 20.2691 5.01758Q20.0327 4.81885 20.0327 4.53955Q20.0327 4.2334 20.2852 4.05078Q20.6773 3.76611 21.3701 3.76611Q22.0415 3.76611 22.3772 4.03198Q22.7129 4.29785 22.815 4.90479L24.4048 4.83496Q24.3672 3.75 23.6179 3.1001Q22.8687 2.4502 21.3863 2.4502Q20.4785 2.4502 19.8367 2.72412Q19.1948 2.99805 18.8538 3.52173Q18.5127 4.04541 18.5127 4.64697Q18.5127 5.58154 19.2378 6.23145Q19.7534 6.69336 21.0318 7.01025Q22.0254 7.25732 22.3047 7.354Q22.7129 7.49902 22.8767 7.69507Q23.0406 7.89111 23.0406 8.17041Q23.0406 8.60547 22.6511 8.93042Q22.2617 9.25537 21.4937 9.25537Q20.7686 9.25537 20.3416 8.89014Q19.9146 8.5249 19.7749 7.74609ZM54.687 7.56348L54.687 6.23682L58.1138 6.23682L58.1138 9.37354Q57.6143 9.85693 56.6663 10.2249Q55.7183 10.5928 54.7461 10.5928Q53.5108 10.5928 52.5923 10.0745Q51.6739 9.55615 51.2119 8.59204Q50.75 7.62793 50.75 6.49463Q50.75 5.26465 51.2656 4.30859Q51.7813 3.35254 52.7749 2.84229Q53.5322 2.4502 54.6602 2.4502Q56.1265 2.4502 56.951 3.06519Q57.7754 3.68018 58.0117 4.76514L56.4326 5.06055Q56.2661 4.48047 55.8069 4.14478Q55.3477 3.80908 54.6602 3.80908Q53.6182 3.80908 53.0032 4.46973Q52.3882 5.13037 52.3882 6.43018Q52.3882 7.83203 53.0113 8.53296Q53.6343 9.23389 54.6441 9.23389Q55.1436 9.23389 55.6458 9.03784Q56.148 8.8418 56.5078 8.5625L56.5078 7.56348L54.687 7.56348ZM70.1773 7.89648L71.7241 7.74609Q71.8638 8.5249 72.2908 8.89014Q72.7178 9.25537 73.4429 9.25537Q74.211 9.25537 74.6004 8.93042Q74.9898 8.60547 74.9898 8.17041Q74.9898 7.89111 74.826 7.69507Q74.6621 7.49902 74.2539 7.354Q73.9746 7.25732 72.981 7.01025Q71.7027 6.69336 71.187 6.23145Q70.4619 5.58154 70.4619 4.64697Q70.4619 4.04541 70.803 3.52173Q71.1441 2.99805 71.7859 2.72412Q72.4278 2.4502 73.3355 2.4502Q74.8179 2.4502 75.5672 3.1001Q76.3164 3.75 76.354 4.83496L74.7642 4.90479Q74.6621 4.29785 74.3264 4.03198Q73.9907 3.76611 73.3194 3.76611Q72.6265 3.76611 72.2344 4.05078Q71.982 4.2334 71.982 4.53955Q71.982 4.81885 72.2183 5.01758Q72.5191 5.27002 73.6792 5.54395Q74.8394 5.81787 75.3953 6.1106Q75.9512 6.40332 76.2654 6.91089Q76.5796 7.41846 76.5796 8.16504Q76.5796 8.8418 76.2036 9.43262Q75.8277 10.0234 75.1402 10.3108Q74.4527 10.5981 73.4268 10.5981Q71.9336 10.5981 71.1333 9.90796Q70.333 9.21777 70.1773 7.89648ZM0.89016 10.4585L0.89016 2.58447L3.26955 2.58447L4.69827 7.95557L6.11086 2.58447L8.49563 2.58447L8.49563 10.4585L7.01858 10.4585L7.01858 4.26025L5.45559 10.4585L3.92483 10.4585L2.36721 4.26025L2.36721 10.4585L0.89016 10.4585ZM25.9732 10.4585L25.9732 2.58447L27.563 2.58447L27.563 5.68359L30.6782 5.68359L30.6782 2.58447L32.2681 2.58447L32.2681 10.4585L30.6782 10.4585L30.6782 7.01562L27.563 7.01562L27.563 10.4585L25.9732 10.4585ZM33.8633 2.58447L33.8633 10.4585L35.4531 10.4585L35.4531 2.58447L33.8633 2.58447ZM40.0293 10.4585L40.0293 2.58447L41.6192 2.58447L41.6192 5.68359L44.7344 5.68359L44.7344 2.58447L46.3242 2.58447L46.3242 10.4585L44.7344 10.4585L44.7344 7.01562L41.6192 7.01562L41.6192 10.4585L40.0293 10.4585ZM47.9195 2.58447L47.9195 10.4585L49.5093 10.4585L49.5093 2.58447L47.9195 2.58447ZM59.5855 2.58447L59.5855 10.4585L61.1753 10.4585L61.1753 7.01562L64.2906 7.01562L64.2906 10.4585L65.8804 10.4585L65.8804 2.58447L64.2906 2.58447L64.2906 5.68359L61.1753 5.68359L61.1753 2.58447L59.5855 2.58447ZM79.6895 3.9165L79.6895 10.4585L81.2793 10.4585L81.2793 3.9165L83.6104 3.9165L83.6104 2.58447L77.3531 2.58447L77.3531 3.9165L79.6895 3.9165ZM84.6416 10.4585L84.6416 2.58447L87.9878 2.58447Q89.25 2.58447 89.822 2.79663Q90.3941 3.00879 90.7378 3.55127Q91.0816 4.09375 91.0816 4.79199Q91.0816 5.67822 90.5606 6.25562Q90.0396 6.83301 89.003 6.9834Q89.5186 7.28418 89.8543 7.64404Q90.19 8.00391 90.7593 8.92236L91.7207 10.4585L89.8194 10.4585L88.6699 8.74512Q88.0576 7.82666 87.8321 7.58765Q87.6065 7.34863 87.354 7.26001Q87.1016 7.17139 86.5537 7.17139L86.2315 7.17139L86.2315 10.4585L84.6416 10.4585ZM92.5801 2.58447L92.5801 10.4585L98.5689 10.4585L98.5689 9.13184L94.1699 9.13184L94.1699 6.98877L98.1231 6.98877L98.1231 5.66211L94.1699 5.66211L94.1699 3.9165L98.4185 3.9165L98.4185 2.58447L92.5801 2.58447ZM99.917 10.4585L99.917 2.58447L105.755 2.58447L105.755 3.9165L101.507 3.9165L101.507 5.66211L105.46 5.66211L105.46 6.98877L101.507 6.98877L101.507 9.13184L105.906 9.13184L105.906 10.4585L99.917 10.4585ZM109.026 3.9165L109.026 10.4585L110.616 10.4585L110.616 3.9165L112.947 3.9165L112.947 2.58447L106.69 2.58447L106.69 3.9165L109.026 3.9165ZM11.3906 6.51611Q11.3906 7.85352 12.0083 8.5437Q12.626 9.23389 13.5767 9.23389Q14.5274 9.23389 15.137 8.54907Q15.7466 7.86426 15.7466 6.49463Q15.7466 5.14111 15.1531 4.4751Q14.5596 3.80908 13.5767 3.80908Q12.5938 3.80908 11.9922 4.48315Q11.3906 5.15723 11.3906 6.51611ZM86.2315 5.91455L87.4077 5.91455Q88.5518 5.91455 88.8364 5.81787Q89.1211 5.72119 89.2822 5.48486Q89.4434 5.24854 89.4434 4.89404Q89.4434 4.49658 89.2312 4.2522Q89.0191 4.00781 88.6323 3.94336Q88.439 3.9165 87.4722 3.9165L86.2315 3.9165L86.2315 5.91455Z" />
      </g>
      <g id="5-MIN" transform="translate(116.42108 2.2930527)">
        <g id="5" fill="#000000" fill-opacity="0.6392157">
          <path d="M5.25191 5.2168L6.20895 5.11768Q6.24996 5.44238 6.45162 5.63208Q6.65328 5.82178 6.91647 5.82178Q7.21725 5.82178 7.42574 5.57739Q7.63424 5.33301 7.63424 4.84082Q7.63424 4.37939 7.42745 4.14868Q7.22066 3.91797 6.88912 3.91797Q6.47555 3.91797 6.14742 4.28369L5.36813 4.1709L5.86031 1.56299L8.39986 1.56299L8.39986 2.46191L6.58834 2.46191L6.43795 3.31299Q6.75924 3.15234 7.0942 3.15234Q7.73336 3.15234 8.1777 3.61719Q8.62203 4.08203 8.62203 4.82373Q8.62203 5.44238 8.26315 5.92773Q7.77438 6.59082 6.90621 6.59082Q6.21236 6.59082 5.77486 6.21826Q5.33736 5.8457 5.25191 5.2168Z" />
        </g>
        <g id="MIN" fill="#000000" fill-opacity="0.6392157">
          <path d="M1.81319 13.6592L1.81319 9.36426L3.11105 9.36426L3.89034 12.2939L4.66085 9.36426L5.96163 9.36426L5.96163 13.6592L5.15597 13.6592L5.15597 10.2783L4.30343 13.6592L3.46847 13.6592L2.61886 10.2783L2.61886 13.6592L1.81319 13.6592ZM6.79659 13.6592L6.79659 9.36426L7.66378 9.36426L7.66378 13.6592L6.79659 13.6592ZM8.49874 9.36426L8.49874 13.6592L9.30441 13.6592L9.30441 10.8584L11.0359 13.6592L11.906 13.6592L11.906 9.36426L11.1003 9.36426L11.1003 12.2324L9.34249 9.36426L8.49874 9.36426Z" />
        </g>
      </g>
      <path d="M122.795 36.4535C122.795 35.9307 123.18 35.507 123.656 35.507C124.131 35.507 124.517 35.9307 124.517 36.4535C124.517 36.9762 124.131 37.4 123.656 37.4C123.18 37.4 122.795 36.9762 122.795 36.4535Z" id="Ellipse" fill="#D3D3D3" fill-rule="evenodd" stroke="#ED1C24" stroke-width="1" />
      <path d="M123.655 26.9882L123.655 35.507L123.655 30.2118" id="Line" fill="none" fill-rule="evenodd" stroke="#ED1C24" stroke-width="1" stroke-linecap="square" />
    </g>
  </g>
</svg>