<?xml version="1.0" encoding="utf-8"?>
<svg width="123px" height="75px" viewBox="0 0 123 75" version="1.1" xmlns:xlink="http://www.w3.org/1999/xlink" xmlns="http://www.w3.org/2000/svg">
  <defs>
    <filter filterUnits="userSpaceOnUse" color-interpolation-filters="sRGB" id="filter_1">
      <feFlood flood-opacity="0" result="BackgroundImageFix" />
      <feColorMatrix in="SourceAlpha" type="matrix" values="0 0 0 0 0 0 0 0 0 0 0 0 0 0 0 0 0 0 127 0" />
      <feOffset dx="0" dy="2" />
      <feGaussianBlur stdDeviation="2" />
      <feColorMatrix type="matrix" values="0 0 0 0 0.39215687 0 0 0 0 0.39215687 0 0 0 0 0.39215687 0 0 0 0.49803922 0" />
      <feBlend mode="normal" in2="BackgroundImageFix" result="effect0_dropShadow" />
      <feBlend mode="normal" in="SourceGraphic" in2="effect0_dropShadow" result="shape" />
    </filter>
    <path d="M7.999 0L101.001 0Q101.197 0 101.393 0.00963514Q101.59 0.0192703 101.785 0.0385174Q101.98 0.0577644 102.175 0.0865771Q102.369 0.11539 102.562 0.153699Q102.754 0.192007 102.945 0.23972Q103.135 0.287433 103.323 0.344434Q103.511 0.401436 103.696 0.467589Q103.881 0.533742 104.062 0.608888Q104.243 0.684033 104.421 0.76799Q104.599 0.851946 104.772 0.944512Q104.945 1.03708 105.113 1.13803Q105.282 1.23898 105.445 1.34807Q105.608 1.45717 105.766 1.57414Q105.924 1.69112 106.076 1.81569Q106.227 1.94026 106.373 2.07213Q106.518 2.204 106.657 2.34285Q106.796 2.4817 106.928 2.6272Q107.06 2.7727 107.184 2.92449Q107.309 3.07628 107.426 3.234Q107.543 3.39172 107.652 3.55499Q107.761 3.71826 107.862 3.88669Q107.963 4.05512 108.055 4.2283Q108.148 4.40148 108.232 4.57899Q108.316 4.7565 108.391 4.93791Q108.466 5.11933 108.532 5.30422Q108.599 5.4891 108.656 5.67701Q108.713 5.86492 108.76 6.0554Q108.808 6.24588 108.846 6.43847Q108.885 6.63106 108.913 6.8253Q108.942 7.01954 108.961 7.21496Q108.981 7.41038 108.99 7.60651Q109 7.80264 109 7.999L109 16.001Q109 16.1974 108.99 16.3935Q108.981 16.5896 108.961 16.785Q108.942 16.9805 108.913 17.1747Q108.885 17.3689 108.846 17.5615Q108.808 17.7541 108.76 17.9446Q108.713 18.1351 108.656 18.323Q108.599 18.5109 108.532 18.6958Q108.466 18.8807 108.391 19.0621Q108.316 19.2435 108.232 19.421Q108.148 19.5985 108.055 19.7717Q107.963 19.9449 107.862 20.1133Q107.761 20.2817 107.652 20.445Q107.543 20.6083 107.426 20.766Q107.309 20.9237 107.184 21.0755Q107.06 21.2273 106.928 21.3728Q106.796 21.5183 106.657 21.6571Q106.518 21.796 106.373 21.9279Q106.227 22.0597 106.076 22.1843Q105.924 22.3089 105.766 22.4259Q105.608 22.5428 105.445 22.6519Q105.282 22.761 105.113 22.862Q104.945 22.9629 104.772 23.0555Q104.599 23.1481 104.421 23.232Q104.243 23.316 104.062 23.3911Q103.881 23.4663 103.696 23.5324Q103.511 23.5986 103.323 23.6556Q103.135 23.7126 102.945 23.7603Q102.754 23.808 102.562 23.8463Q102.369 23.8846 102.175 23.9134Q101.98 23.9422 101.785 23.9615Q101.59 23.9807 101.393 23.9904Q101.197 24 101.001 24L7.999 24Q7.80264 24 7.60651 23.9904Q7.41038 23.9807 7.21496 23.9615Q7.01954 23.9422 6.8253 23.9134Q6.63106 23.8846 6.43847 23.8463Q6.24588 23.808 6.0554 23.7603Q5.86492 23.7126 5.67701 23.6556Q5.4891 23.5986 5.30422 23.5324Q5.11933 23.4663 4.93791 23.3911Q4.7565 23.316 4.57899 23.232Q4.40148 23.1481 4.2283 23.0555Q4.05512 22.9629 3.88669 22.862Q3.71826 22.761 3.55499 22.6519Q3.39172 22.5428 3.234 22.4259Q3.07628 22.3089 2.92449 22.1843Q2.7727 22.0597 2.6272 21.9279Q2.4817 21.796 2.34285 21.6571Q2.204 21.5183 2.07213 21.3728Q1.94026 21.2273 1.81569 21.0755Q1.69112 20.9237 1.57414 20.766Q1.45717 20.6083 1.34807 20.445Q1.23898 20.2817 1.13803 20.1133Q1.03708 19.9449 0.944512 19.7717Q0.851946 19.5985 0.76799 19.421Q0.684033 19.2435 0.608888 19.0621Q0.533742 18.8807 0.467589 18.6958Q0.401436 18.5109 0.344434 18.323Q0.287433 18.1351 0.23972 17.9446Q0.192007 17.7541 0.153699 17.5615Q0.11539 17.3689 0.0865771 17.1747Q0.0577644 16.9805 0.0385174 16.785Q0.0192703 16.5896 0.00963514 16.3935Q0 16.1974 0 16.001L0 7.999Q0 7.80264 0.00963514 7.60651Q0.0192703 7.41038 0.0385174 7.21496Q0.0577644 7.01954 0.0865771 6.8253Q0.11539 6.63106 0.153699 6.43847Q0.192007 6.24588 0.23972 6.0554Q0.287433 5.86492 0.344434 5.67701Q0.401436 5.4891 0.467589 5.30422Q0.533742 5.11933 0.608888 4.93791Q0.684033 4.7565 0.76799 4.57899Q0.851946 4.40148 0.944512 4.2283Q1.03708 4.05512 1.13803 3.88669Q1.23898 3.71826 1.34807 3.55499Q1.45717 3.39172 1.57414 3.234Q1.69112 3.07628 1.81569 2.92449Q1.94026 2.7727 2.07213 2.6272Q2.204 2.4817 2.34285 2.34285Q2.4817 2.204 2.6272 2.07213Q2.7727 1.94026 2.92449 1.81569Q3.07628 1.69112 3.234 1.57414Q3.39172 1.45717 3.55499 1.34807Q3.71826 1.23898 3.88669 1.13803Q4.05512 1.03708 4.2283 0.944512Q4.40148 0.851946 4.57899 0.76799Q4.7565 0.684033 4.93791 0.608888Q5.11933 0.533742 5.30422 0.467589Q5.4891 0.401436 5.67701 0.344434Q5.86492 0.287433 6.0554 0.23972Q6.24588 0.192007 6.43847 0.153699Q6.63106 0.11539 6.8253 0.0865771Q7.01954 0.0577644 7.21496 0.0385174Q7.41038 0.0192703 7.60651 0.00963514Q7.80264 0 7.999 0L7.999 0Z" id="path_1" />
  </defs>
  <g filter="url(#filter_1)">
    <g id="Bharat-Mata-Chowk" transform="translate(7 5)">
      <path d="M93 59.9C93 59.3477 93.4051 58.9 93.9048 58.9C94.4044 58.9 94.8095 59.3477 94.8095 59.9C94.8095 60.4523 94.4044 60.9 93.9048 60.9C93.4051 60.9 93 60.4523 93 59.9Z" id="Ellipse" fill="#D3D3D3" fill-rule="evenodd" stroke="#ED1C24" stroke-width="1" />
      <path d="M94 34L84.5 24L103.5 24L94 34Z" id="Triangle" fill="#FFFFFF" fill-rule="evenodd" stroke="#ED1C24" stroke-width="1" />
      <g id="Rectangle">
        <use xlink:href="#path_1" fill="none" stroke="#ED1C24" stroke-width="2" />
        <use stroke="none" fill="#FFFFFF" xlink:href="#path_1" fill-rule="evenodd" />
      </g>
      <g id="BHARAT-MATA-CHOWK" transform="translate(4 2.218933)">
        <g id="BHARAT-MATA-" fill="#000000" fill-opacity="0.6392157">
          <path d="M7.7395 1.77881L5.16431 1.77881L5.16431 8.22119L7.35718 8.22119Q8.60083 8.2124 8.92603 8.17725Q9.44458 8.12012 9.79834 7.87183Q10.1521 7.62354 10.3564 7.20825Q10.5608 6.79297 10.5608 6.35352Q10.5608 5.79541 10.2444 5.38232Q9.92798 4.96924 9.33911 4.79785Q9.75659 4.60889 10.0005 4.23096Q10.2444 3.85303 10.2444 3.40039Q10.2444 2.98291 10.0466 2.64673Q9.84888 2.31055 9.55225 2.1084Q9.25562 1.90625 8.87988 1.84253Q8.50415 1.77881 7.7395 1.77881ZM11.6638 1.77881L11.6638 8.22119L12.9646 8.22119L12.9646 5.4043L15.5134 5.4043L15.5134 8.22119L16.8142 8.22119L16.8142 1.77881L15.5134 1.77881L15.5134 4.31445L12.9646 4.31445L12.9646 1.77881L11.6638 1.77881ZM23.9685 8.22119L22.5535 8.22119L21.991 6.75781L19.4158 6.75781L18.884 8.22119L17.5042 8.22119L20.0134 1.77881L21.3889 1.77881L23.9685 8.22119ZM24.6628 1.77881L24.6628 8.22119L25.9636 8.22119L25.9636 5.53174L26.2273 5.53174Q26.6755 5.53174 26.8821 5.60425Q27.0886 5.67676 27.2732 5.87231Q27.4578 6.06787 27.9587 6.81934L28.8992 8.22119L30.4548 8.22119L29.6682 6.96436Q29.2024 6.21289 28.9277 5.91846Q28.6531 5.62402 28.2312 5.37793Q29.0793 5.25488 29.5056 4.78247Q29.9319 4.31006 29.9319 3.58496Q29.9319 3.01367 29.6506 2.56982Q29.3694 2.12598 28.9014 1.95239Q28.4333 1.77881 27.4006 1.77881L24.6628 1.77881ZM36.9675 8.22119L35.5525 8.22119L34.99 6.75781L32.4148 6.75781L31.8831 8.22119L30.5032 8.22119L33.0125 1.77881L34.3879 1.77881L36.9675 8.22119ZM39.1077 2.86865L39.1077 8.22119L40.4084 8.22119L40.4084 2.86865L42.3157 2.86865L42.3157 1.77881L37.196 1.77881L37.196 2.86865L39.1077 2.86865ZM45.6379 8.22119L45.6379 1.77881L47.5847 1.77881L48.7537 6.17334L49.9094 1.77881L51.8606 1.77881L51.8606 8.22119L50.6521 8.22119L50.6521 3.1499L49.3733 8.22119L48.1208 8.22119L46.8464 3.1499L46.8464 8.22119L45.6379 8.22119ZM57.5471 8.22119L58.9622 8.22119L56.3826 1.77881L55.0071 1.77881L52.4978 8.22119L53.8777 8.22119L54.4094 6.75781L56.9846 6.75781L57.5471 8.22119ZM61.1023 8.22119L61.1023 2.86865L59.1907 2.86865L59.1907 1.77881L64.3103 1.77881L64.3103 2.86865L62.4031 2.86865L62.4031 8.22119L61.1023 8.22119ZM69.5442 8.22119L70.9592 8.22119L68.3796 1.77881L67.0042 1.77881L64.4949 8.22119L65.8748 8.22119L66.4065 6.75781L68.9817 6.75781L69.5442 8.22119ZM6.46509 4.34082L6.46509 2.85107L7.21216 2.85107Q8.13062 2.85107 8.32397 2.87305Q8.64917 2.9126 8.81396 3.09937Q8.97876 3.28613 8.97876 3.58496Q8.97876 3.89697 8.7876 4.08813Q8.59644 4.2793 8.26245 4.31885Q8.07788 4.34082 7.31763 4.34082L6.46509 4.34082ZM26.926 4.50342L25.9636 4.50342L25.9636 2.86865L26.9788 2.86865Q27.7698 2.86865 27.928 2.89062Q28.2444 2.94336 28.418 3.14331Q28.5916 3.34326 28.5916 3.66846Q28.5916 3.9585 28.4597 4.15186Q28.3279 4.34521 28.095 4.42432Q27.8621 4.50342 26.926 4.50342ZM21.5735 5.67236L20.6858 3.28174L19.8157 5.67236L21.5735 5.67236ZM34.5725 5.67236L33.6848 3.28174L32.8147 5.67236L34.5725 5.67236ZM55.6794 3.28174L56.5671 5.67236L54.8093 5.67236L55.6794 3.28174ZM67.6765 3.28174L68.5642 5.67236L66.8064 5.67236L67.6765 3.28174ZM6.46509 7.13574L6.46509 5.41309L7.51538 5.41309Q8.40308 5.41309 8.66895 5.50537Q8.93481 5.59766 9.07544 5.7998Q9.21606 6.00195 9.21606 6.29199Q9.21606 6.63477 9.03369 6.83911Q8.85132 7.04346 8.56128 7.09619Q8.37231 7.13574 7.66919 7.13574L6.46509 7.13574Z" />
        </g>
        <g id="CHOWK" fill="#000000" fill-opacity="0.6392157">
          <path d="M26.28 15.8701L27.5413 16.27Q27.2512 17.3247 26.5767 17.8367Q25.9021 18.3486 24.865 18.3486Q23.5818 18.3486 22.7556 17.4719Q21.9294 16.5952 21.9294 15.0747Q21.9294 13.4663 22.76 12.5764Q23.5906 11.6865 24.9441 11.6865Q26.1262 11.6865 26.8645 12.3853Q27.304 12.7983 27.5237 13.5718L26.2361 13.8794Q26.1218 13.3784 25.7593 13.0884Q25.3967 12.7983 24.8782 12.7983Q24.1619 12.7983 23.7158 13.3125Q23.2698 13.8267 23.2698 14.978Q23.2698 16.1997 23.7092 16.7183Q24.1487 17.2368 24.8518 17.2368Q25.3704 17.2368 25.7439 16.9072Q26.1174 16.5776 26.28 15.8701ZM35.1877 13.4048Q34.8933 14.0728 34.8933 15.0571Q34.8933 16.5952 35.7415 17.4719Q36.5896 18.3486 38.0266 18.3486Q39.446 18.3486 40.2942 17.4675Q41.1423 16.5864 41.1423 15.0264Q41.1423 13.4531 40.2876 12.5698Q39.4329 11.6865 38.009 11.6865Q37.2224 11.6865 36.6204 11.9414Q36.1677 12.1304 35.7876 12.5215Q35.4075 12.9126 35.1877 13.4048ZM28.6619 18.2388L28.6619 11.7964L29.9626 11.7964L29.9626 14.332L32.5115 14.332L32.5115 11.7964L33.8123 11.7964L33.8123 18.2388L32.5115 18.2388L32.5115 15.4219L29.9626 15.4219L29.9626 18.2388L28.6619 18.2388ZM43.0715 18.2388L41.5334 11.7964L42.865 11.7964L43.8362 16.2217L45.0139 11.7964L46.5608 11.7964L47.6902 16.2964L48.679 11.7964L49.9885 11.7964L48.4241 18.2388L47.0442 18.2388L45.761 13.4224L44.4822 18.2388L43.0715 18.2388ZM50.6697 11.7964L50.6697 18.2388L51.9705 18.2388L51.9705 16.292L53.0251 15.2153L54.7961 18.2388L56.4792 18.2388L53.9216 14.3057L56.3474 11.7964L54.5984 11.7964L51.9705 14.6572L51.9705 11.7964L50.6697 11.7964ZM36.739 16.6721Q36.2336 16.1074 36.2336 15.0132Q36.2336 13.9014 36.7258 13.3499Q37.218 12.7983 38.0222 12.7983Q38.8264 12.7983 39.312 13.3433Q39.7976 13.8882 39.7976 14.9956Q39.7976 16.1162 39.2988 16.6765Q38.8 17.2368 38.0222 17.2368Q37.2444 17.2368 36.739 16.6721Z" />
        </g>
      </g>
      <g id="2-MIN" transform="translate(84.5 4.700012)">
        <g id="2" fill="#000000" fill-opacity="0.6392157">
          <path d="M10.5945 5.61328L10.5945 6.50537L7.22778 6.50537Q7.28247 5.99951 7.55591 5.54663Q7.82935 5.09375 8.63599 4.34521Q9.2854 3.74023 9.43237 3.5249Q9.63062 3.22754 9.63062 2.93701Q9.63062 2.61572 9.45801 2.44312Q9.2854 2.27051 8.9812 2.27051Q8.68042 2.27051 8.50269 2.45166Q8.32495 2.63281 8.29761 3.05322L7.34058 2.95752Q7.42603 2.16455 7.8772 1.81934Q8.32837 1.47412 9.00513 1.47412Q9.74683 1.47412 10.1707 1.87402Q10.5945 2.27393 10.5945 2.86865Q10.5945 3.20703 10.4731 3.51294Q10.3518 3.81885 10.0886 4.15381Q9.91431 4.37598 9.45972 4.79297Q9.00513 5.20996 8.88379 5.34668Q8.76245 5.4834 8.68726 5.61328L10.5945 5.61328Z" />
        </g>
        <g id="MIN" fill="#000000" fill-opacity="0.6392157">
          <path d="M3.92578 13.6592L3.92578 9.36426L5.22363 9.36426L6.00293 12.2939L6.77344 9.36426L8.07422 9.36426L8.07422 13.6592L7.26855 13.6592L7.26855 10.2783L6.41602 13.6592L5.58105 13.6592L4.73145 10.2783L4.73145 13.6592L3.92578 13.6592ZM8.90918 13.6592L8.90918 9.36426L9.77637 9.36426L9.77637 13.6592L8.90918 13.6592ZM10.6113 9.36426L10.6113 13.6592L11.417 13.6592L11.417 10.8584L13.1484 13.6592L14.0186 13.6592L14.0186 9.36426L13.2129 9.36426L13.2129 12.2324L11.4551 9.36426L10.6113 9.36426Z" />
        </g>
      </g>
      <path d="M94 34L94 58.3" id="Line" fill="none" fill-rule="evenodd" stroke="#ED1C24" stroke-width="1" stroke-linecap="square" />
    </g>
  </g>
</svg>