<?xml version="1.0" encoding="utf-8"?>
<svg width="127px" height="52px" viewBox="0 0 127 52" version="1.1" xmlns:xlink="http://www.w3.org/1999/xlink" xmlns="http://www.w3.org/2000/svg">
  <defs>
    <filter filterUnits="userSpaceOnUse" color-interpolation-filters="sRGB" id="filter_1">
      <feFlood flood-opacity="0" result="BackgroundImageFix" />
      <feColorMatrix in="SourceAlpha" type="matrix" values="0 0 0 0 0 0 0 0 0 0 0 0 0 0 0 0 0 0 127 0" />
      <feOffset dx="0" dy="2" />
      <feGaussianBlur stdDeviation="2" />
      <feColorMatrix type="matrix" values="0 0 0 0 0.39215687 0 0 0 0 0.39215687 0 0 0 0 0.39215687 0 0 0 0.49803922 0" />
      <feBlend mode="normal" in2="BackgroundImageFix" result="effect0_dropShadow" />
      <feBlend mode="normal" in="SourceGraphic" in2="effect0_dropShadow" result="shape" />
    </filter>
    <path d="M7.999 0L105.001 0Q105.197 0 105.393 0.00963514Q105.59 0.0192703 105.785 0.0385174Q105.98 0.0577644 106.175 0.0865771Q106.369 0.11539 106.562 0.153699Q106.754 0.192007 106.945 0.23972Q107.135 0.287433 107.323 0.344434Q107.511 0.401436 107.696 0.467589Q107.881 0.533742 108.062 0.608888Q108.243 0.684033 108.421 0.76799Q108.599 0.851946 108.772 0.944512Q108.945 1.03708 109.113 1.13803Q109.282 1.23898 109.445 1.34807Q109.608 1.45717 109.766 1.57414Q109.924 1.69112 110.076 1.81569Q110.227 1.94026 110.373 2.07213Q110.518 2.204 110.657 2.34285Q110.796 2.4817 110.928 2.6272Q111.06 2.7727 111.184 2.92449Q111.309 3.07628 111.426 3.234Q111.543 3.39172 111.652 3.55499Q111.761 3.71826 111.862 3.88669Q111.963 4.05512 112.055 4.2283Q112.148 4.40148 112.232 4.57899Q112.316 4.7565 112.391 4.93791Q112.466 5.11933 112.532 5.30422Q112.599 5.4891 112.656 5.67701Q112.713 5.86492 112.76 6.0554Q112.808 6.24588 112.846 6.43847Q112.885 6.63106 112.913 6.8253Q112.942 7.01954 112.961 7.21496Q112.981 7.41038 112.99 7.60651Q113 7.80264 113 7.999L113 9.72035Q113 9.91672 112.99 10.1128Q112.981 10.309 112.961 10.5044Q112.942 10.6998 112.913 10.894Q112.885 11.0883 112.846 11.2809Q112.808 11.4735 112.76 11.6639Q112.713 11.8544 112.656 12.0423Q112.599 12.2302 112.532 12.4151Q112.466 12.6 112.391 12.7814Q112.316 12.9629 112.232 13.1404Q112.148 13.3179 112.055 13.4911Q111.963 13.6642 111.862 13.8327Q111.761 14.0011 111.652 14.1644Q111.543 14.3276 111.426 14.4853Q111.309 14.6431 111.184 14.7949Q111.06 14.9467 110.928 15.0922Q110.796 15.2376 110.657 15.3765Q110.518 15.5153 110.373 15.6472Q110.227 15.7791 110.076 15.9037Q109.924 16.0282 109.766 16.1452Q109.608 16.2622 109.445 16.3713Q109.282 16.4804 109.113 16.5813Q108.945 16.6823 108.772 16.7748Q108.599 16.8674 108.421 16.9514Q108.243 17.0353 108.062 17.1105Q107.881 17.1856 107.696 17.2518Q107.511 17.3179 107.323 17.3749Q107.135 17.4319 106.945 17.4796Q106.754 17.5273 106.562 17.5657Q106.369 17.604 106.175 17.6328Q105.98 17.6616 105.785 17.6808Q105.59 17.7001 105.393 17.7097Q105.197 17.7194 105.001 17.7194L7.999 17.7194Q7.80264 17.7194 7.60651 17.7097Q7.41038 17.7001 7.21496 17.6808Q7.01954 17.6616 6.8253 17.6328Q6.63106 17.604 6.43847 17.5657Q6.24588 17.5273 6.0554 17.4796Q5.86492 17.4319 5.67701 17.3749Q5.4891 17.3179 5.30422 17.2518Q5.11933 17.1856 4.93791 17.1105Q4.7565 17.0353 4.57899 16.9514Q4.40148 16.8674 4.2283 16.7748Q4.05512 16.6823 3.88669 16.5813Q3.71826 16.4804 3.55499 16.3713Q3.39172 16.2622 3.234 16.1452Q3.07628 16.0282 2.92449 15.9037Q2.7727 15.7791 2.6272 15.6472Q2.4817 15.5153 2.34285 15.3765Q2.204 15.2376 2.07213 15.0922Q1.94026 14.9467 1.81569 14.7949Q1.69112 14.6431 1.57414 14.4853Q1.45717 14.3276 1.34807 14.1644Q1.23898 14.0011 1.13803 13.8327Q1.03708 13.6642 0.944512 13.4911Q0.851946 13.3179 0.76799 13.1404Q0.684033 12.9629 0.608888 12.7814Q0.533742 12.6 0.467589 12.4151Q0.401436 12.2302 0.344434 12.0423Q0.287433 11.8544 0.23972 11.664Q0.192007 11.4735 0.153699 11.2809Q0.11539 11.0883 0.0865771 10.894Q0.0577644 10.6998 0.0385174 10.5044Q0.0192703 10.309 0.00963514 10.1128Q0 9.91672 0 9.72035L0 7.999Q0 7.80264 0.00963514 7.60651Q0.0192703 7.41038 0.0385174 7.21496Q0.0577644 7.01954 0.0865771 6.8253Q0.11539 6.63106 0.153699 6.43847Q0.192007 6.24588 0.23972 6.0554Q0.287433 5.86492 0.344434 5.67701Q0.401436 5.4891 0.467589 5.30422Q0.533742 5.11933 0.608888 4.93791Q0.684033 4.7565 0.76799 4.57899Q0.851946 4.40148 0.944512 4.2283Q1.03708 4.05512 1.13803 3.88669Q1.23898 3.71826 1.34807 3.55499Q1.45717 3.39172 1.57414 3.234Q1.69112 3.07628 1.81569 2.92449Q1.94026 2.7727 2.07213 2.6272Q2.204 2.4817 2.34285 2.34285Q2.4817 2.204 2.6272 2.07213Q2.7727 1.94026 2.92449 1.81569Q3.07628 1.69112 3.234 1.57414Q3.39172 1.45717 3.55499 1.34807Q3.71826 1.23898 3.88669 1.13803Q4.05512 1.03708 4.2283 0.944512Q4.40148 0.851946 4.57899 0.76799Q4.7565 0.684033 4.93791 0.608888Q5.11933 0.533742 5.30422 0.467589Q5.4891 0.401436 5.67701 0.344434Q5.86492 0.287433 6.0554 0.23972Q6.24588 0.192007 6.43847 0.153699Q6.63106 0.11539 6.8253 0.0865771Q7.01954 0.0577644 7.21496 0.0385174Q7.41038 0.0192703 7.60651 0.00963514Q7.80264 0 7.999 0L7.999 0Z" id="path_1" />
  </defs>
  <g filter="url(#filter_1)">
    <g id="12.-Nigdi-Flyover" transform="translate(7 5)">
      <path d="M99.6534 27.2716C99.6534 27.2716 97.3935 24.3374 95.3488 21.9711C93.3041 19.6049 91.4747 17.8066 91.4747 17.8066L107.832 17.8066L99.6534 27.2716Z" id="Triangle" fill="#FFFFFF" fill-rule="evenodd" stroke="#ED1C24" stroke-width="1" />
      <g id="Rectangle">
        <use xlink:href="#path_1" fill="none" stroke="#ED1C24" stroke-width="2" />
        <use stroke="none" fill="#FFFFFF" xlink:href="#path_1" fill-rule="evenodd" />
      </g>
      <g id="NIGDI-FLYOVER" fill="#000000" fill-opacity="0.6392157" transform="translate(5.4000244 2.3000412)">
        <path d="M16.1826 7.56348L16.1826 6.23682L19.6094 6.23682L19.6094 9.37354Q19.1099 9.85693 18.1619 10.2249Q17.2139 10.5928 16.2417 10.5928Q15.0063 10.5928 14.0879 10.0745Q13.1694 9.55615 12.7075 8.59204Q12.2456 7.62793 12.2456 6.49463Q12.2456 5.26465 12.7612 4.30859Q13.2769 3.35254 14.2705 2.84229Q15.0278 2.4502 16.1558 2.4502Q17.6221 2.4502 18.4465 3.06519Q19.271 3.68018 19.5073 4.76514L17.9282 5.06055Q17.7617 4.48047 17.3025 4.14478Q16.8433 3.80908 16.1558 3.80908Q15.1138 3.80908 14.4988 4.46973Q13.8838 5.13037 13.8838 6.43018Q13.8838 7.83203 14.5068 8.53296Q15.1299 9.23389 16.1396 9.23389Q16.6392 9.23389 17.1414 9.03784Q17.6436 8.8418 18.0034 8.5625L18.0034 7.56348L16.1826 7.56348ZM55.585 6.56982Q55.585 5.3667 55.9448 4.55029Q56.2134 3.94873 56.678 3.4707Q57.1426 2.99268 57.6958 2.76172Q58.4316 2.4502 59.3931 2.4502Q61.1333 2.4502 62.178 3.52979Q63.2227 4.60938 63.2227 6.53223Q63.2227 8.43896 62.186 9.51587Q61.1494 10.5928 59.4146 10.5928Q57.6582 10.5928 56.6216 9.52124Q55.585 8.44971 55.585 6.56982ZM1.53564 2.58447L1.53564 10.4585L3.0127 10.4585L3.0127 5.32373L6.18701 10.4585L7.78223 10.4585L7.78223 2.58447L6.30518 2.58447L6.30518 7.84277L3.08252 2.58447L1.53564 2.58447ZM9.41504 2.58447L9.41504 10.4585L11.0049 10.4585L11.0049 2.58447L9.41504 2.58447ZM23.9761 2.58447L21.0703 2.58447L21.0703 10.4585L24.062 10.4585Q24.9429 10.4585 25.4692 10.292Q26.1729 10.0664 26.5864 9.66357Q27.1343 9.13184 27.4297 8.27246Q27.6714 7.56885 27.6714 6.59668Q27.6714 5.49023 27.4136 4.7356Q27.1558 3.98096 26.6616 3.45996Q26.1675 2.93896 25.4746 2.73486Q24.959 2.58447 23.9761 2.58447ZM28.9712 10.4585L28.9712 2.58447L30.561 2.58447L30.561 10.4585L28.9712 10.4585ZM35.1426 2.58447L35.1426 10.4585L36.7324 10.4585L36.7324 7.1123L40.0195 7.1123L40.0195 5.78027L36.7324 5.78027L36.7324 3.9165L40.5405 3.9165L40.5405 2.58447L35.1426 2.58447ZM50.6382 7.14453L50.6382 10.4585L52.2227 10.4585L52.2227 7.15527L55.1177 2.58447L53.2861 2.58447L51.4707 5.69971L49.6177 2.58447L47.7539 2.58447L50.6382 7.14453ZM63.6577 2.58447L66.4722 10.4585L68.1694 10.4585L70.9893 2.58447L69.3027 2.58447L67.3745 8.41211L65.3818 2.58447L63.6577 2.58447ZM71.8003 10.4585L71.8003 2.58447L77.6387 2.58447L77.6387 3.9165L73.3901 3.9165L73.3901 5.66211L77.3433 5.66211L77.3433 6.98877L73.3901 6.98877L73.3901 9.13184L77.7891 9.13184L77.7891 10.4585L71.8003 10.4585ZM79.1426 2.58447L79.1426 10.4585L80.7324 10.4585L80.7324 7.17139L81.0547 7.17139Q81.6025 7.17139 81.855 7.26001Q82.1074 7.34863 82.333 7.58765Q82.5586 7.82666 83.1709 8.74512L84.3203 10.4585L86.2217 10.4585L85.2603 8.92236Q84.6909 8.00391 84.3552 7.64404Q84.0195 7.28418 83.5039 6.9834Q84.5405 6.83301 85.0615 6.25562Q85.5825 5.67822 85.5825 4.79199Q85.5825 4.09375 85.2388 3.55127Q84.895 3.00879 84.323 2.79663Q83.751 2.58447 82.4888 2.58447L79.1426 2.58447ZM41.894 10.4585L41.894 2.64893L43.4839 2.64893L43.4839 9.13184L47.437 9.13184L47.437 10.4585L41.894 10.4585ZM57.2231 6.51611Q57.2231 7.85352 57.8408 8.5437Q58.4585 9.23389 59.4092 9.23389Q60.3599 9.23389 60.9695 8.54907Q61.5791 7.86426 61.5791 6.49463Q61.5791 5.14111 60.9856 4.4751Q60.3921 3.80908 59.4092 3.80908Q58.4263 3.80908 57.8247 4.48315Q57.2231 5.15723 57.2231 6.51611ZM22.6602 9.13184L22.6602 3.9165L23.3745 3.9165Q24.3467 3.9165 24.6797 3.9917Q25.1255 4.08838 25.4155 4.3623Q25.7056 4.63623 25.8667 5.125Q26.0278 5.61377 26.0278 6.52686Q26.0278 7.43994 25.8667 7.96899Q25.7056 8.49805 25.4504 8.729Q25.1953 8.95996 24.8086 9.05664Q24.5132 9.13184 23.8472 9.13184L22.6602 9.13184ZM81.9087 5.91455L80.7324 5.91455L80.7324 3.9165L81.9731 3.9165Q82.9399 3.9165 83.1333 3.94336Q83.52 4.00781 83.7322 4.2522Q83.9443 4.49658 83.9443 4.89404Q83.9443 5.24854 83.7832 5.48486Q83.6221 5.72119 83.3374 5.81787Q83.0527 5.91455 81.9087 5.91455Z" />
      </g>
      <g id="5-MIN" transform="translate(92.42114 2.2930527)">
        <g id="5" fill="#000000" fill-opacity="0.6392157">
          <path d="M5.25191 5.2168L6.20895 5.11768Q6.24996 5.44238 6.45162 5.63208Q6.65328 5.82178 6.91647 5.82178Q7.21725 5.82178 7.42574 5.57739Q7.63424 5.33301 7.63424 4.84082Q7.63424 4.37939 7.42745 4.14868Q7.22066 3.91797 6.88912 3.91797Q6.47555 3.91797 6.14742 4.28369L5.36813 4.1709L5.86031 1.56299L8.39986 1.56299L8.39986 2.46191L6.58834 2.46191L6.43795 3.31299Q6.75924 3.15234 7.0942 3.15234Q7.73336 3.15234 8.1777 3.61719Q8.62203 4.08203 8.62203 4.82373Q8.62203 5.44238 8.26315 5.92773Q7.77438 6.59082 6.90621 6.59082Q6.21236 6.59082 5.77486 6.21826Q5.33736 5.8457 5.25191 5.2168Z" />
        </g>
        <g id="MIN" fill="#000000" fill-opacity="0.6392157">
          <path d="M1.81319 13.6592L1.81319 9.36426L3.11105 9.36426L3.89034 12.2939L4.66085 9.36426L5.96163 9.36426L5.96163 13.6592L5.15597 13.6592L5.15597 10.2783L4.30343 13.6592L3.46847 13.6592L2.61886 10.2783L2.61886 13.6592L1.81319 13.6592ZM6.79659 13.6592L6.79659 9.36426L7.66378 9.36426L7.66378 13.6592L6.79659 13.6592ZM8.49874 9.36426L8.49874 13.6592L9.30441 13.6592L9.30441 10.8584L11.0359 13.6592L11.906 13.6592L11.906 9.36426L11.1003 9.36426L11.1003 12.2324L9.34249 9.36426L8.49874 9.36426Z" />
        </g>
      </g>
      <path d="M98.7947 36.4535C98.7947 35.9307 99.1801 35.507 99.6556 35.507C100.131 35.507 100.517 35.9307 100.517 36.4535C100.517 36.9762 100.131 37.4 99.6556 37.4C99.1801 37.4 98.7947 36.9762 98.7947 36.4535Z" id="Ellipse" fill="#D3D3D3" fill-rule="evenodd" stroke="#ED1C24" stroke-width="1" />
      <path d="M99.6553 26.9882L99.6553 35.507L99.6553 30.2118" id="Line" fill="none" fill-rule="evenodd" stroke="#ED1C24" stroke-width="1" stroke-linecap="square" />
    </g>
  </g>
</svg>