<svg xmlns="http://www.w3.org/2000/svg" width="3750" viewBox="0 0 3750 1875" height="1875" version="1.0"><defs><clipPath id="a"><path d="M 2411.390625 1175.410156 L 3171 1175.410156 L 3171 1504.660156 L 2411.390625 1504.660156 Z M 2411.390625 1175.410156"/></clipPath></defs><path fill="#F9A72B" d="M 543.496094 725.386719 L 2370.878906 725.386719 L 2370.878906 1250.800781 L 543.496094 1250.800781 L 543.496094 725.386719"/><path fill="#77838D" d="M 543.496094 1253.59375 L 540.699219 1253.59375 L 540.699219 722.59375 L 2373.675781 722.59375 L 2373.675781 1253.59375 L 543.496094 1253.59375 M 546.289062 728.175781 L 546.289062 1248.011719 L 2368.085938 1248.011719 L 2368.085938 728.175781 L 546.289062 728.175781"/><path fill="#FFF" d="M 602.171875 784.574219 L 2311.644531 784.574219 L 2311.644531 1192.171875 L 602.171875 1192.171875 L 602.171875 784.574219"/><path fill="#F9A72B" d="M 2376.222656 725.386719 L 3206.878906 725.386719 L 3206.878906 1250.800781 L 2376.222656 1250.800781 L 2376.222656 725.386719"/><path fill="#77838D" d="M 2376.222656 1253.59375 L 2373.429688 1253.59375 L 2373.429688 722.59375 L 3209.675781 722.59375 L 3209.675781 1253.59375 L 2376.222656 1253.59375 M 2379.019531 728.175781 L 2379.019531 1248.011719 L 3204.085938 1248.011719 L 3204.085938 728.175781 L 2379.019531 728.175781"/><path fill="#FFF" d="M 2434.917969 784.574219 L 3147.625 784.574219 L 3147.625 1192.171875 L 2434.917969 1192.171875 L 2434.917969 784.574219"/><g clip-path="url(#a)"><path fill="#F9A72B" d="M 2791.253906 1504.660156 L 3170.609375 1175.410156 L 2411.925781 1175.410156 Z M 2791.253906 1504.660156"/></g><g><g><g><path d="M 98.609375 0 L 5.359375 0 L 5.359375 -22.859375 L 36.734375 -54.578125 C 45.703125 -63.953125 51.5625 -70.351562 54.3125 -73.78125 C 57.070312 -77.207031 58.992188 -80.148438 60.078125 -82.609375 C 61.160156 -85.078125 61.703125 -87.660156 61.703125 -90.359375 C 61.703125 -93.691406 60.617188 -96.320312 58.453125 -98.25 C 56.285156 -100.1875 53.238281 -101.15625 49.3125 -101.15625 C 45.269531 -101.15625 41.179688 -100 37.046875 -97.6875 C 32.910156 -95.375 28.238281 -91.960938 23.03125 -87.453125 L 3.953125 -109.78125 C 10.578125 -115.695312 16.144531 -119.925781 20.65625 -122.46875 C 25.164062 -125.019531 30.070312 -126.96875 35.375 -128.3125 C 40.675781 -129.664062 46.640625 -130.34375 53.265625 -130.34375 C 61.585938 -130.34375 69.015625 -128.875 75.546875 -125.9375 C 82.078125 -123.007812 87.144531 -118.835938 90.75 -113.421875 C 94.351562 -108.003906 96.15625 -101.925781 96.15625 -95.1875 C 96.15625 -90.144531 95.523438 -85.484375 94.265625 -81.203125 C 93.003906 -76.929688 91.054688 -72.726562 88.421875 -68.59375 C 85.785156 -64.46875 82.285156 -60.117188 77.921875 -55.546875 C 73.554688 -50.972656 64.253906 -42.300781 50.015625 -29.53125 L 50.015625 -28.65625 L 98.609375 -28.65625 Z M 98.609375 0" transform="translate(2516.618 1042.134)"/></g></g><g><g><path d="M 3.78125 -34.546875 L 3.78125 -61.96875 L 53.4375 -61.96875 L 53.4375 -34.546875 Z M 3.78125 -34.546875" transform="translate(2622.087 1042.134)"/></g></g><g><g><path d="M 69.875 0 L 43.59375 -92.546875 L 42.796875 -92.546875 C 44.035156 -76.785156 44.65625 -64.539062 44.65625 -55.8125 L 44.65625 0 L 13.890625 0 L 13.890625 -128.5 L 60.125 -128.5 L 86.921875 -37.265625 L 87.625 -37.265625 L 113.90625 -128.5 L 160.21875 -128.5 L 160.21875 0 L 128.328125 0 L 128.328125 -56.34375 C 128.328125 -59.269531 128.367188 -62.519531 128.453125 -66.09375 C 128.535156 -69.664062 128.929688 -78.425781 129.640625 -92.375 L 128.84375 -92.375 L 102.921875 0 Z M 69.875 0" transform="translate(2679.303 1042.134)"/></g></g><g><g><path d="M 13.890625 0 L 13.890625 -128.5 L 48.78125 -128.5 L 48.78125 0 Z M 13.890625 0" transform="translate(2853.327 1042.134)"/></g></g><g><g><path d="M 136.234375 0 L 90.703125 0 L 43.765625 -90.53125 L 42.984375 -90.53125 C 44.097656 -76.289062 44.65625 -65.421875 44.65625 -57.921875 L 44.65625 0 L 13.890625 0 L 13.890625 -128.5 L 59.234375 -128.5 L 106 -39.203125 L 106.53125 -39.203125 C 105.707031 -52.148438 105.296875 -62.550781 105.296875 -70.40625 L 105.296875 -128.5 L 136.234375 -128.5 Z M 136.234375 0" transform="translate(2915.993 1042.134)"/></g></g></g><g><g><g><path d="M 65.875 -53.875 C 65.875 -45.050781 63.269531 -38.234375 58.0625 -33.421875 C 52.851562 -28.609375 45.457031 -26.203125 35.875 -26.203125 L 29.890625 -26.203125 L 29.890625 0 L 8.53125 0 L 8.53125 -79 L 35.875 -79 C 45.851562 -79 53.347656 -76.816406 58.359375 -72.453125 C 63.367188 -68.097656 65.875 -61.90625 65.875 -53.875 Z M 29.890625 -43.609375 L 33.78125 -43.609375 C 36.976562 -43.609375 39.523438 -44.507812 41.421875 -46.3125 C 43.316406 -48.113281 44.265625 -50.597656 44.265625 -53.765625 C 44.265625 -59.097656 41.304688 -61.765625 35.390625 -61.765625 L 29.890625 -61.765625 Z M 29.890625 -43.609375" transform="translate(824.198 902.992)"/></g></g></g><g><g><g><path d="M 75.703125 -79 L 75.703125 -31.453125 C 75.703125 -21.109375 72.773438 -13.097656 66.921875 -7.421875 C 61.066406 -1.753906 52.628906 1.078125 41.609375 1.078125 C 30.835938 1.078125 22.5625 -1.675781 16.78125 -7.1875 C 11 -12.695312 8.109375 -20.625 8.109375 -30.96875 L 8.109375 -79 L 29.5625 -79 L 29.5625 -32.640625 C 29.5625 -27.054688 30.601562 -23.003906 32.6875 -20.484375 C 34.78125 -17.960938 37.863281 -16.703125 41.9375 -16.703125 C 46.289062 -16.703125 49.445312 -17.953125 51.40625 -20.453125 C 53.375 -22.953125 54.359375 -27.050781 54.359375 -32.75 L 54.359375 -79 Z M 75.703125 -79" transform="translate(894.117 902.992)"/></g></g></g><g><g><g><path d="M 83.765625 0 L 55.765625 0 L 26.90625 -55.65625 L 26.421875 -55.65625 C 27.109375 -46.90625 27.453125 -40.222656 27.453125 -35.609375 L 27.453125 0 L 8.53125 0 L 8.53125 -79 L 36.421875 -79 L 65.171875 -24.09375 L 65.5 -24.09375 C 64.988281 -32.0625 64.734375 -38.457031 64.734375 -43.28125 L 64.734375 -79 L 83.765625 -79 Z M 83.765625 0" transform="translate(977.868 902.992)"/></g></g></g><g><g><g><path d="M 55.4375 0 L 8.53125 0 L 8.53125 -79 L 55.4375 -79 L 55.4375 -61.875 L 29.890625 -61.875 L 29.890625 -49.453125 L 53.546875 -49.453125 L 53.546875 -32.3125 L 29.890625 -32.3125 L 29.890625 -17.40625 L 55.4375 -17.40625 Z M 55.4375 0" transform="translate(1070.157 902.992)"/></g></g></g><g><g><g><path d="M 8.53125 0 L 8.53125 -79 L 29.984375 -79 L 29.984375 0 Z M 8.53125 0" transform="translate(1159.636 902.992)"/></g></g></g><g><g><g><path d="M 83.765625 0 L 55.765625 0 L 26.90625 -55.65625 L 26.421875 -55.65625 C 27.109375 -46.90625 27.453125 -40.222656 27.453125 -35.609375 L 27.453125 0 L 8.53125 0 L 8.53125 -79 L 36.421875 -79 L 65.171875 -24.09375 L 65.5 -24.09375 C 64.988281 -32.0625 64.734375 -38.457031 64.734375 -43.28125 L 64.734375 -79 L 83.765625 -79 Z M 83.765625 0" transform="translate(1198.162 902.992)"/></g></g></g><g><g><g><path d="M 43.390625 0 L 22.046875 0 L 22.046875 -61.546875 L 2.75 -61.546875 L 2.75 -79 L 62.625 -79 L 62.625 -61.546875 L 43.390625 -61.546875 Z M 43.390625 0" transform="translate(1290.45 902.992)"/></g></g></g><g><g><g><path d="M 55.4375 0 L 8.53125 0 L 8.53125 -79 L 55.4375 -79 L 55.4375 -61.875 L 29.890625 -61.875 L 29.890625 -49.453125 L 53.546875 -49.453125 L 53.546875 -32.3125 L 29.890625 -32.3125 L 29.890625 -17.40625 L 55.4375 -17.40625 Z M 55.4375 0" transform="translate(1355.831 902.992)"/></g></g></g><g><g><g><path d="M 29.890625 -28.75 L 29.890625 0 L 8.53125 0 L 8.53125 -79 L 34.421875 -79 C 55.890625 -79 66.625 -71.21875 66.625 -55.65625 C 66.625 -46.507812 62.160156 -39.429688 53.234375 -34.421875 L 76.25 0 L 52.046875 0 L 35.28125 -28.75 Z M 29.890625 -44.796875 L 33.875 -44.796875 C 41.332031 -44.796875 45.0625 -48.09375 45.0625 -54.6875 C 45.0625 -60.125 41.40625 -62.84375 34.09375 -62.84375 L 29.890625 -62.84375 Z M 29.890625 -44.796875" transform="translate(1416.564 902.992)"/></g></g></g><g><g><g><path d="M 83.765625 0 L 55.765625 0 L 26.90625 -55.65625 L 26.421875 -55.65625 C 27.109375 -46.90625 27.453125 -40.222656 27.453125 -35.609375 L 27.453125 0 L 8.53125 0 L 8.53125 -79 L 36.421875 -79 L 65.171875 -24.09375 L 65.5 -24.09375 C 64.988281 -32.0625 64.734375 -38.457031 64.734375 -43.28125 L 64.734375 -79 L 83.765625 -79 Z M 83.765625 0" transform="translate(1491.455 902.992)"/></g></g></g><g><g><g><path d="M 57.015625 0 L 53.125 -14.8125 L 27.453125 -14.8125 L 23.453125 0 L 0 0 L 25.78125 -79.328125 L 54.25 -79.328125 L 80.359375 0 Z M 48.6875 -32.3125 L 45.28125 -45.28125 C 44.488281 -48.164062 43.523438 -51.894531 42.390625 -56.46875 C 41.253906 -61.039062 40.507812 -64.320312 40.15625 -66.3125 C 39.832031 -64.46875 39.191406 -61.4375 38.234375 -57.21875 C 37.273438 -53.007812 35.160156 -44.707031 31.890625 -32.3125 Z M 48.6875 -32.3125" transform="translate(1583.743 902.992)"/></g></g></g><g><g><g><path d="M 43.390625 0 L 22.046875 0 L 22.046875 -61.546875 L 2.75 -61.546875 L 2.75 -79 L 62.625 -79 L 62.625 -61.546875 L 43.390625 -61.546875 Z M 43.390625 0" transform="translate(1664.09 902.992)"/></g></g></g><g><g><g><path d="M 8.53125 0 L 8.53125 -79 L 29.984375 -79 L 29.984375 0 Z M 8.53125 0" transform="translate(1729.471 902.992)"/></g></g></g><g><g><g><path d="M 82.46875 -39.609375 C 82.46875 -26.316406 79.207031 -16.210938 72.6875 -9.296875 C 66.164062 -2.378906 56.617188 1.078125 44.046875 1.078125 C 31.648438 1.078125 22.144531 -2.394531 15.53125 -9.34375 C 8.925781 -16.300781 5.625 -26.425781 5.625 -39.71875 C 5.625 -52.863281 8.910156 -62.90625 15.484375 -69.84375 C 22.054688 -76.78125 31.613281 -80.25 44.15625 -80.25 C 56.726562 -80.25 66.253906 -76.804688 72.734375 -69.921875 C 79.222656 -63.046875 82.46875 -52.941406 82.46875 -39.609375 Z M 28.09375 -39.609375 C 28.09375 -24.335938 33.410156 -16.703125 44.046875 -16.703125 C 49.441406 -16.703125 53.445312 -18.554688 56.0625 -22.265625 C 58.675781 -25.972656 59.984375 -31.753906 59.984375 -39.609375 C 59.984375 -47.492188 58.660156 -53.316406 56.015625 -57.078125 C 53.367188 -60.847656 49.414062 -62.734375 44.15625 -62.734375 C 33.445312 -62.734375 28.09375 -55.023438 28.09375 -39.609375 Z M 28.09375 -39.609375" transform="translate(1767.997 902.992)"/></g></g></g><g><g><g><path d="M 83.765625 0 L 55.765625 0 L 26.90625 -55.65625 L 26.421875 -55.65625 C 27.109375 -46.90625 27.453125 -40.222656 27.453125 -35.609375 L 27.453125 0 L 8.53125 0 L 8.53125 -79 L 36.421875 -79 L 65.171875 -24.09375 L 65.5 -24.09375 C 64.988281 -32.0625 64.734375 -38.457031 64.734375 -43.28125 L 64.734375 -79 L 83.765625 -79 Z M 83.765625 0" transform="translate(1856.18 902.992)"/></g></g></g><g><g><g><path d="M 57.015625 0 L 53.125 -14.8125 L 27.453125 -14.8125 L 23.453125 0 L 0 0 L 25.78125 -79.328125 L 54.25 -79.328125 L 80.359375 0 Z M 48.6875 -32.3125 L 45.28125 -45.28125 C 44.488281 -48.164062 43.523438 -51.894531 42.390625 -56.46875 C 41.253906 -61.039062 40.507812 -64.320312 40.15625 -66.3125 C 39.832031 -64.46875 39.191406 -61.4375 38.234375 -57.21875 C 37.273438 -53.007812 35.160156 -44.707031 31.890625 -32.3125 Z M 48.6875 -32.3125" transform="translate(1948.468 902.992)"/></g></g></g><g><g><g><path d="M 8.53125 0 L 8.53125 -79 L 29.890625 -79 L 29.890625 -17.234375 L 60.3125 -17.234375 L 60.3125 0 Z M 8.53125 0" transform="translate(2028.815 902.992)"/></g></g></g><g><g><g><path d="M 55.4375 0 L 8.53125 0 L 8.53125 -79 L 55.4375 -79 L 55.4375 -61.875 L 29.890625 -61.875 L 29.890625 -49.453125 L 53.546875 -49.453125 L 53.546875 -32.3125 L 29.890625 -32.3125 L 29.890625 -17.40625 L 55.4375 -17.40625 Z M 55.4375 0" transform="translate(657.405 1033.492)"/></g></g></g><g><g><g><path d="M 79.703125 0 L 55.015625 0 L 39.609375 -24.703125 L 24.375 0 L 0.21875 0 L 26.421875 -40.421875 L 1.78125 -79 L 25.453125 -79 L 39.71875 -54.578125 L 53.4375 -79 L 77.8125 -79 L 52.796875 -38.75 Z M 79.703125 0" transform="translate(718.138 1033.492)"/></g></g></g><g><g><g><path d="M 76.25 0 L 54.796875 0 L 54.796875 -32.203125 L 29.984375 -32.203125 L 29.984375 0 L 8.53125 0 L 8.53125 -79 L 29.984375 -79 L 29.984375 -49.71875 L 54.796875 -49.71875 L 54.796875 -79 L 76.25 -79 Z M 76.25 0" transform="translate(798.161 1033.492)"/></g></g></g><g><g><g><path d="M 8.53125 0 L 8.53125 -79 L 29.984375 -79 L 29.984375 0 Z M 8.53125 0" transform="translate(882.94 1033.492)"/></g></g></g><g><g><g><path d="M 8.53125 -79 L 36.09375 -79 C 46.832031 -79 54.800781 -77.40625 60 -74.21875 C 65.207031 -71.03125 67.8125 -66.066406 67.8125 -59.328125 C 67.8125 -54.898438 66.675781 -51.117188 64.40625 -47.984375 C 62.144531 -44.847656 59.15625 -42.832031 55.4375 -41.9375 L 55.4375 -41.390625 C 60.34375 -40.097656 63.894531 -37.9375 66.09375 -34.90625 C 68.289062 -31.882812 69.390625 -27.957031 69.390625 -23.125 C 69.390625 -15.957031 66.695312 -10.3125 61.3125 -6.1875 C 55.925781 -2.0625 48.582031 0 39.28125 0 L 8.53125 0 Z M 29.890625 -48.6875 L 36.3125 -48.6875 C 39.375 -48.6875 41.742188 -49.316406 43.421875 -50.578125 C 45.097656 -51.835938 45.9375 -53.710938 45.9375 -56.203125 C 45.9375 -60.628906 42.582031 -62.84375 35.875 -62.84375 L 29.890625 -62.84375 Z M 29.890625 -33.078125 L 29.890625 -16.484375 L 37.390625 -16.484375 C 44.054688 -16.484375 47.390625 -19.289062 47.390625 -24.90625 C 47.390625 -27.539062 46.5 -29.5625 44.71875 -30.96875 C 42.9375 -32.375 40.351562 -33.078125 36.96875 -33.078125 Z M 29.890625 -33.078125" transform="translate(921.465 1033.492)"/></g></g></g><g><g><g><path d="M 8.53125 0 L 8.53125 -79 L 29.984375 -79 L 29.984375 0 Z M 8.53125 0" transform="translate(996.031 1033.492)"/></g></g></g><g><g><g><path d="M 43.390625 0 L 22.046875 0 L 22.046875 -61.546875 L 2.75 -61.546875 L 2.75 -79 L 62.625 -79 L 62.625 -61.546875 L 43.390625 -61.546875 Z M 43.390625 0" transform="translate(1034.557 1033.492)"/></g></g></g><g><g><g><path d="M 8.53125 0 L 8.53125 -79 L 29.984375 -79 L 29.984375 0 Z M 8.53125 0" transform="translate(1099.937 1033.492)"/></g></g></g><g><g><g><path d="M 82.46875 -39.609375 C 82.46875 -26.316406 79.207031 -16.210938 72.6875 -9.296875 C 66.164062 -2.378906 56.617188 1.078125 44.046875 1.078125 C 31.648438 1.078125 22.144531 -2.394531 15.53125 -9.34375 C 8.925781 -16.300781 5.625 -26.425781 5.625 -39.71875 C 5.625 -52.863281 8.910156 -62.90625 15.484375 -69.84375 C 22.054688 -76.78125 31.613281 -80.25 44.15625 -80.25 C 56.726562 -80.25 66.253906 -76.804688 72.734375 -69.921875 C 79.222656 -63.046875 82.46875 -52.941406 82.46875 -39.609375 Z M 28.09375 -39.609375 C 28.09375 -24.335938 33.410156 -16.703125 44.046875 -16.703125 C 49.441406 -16.703125 53.445312 -18.554688 56.0625 -22.265625 C 58.675781 -25.972656 59.984375 -31.753906 59.984375 -39.609375 C 59.984375 -47.492188 58.660156 -53.316406 56.015625 -57.078125 C 53.367188 -60.847656 49.414062 -62.734375 44.15625 -62.734375 C 33.445312 -62.734375 28.09375 -55.023438 28.09375 -39.609375 Z M 28.09375 -39.609375" transform="translate(1138.463 1033.492)"/></g></g></g><g><g><g><path d="M 83.765625 0 L 55.765625 0 L 26.90625 -55.65625 L 26.421875 -55.65625 C 27.109375 -46.90625 27.453125 -40.222656 27.453125 -35.609375 L 27.453125 0 L 8.53125 0 L 8.53125 -79 L 36.421875 -79 L 65.171875 -24.09375 L 65.5 -24.09375 C 64.988281 -32.0625 64.734375 -38.457031 64.734375 -43.28125 L 64.734375 -79 L 83.765625 -79 Z M 83.765625 0" transform="translate(1226.645 1033.492)"/></g></g></g><g><g><g><path d="M 61.65625 0 L 56.3125 -5.515625 C 53.0625 -3.460938 50.398438 -2.046875 48.328125 -1.265625 C 46.265625 -0.492188 43.941406 0.0859375 41.359375 0.484375 C 38.785156 0.878906 35.84375 1.078125 32.53125 1.078125 C 26.84375 1.078125 21.804688 0.109375 17.421875 -1.828125 C 13.046875 -3.773438 9.695312 -6.492188 7.375 -9.984375 C 5.050781 -13.484375 3.890625 -17.46875 3.890625 -21.9375 C 3.890625 -31.375 8.789062 -38.597656 18.59375 -43.609375 C 16.351562 -46.128906 14.613281 -48.800781 13.375 -51.625 C 12.132812 -54.457031 11.515625 -57.65625 11.515625 -61.21875 C 11.515625 -66.988281 13.738281 -71.566406 18.1875 -74.953125 C 22.632812 -78.335938 28.75 -80.03125 36.53125 -80.03125 C 44.132812 -80.03125 50.050781 -78.34375 54.28125 -74.96875 C 58.507812 -71.601562 60.625 -67.019531 60.625 -61.21875 C 60.625 -57.226562 59.476562 -53.53125 57.1875 -50.125 C 54.90625 -46.71875 51.296875 -43.519531 46.359375 -40.53125 L 57.125 -30.3125 C 59.820312 -34.457031 61.691406 -39.140625 62.734375 -44.359375 L 84.671875 -44.359375 C 83.597656 -39.390625 81.898438 -34.410156 79.578125 -29.421875 C 77.253906 -24.429688 74.628906 -20.15625 71.703125 -16.59375 L 89 0 Z M 25.671875 -23.453125 C 25.671875 -21.179688 26.476562 -19.320312 28.09375 -17.875 C 29.71875 -16.4375 31.863281 -15.71875 34.53125 -15.71875 C 36.582031 -15.71875 38.382812 -15.988281 39.9375 -16.53125 C 41.488281 -17.070312 42.675781 -17.6875 43.5 -18.375 L 30.09375 -31.984375 C 27.144531 -29.785156 25.671875 -26.941406 25.671875 -23.453125 Z M 41.609375 -61.21875 C 41.609375 -62.988281 41.09375 -64.257812 40.0625 -65.03125 C 39.039062 -65.8125 37.753906 -66.203125 36.203125 -66.203125 C 34.691406 -66.203125 33.367188 -65.75 32.234375 -64.84375 C 31.097656 -63.945312 30.53125 -62.507812 30.53125 -60.53125 C 30.53125 -57.820312 32.113281 -55.023438 35.28125 -52.140625 C 37.34375 -53.296875 38.910156 -54.675781 39.984375 -56.28125 C 41.066406 -57.882812 41.609375 -59.53125 41.609375 -61.21875 Z M 41.609375 -61.21875" transform="translate(1347.68 1033.492)"/></g></g></g><g><g><g><path d="M 43.71875 -62.625 C 38.632812 -62.625 34.671875 -60.539062 31.828125 -56.375 C 28.984375 -52.21875 27.5625 -46.484375 27.5625 -39.171875 C 27.5625 -23.972656 33.34375 -16.375 44.90625 -16.375 C 48.394531 -16.375 51.78125 -16.859375 55.0625 -17.828125 C 58.34375 -18.804688 61.640625 -19.976562 64.953125 -21.34375 L 64.953125 -3.296875 C 58.359375 -0.378906 50.898438 1.078125 42.578125 1.078125 C 30.660156 1.078125 21.519531 -2.378906 15.15625 -9.296875 C 8.800781 -16.210938 5.625 -26.207031 5.625 -39.28125 C 5.625 -47.457031 7.160156 -54.644531 10.234375 -60.84375 C 13.316406 -67.039062 17.75 -71.804688 23.53125 -75.140625 C 29.3125 -78.472656 36.113281 -80.140625 43.9375 -80.140625 C 52.46875 -80.140625 60.625 -78.285156 68.40625 -74.578125 L 61.875 -57.765625 C 58.957031 -59.140625 56.039062 -60.289062 53.125 -61.21875 C 50.207031 -62.15625 47.070312 -62.625 43.71875 -62.625 Z M 43.71875 -62.625" transform="translate(1464.824 1033.492)"/></g></g></g><g><g><g><path d="M 82.46875 -39.609375 C 82.46875 -26.316406 79.207031 -16.210938 72.6875 -9.296875 C 66.164062 -2.378906 56.617188 1.078125 44.046875 1.078125 C 31.648438 1.078125 22.144531 -2.394531 15.53125 -9.34375 C 8.925781 -16.300781 5.625 -26.425781 5.625 -39.71875 C 5.625 -52.863281 8.910156 -62.90625 15.484375 -69.84375 C 22.054688 -76.78125 31.613281 -80.25 44.15625 -80.25 C 56.726562 -80.25 66.253906 -76.804688 72.734375 -69.921875 C 79.222656 -63.046875 82.46875 -52.941406 82.46875 -39.609375 Z M 28.09375 -39.609375 C 28.09375 -24.335938 33.410156 -16.703125 44.046875 -16.703125 C 49.441406 -16.703125 53.445312 -18.554688 56.0625 -22.265625 C 58.675781 -25.972656 59.984375 -31.753906 59.984375 -39.609375 C 59.984375 -47.492188 58.660156 -53.316406 56.015625 -57.078125 C 53.367188 -60.847656 49.414062 -62.734375 44.15625 -62.734375 C 33.445312 -62.734375 28.09375 -55.023438 28.09375 -39.609375 Z M 28.09375 -39.609375" transform="translate(1536.634 1033.492)"/></g></g></g><g><g><g><path d="M 83.765625 0 L 55.765625 0 L 26.90625 -55.65625 L 26.421875 -55.65625 C 27.109375 -46.90625 27.453125 -40.222656 27.453125 -35.609375 L 27.453125 0 L 8.53125 0 L 8.53125 -79 L 36.421875 -79 L 65.171875 -24.09375 L 65.5 -24.09375 C 64.988281 -32.0625 64.734375 -38.457031 64.734375 -43.28125 L 64.734375 -79 L 83.765625 -79 Z M 83.765625 0" transform="translate(1624.816 1033.492)"/></g></g></g><g><g><g><path d="M 52.90625 -79 L 76.796875 -79 L 50.90625 0 L 25.78125 0 L 0 -79 L 24 -79 L 34.75 -38.96875 C 36.976562 -30.0625 38.203125 -23.863281 38.421875 -20.375 C 38.671875 -22.894531 39.171875 -26.046875 39.921875 -29.828125 C 40.679688 -33.609375 41.351562 -36.582031 41.9375 -38.75 Z M 52.90625 -79" transform="translate(1717.105 1033.492)"/></g></g></g><g><g><g><path d="M 55.4375 0 L 8.53125 0 L 8.53125 -79 L 55.4375 -79 L 55.4375 -61.875 L 29.890625 -61.875 L 29.890625 -49.453125 L 53.546875 -49.453125 L 53.546875 -32.3125 L 29.890625 -32.3125 L 29.890625 -17.40625 L 55.4375 -17.40625 Z M 55.4375 0" transform="translate(1793.887 1033.492)"/></g></g></g><g><g><g><path d="M 83.765625 0 L 55.765625 0 L 26.90625 -55.65625 L 26.421875 -55.65625 C 27.109375 -46.90625 27.453125 -40.222656 27.453125 -35.609375 L 27.453125 0 L 8.53125 0 L 8.53125 -79 L 36.421875 -79 L 65.171875 -24.09375 L 65.5 -24.09375 C 64.988281 -32.0625 64.734375 -38.457031 64.734375 -43.28125 L 64.734375 -79 L 83.765625 -79 Z M 83.765625 0" transform="translate(1854.62 1033.492)"/></g></g></g><g><g><g><path d="M 43.390625 0 L 22.046875 0 L 22.046875 -61.546875 L 2.75 -61.546875 L 2.75 -79 L 62.625 -79 L 62.625 -61.546875 L 43.390625 -61.546875 Z M 43.390625 0" transform="translate(1946.909 1033.492)"/></g></g></g><g><g><g><path d="M 8.53125 0 L 8.53125 -79 L 29.984375 -79 L 29.984375 0 Z M 8.53125 0" transform="translate(2012.289 1033.492)"/></g></g></g><g><g><g><path d="M 82.46875 -39.609375 C 82.46875 -26.316406 79.207031 -16.210938 72.6875 -9.296875 C 66.164062 -2.378906 56.617188 1.078125 44.046875 1.078125 C 31.648438 1.078125 22.144531 -2.394531 15.53125 -9.34375 C 8.925781 -16.300781 5.625 -26.425781 5.625 -39.71875 C 5.625 -52.863281 8.910156 -62.90625 15.484375 -69.84375 C 22.054688 -76.78125 31.613281 -80.25 44.15625 -80.25 C 56.726562 -80.25 66.253906 -76.804688 72.734375 -69.921875 C 79.222656 -63.046875 82.46875 -52.941406 82.46875 -39.609375 Z M 28.09375 -39.609375 C 28.09375 -24.335938 33.410156 -16.703125 44.046875 -16.703125 C 49.441406 -16.703125 53.445312 -18.554688 56.0625 -22.265625 C 58.675781 -25.972656 59.984375 -31.753906 59.984375 -39.609375 C 59.984375 -47.492188 58.660156 -53.316406 56.015625 -57.078125 C 53.367188 -60.847656 49.414062 -62.734375 44.15625 -62.734375 C 33.445312 -62.734375 28.09375 -55.023438 28.09375 -39.609375 Z M 28.09375 -39.609375" transform="translate(2050.815 1033.492)"/></g></g></g><g><g><g><path d="M 83.765625 0 L 55.765625 0 L 26.90625 -55.65625 L 26.421875 -55.65625 C 27.109375 -46.90625 27.453125 -40.222656 27.453125 -35.609375 L 27.453125 0 L 8.53125 0 L 8.53125 -79 L 36.421875 -79 L 65.171875 -24.09375 L 65.5 -24.09375 C 64.988281 -32.0625 64.734375 -38.457031 64.734375 -43.28125 L 64.734375 -79 L 83.765625 -79 Z M 83.765625 0" transform="translate(2138.997 1033.492)"/></g></g></g><g><g><g><path d="M 43.71875 -62.625 C 38.632812 -62.625 34.671875 -60.539062 31.828125 -56.375 C 28.984375 -52.21875 27.5625 -46.484375 27.5625 -39.171875 C 27.5625 -23.972656 33.34375 -16.375 44.90625 -16.375 C 48.394531 -16.375 51.78125 -16.859375 55.0625 -17.828125 C 58.34375 -18.804688 61.640625 -19.976562 64.953125 -21.34375 L 64.953125 -3.296875 C 58.359375 -0.378906 50.898438 1.078125 42.578125 1.078125 C 30.660156 1.078125 21.519531 -2.378906 15.15625 -9.296875 C 8.800781 -16.210938 5.625 -26.207031 5.625 -39.28125 C 5.625 -47.457031 7.160156 -54.644531 10.234375 -60.84375 C 13.316406 -67.039062 17.75 -71.804688 23.53125 -75.140625 C 29.3125 -78.472656 36.113281 -80.140625 43.9375 -80.140625 C 52.46875 -80.140625 60.625 -78.285156 68.40625 -74.578125 L 61.875 -57.765625 C 58.957031 -59.140625 56.039062 -60.289062 53.125 -61.21875 C 50.207031 -62.15625 47.070312 -62.625 43.71875 -62.625 Z M 43.71875 -62.625" transform="translate(1245.791 1163.992)"/></g></g></g><g><g><g><path d="M 55.4375 0 L 8.53125 0 L 8.53125 -79 L 55.4375 -79 L 55.4375 -61.875 L 29.890625 -61.875 L 29.890625 -49.453125 L 53.546875 -49.453125 L 53.546875 -32.3125 L 29.890625 -32.3125 L 29.890625 -17.40625 L 55.4375 -17.40625 Z M 55.4375 0" transform="translate(1317.602 1163.992)"/></g></g></g><g><g><g><path d="M 83.765625 0 L 55.765625 0 L 26.90625 -55.65625 L 26.421875 -55.65625 C 27.109375 -46.90625 27.453125 -40.222656 27.453125 -35.609375 L 27.453125 0 L 8.53125 0 L 8.53125 -79 L 36.421875 -79 L 65.171875 -24.09375 L 65.5 -24.09375 C 64.988281 -32.0625 64.734375 -38.457031 64.734375 -43.28125 L 64.734375 -79 L 83.765625 -79 Z M 83.765625 0" transform="translate(1378.335 1163.992)"/></g></g></g><g><g><g><path d="M 43.390625 0 L 22.046875 0 L 22.046875 -61.546875 L 2.75 -61.546875 L 2.75 -79 L 62.625 -79 L 62.625 -61.546875 L 43.390625 -61.546875 Z M 43.390625 0" transform="translate(1470.624 1163.992)"/></g></g></g><g><g><g><path d="M 29.890625 -28.75 L 29.890625 0 L 8.53125 0 L 8.53125 -79 L 34.421875 -79 C 55.890625 -79 66.625 -71.21875 66.625 -55.65625 C 66.625 -46.507812 62.160156 -39.429688 53.234375 -34.421875 L 76.25 0 L 52.046875 0 L 35.28125 -28.75 Z M 29.890625 -44.796875 L 33.875 -44.796875 C 41.332031 -44.796875 45.0625 -48.09375 45.0625 -54.6875 C 45.0625 -60.125 41.40625 -62.84375 34.09375 -62.84375 L 29.890625 -62.84375 Z M 29.890625 -44.796875" transform="translate(1536.004 1163.992)"/></g></g></g><g><g><g><path d="M 55.4375 0 L 8.53125 0 L 8.53125 -79 L 55.4375 -79 L 55.4375 -61.875 L 29.890625 -61.875 L 29.890625 -49.453125 L 53.546875 -49.453125 L 53.546875 -32.3125 L 29.890625 -32.3125 L 29.890625 -17.40625 L 55.4375 -17.40625 Z M 55.4375 0" transform="translate(1610.894 1163.992)"/></g></g></g></svg>