<svg xmlns="http://www.w3.org/2000/svg" xmlns:xlink="http://www.w3.org/1999/xlink" width="5000" zoomAndPan="magnify" viewBox="0 0 3750 1874.999927" height="2500" preserveAspectRatio="xMidYMid meet" version="1.0"><defs><g><g id="id1"/></g><clipPath id="id2"><path d="M 2618 1202.453125 L 2964.464844 1202.453125 L 2964.464844 1352.453125 L 2618 1352.453125 Z M 2618 1202.453125 " clip-rule="nonzero"/></clipPath></defs><path fill="rgb(100%, 8.628845%, 8.628845%)" d="M 721.847656 851.546875 L 2370.753906 851.546875 L 2370.753906 1250.960938 L 721.847656 1250.960938 L 721.847656 851.546875 " fill-opacity="1" fill-rule="nonzero"/><path fill="rgb(46.669006%, 51.368713%, 55.288696%)" d="M 721.847656 1253.753906 L 719.054688 1253.753906 L 719.054688 848.753906 L 2373.546875 848.753906 L 2373.546875 1253.753906 L 721.847656 1253.753906 M 724.640625 854.335938 L 724.640625 1248.167969 L 2367.960938 1248.167969 L 2367.960938 854.335938 L 724.640625 854.335938 " fill-opacity="1" fill-rule="nonzero"/><path fill="rgb(100%, 100%, 100%)" d="M 780.519531 910.742188 L 2311.523438 910.742188 L 2311.523438 1192.320312 L 780.519531 1192.320312 L 780.519531 910.742188 " fill-opacity="1" fill-rule="nonzero"/><path fill="rgb(100%, 8.628845%, 8.628845%)" d="M 2376.222656 851.546875 L 3206.882812 851.546875 L 3206.882812 1250.957031 L 2376.222656 1250.957031 L 2376.222656 851.546875 " fill-opacity="1" fill-rule="nonzero"/><path fill="rgb(46.669006%, 51.368713%, 55.288696%)" d="M 2376.222656 1253.75 L 2373.425781 1253.75 L 2373.425781 848.753906 L 3209.675781 848.753906 L 3209.675781 1253.75 L 2376.222656 1253.75 M 2379.015625 854.339844 L 2379.015625 1248.167969 L 3204.085938 1248.167969 L 3204.085938 854.339844 L 2379.015625 854.339844 " fill-opacity="1" fill-rule="nonzero"/><path fill="rgb(100%, 100%, 100%)" d="M 2434.914062 910.742188 L 3147.628906 910.742188 L 3147.628906 1192.320312 L 2434.914062 1192.320312 L 2434.914062 910.742188 " fill-opacity="1" fill-rule="nonzero"/><g fill="rgb(0%, 0%, 0%)" fill-opacity="1"><g transform="translate(2473.373301, 1115.24991)"><g><path d="M 82.796875 0 L 47.546875 0 L 47.546875 -68.03125 C 47.546875 -76.289062 47.722656 -83.847656 48.078125 -90.703125 C 45.910156 -88.066406 43.210938 -85.3125 39.984375 -82.4375 L 25.40625 -70.40625 L 7.390625 -92.546875 L 51.5 -128.5 L 82.796875 -128.5 Z M 82.796875 0 "/></g></g><g transform="translate(2578.842043, 1115.24991)"><g><path d="M 99.140625 -64.078125 C 99.140625 -41.335938 95.332031 -24.675781 87.71875 -14.09375 C 80.101562 -3.519531 68.441406 1.765625 52.734375 1.765625 C 37.378906 1.765625 25.804688 -3.753906 18.015625 -14.796875 C 10.222656 -25.847656 6.328125 -42.273438 6.328125 -64.078125 C 6.328125 -86.921875 10.132812 -103.675781 17.75 -114.34375 C 25.375 -125.007812 37.035156 -130.34375 52.734375 -130.34375 C 68.023438 -130.34375 79.582031 -124.789062 87.40625 -113.6875 C 95.226562 -102.582031 99.140625 -86.046875 99.140625 -64.078125 Z M 40.875 -64.078125 C 40.875 -49.546875 41.78125 -39.550781 43.59375 -34.09375 C 45.40625 -28.644531 48.453125 -25.921875 52.734375 -25.921875 C 57.066406 -25.921875 60.125 -28.734375 61.90625 -34.359375 C 63.695312 -39.984375 64.59375 -49.890625 64.59375 -64.078125 C 64.59375 -78.316406 63.6875 -88.289062 61.875 -94 C 60.0625 -99.707031 57.015625 -102.5625 52.734375 -102.5625 C 48.453125 -102.5625 45.40625 -99.804688 43.59375 -94.296875 C 41.78125 -88.796875 40.875 -78.722656 40.875 -64.078125 Z M 40.875 -64.078125 "/></g></g><g transform="translate(2684.310784, 1115.24991)"><g><path d="M 3.78125 -34.546875 L 3.78125 -61.96875 L 53.4375 -61.96875 L 53.4375 -34.546875 Z M 3.78125 -34.546875 "/></g></g><g transform="translate(2741.527576, 1115.24991)"><g><path d="M 69.875 0 L 43.59375 -92.546875 L 42.796875 -92.546875 C 44.035156 -76.785156 44.65625 -64.539062 44.65625 -55.8125 L 44.65625 0 L 13.890625 0 L 13.890625 -128.5 L 60.125 -128.5 L 86.921875 -37.265625 L 87.625 -37.265625 L 113.90625 -128.5 L 160.21875 -128.5 L 160.21875 0 L 128.328125 0 L 128.328125 -56.34375 C 128.328125 -59.269531 128.367188 -62.519531 128.453125 -66.09375 C 128.535156 -69.664062 128.929688 -78.425781 129.640625 -92.375 L 128.84375 -92.375 L 102.921875 0 Z M 69.875 0 "/></g></g><g transform="translate(2915.551, 1115.24991)"><g><path d="M 13.890625 0 L 13.890625 -128.5 L 48.78125 -128.5 L 48.78125 0 Z M 13.890625 0 "/></g></g><g transform="translate(2978.217011, 1115.24991)"><g><path d="M 136.234375 0 L 90.703125 0 L 43.765625 -90.53125 L 42.984375 -90.53125 C 44.097656 -76.289062 44.65625 -65.421875 44.65625 -57.921875 L 44.65625 0 L 13.890625 0 L 13.890625 -128.5 L 59.234375 -128.5 L 106 -39.203125 L 106.53125 -39.203125 C 105.707031 -52.148438 105.296875 -62.550781 105.296875 -70.40625 L 105.296875 -128.5 L 136.234375 -128.5 Z M 136.234375 0 "/></g></g></g><g fill="rgb(0%, 0%, 0%)" fill-opacity="1"><g transform="translate(803.870984, 1115.24991)"><g><path d="M 48.609375 -46.765625 L 48.609375 0 L 13.890625 0 L 13.890625 -128.5 L 55.984375 -128.5 C 90.910156 -128.5 108.375 -115.84375 108.375 -90.53125 C 108.375 -75.644531 101.109375 -64.128906 86.578125 -55.984375 L 124.015625 0 L 84.640625 0 L 57.390625 -46.765625 Z M 48.609375 -72.859375 L 55.109375 -72.859375 C 67.234375 -72.859375 73.296875 -78.222656 73.296875 -88.953125 C 73.296875 -97.796875 67.347656 -102.21875 55.453125 -102.21875 L 48.609375 -102.21875 Z M 48.609375 -72.859375 "/></g></g><g transform="translate(925.68738, 1115.24991)"><g><path d="M 92.71875 0 L 86.390625 -24.078125 L 44.65625 -24.078125 L 38.140625 0 L 0 0 L 41.921875 -129.03125 L 88.25 -129.03125 L 130.6875 0 Z M 79.1875 -52.5625 L 73.65625 -73.65625 C 72.363281 -78.34375 70.796875 -84.40625 68.953125 -91.84375 C 67.109375 -99.289062 65.890625 -104.625 65.296875 -107.84375 C 64.773438 -104.851562 63.738281 -99.929688 62.1875 -93.078125 C 60.632812 -86.222656 57.191406 -72.71875 51.859375 -52.5625 Z M 79.1875 -52.5625 "/></g></g><g transform="translate(1056.380729, 1115.24991)"><g><path d="M 69.875 0 L 43.59375 -92.546875 L 42.796875 -92.546875 C 44.035156 -76.785156 44.65625 -64.539062 44.65625 -55.8125 L 44.65625 0 L 13.890625 0 L 13.890625 -128.5 L 60.125 -128.5 L 86.921875 -37.265625 L 87.625 -37.265625 L 113.90625 -128.5 L 160.21875 -128.5 L 160.21875 0 L 128.328125 0 L 128.328125 -56.34375 C 128.328125 -59.269531 128.367188 -62.519531 128.453125 -66.09375 C 128.535156 -69.664062 128.929688 -78.425781 129.640625 -92.375 L 128.84375 -92.375 L 102.921875 0 Z M 69.875 0 "/></g></g><g transform="translate(1230.404154, 1115.24991)"><g><path d="M 92.71875 0 L 86.390625 -24.078125 L 44.65625 -24.078125 L 38.140625 0 L 0 0 L 41.921875 -129.03125 L 88.25 -129.03125 L 130.6875 0 Z M 79.1875 -52.5625 L 73.65625 -73.65625 C 72.363281 -78.34375 70.796875 -84.40625 68.953125 -91.84375 C 67.109375 -99.289062 65.890625 -104.625 65.296875 -107.84375 C 64.773438 -104.851562 63.738281 -99.929688 62.1875 -93.078125 C 60.632812 -86.222656 57.191406 -72.71875 51.859375 -52.5625 Z M 79.1875 -52.5625 "/></g></g><g transform="translate(1361.097503, 1115.24991)"><g/></g><g transform="translate(1407.855312, 1115.24991)"><g><path d="M 90.171875 0 L 13.890625 0 L 13.890625 -128.5 L 90.171875 -128.5 L 90.171875 -100.640625 L 48.609375 -100.640625 L 48.609375 -80.421875 L 87.09375 -80.421875 L 87.09375 -52.5625 L 48.609375 -52.5625 L 48.609375 -28.296875 L 90.171875 -28.296875 Z M 90.171875 0 "/></g></g><g transform="translate(1506.644368, 1115.24991)"><g><path d="M 134.125 -64.421875 C 134.125 -35.304688 124.863281 -15.675781 106.34375 -5.53125 L 137.71875 30.59375 L 94.484375 30.59375 L 71.8125 2.015625 L 71.71875 1.9375 L 71.71875 1.84375 L 71.625 1.765625 C 51.46875 1.765625 36.015625 -3.890625 25.265625 -15.203125 C 14.515625 -26.515625 9.140625 -42.976562 9.140625 -64.59375 C 9.140625 -85.988281 14.484375 -102.320312 25.171875 -113.59375 C 35.867188 -124.875 51.414062 -130.515625 71.8125 -130.515625 C 92.257812 -130.515625 107.753906 -124.914062 118.296875 -113.71875 C 128.847656 -102.53125 134.125 -86.097656 134.125 -64.421875 Z M 45.703125 -64.421875 C 45.703125 -39.578125 54.34375 -27.15625 71.625 -27.15625 C 80.414062 -27.15625 86.9375 -30.171875 91.1875 -36.203125 C 95.4375 -42.242188 97.5625 -51.648438 97.5625 -64.421875 C 97.5625 -77.253906 95.40625 -86.734375 91.09375 -92.859375 C 86.789062 -98.984375 80.363281 -102.046875 71.8125 -102.046875 C 54.40625 -102.046875 45.703125 -89.503906 45.703125 -64.421875 Z M 45.703125 -64.421875 "/></g></g><g transform="translate(1650.081856, 1115.24991)"><g><path d="M 123.140625 -128.5 L 123.140625 -51.15625 C 123.140625 -34.332031 118.378906 -21.304688 108.859375 -12.078125 C 99.335938 -2.847656 85.609375 1.765625 67.671875 1.765625 C 50.148438 1.765625 36.6875 -2.71875 27.28125 -11.6875 C 17.882812 -20.65625 13.1875 -33.546875 13.1875 -50.359375 L 13.1875 -128.5 L 48.078125 -128.5 L 48.078125 -53.09375 C 48.078125 -44.007812 49.773438 -37.414062 53.171875 -33.3125 C 56.566406 -29.207031 61.578125 -27.15625 68.203125 -27.15625 C 75.296875 -27.15625 80.4375 -29.191406 83.625 -33.265625 C 86.820312 -37.335938 88.421875 -44.003906 88.421875 -53.265625 L 88.421875 -128.5 Z M 123.140625 -128.5 "/></g></g><g transform="translate(1786.312314, 1115.24991)"><g><path d="M 92.71875 0 L 86.390625 -24.078125 L 44.65625 -24.078125 L 38.140625 0 L 0 0 L 41.921875 -129.03125 L 88.25 -129.03125 L 130.6875 0 Z M 79.1875 -52.5625 L 73.65625 -73.65625 C 72.363281 -78.34375 70.796875 -84.40625 68.953125 -91.84375 C 67.109375 -99.289062 65.890625 -104.625 65.296875 -107.84375 C 64.773438 -104.851562 63.738281 -99.929688 62.1875 -93.078125 C 60.632812 -86.222656 57.191406 -72.71875 51.859375 -52.5625 Z M 79.1875 -52.5625 "/></g></g><g transform="translate(1917.005663, 1115.24991)"><g><path d="M 70.578125 0 L 35.859375 0 L 35.859375 -100.109375 L 4.484375 -100.109375 L 4.484375 -128.5 L 101.859375 -128.5 L 101.859375 -100.109375 L 70.578125 -100.109375 Z M 70.578125 0 "/></g></g><g transform="translate(2023.353311, 1115.24991)"><g><path d="M 134.125 -64.421875 C 134.125 -42.804688 128.820312 -26.367188 118.21875 -15.109375 C 107.613281 -3.859375 92.082031 1.765625 71.625 1.765625 C 51.46875 1.765625 36.015625 -3.890625 25.265625 -15.203125 C 14.515625 -26.515625 9.140625 -42.976562 9.140625 -64.59375 C 9.140625 -85.988281 14.484375 -102.320312 25.171875 -113.59375 C 35.867188 -124.875 51.414062 -130.515625 71.8125 -130.515625 C 92.257812 -130.515625 107.753906 -124.914062 118.296875 -113.71875 C 128.847656 -102.53125 134.125 -86.097656 134.125 -64.421875 Z M 45.703125 -64.421875 C 45.703125 -39.578125 54.34375 -27.15625 71.625 -27.15625 C 80.414062 -27.15625 86.9375 -30.171875 91.1875 -36.203125 C 95.4375 -42.242188 97.5625 -51.648438 97.5625 -64.421875 C 97.5625 -77.253906 95.40625 -86.734375 91.09375 -92.859375 C 86.789062 -98.984375 80.363281 -102.046875 71.8125 -102.046875 C 54.40625 -102.046875 45.703125 -89.503906 45.703125 -64.421875 Z M 45.703125 -64.421875 "/></g></g><g transform="translate(2166.790799, 1115.24991)"><g><path d="M 48.609375 -46.765625 L 48.609375 0 L 13.890625 0 L 13.890625 -128.5 L 55.984375 -128.5 C 90.910156 -128.5 108.375 -115.84375 108.375 -90.53125 C 108.375 -75.644531 101.109375 -64.128906 86.578125 -55.984375 L 124.015625 0 L 84.640625 0 L 57.390625 -46.765625 Z M 48.609375 -72.859375 L 55.109375 -72.859375 C 67.234375 -72.859375 73.296875 -78.222656 73.296875 -88.953125 C 73.296875 -97.796875 67.347656 -102.21875 55.453125 -102.21875 L 48.609375 -102.21875 Z M 48.609375 -72.859375 "/></g></g></g><g clip-path="url(#id2)"><path fill="rgb(100%, 8.628845%, 8.628845%)" d="M 2791.207031 1352.453125 L 2964.21875 1202.453125 L 2618.210938 1202.453125 Z M 2791.207031 1352.453125 " fill-opacity="1" fill-rule="nonzero"/></g></svg>