<?xml version="1.0" encoding="utf-8"?>
<svg width="132px" height="52px" viewBox="0 0 132 52" version="1.1" xmlns:xlink="http://www.w3.org/1999/xlink" xmlns="http://www.w3.org/2000/svg">
  <defs>
    <filter filterUnits="userSpaceOnUse" color-interpolation-filters="sRGB" id="filter_1">
      <feFlood flood-opacity="0" result="BackgroundImageFix" />
      <feColorMatrix in="SourceAlpha" type="matrix" values="0 0 0 0 0 0 0 0 0 0 0 0 0 0 0 0 0 0 127 0" />
      <feOffset dx="0" dy="2" />
      <feGaussianBlur stdDeviation="2" />
      <feColorMatrix type="matrix" values="0 0 0 0 0.39215687 0 0 0 0 0.39215687 0 0 0 0 0.39215687 0 0 0 0.49803922 0" />
      <feBlend mode="normal" in2="BackgroundImageFix" result="effect0_dropShadow" />
      <feBlend mode="normal" in="SourceGraphic" in2="effect0_dropShadow" result="shape" />
    </filter>
    <path d="M7.999 0L110.001 0Q110.197 0 110.393 0.00963514Q110.59 0.0192703 110.785 0.0385174Q110.98 0.0577644 111.175 0.0865771Q111.369 0.11539 111.562 0.153699Q111.754 0.192007 111.945 0.23972Q112.135 0.287433 112.323 0.344434Q112.511 0.401436 112.696 0.467589Q112.881 0.533742 113.062 0.608888Q113.243 0.684033 113.421 0.76799Q113.599 0.851946 113.772 0.944512Q113.945 1.03708 114.113 1.13803Q114.282 1.23898 114.445 1.34807Q114.608 1.45717 114.766 1.57414Q114.924 1.69112 115.076 1.81569Q115.227 1.94026 115.373 2.07213Q115.518 2.204 115.657 2.34285Q115.796 2.4817 115.928 2.6272Q116.06 2.7727 116.184 2.92449Q116.309 3.07628 116.426 3.234Q116.543 3.39172 116.652 3.55499Q116.761 3.71826 116.862 3.88669Q116.963 4.05512 117.055 4.2283Q117.148 4.40148 117.232 4.57899Q117.316 4.7565 117.391 4.93791Q117.466 5.11933 117.532 5.30422Q117.599 5.4891 117.656 5.67701Q117.713 5.86492 117.76 6.0554Q117.808 6.24588 117.846 6.43847Q117.885 6.63106 117.913 6.8253Q117.942 7.01954 117.961 7.21496Q117.981 7.41038 117.99 7.60651Q118 7.80264 118 7.999L118 9.72035Q118 9.91672 117.99 10.1128Q117.981 10.309 117.961 10.5044Q117.942 10.6998 117.913 10.894Q117.885 11.0883 117.846 11.2809Q117.808 11.4735 117.76 11.6639Q117.713 11.8544 117.656 12.0423Q117.599 12.2302 117.532 12.4151Q117.466 12.6 117.391 12.7814Q117.316 12.9629 117.232 13.1404Q117.148 13.3179 117.055 13.4911Q116.963 13.6642 116.862 13.8327Q116.761 14.0011 116.652 14.1644Q116.543 14.3276 116.426 14.4853Q116.309 14.6431 116.184 14.7949Q116.06 14.9467 115.928 15.0922Q115.796 15.2376 115.657 15.3765Q115.518 15.5153 115.373 15.6472Q115.227 15.7791 115.076 15.9037Q114.924 16.0282 114.766 16.1452Q114.608 16.2622 114.445 16.3713Q114.282 16.4804 114.113 16.5813Q113.945 16.6823 113.772 16.7748Q113.599 16.8674 113.421 16.9514Q113.243 17.0353 113.062 17.1105Q112.881 17.1856 112.696 17.2518Q112.511 17.3179 112.323 17.3749Q112.135 17.4319 111.945 17.4796Q111.754 17.5273 111.562 17.5657Q111.369 17.604 111.175 17.6328Q110.98 17.6616 110.785 17.6808Q110.59 17.7001 110.393 17.7097Q110.197 17.7194 110.001 17.7194L7.999 17.7194Q7.80264 17.7194 7.60651 17.7097Q7.41038 17.7001 7.21496 17.6808Q7.01954 17.6616 6.8253 17.6328Q6.63106 17.604 6.43847 17.5657Q6.24588 17.5273 6.0554 17.4796Q5.86492 17.4319 5.67701 17.3749Q5.4891 17.3179 5.30422 17.2518Q5.11933 17.1856 4.93791 17.1105Q4.7565 17.0353 4.57899 16.9514Q4.40148 16.8674 4.2283 16.7748Q4.05512 16.6823 3.88669 16.5813Q3.71826 16.4804 3.55499 16.3713Q3.39172 16.2622 3.234 16.1452Q3.07628 16.0282 2.92449 15.9037Q2.7727 15.7791 2.6272 15.6472Q2.4817 15.5153 2.34285 15.3765Q2.204 15.2376 2.07213 15.0922Q1.94026 14.9467 1.81569 14.7949Q1.69112 14.6431 1.57414 14.4853Q1.45717 14.3276 1.34807 14.1644Q1.23898 14.0011 1.13803 13.8327Q1.03708 13.6642 0.944512 13.4911Q0.851946 13.3179 0.76799 13.1404Q0.684033 12.9629 0.608888 12.7814Q0.533742 12.6 0.467589 12.4151Q0.401436 12.2302 0.344434 12.0423Q0.287433 11.8544 0.23972 11.664Q0.192007 11.4735 0.153699 11.2809Q0.11539 11.0883 0.0865771 10.894Q0.0577644 10.6998 0.0385174 10.5044Q0.0192703 10.309 0.00963514 10.1128Q0 9.91672 0 9.72035L0 7.999Q0 7.80264 0.00963514 7.60651Q0.0192703 7.41038 0.0385174 7.21496Q0.0577644 7.01954 0.0865771 6.8253Q0.11539 6.63106 0.153699 6.43847Q0.192007 6.24588 0.23972 6.0554Q0.287433 5.86492 0.344434 5.67701Q0.401436 5.4891 0.467589 5.30422Q0.533742 5.11933 0.608888 4.93791Q0.684033 4.7565 0.76799 4.57899Q0.851946 4.40148 0.944512 4.2283Q1.03708 4.05512 1.13803 3.88669Q1.23898 3.71826 1.34807 3.55499Q1.45717 3.39172 1.57414 3.234Q1.69112 3.07628 1.81569 2.92449Q1.94026 2.7727 2.07213 2.6272Q2.204 2.4817 2.34285 2.34285Q2.4817 2.204 2.6272 2.07213Q2.7727 1.94026 2.92449 1.81569Q3.07628 1.69112 3.234 1.57414Q3.39172 1.45717 3.55499 1.34807Q3.71826 1.23898 3.88669 1.13803Q4.05512 1.03708 4.2283 0.944512Q4.40148 0.851946 4.57899 0.76799Q4.7565 0.684033 4.93791 0.608888Q5.11933 0.533742 5.30422 0.467589Q5.4891 0.401436 5.67701 0.344434Q5.86492 0.287433 6.0554 0.23972Q6.24588 0.192007 6.43847 0.153699Q6.63106 0.11539 6.8253 0.0865771Q7.01954 0.0577644 7.21496 0.0385174Q7.41038 0.0192703 7.60651 0.00963514Q7.80264 0 7.999 0L7.999 0Z" id="path_1" />
  </defs>
  <g filter="url(#filter_1)">
    <g id="10.-RAMA-Equator" transform="translate(7 5)">
      <path d="M104.653 27.2716C104.653 27.2716 102.393 24.3374 100.349 21.9711C98.3041 19.6049 96.4747 17.8066 96.4747 17.8066L112.832 17.8066L104.653 27.2716Z" id="Triangle" fill="#FFFFFF" fill-rule="evenodd" stroke="#ED1C24" stroke-width="1" />
      <g id="Rectangle">
        <use xlink:href="#path_1" fill="none" stroke="#ED1C24" stroke-width="2" />
        <use stroke="none" fill="#FFFFFF" xlink:href="#path_1" fill-rule="evenodd" />
      </g>
      <g id="RAMA-EQUATOR" fill="#000000" fill-opacity="0.6392157" transform="translate(5.2157593 2.3000412)">
        <path d="M50.6426 9.45947Q51.2281 9.87842 51.9156 10.1255L51.3301 11.248Q50.9702 11.1406 50.6265 10.9526Q50.5513 10.915 49.5684 10.2544Q48.7949 10.5928 47.855 10.5928Q46.0396 10.5928 45.011 9.52393Q43.9824 8.45508 43.9824 6.52148Q43.9824 4.59326 45.0137 3.52173Q46.0449 2.4502 47.812 2.4502Q49.563 2.4502 50.5889 3.52173Q51.6148 4.59326 51.6148 6.52148Q51.6148 7.54199 51.3301 8.31543Q51.1153 8.90625 50.6426 9.45947ZM75.1455 6.56982Q75.1455 5.3667 75.5054 4.55029Q75.7739 3.94873 76.2385 3.4707Q76.7031 2.99268 77.2564 2.76172Q77.9922 2.4502 78.9536 2.4502Q80.6939 2.4502 81.7385 3.52979Q82.7832 4.60938 82.7832 6.53223Q82.7832 8.43896 81.7466 9.51587Q80.71 10.5928 78.9751 10.5928Q77.2188 10.5928 76.1822 9.52124Q75.1455 8.44971 75.1455 6.56982ZM0.922386 10.4585L0.922386 2.58447L4.26858 2.58447Q5.53078 2.58447 6.10281 2.79663Q6.67483 3.00879 7.01858 3.55127Q7.36233 4.09375 7.36233 4.79199Q7.36233 5.67822 6.84133 6.25562Q6.32034 6.83301 5.28371 6.9834Q5.79934 7.28418 6.13503 7.64404Q6.47073 8.00391 7.04006 8.92236L8.00149 10.4585L6.10012 10.4585L4.95071 8.74512Q4.3384 7.82666 4.11282 7.58765Q3.88723 7.34863 3.63479 7.26001Q3.38235 7.17139 2.8345 7.17139L2.51223 7.17139L2.51223 10.4585L0.922386 10.4585ZM15.9614 10.4585L14.232 10.4585L13.5445 8.66992L10.397 8.66992L9.74709 10.4585L8.06057 10.4585L11.1275 2.58447L12.8086 2.58447L15.9614 10.4585ZM16.7832 2.58447L16.7832 10.4585L18.2603 10.4585L18.2603 4.26025L19.8179 10.4585L21.3487 10.4585L22.9116 4.26025L22.9116 10.4585L24.3887 10.4585L24.3887 2.58447L22.0039 2.58447L20.5913 7.95557L19.1626 2.58447L16.7832 2.58447ZM33.0684 10.4585L31.3389 10.4585L30.6514 8.66992L27.5039 8.66992L26.854 10.4585L25.1675 10.4585L28.2344 2.58447L29.9156 2.58447L33.0684 10.4585ZM36.9678 2.58447L36.9678 10.4585L42.9566 10.4585L42.9566 9.13184L38.5576 9.13184L38.5576 6.98877L42.5108 6.98877L42.5108 5.66211L38.5576 5.66211L38.5576 3.9165L42.8062 3.9165L42.8062 2.58447L36.9678 2.58447ZM54.44 2.58447L52.8501 2.58447L52.8501 6.78467Q52.8501 8.10596 53.0059 8.78271Q53.1133 9.23926 53.4517 9.65552Q53.7901 10.0718 54.3728 10.3323Q54.9556 10.5928 56.0835 10.5928Q57.0181 10.5928 57.5982 10.3538Q58.1782 10.1147 58.5247 9.71191Q58.8711 9.30908 59 8.72363Q59.1289 8.13818 59.1289 6.72021L59.1289 2.58447L57.5391 2.58447L57.5391 6.94043Q57.5391 7.875 57.4693 8.27783Q57.3994 8.68066 57.0557 8.95728Q56.7119 9.23389 56.0352 9.23389Q55.3692 9.23389 54.9851 8.94116Q54.6011 8.64844 54.499 8.16504Q54.44 7.86426 54.44 6.84912L54.44 2.58447ZM67.9053 10.4585L66.1758 10.4585L65.4883 8.66992L62.3408 8.66992L61.6909 10.4585L60.0044 10.4585L63.0713 2.58447L64.7525 2.58447L67.9053 10.4585ZM70.521 3.9165L70.521 10.4585L72.1109 10.4585L72.1109 3.9165L74.4419 3.9165L74.4419 2.58447L68.1846 2.58447L68.1846 3.9165L70.521 3.9165ZM87.3755 2.58447L84.0293 2.58447L84.0293 10.4585L85.6192 10.4585L85.6192 7.17139L85.9414 7.17139Q86.4893 7.17139 86.7417 7.26001Q86.9942 7.34863 87.2197 7.58765Q87.4453 7.82666 88.0576 8.74512L89.2071 10.4585L91.1084 10.4585L90.147 8.92236Q89.5777 8.00391 89.242 7.64404Q88.9063 7.28418 88.3906 6.9834Q89.4273 6.83301 89.9483 6.25562Q90.4693 5.67822 90.4693 4.79199Q90.4693 4.09375 90.1255 3.55127Q89.7818 3.00879 89.2097 2.79663Q88.6377 2.58447 87.3755 2.58447ZM49.3643 8.5625Q49.6704 8.20264 49.8235 7.69238Q49.9766 7.18213 49.9766 6.52148Q49.9766 5.15723 49.375 4.48315Q48.7735 3.80908 47.8013 3.80908Q46.8291 3.80908 46.2249 4.48584Q45.6206 5.1626 45.6206 6.52148Q45.6206 7.90186 46.2249 8.58667Q46.8291 9.27148 47.753 9.27148Q48.0967 9.27148 48.4029 9.15869Q47.9195 8.8418 47.4199 8.66455L47.8657 7.75684Q48.6499 8.02539 49.3643 8.5625ZM76.7837 6.51611Q76.7837 7.85352 77.4014 8.5437Q78.0191 9.23389 78.9697 9.23389Q79.9204 9.23389 80.5301 8.54907Q81.1397 7.86426 81.1397 6.49463Q81.1397 5.14111 80.5462 4.4751Q79.9527 3.80908 78.9697 3.80908Q77.9868 3.80908 77.3853 4.48315Q76.7837 5.15723 76.7837 6.51611ZM2.51223 5.91455L3.6885 5.91455Q4.83254 5.91455 5.11721 5.81787Q5.40188 5.72119 5.56301 5.48486Q5.72414 5.24854 5.72414 4.89404Q5.72414 4.49658 5.51199 4.2522Q5.29983 4.00781 4.91311 3.94336Q4.71975 3.9165 3.75295 3.9165L2.51223 3.9165L2.51223 5.91455ZM86.7954 5.91455L85.6192 5.91455L85.6192 3.9165L86.8599 3.9165Q87.8267 3.9165 88.02 3.94336Q88.4068 4.00781 88.6189 4.2522Q88.8311 4.49658 88.8311 4.89404Q88.8311 5.24854 88.6699 5.48486Q88.5088 5.72119 88.2241 5.81787Q87.9395 5.91455 86.7954 5.91455ZM13.0342 7.34326L11.9492 4.42139L10.8858 7.34326L13.0342 7.34326ZM30.1411 7.34326L29.0562 4.42139L27.9927 7.34326L30.1411 7.34326ZM64.9781 7.34326L63.8931 4.42139L62.8296 7.34326L64.9781 7.34326Z" />
      </g>
      <g id="5-MIN" transform="translate(97.42108 2.2930527)">
        <g id="5" fill="#000000" fill-opacity="0.6392157">
          <path d="M5.25191 5.2168L6.20895 5.11768Q6.24996 5.44238 6.45162 5.63208Q6.65328 5.82178 6.91647 5.82178Q7.21725 5.82178 7.42574 5.57739Q7.63424 5.33301 7.63424 4.84082Q7.63424 4.37939 7.42745 4.14868Q7.22066 3.91797 6.88912 3.91797Q6.47555 3.91797 6.14742 4.28369L5.36813 4.1709L5.86031 1.56299L8.39986 1.56299L8.39986 2.46191L6.58834 2.46191L6.43795 3.31299Q6.75924 3.15234 7.0942 3.15234Q7.73336 3.15234 8.1777 3.61719Q8.62203 4.08203 8.62203 4.82373Q8.62203 5.44238 8.26315 5.92773Q7.77438 6.59082 6.90621 6.59082Q6.21236 6.59082 5.77486 6.21826Q5.33736 5.8457 5.25191 5.2168Z" />
        </g>
        <g id="MIN" fill="#000000" fill-opacity="0.6392157">
          <path d="M1.81319 13.6592L1.81319 9.36426L3.11105 9.36426L3.89034 12.2939L4.66085 9.36426L5.96163 9.36426L5.96163 13.6592L5.15597 13.6592L5.15597 10.2783L4.30343 13.6592L3.46847 13.6592L2.61886 10.2783L2.61886 13.6592L1.81319 13.6592ZM6.79659 13.6592L6.79659 9.36426L7.66378 9.36426L7.66378 13.6592L6.79659 13.6592ZM8.49874 9.36426L8.49874 13.6592L9.30441 13.6592L9.30441 10.8584L11.0359 13.6592L11.906 13.6592L11.906 9.36426L11.1003 9.36426L11.1003 12.2324L9.34249 9.36426L8.49874 9.36426Z" />
        </g>
      </g>
      <path d="M103.795 36.4535C103.795 35.9307 104.18 35.507 104.656 35.507C105.131 35.507 105.517 35.9307 105.517 36.4535C105.517 36.9762 105.131 37.4 104.656 37.4C104.18 37.4 103.795 36.9762 103.795 36.4535Z" id="Ellipse" fill="#D3D3D3" fill-rule="evenodd" stroke="#ED1C24" stroke-width="1" />
      <path d="M104.655 26.9882L104.655 35.507L104.655 30.2118" id="Line" fill="none" fill-rule="evenodd" stroke="#ED1C24" stroke-width="1" stroke-linecap="square" />
    </g>
  </g>
</svg>