<?xml version="1.0" encoding="utf-8"?>
<svg width="151px" height="52px" viewBox="0 0 151 52" version="1.1" xmlns:xlink="http://www.w3.org/1999/xlink" xmlns="http://www.w3.org/2000/svg">
  <defs>
    <filter filterUnits="userSpaceOnUse" color-interpolation-filters="sRGB" id="filter_1">
      <feFlood flood-opacity="0" result="BackgroundImageFix" />
      <feColorMatrix in="SourceAlpha" type="matrix" values="0 0 0 0 0 0 0 0 0 0 0 0 0 0 0 0 0 0 127 0" />
      <feOffset dx="0" dy="2" />
      <feGaussianBlur stdDeviation="2" />
      <feColorMatrix type="matrix" values="0 0 0 0 0.39215687 0 0 0 0 0.39215687 0 0 0 0 0.39215687 0 0 0 0.49803922 0" />
      <feBlend mode="normal" in2="BackgroundImageFix" result="effect0_dropShadow" />
      <feBlend mode="normal" in="SourceGraphic" in2="effect0_dropShadow" result="shape" />
    </filter>
    <path d="M7.999 0L129.001 0Q129.197 0 129.393 0.00963514Q129.59 0.0192703 129.785 0.0385174Q129.98 0.0577644 130.175 0.0865771Q130.369 0.11539 130.562 0.153699Q130.754 0.192007 130.945 0.23972Q131.135 0.287433 131.323 0.344434Q131.511 0.401436 131.696 0.467589Q131.881 0.533742 132.062 0.608888Q132.243 0.684033 132.421 0.76799Q132.598 0.851946 132.772 0.944512Q132.945 1.03708 133.113 1.13803Q133.282 1.23898 133.445 1.34807Q133.608 1.45717 133.766 1.57414Q133.924 1.69112 134.076 1.81569Q134.227 1.94026 134.373 2.07213Q134.518 2.204 134.657 2.34285Q134.796 2.4817 134.928 2.6272Q135.06 2.7727 135.184 2.92449Q135.309 3.07628 135.426 3.234Q135.543 3.39172 135.652 3.55499Q135.761 3.71826 135.862 3.88669Q135.963 4.05512 136.055 4.2283Q136.148 4.40148 136.232 4.57899Q136.316 4.7565 136.391 4.93791Q136.466 5.11933 136.532 5.30422Q136.599 5.4891 136.656 5.67701Q136.713 5.86492 136.76 6.0554Q136.808 6.24588 136.846 6.43847Q136.885 6.63106 136.913 6.8253Q136.942 7.01954 136.961 7.21496Q136.981 7.41038 136.99 7.60651Q137 7.80264 137 7.999L137 9.72035Q137 9.91672 136.99 10.1128Q136.981 10.309 136.961 10.5044Q136.942 10.6998 136.913 10.894Q136.885 11.0883 136.846 11.2809Q136.808 11.4735 136.76 11.6639Q136.713 11.8544 136.656 12.0423Q136.599 12.2302 136.532 12.4151Q136.466 12.6 136.391 12.7814Q136.316 12.9629 136.232 13.1404Q136.148 13.3179 136.055 13.4911Q135.963 13.6642 135.862 13.8327Q135.761 14.0011 135.652 14.1644Q135.543 14.3276 135.426 14.4853Q135.309 14.6431 135.184 14.7949Q135.06 14.9467 134.928 15.0922Q134.796 15.2376 134.657 15.3765Q134.518 15.5153 134.373 15.6472Q134.227 15.7791 134.076 15.9037Q133.924 16.0282 133.766 16.1452Q133.608 16.2622 133.445 16.3713Q133.282 16.4804 133.113 16.5813Q132.945 16.6823 132.772 16.7748Q132.598 16.8674 132.421 16.9514Q132.243 17.0353 132.062 17.1105Q131.881 17.1856 131.696 17.2518Q131.511 17.3179 131.323 17.3749Q131.135 17.4319 130.945 17.4796Q130.754 17.5273 130.562 17.5657Q130.369 17.604 130.175 17.6328Q129.98 17.6616 129.785 17.6808Q129.59 17.7001 129.393 17.7097Q129.197 17.7194 129.001 17.7194L7.999 17.7194Q7.80264 17.7194 7.60651 17.7097Q7.41038 17.7001 7.21496 17.6808Q7.01954 17.6616 6.8253 17.6328Q6.63106 17.604 6.43847 17.5657Q6.24588 17.5273 6.0554 17.4796Q5.86492 17.4319 5.67701 17.3749Q5.4891 17.3179 5.30422 17.2518Q5.11933 17.1856 4.93791 17.1105Q4.7565 17.0353 4.57899 16.9514Q4.40148 16.8674 4.2283 16.7748Q4.05512 16.6823 3.88669 16.5813Q3.71826 16.4804 3.55499 16.3713Q3.39172 16.2622 3.234 16.1452Q3.07628 16.0282 2.92449 15.9037Q2.7727 15.7791 2.6272 15.6472Q2.4817 15.5153 2.34285 15.3765Q2.204 15.2376 2.07213 15.0922Q1.94026 14.9467 1.81569 14.7949Q1.69112 14.6431 1.57414 14.4853Q1.45717 14.3276 1.34807 14.1644Q1.23898 14.0011 1.13803 13.8327Q1.03708 13.6642 0.944512 13.4911Q0.851946 13.3179 0.76799 13.1404Q0.684033 12.9629 0.608888 12.7814Q0.533742 12.6 0.467589 12.4151Q0.401436 12.2302 0.344434 12.0423Q0.287433 11.8544 0.23972 11.664Q0.192007 11.4735 0.153699 11.2809Q0.11539 11.0883 0.0865771 10.894Q0.0577644 10.6998 0.0385174 10.5044Q0.0192703 10.309 0.00963514 10.1128Q0 9.91672 0 9.72035L0 7.999Q0 7.80264 0.00963514 7.60651Q0.0192703 7.41038 0.0385174 7.21496Q0.0577644 7.01954 0.0865771 6.8253Q0.11539 6.63106 0.153699 6.43847Q0.192007 6.24588 0.23972 6.0554Q0.287433 5.86492 0.344434 5.67701Q0.401436 5.4891 0.467589 5.30422Q0.533742 5.11933 0.608888 4.93791Q0.684033 4.7565 0.76799 4.57899Q0.851946 4.40148 0.944512 4.2283Q1.03708 4.05512 1.13803 3.88669Q1.23898 3.71826 1.34807 3.55499Q1.45717 3.39172 1.57414 3.234Q1.69112 3.07628 1.81569 2.92449Q1.94026 2.7727 2.07213 2.6272Q2.204 2.4817 2.34285 2.34285Q2.4817 2.204 2.6272 2.07213Q2.7727 1.94026 2.92449 1.81569Q3.07628 1.69112 3.234 1.57414Q3.39172 1.45717 3.55499 1.34807Q3.71826 1.23898 3.88669 1.13803Q4.05512 1.03708 4.2283 0.944512Q4.40148 0.851946 4.57899 0.76799Q4.7565 0.684033 4.93791 0.608888Q5.11933 0.533742 5.30422 0.467589Q5.4891 0.401436 5.67701 0.344434Q5.86492 0.287433 6.0554 0.23972Q6.24588 0.192007 6.43847 0.153699Q6.63106 0.11539 6.8253 0.0865771Q7.01954 0.0577644 7.21496 0.0385174Q7.41038 0.0192703 7.60651 0.00963514Q7.80264 0 7.999 0L7.999 0Z" id="path_1" />
  </defs>
  <g filter="url(#filter_1)">
    <g id="4.-Spine-City-Mall" transform="translate(7 5)">
      <path d="M123.653 27.2716C123.653 27.2716 121.393 24.3374 119.349 21.9711C117.304 19.6049 115.475 17.8066 115.475 17.8066L131.832 17.8066L123.653 27.2716Z" id="Triangle" fill="#FFFFFF" fill-rule="evenodd" stroke="#ED1C24" stroke-width="1" />
      <g id="Rectangle">
        <use xlink:href="#path_1" fill="none" stroke="#ED1C24" stroke-width="2" />
        <use stroke="none" fill="#FFFFFF" xlink:href="#path_1" fill-rule="evenodd" />
      </g>
      <g id="SPINE-CITY-MALL" fill="#000000" fill-opacity="0.6392157" transform="translate(3.1158142 2.3000412)">
        <path d="M9.67727 7.89648L11.2241 7.74609Q11.3638 8.5249 11.7908 8.89014Q12.2178 9.25537 12.9429 9.25537Q13.711 9.25537 14.1004 8.93042Q14.4898 8.60547 14.4898 8.17041Q14.4898 7.89111 14.326 7.69507Q14.1621 7.49902 13.7539 7.354Q13.4746 7.25732 12.481 7.01025Q11.2027 6.69336 10.687 6.23145Q9.96194 5.58154 9.96194 4.64697Q9.96194 4.04541 10.303 3.52173Q10.6441 2.99805 11.2859 2.72412Q11.9278 2.4502 12.8355 2.4502Q14.3179 2.4502 15.0672 3.1001Q15.8164 3.75 15.854 4.83496L14.2642 4.90479Q14.1621 4.29785 13.8264 4.03198Q13.4907 3.76611 12.8194 3.76611Q12.1265 3.76611 11.7344 4.05078Q11.482 4.2334 11.482 4.53955Q11.482 4.81885 11.7183 5.01758Q12.0191 5.27002 13.1792 5.54395Q14.3394 5.81787 14.8953 6.1106Q15.4512 6.40332 15.7654 6.91089Q16.0796 7.41846 16.0796 8.16504Q16.0796 8.8418 15.7036 9.43262Q15.3277 10.0234 14.6402 10.3108Q13.9527 10.5981 12.9268 10.5981Q11.4336 10.5981 10.6333 9.90796Q9.83303 9.21777 9.67727 7.89648ZM51.1851 7.56348L52.7266 8.05225Q52.3721 9.34131 51.5476 9.96704Q50.7232 10.5928 49.4556 10.5928Q47.8872 10.5928 46.8775 9.52124Q45.8677 8.44971 45.8677 6.59131Q45.8677 4.62549 46.8828 3.53784Q47.898 2.4502 49.5523 2.4502Q50.9971 2.4502 51.8994 3.3042Q52.4365 3.80908 52.7051 4.75439L51.1314 5.13037Q50.9917 4.51807 50.5486 4.16357Q50.1055 3.80908 49.4717 3.80908Q48.5962 3.80908 48.051 4.4375Q47.5059 5.06592 47.5059 6.47314Q47.5059 7.96631 48.043 8.6001Q48.5801 9.23389 49.4395 9.23389Q50.0733 9.23389 50.5298 8.83105Q50.9864 8.42822 51.1851 7.56348ZM17.417 10.4585L17.417 2.58447L19.9683 2.58447Q21.4185 2.58447 21.8589 2.70264Q22.5357 2.87988 22.9922 3.47339Q23.4488 4.06689 23.4488 5.00684Q23.4488 5.73193 23.1856 6.22607Q22.9224 6.72021 22.5169 7.0022Q22.1114 7.28418 21.6924 7.37549Q21.1231 7.48828 20.0435 7.48828L19.0069 7.48828L19.0069 10.4585L17.417 10.4585ZM24.7056 2.58447L24.7056 10.4585L26.2954 10.4585L26.2954 2.58447L24.7056 2.58447ZM27.8262 10.4585L27.8262 2.58447L29.3731 2.58447L32.5957 7.84277L32.5957 2.58447L34.0728 2.58447L34.0728 10.4585L32.4776 10.4585L29.3032 5.32373L29.3032 10.4585L27.8262 10.4585ZM35.7539 2.58447L35.7539 10.4585L41.7427 10.4585L41.7427 9.13184L37.3438 9.13184L37.3438 6.98877L41.2969 6.98877L41.2969 5.66211L37.3438 5.66211L37.3438 3.9165L41.5923 3.9165L41.5923 2.58447L35.7539 2.58447ZM54.0425 2.58447L54.0425 10.4585L55.6323 10.4585L55.6323 2.58447L54.0425 2.58447ZM58.9195 10.4585L58.9195 3.9165L56.583 3.9165L56.583 2.58447L62.8404 2.58447L62.8404 3.9165L60.5093 3.9165L60.5093 10.4585L58.9195 10.4585ZM65.9341 7.14453L65.9341 10.4585L67.5186 10.4585L67.5186 7.15527L70.4136 2.58447L68.5821 2.58447L66.7666 5.69971L64.9136 2.58447L63.0498 2.58447L65.9341 7.14453ZM74.2378 10.4585L74.2378 2.58447L76.6172 2.58447L78.0459 7.95557L79.4585 2.58447L81.8433 2.58447L81.8433 10.4585L80.3662 10.4585L80.3662 4.26025L78.8032 10.4585L77.2725 10.4585L75.7149 4.26025L75.7149 10.4585L74.2378 10.4585ZM88.7935 10.4585L90.523 10.4585L87.3701 2.58447L85.689 2.58447L82.6221 10.4585L84.3086 10.4585L84.9585 8.66992L88.106 8.66992L88.7935 10.4585ZM91.4092 10.4585L91.4092 2.64893L92.999 2.64893L92.999 9.13184L96.9522 9.13184L96.9522 10.4585L91.4092 10.4585ZM98.1284 2.64893L98.1284 10.4585L103.671 10.4585L103.671 9.13184L99.7183 9.13184L99.7183 2.64893L98.1284 2.64893ZM19.0069 3.9165L19.0069 6.15088L19.877 6.15088Q20.8169 6.15088 21.1338 6.02734Q21.4507 5.90381 21.6306 5.64062Q21.8106 5.37744 21.8106 5.02832Q21.8106 4.59863 21.5581 4.31934Q21.3057 4.04004 20.919 3.97021Q20.6343 3.9165 19.7749 3.9165L19.0069 3.9165ZM86.5108 4.42139L87.5957 7.34326L85.4473 7.34326L86.5108 4.42139Z" />
      </g>
      <g id="5-MIN" transform="translate(116.42108 2.2930527)">
        <g id="5" fill="#000000" fill-opacity="0.6392157">
          <path d="M5.25191 5.2168L6.20895 5.11768Q6.24996 5.44238 6.45162 5.63208Q6.65328 5.82178 6.91647 5.82178Q7.21725 5.82178 7.42574 5.57739Q7.63424 5.33301 7.63424 4.84082Q7.63424 4.37939 7.42745 4.14868Q7.22066 3.91797 6.88912 3.91797Q6.47555 3.91797 6.14742 4.28369L5.36813 4.1709L5.86031 1.56299L8.39986 1.56299L8.39986 2.46191L6.58834 2.46191L6.43795 3.31299Q6.75924 3.15234 7.0942 3.15234Q7.73336 3.15234 8.1777 3.61719Q8.62203 4.08203 8.62203 4.82373Q8.62203 5.44238 8.26315 5.92773Q7.77438 6.59082 6.90621 6.59082Q6.21236 6.59082 5.77486 6.21826Q5.33736 5.8457 5.25191 5.2168Z" />
        </g>
        <g id="MIN" fill="#000000" fill-opacity="0.6392157">
          <path d="M1.81319 13.6592L1.81319 9.36426L3.11105 9.36426L3.89034 12.2939L4.66085 9.36426L5.96163 9.36426L5.96163 13.6592L5.15597 13.6592L5.15597 10.2783L4.30343 13.6592L3.46847 13.6592L2.61886 10.2783L2.61886 13.6592L1.81319 13.6592ZM6.79659 13.6592L6.79659 9.36426L7.66378 9.36426L7.66378 13.6592L6.79659 13.6592ZM8.49874 9.36426L8.49874 13.6592L9.30441 13.6592L9.30441 10.8584L11.0359 13.6592L11.906 13.6592L11.906 9.36426L11.1003 9.36426L11.1003 12.2324L9.34249 9.36426L8.49874 9.36426Z" />
        </g>
      </g>
      <path d="M122.795 36.4535C122.795 35.9307 123.18 35.507 123.656 35.507C124.131 35.507 124.517 35.9307 124.517 36.4535C124.517 36.9762 124.131 37.4 123.656 37.4C123.18 37.4 122.795 36.9762 122.795 36.4535Z" id="Ellipse" fill="#D3D3D3" fill-rule="evenodd" stroke="#ED1C24" stroke-width="1" />
      <path d="M123.655 26.9882L123.655 35.507L123.655 30.2118" id="Line" fill="none" fill-rule="evenodd" stroke="#ED1C24" stroke-width="1" stroke-linecap="square" />
    </g>
  </g>
</svg>