<?xml version="1.0" encoding="utf-8"?>
<svg width="123px" height="48px" viewBox="0 0 123 48" version="1.1" xmlns:xlink="http://www.w3.org/1999/xlink" xmlns="http://www.w3.org/2000/svg">
  <defs>
    <filter filterUnits="userSpaceOnUse" color-interpolation-filters="sRGB" id="filter_1">
      <feFlood flood-opacity="0" result="BackgroundImageFix" />
      <feColorMatrix in="SourceAlpha" type="matrix" values="0 0 0 0 0 0 0 0 0 0 0 0 0 0 0 0 0 0 127 0" />
      <feOffset dx="0" dy="2" />
      <feGaussianBlur stdDeviation="2" />
      <feColorMatrix type="matrix" values="0 0 0 0 0.39215687 0 0 0 0 0.39215687 0 0 0 0 0.39215687 0 0 0 0.49803922 0" />
      <feBlend mode="normal" in2="BackgroundImageFix" result="effect0_dropShadow" />
      <feBlend mode="normal" in="SourceGraphic" in2="effect0_dropShadow" result="shape" />
    </filter>
    <path d="M7.85868 0L101.141 0Q101.334 0 101.527 0.00946612Q101.72 0.0189322 101.912 0.0378417Q102.104 0.0567511 102.294 0.0850583Q102.485 0.113365 102.674 0.151002Q102.864 0.188639 103.051 0.235515Q103.238 0.28239 103.423 0.338392Q103.607 0.394394 103.789 0.459386Q103.97 0.524379 104.149 0.598206Q104.327 0.672033 104.501 0.754517Q104.676 0.837001 104.846 0.927942Q105.016 1.01888 105.181 1.11806Q105.347 1.21724 105.507 1.32443Q105.668 1.43161 105.823 1.54653Q105.978 1.66145 106.127 1.78384Q106.276 1.90622 106.419 2.03578Q106.562 2.16534 106.698 2.30175Q106.835 2.43817 106.964 2.58111Q107.094 2.72406 107.216 2.87318Q107.339 3.02231 107.453 3.17727Q107.568 3.33222 107.676 3.49263Q107.783 3.65304 107.882 3.81851Q107.981 3.98398 108.072 4.15412Q108.163 4.32426 108.245 4.49866Q108.328 4.67306 108.402 4.85129Q108.476 5.02952 108.541 5.21117Q108.606 5.39281 108.662 5.57742Q108.718 5.76203 108.764 5.94917Q108.811 6.13631 108.849 6.32552Q108.887 6.51474 108.915 6.70557Q108.943 6.8964 108.962 7.08839Q108.981 7.28038 108.991 7.47307Q109 7.66576 109 7.85868L109 7.86068Q109 8.0536 108.991 8.24628Q108.981 8.43897 108.962 8.63096Q108.943 8.82295 108.915 9.01378Q108.887 9.20461 108.849 9.39383Q108.811 9.58304 108.764 9.77018Q108.718 9.95732 108.662 10.1419Q108.606 10.3265 108.541 10.5082Q108.476 10.6898 108.402 10.8681Q108.328 11.0463 108.245 11.2207Q108.163 11.3951 108.072 11.5652Q107.981 11.7354 107.882 11.9008Q107.783 12.0663 107.676 12.2267Q107.568 12.3871 107.453 12.5421Q107.339 12.697 107.216 12.8462Q107.094 12.9953 106.964 13.1382Q106.835 13.2812 106.698 13.4176Q106.562 13.554 106.419 13.6836Q106.276 13.8131 106.127 13.9355Q105.978 14.0579 105.823 14.1728Q105.668 14.2877 105.507 14.3949Q105.347 14.5021 105.181 14.6013Q105.016 14.7005 104.846 14.7914Q104.676 14.8823 104.501 14.9648Q104.327 15.0473 104.149 15.1211Q103.97 15.195 103.789 15.26Q103.607 15.325 103.423 15.381Q103.238 15.437 103.051 15.4838Q102.864 15.5307 102.674 15.5683Q102.485 15.606 102.294 15.6343Q102.104 15.6626 101.912 15.6815Q101.72 15.7004 101.527 15.7099Q101.334 15.7194 101.141 15.7194L7.85868 15.7194Q7.66576 15.7194 7.47307 15.7099Q7.28038 15.7004 7.08839 15.6815Q6.8964 15.6626 6.70557 15.6343Q6.51474 15.606 6.32552 15.5683Q6.13631 15.5307 5.94917 15.4838Q5.76203 15.437 5.57742 15.381Q5.39281 15.325 5.21117 15.26Q5.02952 15.195 4.85129 15.1211Q4.67306 15.0473 4.49866 14.9648Q4.32426 14.8824 4.15412 14.7914Q3.98398 14.7005 3.81851 14.6013Q3.65304 14.5021 3.49263 14.3949Q3.33222 14.2877 3.17727 14.1728Q3.02231 14.0579 2.87318 13.9355Q2.72406 13.8131 2.58111 13.6836Q2.43817 13.554 2.30175 13.4176Q2.16534 13.2812 2.03578 13.1382Q1.90622 12.9953 1.78384 12.8462Q1.66145 12.697 1.54653 12.5421Q1.43161 12.3871 1.32443 12.2267Q1.21725 12.0663 1.11806 11.9008Q1.01888 11.7354 0.927943 11.5652Q0.837001 11.3951 0.754517 11.2207Q0.672033 11.0463 0.598206 10.8681Q0.524379 10.6898 0.459386 10.5082Q0.394394 10.3265 0.338392 10.1419Q0.28239 9.95732 0.235515 9.77018Q0.188639 9.58304 0.151002 9.39383Q0.113365 9.20461 0.0850583 9.01378Q0.0567511 8.82295 0.0378417 8.63096Q0.0189322 8.43897 0.00946612 8.24628Q0 8.0536 0 7.86068L0 7.85868Q0 7.66576 0.00946612 7.47307Q0.0189322 7.28038 0.0378417 7.08839Q0.0567511 6.8964 0.0850583 6.70557Q0.113365 6.51474 0.151002 6.32552Q0.188639 6.13631 0.235515 5.94917Q0.28239 5.76203 0.338392 5.57742Q0.394394 5.39281 0.459386 5.21117Q0.524379 5.02952 0.598206 4.85129Q0.672033 4.67306 0.754517 4.49866Q0.837001 4.32426 0.927942 4.15412Q1.01888 3.98398 1.11806 3.81851Q1.21724 3.65304 1.32443 3.49263Q1.43161 3.33222 1.54653 3.17727Q1.66145 3.02231 1.78384 2.87318Q1.90622 2.72406 2.03578 2.58111Q2.16534 2.43817 2.30175 2.30175Q2.43817 2.16534 2.58111 2.03578Q2.72406 1.90622 2.87318 1.78384Q3.02231 1.66145 3.17727 1.54653Q3.33222 1.43161 3.49263 1.32443Q3.65304 1.21725 3.81851 1.11806Q3.98398 1.01888 4.15412 0.927943Q4.32426 0.837001 4.49866 0.754517Q4.67306 0.672033 4.85129 0.598206Q5.02952 0.524379 5.21117 0.459386Q5.39281 0.394394 5.57742 0.338392Q5.76203 0.28239 5.94917 0.235515Q6.13631 0.188639 6.32552 0.151002Q6.51474 0.113365 6.70557 0.0850583Q6.8964 0.0567511 7.08839 0.0378417Q7.28038 0.0189322 7.47307 0.00946612Q7.66576 0 7.85868 0L7.85868 0Z" id="path_1" />
  </defs>
  <g filter="url(#filter_1)">
    <g id="6.-TATA-MOTORS" transform="translate(7 5)">
      <path d="M14.8213 25.165C14.8213 25.165 12.5614 22.2308 10.5168 19.8646C8.47211 17.4983 6.64271 15.7 6.64271 15.7L23 15.7L14.8213 25.165Z" id="Triangle" fill="#FFFFFF" fill-rule="evenodd" stroke="#ED1C24" stroke-width="1" />
      <g id="Rectangle">
        <use xlink:href="#path_1" fill="none" stroke="#ED1C24" stroke-width="2" />
        <use stroke="none" fill="#FFFFFF" xlink:href="#path_1" fill-rule="evenodd" />
      </g>
      <g id="TATA-MOTORS" fill="#000000" fill-opacity="0.6392157" transform="translate(4.900055 1.7999496)">
        <path d="M42.5544 4.55029Q42.1946 5.3667 42.1946 6.56982Q42.1946 8.44971 43.2312 9.52124Q44.2678 10.5928 46.0242 10.5928Q47.759 10.5928 48.7957 9.51587Q49.8323 8.43896 49.8323 6.53223Q49.8323 4.60938 48.7876 3.52979Q47.7429 2.4502 46.0027 2.4502Q45.0413 2.4502 44.3054 2.76172Q43.7522 2.99268 43.2876 3.4707Q42.823 3.94873 42.5544 4.55029ZM57.8298 4.55029Q57.47 5.3667 57.47 6.56982Q57.47 8.44971 58.5066 9.52124Q59.5432 10.5928 61.2996 10.5928Q63.0344 10.5928 64.071 9.51587Q65.1077 8.43896 65.1077 6.53223Q65.1077 4.60938 64.063 3.52979Q63.0183 2.4502 61.2781 2.4502Q60.3167 2.4502 59.5808 2.76172Q59.0276 2.99268 58.563 3.4707Q58.0984 3.94873 57.8298 4.55029ZM75.4363 7.74609L73.8894 7.89648Q74.0452 9.21777 74.8455 9.90796Q75.6458 10.5981 77.1389 10.5981Q78.1648 10.5981 78.8523 10.3108Q79.5398 10.0234 79.9158 9.43262Q80.2917 8.8418 80.2917 8.16504Q80.2917 7.41846 79.9775 6.91089Q79.6633 6.40332 79.1074 6.1106Q78.5515 5.81787 77.3914 5.54395Q76.2312 5.27002 75.9304 5.01758Q75.6941 4.81885 75.6941 4.53955Q75.6941 4.2334 75.9465 4.05078Q76.3386 3.76611 77.0315 3.76611Q77.7029 3.76611 78.0386 4.03198Q78.3743 4.29785 78.4763 4.90479L80.0662 4.83496Q80.0286 3.75 79.2793 3.1001Q78.53 2.4502 77.0476 2.4502Q76.1399 2.4502 75.498 2.72412Q74.8562 2.99805 74.5151 3.52173Q74.1741 4.04541 74.1741 4.64697Q74.1741 5.58154 74.8992 6.23145Q75.4148 6.69336 76.6931 7.01025Q77.6868 7.25732 77.9661 7.354Q78.3743 7.49902 78.5381 7.69507Q78.7019 7.89111 78.7019 8.17041Q78.7019 8.60547 78.3125 8.93042Q77.9231 9.25537 77.155 9.25537Q76.4299 9.25537 76.0029 8.89014Q75.5759 8.5249 75.4363 7.74609ZM2.7439 3.9165L2.7439 10.4585L4.33374 10.4585L4.33374 3.9165L6.66479 3.9165L6.66479 2.58447L0.407471 2.58447L0.407471 3.9165L2.7439 3.9165ZM13.0618 10.4585L14.7913 10.4585L11.6384 2.58447L9.95728 2.58447L6.89038 10.4585L8.5769 10.4585L9.22681 8.66992L12.3743 8.66992L13.0618 10.4585ZM17.407 10.4585L17.407 3.9165L15.0706 3.9165L15.0706 2.58447L21.3279 2.58447L21.3279 3.9165L18.9968 3.9165L18.9968 10.4585L17.407 10.4585ZM27.7249 10.4585L29.4543 10.4585L26.3015 2.58447L24.6204 2.58447L21.5535 10.4585L23.24 10.4585L23.8899 8.66992L27.0374 8.66992L27.7249 10.4585ZM33.3323 10.4585L33.3323 2.58447L35.7117 2.58447L37.1404 7.95557L38.553 2.58447L40.9377 2.58447L40.9377 10.4585L39.4607 10.4585L39.4607 4.26025L37.8977 10.4585L36.3669 10.4585L34.8093 4.26025L34.8093 10.4585L33.3323 10.4585ZM52.8455 10.4585L52.8455 3.9165L50.509 3.9165L50.509 2.58447L56.7664 2.58447L56.7664 3.9165L54.4353 3.9165L54.4353 10.4585L52.8455 10.4585ZM66.3538 10.4585L66.3538 2.58447L69.7 2.58447Q70.9622 2.58447 71.5342 2.79663Q72.1062 3.00879 72.45 3.55127Q72.7937 4.09375 72.7937 4.79199Q72.7937 5.67822 72.2727 6.25562Q71.7517 6.83301 70.7151 6.9834Q71.2307 7.28418 71.5664 7.64404Q71.9021 8.00391 72.4714 8.92236L73.4329 10.4585L71.5315 10.4585L70.3821 8.74512Q69.7698 7.82666 69.5442 7.58765Q69.3186 7.34863 69.0662 7.26001Q68.8137 7.17139 68.2659 7.17139L67.9436 7.17139L67.9436 10.4585L66.3538 10.4585ZM44.4504 8.5437Q43.8328 7.85352 43.8328 6.51611Q43.8328 5.15723 44.4343 4.48315Q45.0359 3.80908 46.0188 3.80908Q47.0017 3.80908 47.5952 4.4751Q48.1887 5.14111 48.1887 6.49463Q48.1887 7.86426 47.5791 8.54907Q46.9695 9.23389 46.0188 9.23389Q45.0681 9.23389 44.4504 8.5437ZM59.7258 8.5437Q59.1082 7.85352 59.1082 6.51611Q59.1082 5.15723 59.7097 4.48315Q60.3113 3.80908 61.2942 3.80908Q62.2771 3.80908 62.8706 4.4751Q63.4641 5.14111 63.4641 6.49463Q63.4641 7.86426 62.8545 8.54907Q62.2449 9.23389 61.2942 9.23389Q60.3435 9.23389 59.7258 8.5437ZM67.9436 5.91455L69.1199 5.91455Q70.2639 5.91455 70.5486 5.81787Q70.8333 5.72119 70.9944 5.48486Q71.1555 5.24854 71.1555 4.89404Q71.1555 4.49658 70.9434 4.2522Q70.7312 4.00781 70.3445 3.94336Q70.1511 3.9165 69.1843 3.9165L67.9436 3.9165L67.9436 5.91455ZM10.7791 4.42139L11.864 7.34326L9.71558 7.34326L10.7791 4.42139ZM25.4421 4.42139L26.5271 7.34326L24.3787 7.34326L25.4421 4.42139Z" />
      </g>
      <g id="5-MIN" transform="translate(88.42108 0.29305267)">
        <g id="5" fill="#000000" fill-opacity="0.6392157">
          <path d="M5.25191 5.2168L6.20895 5.11768Q6.24996 5.44238 6.45162 5.63208Q6.65328 5.82178 6.91647 5.82178Q7.21725 5.82178 7.42574 5.57739Q7.63424 5.33301 7.63424 4.84082Q7.63424 4.37939 7.42745 4.14868Q7.22066 3.91797 6.88912 3.91797Q6.47555 3.91797 6.14742 4.28369L5.36813 4.1709L5.86031 1.56299L8.39986 1.56299L8.39986 2.46191L6.58834 2.46191L6.43795 3.31299Q6.75924 3.15234 7.0942 3.15234Q7.73336 3.15234 8.1777 3.61719Q8.62203 4.08203 8.62203 4.82373Q8.62203 5.44238 8.26315 5.92773Q7.77438 6.59082 6.90621 6.59082Q6.21236 6.59082 5.77486 6.21826Q5.33736 5.8457 5.25191 5.2168Z" />
        </g>
        <g id="MIN" fill="#000000" fill-opacity="0.6392157">
          <path d="M1.81319 13.6592L1.81319 9.36426L3.11105 9.36426L3.89034 12.2939L4.66085 9.36426L5.96163 9.36426L5.96163 13.6592L5.15597 13.6592L5.15597 10.2783L4.30343 13.6592L3.46847 13.6592L2.61886 10.2783L2.61886 13.6592L1.81319 13.6592ZM6.79659 13.6592L6.79659 9.36426L7.66378 9.36426L7.66378 13.6592L6.79659 13.6592ZM8.49874 9.36426L8.49874 13.6592L9.30441 13.6592L9.30441 10.8584L11.0359 13.6592L11.906 13.6592L11.906 9.36426L11.1003 9.36426L11.1003 12.2324L9.34249 9.36426L8.49874 9.36426Z" />
        </g>
      </g>
      <path d="M14 32.7535C14 32.2307 14.3855 31.807 14.8609 31.807C15.3364 31.807 15.7219 32.2307 15.7219 32.7535C15.7219 33.2762 15.3364 33.7 14.8609 33.7C14.3855 33.7 14 33.2762 14 32.7535Z" id="Ellipse" fill="#D3D3D3" fill-rule="evenodd" stroke="#ED1C24" stroke-width="1" />
      <path d="M15 24.8L15 31.8L15 27.4489" id="Line" fill="none" fill-rule="evenodd" stroke="#ED1C24" stroke-width="1" stroke-linecap="square" />
    </g>
  </g>
</svg>