<?xml version="1.0" encoding="utf-8"?>
<svg width="69px" height="29px" viewBox="0 0 69 29" version="1.1" xmlns:xlink="http://www.w3.org/1999/xlink" xmlns="http://www.w3.org/2000/svg">
  <defs>
    <filter filterUnits="userSpaceOnUse" color-interpolation-filters="sRGB" id="filter_1">
      <feFlood flood-opacity="0" result="BackgroundImageFix" />
      <feColorMatrix in="SourceAlpha" type="matrix" values="0 0 0 0 0 0 0 0 0 0 0 0 0 0 0 0 0 0 127 0" />
      <feOffset dx="0" dy="2" />
      <feGaussianBlur stdDeviation="2" />
      <feColorMatrix type="matrix" values="0 0 0 0 0.39215687 0 0 0 0 0.39215687 0 0 0 0 0.39215687 0 0 0 0.49803922 0" />
      <feBlend mode="normal" in2="BackgroundImageFix" result="effect0_dropShadow" />
      <feBlend mode="normal" in="SourceGraphic" in2="effect0_dropShadow" result="shape" />
    </filter>
    <path d="M7.499 0L47.501 0Q47.6851 0 47.869 0.00903287Q48.0528 0.0180657 48.236 0.0361097Q48.4192 0.0541537 48.6013 0.0811653Q48.7834 0.108177 48.964 0.144091Q49.1445 0.180005 49.3231 0.224736Q49.5017 0.269466 49.6778 0.322904Q49.854 0.376343 50.0273 0.438361Q50.2007 0.500379 50.3707 0.570827Q50.5408 0.641275 50.7072 0.719984Q50.8736 0.798693 51.036 0.885472Q51.1984 0.972252 51.3563 1.06689Q51.5141 1.16153 51.6672 1.26381Q51.8203 1.36608 51.9681 1.47575Q52.116 1.58541 52.2583 1.70219Q52.4006 1.81898 52.537 1.94261Q52.6734 2.06623 52.8036 2.19641Q52.9338 2.32658 53.0574 2.46298Q53.181 2.59938 53.2978 2.74168Q53.4146 2.88399 53.5243 3.03185Q53.6339 3.17971 53.7362 3.33278Q53.8385 3.48584 53.9331 3.64374Q54.0277 3.80164 54.1145 3.964Q54.2013 4.12635 54.28 4.29276Q54.3587 4.45918 54.4292 4.62926Q54.4996 4.79933 54.5616 4.97266Q54.6236 5.14599 54.6771 5.32216Q54.7305 5.49832 54.7753 5.67689Q54.82 5.85546 54.8559 6.03602Q54.8918 6.21657 54.9188 6.39867Q54.9458 6.58077 54.9639 6.76397Q54.9819 6.94717 54.991 7.13104Q55 7.31491 55 7.499L55 7.501Q55 7.68509 54.991 7.86896Q54.9819 8.05283 54.9639 8.23603Q54.9458 8.41923 54.9188 8.60133Q54.8918 8.78343 54.8559 8.96398Q54.82 9.14453 54.7753 9.32311Q54.7305 9.50168 54.6771 9.67784Q54.6236 9.85401 54.5616 10.0273Q54.4996 10.2007 54.4292 10.3707Q54.3587 10.5408 54.28 10.7072Q54.2013 10.8737 54.1145 11.036Q54.0277 11.1984 53.9331 11.3563Q53.8385 11.5142 53.7362 11.6672Q53.6339 11.8203 53.5243 11.9681Q53.4146 12.116 53.2978 12.2583Q53.181 12.4006 53.0574 12.537Q52.9338 12.6734 52.8036 12.8036Q52.6734 12.9338 52.537 13.0574Q52.4006 13.181 52.2583 13.2978Q52.116 13.4146 51.9681 13.5243Q51.8203 13.6339 51.6672 13.7362Q51.5142 13.8385 51.3563 13.9331Q51.1984 14.0277 51.036 14.1145Q50.8736 14.2013 50.7072 14.28Q50.5408 14.3587 50.3707 14.4292Q50.2007 14.4996 50.0273 14.5616Q49.854 14.6237 49.6778 14.6771Q49.5017 14.7305 49.3231 14.7753Q49.1445 14.82 48.964 14.8559Q48.7834 14.8918 48.6013 14.9188Q48.4192 14.9458 48.236 14.9639Q48.0528 14.9819 47.869 14.991Q47.6851 15 47.501 15L7.499 15Q7.31491 15 7.13104 14.991Q6.94717 14.9819 6.76397 14.9639Q6.58077 14.9458 6.39867 14.9188Q6.21657 14.8918 6.03602 14.8559Q5.85546 14.82 5.67689 14.7753Q5.49832 14.7305 5.32216 14.6771Q5.14599 14.6237 4.97266 14.5616Q4.79933 14.4996 4.62926 14.4292Q4.45918 14.3587 4.29276 14.28Q4.12635 14.2013 3.964 14.1145Q3.80164 14.0277 3.64374 13.9331Q3.48584 13.8385 3.33278 13.7362Q3.17971 13.6339 3.03185 13.5243Q2.88399 13.4146 2.74168 13.2978Q2.59938 13.181 2.46298 13.0574Q2.32658 12.9338 2.19641 12.8036Q2.06623 12.6734 1.94261 12.537Q1.81898 12.4006 1.70219 12.2583Q1.58541 12.116 1.47575 11.9681Q1.36608 11.8203 1.26381 11.6672Q1.16153 11.5142 1.06689 11.3563Q0.972252 11.1984 0.885472 11.036Q0.798693 10.8737 0.719984 10.7072Q0.641275 10.5408 0.570827 10.3707Q0.500379 10.2007 0.438361 10.0273Q0.376343 9.85401 0.322904 9.67784Q0.269466 9.50168 0.224736 9.32311Q0.180005 9.14453 0.144091 8.96398Q0.108177 8.78343 0.0811653 8.60133Q0.0541537 8.41923 0.0361097 8.23603Q0.0180657 8.05283 0.00903287 7.86896Q0 7.68509 0 7.501L0 7.499Q0 7.31491 0.00903287 7.13104Q0.0180657 6.94717 0.0361097 6.76397Q0.0541537 6.58077 0.0811653 6.39867Q0.108177 6.21657 0.144091 6.03602Q0.180005 5.85546 0.224736 5.67689Q0.269466 5.49832 0.322904 5.32216Q0.376343 5.14599 0.438361 4.97266Q0.500379 4.79933 0.570827 4.62926Q0.641275 4.45918 0.719984 4.29276Q0.798693 4.12635 0.885472 3.964Q0.972252 3.80164 1.06689 3.64374Q1.16153 3.48584 1.26381 3.33278Q1.36608 3.17971 1.47575 3.03185Q1.58541 2.88399 1.70219 2.74168Q1.81898 2.59938 1.94261 2.46298Q2.06623 2.32658 2.19641 2.19641Q2.32658 2.06623 2.46298 1.94261Q2.59938 1.81898 2.74168 1.70219Q2.88399 1.58541 3.03185 1.47575Q3.17971 1.36608 3.33278 1.26381Q3.48584 1.16153 3.64374 1.06689Q3.80164 0.972252 3.964 0.885472Q4.12635 0.798693 4.29276 0.719984Q4.45918 0.641275 4.62926 0.570827Q4.79933 0.500379 4.97266 0.438361Q5.14599 0.376343 5.32216 0.322904Q5.49832 0.269466 5.67689 0.224736Q5.85546 0.180005 6.03602 0.144091Q6.21657 0.108177 6.39867 0.0811653Q6.58077 0.0541537 6.76397 0.0361097Q6.94717 0.0180657 7.13104 0.00903287Q7.31491 0 7.499 0L7.499 0Z" id="path_1" />
  </defs>
  <g filter="url(#filter_1)">
    <g id="13.-Location---ALANDI" transform="translate(7 5)">
      <g id="Rectangle">
        <use xlink:href="#path_1" fill="none" stroke="#2888E5" stroke-width="2" />
        <use stroke="none" fill="#FFFFFF" xlink:href="#path_1" fill-rule="evenodd" />
      </g>
      <g id="ALANDI" fill="#000000" fill-opacity="0.6392157" transform="translate(4.923828 0.94705963)">
        <path d="M8.18171 10.4585L9.9112 10.4585L6.75837 2.58447L5.07722 2.58447L2.01032 10.4585L3.69685 10.4585L4.34675 8.66992L7.49421 8.66992L8.18171 10.4585ZM24.5743 10.4585L22.8448 10.4585L22.1573 8.66992L19.0098 8.66992L18.3599 10.4585L16.6734 10.4585L19.7403 2.58447L21.4215 2.58447L24.5743 10.4585ZM25.4337 2.58447L25.4337 10.4585L26.9107 10.4585L26.9107 5.32373L30.085 10.4585L31.6802 10.4585L31.6802 2.58447L30.2032 2.58447L30.2032 7.84277L26.9805 2.58447L25.4337 2.58447ZM33.356 2.58447L36.2618 2.58447Q37.2447 2.58447 37.7603 2.73486Q38.4532 2.93896 38.9473 3.45996Q39.4415 3.98096 39.6993 4.7356Q39.9571 5.49023 39.9571 6.59668Q39.9571 7.56885 39.7154 8.27246Q39.42 9.13184 38.8721 9.66357Q38.4586 10.0664 37.755 10.292Q37.2286 10.4585 36.3477 10.4585L33.356 10.4585L33.356 2.58447ZM41.2569 2.58447L41.2569 10.4585L42.8467 10.4585L42.8467 2.58447L41.2569 2.58447ZM10.7974 2.64893L10.7974 10.4585L16.3404 10.4585L16.3404 9.13184L12.3873 9.13184L12.3873 2.64893L10.7974 2.64893ZM34.9459 3.9165L34.9459 9.13184L36.1329 9.13184Q36.7989 9.13184 37.0943 9.05664Q37.481 8.95996 37.7362 8.729Q37.9913 8.49805 38.1524 7.96899Q38.3135 7.43994 38.3135 6.52686Q38.3135 5.61377 38.1524 5.125Q37.9913 4.63623 37.7012 4.3623Q37.4112 4.08838 36.9654 3.9917Q36.6324 3.9165 35.6602 3.9165L34.9459 3.9165ZM5.899 4.42139L6.98396 7.34326L4.83552 7.34326L5.899 4.42139ZM21.647 7.34326L20.5621 4.42139L19.4986 7.34326L21.647 7.34326Z" />
      </g>
    </g>
  </g>
</svg>