<svg xmlns="http://www.w3.org/2000/svg" width="3750" viewBox="0 0 3750 1875" height="1875" version="1.0"><defs><clipPath id="a"><path d="M 737 1114 L 814 1114 L 814 1147.511719 L 737 1147.511719 Z M 737 1114"/></clipPath><clipPath id="b"><path d="M 690.449219 859 L 859.949219 859 L 859.949219 1128 L 690.449219 1128 Z M 690.449219 859"/></clipPath></defs><path fill="#004AAD" d="M 543.496094 725.386719 L 2153.378906 725.386719 L 2153.378906 1250.804688 L 543.496094 1250.804688 L 543.496094 725.386719"/><path fill="#77838D" d="M 543.496094 1253.59375 L 540.699219 1253.59375 L 540.699219 722.59375 L 2156.171875 722.59375 L 2156.171875 1253.59375 L 543.496094 1253.59375 M 546.289062 728.179688 L 546.289062 1248.011719 L 2150.585938 1248.011719 L 2150.585938 728.179688 L 546.289062 728.179688"/><path fill="#FFF" d="M 602.171875 784.574219 L 2094.144531 784.574219 L 2094.144531 1192.175781 L 602.171875 1192.175781 L 602.171875 784.574219"/><g clip-path="url(#a)"><path fill="#F9A72B" d="M 813.519531 1130.980469 C 813.519531 1139.929688 796.554688 1147.179688 775.628906 1147.179688 C 754.703125 1147.179688 737.738281 1139.929688 737.738281 1130.980469 C 737.738281 1122.039062 754.703125 1114.785156 775.628906 1114.785156 C 796.554688 1114.785156 813.519531 1122.039062 813.519531 1130.980469"/></g><path fill="#FCD24F" d="M 812.746094 1127.0625 C 812.746094 1136.007812 795.957031 1143.257812 775.242188 1143.257812 C 754.53125 1143.257812 737.738281 1136.007812 737.738281 1127.0625 C 737.738281 1118.113281 754.53125 1110.863281 775.242188 1110.863281 C 795.957031 1110.863281 812.746094 1118.113281 812.746094 1127.0625"/><g clip-path="url(#b)"><path fill="#E33924" d="M 776.6875 859.09375 C 776.1875 859.09375 775.695312 859.125 775.199219 859.136719 C 774.703125 859.125 774.207031 859.09375 773.710938 859.09375 C 727.707031 859.09375 690.410156 898.011719 690.410156 946.011719 C 690.410156 954.203125 693.585938 973.140625 698.351562 981 L 775.199219 1127.0625 L 852.046875 981 C 856.8125 973.140625 859.984375 954.203125 859.984375 946.011719 C 859.984375 898.011719 822.695312 859.09375 776.6875 859.09375"/></g><path fill="#FFF" d="M 821.203125 936.324219 C 821.203125 961.757812 800.605469 982.367188 775.199219 982.367188 C 749.792969 982.367188 729.191406 961.757812 729.191406 936.324219 C 729.191406 910.894531 749.792969 890.285156 775.199219 890.285156 C 800.605469 890.285156 821.203125 910.894531 821.203125 936.324219"/><g><g><g><path d="M 103.03125 0 L 96 -26.765625 L 49.609375 -26.765625 L 42.390625 0 L 0 0 L 46.578125 -143.359375 L 98.046875 -143.359375 L 145.21875 0 Z M 87.984375 -58.40625 L 81.84375 -81.84375 C 80.40625 -87.050781 78.660156 -93.785156 76.609375 -102.046875 C 74.554688 -110.316406 73.207031 -116.242188 72.5625 -119.828125 C 71.976562 -116.503906 70.820312 -111.035156 69.09375 -103.421875 C 67.363281 -95.804688 63.539062 -80.800781 57.625 -58.40625 Z M 87.984375 -58.40625" transform="translate(1098.201 1055.83)"/></g></g><g><g><path d="M 15.4375 0 L 15.4375 -142.78125 L 54 -142.78125 L 54 -31.15625 L 108.984375 -31.15625 L 108.984375 0 Z M 15.4375 0" transform="translate(1243.412 1055.83)"/></g></g><g><g><path d="M 103.03125 0 L 96 -26.765625 L 49.609375 -26.765625 L 42.390625 0 L 0 0 L 46.578125 -143.359375 L 98.046875 -143.359375 L 145.21875 0 Z M 87.984375 -58.40625 L 81.84375 -81.84375 C 80.40625 -87.050781 78.660156 -93.785156 76.609375 -102.046875 C 74.554688 -110.316406 73.207031 -116.242188 72.5625 -119.828125 C 71.976562 -116.503906 70.820312 -111.035156 69.09375 -103.421875 C 67.363281 -95.804688 63.539062 -80.800781 57.625 -58.40625 Z M 87.984375 -58.40625" transform="translate(1359.815 1055.83)"/></g></g><g><g><path d="M 151.375 0 L 100.78125 0 L 48.640625 -100.59375 L 47.75 -100.59375 C 48.988281 -84.769531 49.609375 -72.691406 49.609375 -64.359375 L 49.609375 0 L 15.4375 0 L 15.4375 -142.78125 L 65.828125 -142.78125 L 117.78125 -43.5625 L 118.359375 -43.5625 C 117.453125 -57.945312 117 -69.5 117 -78.21875 L 117 -142.78125 L 151.375 -142.78125 Z M 151.375 0" transform="translate(1505.027 1055.83)"/></g></g><g><g><path d="M 136.625 -74.421875 C 136.625 -50.585938 130.0625 -32.222656 116.9375 -19.328125 C 103.820312 -6.441406 85.382812 0 61.625 0 L 15.4375 0 L 15.4375 -142.78125 L 64.84375 -142.78125 C 87.757812 -142.78125 105.453125 -136.921875 117.921875 -125.203125 C 130.390625 -113.484375 136.625 -96.554688 136.625 -74.421875 Z M 96.578125 -73.046875 C 96.578125 -86.128906 93.988281 -95.828125 88.8125 -102.140625 C 83.644531 -108.460938 75.785156 -111.625 65.234375 -111.625 L 54 -111.625 L 54 -31.640625 L 62.59375 -31.640625 C 74.3125 -31.640625 82.90625 -35.039062 88.375 -41.84375 C 93.84375 -48.644531 96.578125 -59.046875 96.578125 -73.046875 Z M 96.578125 -73.046875" transform="translate(1671.82 1055.83)"/></g></g><g><g><path d="M 15.4375 0 L 15.4375 -142.78125 L 54.203125 -142.78125 L 54.203125 0 Z M 15.4375 0" transform="translate(1818.593 1055.83)"/></g></g></g></svg>