<?xml version="1.0" encoding="utf-8"?>
<svg width="114px" height="29px" viewBox="0 0 114 29" version="1.1" xmlns:xlink="http://www.w3.org/1999/xlink" xmlns="http://www.w3.org/2000/svg">
  <defs>
    <filter filterUnits="userSpaceOnUse" color-interpolation-filters="sRGB" id="filter_1">
      <feFlood flood-opacity="0" result="BackgroundImageFix" />
      <feColorMatrix in="SourceAlpha" type="matrix" values="0 0 0 0 0 0 0 0 0 0 0 0 0 0 0 0 0 0 127 0" />
      <feOffset dx="0" dy="2" />
      <feGaussianBlur stdDeviation="2" />
      <feColorMatrix type="matrix" values="0 0 0 0 0.39215687 0 0 0 0 0.39215687 0 0 0 0 0.39215687 0 0 0 0.49803922 0" />
      <feBlend mode="normal" in2="BackgroundImageFix" result="effect0_dropShadow" />
      <feBlend mode="normal" in="SourceGraphic" in2="effect0_dropShadow" result="shape" />
    </filter>
    <path d="M7.499 0L92.501 0Q92.6851 0 92.869 0.00903287Q93.0528 0.0180657 93.236 0.0361097Q93.4192 0.0541537 93.6013 0.0811653Q93.7834 0.108177 93.964 0.144091Q94.1445 0.180005 94.3231 0.224736Q94.5017 0.269466 94.6778 0.322904Q94.854 0.376343 95.0273 0.438361Q95.2007 0.500379 95.3707 0.570827Q95.5408 0.641275 95.7072 0.719984Q95.8736 0.798693 96.036 0.885472Q96.1983 0.972252 96.3562 1.06689Q96.5142 1.16153 96.6672 1.26381Q96.8203 1.36608 96.9681 1.47575Q97.116 1.58541 97.2583 1.70219Q97.4006 1.81898 97.537 1.94261Q97.6734 2.06623 97.8036 2.19641Q97.9338 2.32658 98.0574 2.46298Q98.181 2.59938 98.2978 2.74168Q98.4146 2.88399 98.5242 3.03185Q98.6339 3.17971 98.7362 3.33278Q98.8385 3.48584 98.9331 3.64374Q99.0277 3.80164 99.1145 3.964Q99.2013 4.12635 99.28 4.29276Q99.3587 4.45918 99.4292 4.62926Q99.4996 4.79933 99.5616 4.97266Q99.6236 5.14599 99.6771 5.32216Q99.7305 5.49832 99.7753 5.67689Q99.82 5.85546 99.8559 6.03602Q99.8918 6.21657 99.9188 6.39867Q99.9458 6.58077 99.9639 6.76397Q99.9819 6.94717 99.991 7.13104Q100 7.31491 100 7.499L100 7.501Q100 7.68509 99.991 7.86896Q99.9819 8.05283 99.9639 8.23603Q99.9458 8.41923 99.9188 8.60133Q99.8918 8.78343 99.8559 8.96398Q99.82 9.14453 99.7753 9.32311Q99.7305 9.50168 99.6771 9.67784Q99.6236 9.85401 99.5616 10.0273Q99.4996 10.2007 99.4292 10.3707Q99.3587 10.5408 99.28 10.7072Q99.2013 10.8737 99.1145 11.036Q99.0277 11.1984 98.9331 11.3563Q98.8385 11.5142 98.7362 11.6672Q98.6339 11.8203 98.5242 11.9681Q98.4146 12.116 98.2978 12.2583Q98.181 12.4006 98.0574 12.537Q97.9338 12.6734 97.8036 12.8036Q97.6734 12.9338 97.537 13.0574Q97.4006 13.181 97.2583 13.2978Q97.116 13.4146 96.9681 13.5243Q96.8203 13.6339 96.6672 13.7362Q96.5142 13.8385 96.3562 13.9331Q96.1983 14.0277 96.036 14.1145Q95.8736 14.2013 95.7072 14.28Q95.5408 14.3587 95.3707 14.4292Q95.2007 14.4996 95.0273 14.5616Q94.854 14.6237 94.6778 14.6771Q94.5017 14.7305 94.3231 14.7753Q94.1445 14.82 93.964 14.8559Q93.7834 14.8918 93.6013 14.9188Q93.4192 14.9458 93.236 14.9639Q93.0528 14.9819 92.869 14.991Q92.6851 15 92.501 15L7.499 15Q7.31491 15 7.13104 14.991Q6.94717 14.9819 6.76397 14.9639Q6.58077 14.9458 6.39867 14.9188Q6.21657 14.8918 6.03602 14.8559Q5.85546 14.82 5.67689 14.7753Q5.49832 14.7305 5.32216 14.6771Q5.14599 14.6237 4.97266 14.5616Q4.79933 14.4996 4.62926 14.4292Q4.45918 14.3587 4.29276 14.28Q4.12635 14.2013 3.964 14.1145Q3.80164 14.0277 3.64374 13.9331Q3.48584 13.8385 3.33278 13.7362Q3.17971 13.6339 3.03185 13.5243Q2.88399 13.4146 2.74168 13.2978Q2.59938 13.181 2.46298 13.0574Q2.32658 12.9338 2.19641 12.8036Q2.06623 12.6734 1.94261 12.537Q1.81898 12.4006 1.70219 12.2583Q1.58541 12.116 1.47575 11.9681Q1.36608 11.8203 1.26381 11.6672Q1.16153 11.5142 1.06689 11.3563Q0.972252 11.1984 0.885472 11.036Q0.798693 10.8737 0.719984 10.7072Q0.641275 10.5408 0.570827 10.3707Q0.500379 10.2007 0.438361 10.0273Q0.376343 9.85401 0.322904 9.67784Q0.269466 9.50168 0.224736 9.32311Q0.180005 9.14453 0.144091 8.96398Q0.108177 8.78343 0.0811653 8.60133Q0.0541537 8.41923 0.0361097 8.23603Q0.0180657 8.05283 0.00903287 7.86896Q0 7.68509 0 7.501L0 7.499Q0 7.31491 0.00903287 7.13104Q0.0180657 6.94717 0.0361097 6.76397Q0.0541537 6.58077 0.0811653 6.39867Q0.108177 6.21657 0.144091 6.03602Q0.180005 5.85546 0.224736 5.67689Q0.269466 5.49832 0.322904 5.32216Q0.376343 5.14599 0.438361 4.97266Q0.500379 4.79933 0.570827 4.62926Q0.641275 4.45918 0.719984 4.29276Q0.798693 4.12635 0.885472 3.964Q0.972252 3.80164 1.06689 3.64374Q1.16153 3.48584 1.26381 3.33278Q1.36608 3.17971 1.47575 3.03185Q1.58541 2.88399 1.70219 2.74168Q1.81898 2.59938 1.94261 2.46298Q2.06623 2.32658 2.19641 2.19641Q2.32658 2.06623 2.46298 1.94261Q2.59938 1.81898 2.74168 1.70219Q2.88399 1.58541 3.03185 1.47575Q3.17971 1.36608 3.33278 1.26381Q3.48584 1.16153 3.64374 1.06689Q3.80164 0.972252 3.964 0.885472Q4.12635 0.798693 4.29276 0.719984Q4.45918 0.641275 4.62926 0.570827Q4.79933 0.500379 4.97266 0.438361Q5.14599 0.376343 5.32216 0.322904Q5.49832 0.269466 5.67689 0.224736Q5.85546 0.180005 6.03602 0.144091Q6.21657 0.108177 6.39867 0.0811653Q6.58077 0.0541537 6.76397 0.0361097Q6.94717 0.0180657 7.13104 0.00903287Q7.31491 0 7.499 0L7.499 0Z" id="path_1" />
  </defs>
  <g filter="url(#filter_1)">
    <g id="13.-Location---BHOSARI-MIDC" transform="translate(7 5)">
      <g id="Rectangle">
        <use xlink:href="#path_1" fill="none" stroke="#2888E5" stroke-width="2" />
        <use stroke="none" fill="#FFFFFF" xlink:href="#path_1" fill-rule="evenodd" />
      </g>
      <g id="BHOSARI-MIDC" fill="#000000" fill-opacity="0.6392157" transform="translate(8.952393 0.94706726)">
        <path d="M16.7256 4.55029Q16.3657 5.3667 16.3657 6.56982Q16.3657 8.44971 17.4023 9.52124Q18.439 10.5928 20.1953 10.5928Q21.9302 10.5928 22.9668 9.51587Q24.0034 8.43896 24.0034 6.53223Q24.0034 4.60938 22.9587 3.52979Q21.9141 2.4502 20.1738 2.4502Q19.2124 2.4502 18.4766 2.76172Q17.9233 2.99268 17.4587 3.4707Q16.9941 3.94873 16.7256 4.55029ZM24.8413 7.89648L26.3882 7.74609Q26.5278 8.5249 26.9548 8.89014Q27.3818 9.25537 28.1069 9.25537Q28.875 9.25537 29.2644 8.93042Q29.6538 8.60547 29.6538 8.17041Q29.6538 7.89111 29.49 7.69507Q29.3262 7.49902 28.918 7.354Q28.6387 7.25732 27.645 7.01025Q26.3667 6.69336 25.8511 6.23145Q25.126 5.58154 25.126 4.64697Q25.126 4.04541 25.467 3.52173Q25.8081 2.99805 26.45 2.72412Q27.0918 2.4502 27.9995 2.4502Q29.4819 2.4502 30.2312 3.1001Q30.9805 3.75 31.0181 4.83496L29.4282 4.90479Q29.3262 4.29785 28.9905 4.03198Q28.6548 3.76611 27.9834 3.76611Q27.2905 3.76611 26.8984 4.05078Q26.646 4.2334 26.646 4.53955Q26.646 4.81885 26.8823 5.01758Q27.1831 5.27002 28.3433 5.54395Q29.5034 5.81787 30.0593 6.1106Q30.6152 6.40332 30.9294 6.91089Q31.2437 7.41846 31.2437 8.16504Q31.2437 8.8418 30.8677 9.43262Q30.4917 10.0234 29.8042 10.3108Q29.1167 10.5981 28.0908 10.5981Q26.5977 10.5981 25.7974 9.90796Q24.9971 9.21777 24.8413 7.89648ZM81.3237 8.05225L79.7822 7.56348Q79.5835 8.42822 79.127 8.83105Q78.6704 9.23389 78.0366 9.23389Q77.1772 9.23389 76.6401 8.6001Q76.103 7.96631 76.103 6.47314Q76.103 5.06592 76.6482 4.4375Q77.1934 3.80908 78.0688 3.80908Q78.7026 3.80908 79.1458 4.16357Q79.5889 4.51807 79.7285 5.13037L81.3022 4.75439Q81.0337 3.80908 80.4966 3.3042Q79.5942 2.4502 78.1494 2.4502Q76.4951 2.4502 75.48 3.53784Q74.4648 4.62549 74.4648 6.59131Q74.4648 8.44971 75.4746 9.52124Q76.4844 10.5928 78.0527 10.5928Q79.3203 10.5928 80.1448 9.96704Q80.9692 9.34131 81.3237 8.05225ZM0.805664 2.58447L3.95312 2.58447Q4.8877 2.58447 5.34692 2.66235Q5.80615 2.74023 6.1687 2.9873Q6.53125 3.23438 6.77295 3.64526Q7.01465 4.05615 7.01465 4.56641Q7.01465 5.11963 6.71655 5.58154Q6.41846 6.04346 5.9082 6.27441Q6.62793 6.48389 7.01465 6.98877Q7.40137 7.49365 7.40137 8.17578Q7.40137 8.71289 7.15161 9.22046Q6.90186 9.72803 6.46948 10.0315Q6.03711 10.335 5.40332 10.4048Q5.00586 10.4478 3.48584 10.4585L0.805664 10.4585L0.805664 2.58447ZM8.74951 10.4585L8.74951 2.58447L10.3394 2.58447L10.3394 5.68359L13.4546 5.68359L13.4546 2.58447L15.0444 2.58447L15.0444 10.4585L13.4546 10.4585L13.4546 7.01562L10.3394 7.01562L10.3394 10.4585L8.74951 10.4585ZM37.9521 10.4585L39.6816 10.4585L36.5288 2.58447L34.8477 2.58447L31.7808 10.4585L33.4673 10.4585L34.1172 8.66992L37.2646 8.66992L37.9521 10.4585ZM40.5303 10.4585L40.5303 2.58447L43.8765 2.58447Q45.1387 2.58447 45.7107 2.79663Q46.2827 3.00879 46.6265 3.55127Q46.9702 4.09375 46.9702 4.79199Q46.9702 5.67822 46.4492 6.25562Q45.9282 6.83301 44.8916 6.9834Q45.4072 7.28418 45.7429 7.64404Q46.0786 8.00391 46.6479 8.92236L47.6094 10.4585L45.708 10.4585L44.5586 8.74512Q43.9463 7.82666 43.7207 7.58765Q43.4951 7.34863 43.2427 7.26001Q42.9902 7.17139 42.4424 7.17139L42.1201 7.17139L42.1201 10.4585L40.5303 10.4585ZM48.4204 2.58447L48.4204 10.4585L50.0103 10.4585L50.0103 2.58447L48.4204 2.58447ZM54.5596 10.4585L54.5596 2.58447L56.939 2.58447L58.3677 7.95557L59.7803 2.58447L62.165 2.58447L62.165 10.4585L60.688 10.4585L60.688 4.26025L59.125 10.4585L57.5942 10.4585L56.0366 4.26025L56.0366 10.4585L54.5596 10.4585ZM63.6958 2.58447L63.6958 10.4585L65.2856 10.4585L65.2856 2.58447L63.6958 2.58447ZM66.7949 2.58447L69.7007 2.58447Q70.6836 2.58447 71.1992 2.73486Q71.8921 2.93896 72.3862 3.45996Q72.8804 3.98096 73.1382 4.7356Q73.396 5.49023 73.396 6.59668Q73.396 7.56885 73.1543 8.27246Q72.8589 9.13184 72.311 9.66357Q71.8975 10.0664 71.1938 10.292Q70.6675 10.4585 69.7866 10.4585L66.7949 10.4585L66.7949 2.58447ZM18.6216 8.5437Q18.0039 7.85352 18.0039 6.51611Q18.0039 5.15723 18.6055 4.48315Q19.207 3.80908 20.1899 3.80908Q21.1729 3.80908 21.7664 4.4751Q22.3599 5.14111 22.3599 6.49463Q22.3599 7.86426 21.7502 8.54907Q21.1406 9.23389 20.1899 9.23389Q19.2393 9.23389 18.6216 8.5437ZM2.39551 3.89502L2.39551 5.71582L3.4375 5.71582Q4.3667 5.71582 4.59229 5.68896Q5.00049 5.64062 5.23413 5.40698Q5.46777 5.17334 5.46777 4.79199Q5.46777 4.42676 5.26636 4.19849Q5.06494 3.97021 4.66748 3.92188Q4.43115 3.89502 3.30859 3.89502L2.39551 3.89502ZM42.1201 5.91455L43.2964 5.91455Q44.4404 5.91455 44.7251 5.81787Q45.0098 5.72119 45.1709 5.48486Q45.332 5.24854 45.332 4.89404Q45.332 4.49658 45.1199 4.2522Q44.9077 4.00781 44.521 3.94336Q44.3276 3.9165 43.3608 3.9165L42.1201 3.9165L42.1201 5.91455ZM68.3848 3.9165L68.3848 9.13184L69.5718 9.13184Q70.2378 9.13184 70.5332 9.05664Q70.9199 8.95996 71.175 8.729Q71.4302 8.49805 71.5913 7.96899Q71.7524 7.43994 71.7524 6.52686Q71.7524 5.61377 71.5913 5.125Q71.4302 4.63623 71.1401 4.3623Q70.8501 4.08838 70.4043 3.9917Q70.0713 3.9165 69.0991 3.9165L68.3848 3.9165ZM35.6694 4.42139L36.7544 7.34326L34.606 7.34326L35.6694 4.42139ZM2.39551 7.02637L2.39551 9.13184L3.86719 9.13184Q4.72656 9.13184 4.95752 9.0835Q5.31201 9.01904 5.53491 8.76929Q5.75781 8.51953 5.75781 8.10059Q5.75781 7.74609 5.58594 7.49902Q5.41406 7.25195 5.08911 7.13916Q4.76416 7.02637 3.6792 7.02637L2.39551 7.02637Z" />
      </g>
    </g>
  </g>
</svg>