<svg xmlns="http://www.w3.org/2000/svg" width="3750" viewBox="0 0 3750 1875" height="1875" version="1.0"><defs><clipPath id="a"><path d="M 737 1114 L 814 1114 L 814 1147.511719 L 737 1147.511719 Z M 737 1114"/></clipPath><clipPath id="b"><path d="M 690.449219 859 L 859.949219 859 L 859.949219 1128 L 690.449219 1128 Z M 690.449219 859"/></clipPath></defs><path fill="#004AAD" d="M 543.496094 725.382812 L 2153.378906 725.382812 L 2153.378906 1250.800781 L 543.496094 1250.800781 L 543.496094 725.382812"/><path fill="#77838D" d="M 543.496094 1253.589844 L 540.699219 1253.589844 L 540.699219 722.589844 L 2156.171875 722.589844 L 2156.171875 1253.589844 L 543.496094 1253.589844 M 546.289062 728.175781 L 546.289062 1248.007812 L 2150.585938 1248.007812 L 2150.585938 728.175781 L 546.289062 728.175781"/><path fill="#FFF" d="M 602.171875 784.570312 L 2094.144531 784.570312 L 2094.144531 1192.171875 L 602.171875 1192.171875 L 602.171875 784.570312"/><g clip-path="url(#a)"><path fill="#F9A72B" d="M 813.519531 1130.980469 C 813.519531 1139.925781 796.554688 1147.175781 775.628906 1147.175781 C 754.703125 1147.175781 737.738281 1139.925781 737.738281 1130.980469 C 737.738281 1122.039062 754.703125 1114.78125 775.628906 1114.78125 C 796.554688 1114.78125 813.519531 1122.039062 813.519531 1130.980469"/></g><path fill="#FCD24F" d="M 812.746094 1127.058594 C 812.746094 1136.007812 795.957031 1143.257812 775.242188 1143.257812 C 754.53125 1143.257812 737.738281 1136.007812 737.738281 1127.058594 C 737.738281 1118.113281 754.53125 1110.859375 775.242188 1110.859375 C 795.957031 1110.859375 812.746094 1118.113281 812.746094 1127.058594"/><g clip-path="url(#b)"><path fill="#E33924" d="M 776.6875 859.09375 C 776.1875 859.09375 775.695312 859.125 775.199219 859.136719 C 774.703125 859.125 774.207031 859.09375 773.710938 859.09375 C 727.707031 859.09375 690.410156 898.007812 690.410156 946.007812 C 690.410156 954.199219 693.585938 973.140625 698.351562 980.996094 L 775.199219 1127.058594 L 852.046875 980.996094 C 856.8125 973.140625 859.984375 954.199219 859.984375 946.007812 C 859.984375 898.007812 822.695312 859.09375 776.6875 859.09375"/></g><path fill="#FFF" d="M 821.203125 936.324219 C 821.203125 961.753906 800.605469 982.367188 775.199219 982.367188 C 749.792969 982.367188 729.191406 961.753906 729.191406 936.324219 C 729.191406 910.894531 749.792969 890.28125 775.199219 890.28125 C 800.605469 890.28125 821.203125 910.894531 821.203125 936.324219"/><g><g><g><path d="M 13.140625 -121.609375 L 55.5625 -121.609375 C 72.082031 -121.609375 84.347656 -119.148438 92.359375 -114.234375 C 100.378906 -109.328125 104.390625 -101.691406 104.390625 -91.328125 C 104.390625 -84.503906 102.640625 -78.679688 99.140625 -73.859375 C 95.648438 -69.035156 91.050781 -65.929688 85.34375 -64.546875 L 85.34375 -63.71875 C 92.882812 -61.71875 98.34375 -58.390625 101.71875 -53.734375 C 105.101562 -49.078125 106.796875 -43.03125 106.796875 -35.59375 C 106.796875 -24.5625 102.648438 -15.867188 94.359375 -9.515625 C 86.066406 -3.171875 74.769531 0 60.46875 0 L 13.140625 0 Z M 46 -74.9375 L 55.890625 -74.9375 C 60.609375 -74.9375 64.253906 -75.90625 66.828125 -77.84375 C 69.410156 -79.789062 70.703125 -82.675781 70.703125 -86.5 C 70.703125 -93.320312 65.546875 -96.734375 55.234375 -96.734375 L 46 -96.734375 Z M 46 -50.90625 L 46 -25.375 L 57.5625 -25.375 C 67.8125 -25.375 72.9375 -29.695312 72.9375 -38.34375 C 72.9375 -42.394531 71.5625 -45.5 68.8125 -47.65625 C 66.070312 -49.820312 62.097656 -50.90625 56.890625 -50.90625 Z M 46 -50.90625" transform="translate(1086.252 968.49)"/></g></g></g><g><g><g><path d="M 117.359375 0 L 84.34375 0 L 84.34375 -49.578125 L 46.15625 -49.578125 L 46.15625 0 L 13.140625 0 L 13.140625 -121.609375 L 46.15625 -121.609375 L 46.15625 -76.515625 L 84.34375 -76.515625 L 84.34375 -121.609375 L 117.359375 -121.609375 Z M 117.359375 0" transform="translate(1201.035 968.49)"/></g></g></g><g><g><g><path d="M 126.921875 -60.96875 C 126.921875 -40.507812 121.898438 -24.957031 111.859375 -14.3125 C 101.828125 -3.664062 87.132812 1.65625 67.78125 1.65625 C 48.707031 1.65625 34.082031 -3.691406 23.90625 -14.390625 C 13.738281 -25.085938 8.65625 -40.671875 8.65625 -61.140625 C 8.65625 -81.378906 13.710938 -96.832031 23.828125 -107.5 C 33.953125 -118.175781 48.660156 -123.515625 67.953125 -123.515625 C 87.304688 -123.515625 101.972656 -118.21875 111.953125 -107.625 C 121.929688 -97.039062 126.921875 -81.488281 126.921875 -60.96875 Z M 43.25 -60.96875 C 43.25 -37.457031 51.425781 -25.703125 67.78125 -25.703125 C 76.101562 -25.703125 82.273438 -28.554688 86.296875 -34.265625 C 90.316406 -39.972656 92.328125 -48.875 92.328125 -60.96875 C 92.328125 -73.113281 90.285156 -82.082031 86.203125 -87.875 C 82.128906 -93.664062 76.046875 -96.5625 67.953125 -96.5625 C 51.484375 -96.5625 43.25 -84.695312 43.25 -60.96875 Z M 43.25 -60.96875" transform="translate(1331.537 968.49)"/></g></g></g><g><g><g><path d="M 92.65625 -36.9375 C 92.65625 -29.394531 90.738281 -22.695312 86.90625 -16.84375 C 83.082031 -10.988281 77.566406 -6.441406 70.359375 -3.203125 C 63.148438 0.0351562 54.695312 1.65625 45 1.65625 C 36.90625 1.65625 30.113281 1.085938 24.625 -0.046875 C 19.132812 -1.179688 13.421875 -3.160156 7.484375 -5.984375 L 7.484375 -35.265625 C 13.753906 -32.046875 20.269531 -29.535156 27.03125 -27.734375 C 33.789062 -25.929688 40 -25.03125 45.65625 -25.03125 C 50.539062 -25.03125 54.117188 -25.875 56.390625 -27.5625 C 58.660156 -29.257812 59.796875 -31.441406 59.796875 -34.109375 C 59.796875 -35.765625 59.335938 -37.21875 58.421875 -38.46875 C 57.515625 -39.71875 56.046875 -40.976562 54.015625 -42.25 C 51.992188 -43.53125 46.601562 -46.140625 37.84375 -50.078125 C 29.914062 -53.679688 23.96875 -57.171875 20 -60.546875 C 16.039062 -63.929688 13.101562 -67.8125 11.1875 -72.1875 C 9.269531 -76.570312 8.3125 -81.757812 8.3125 -87.75 C 8.3125 -98.945312 12.382812 -107.675781 20.53125 -113.9375 C 28.6875 -120.207031 39.890625 -123.34375 54.140625 -123.34375 C 66.734375 -123.34375 79.570312 -120.429688 92.65625 -114.609375 L 82.59375 -89.25 C 71.226562 -94.457031 61.414062 -97.0625 53.15625 -97.0625 C 48.882812 -97.0625 45.773438 -96.3125 43.828125 -94.8125 C 41.890625 -93.320312 40.921875 -91.46875 40.921875 -89.25 C 40.921875 -86.863281 42.15625 -84.726562 44.625 -82.84375 C 47.09375 -80.957031 53.785156 -77.519531 64.703125 -72.53125 C 75.191406 -67.8125 82.472656 -62.75 86.546875 -57.34375 C 90.617188 -51.9375 92.65625 -45.132812 92.65625 -36.9375 Z M 92.65625 -36.9375" transform="translate(1467.28 968.49)"/></g></g></g><g><g><g><path d="M 87.75 0 L 81.765625 -22.796875 L 42.25 -22.796875 L 36.09375 0 L 0 0 L 39.671875 -122.109375 L 83.515625 -122.109375 L 123.6875 0 Z M 74.9375 -49.734375 L 69.703125 -69.703125 C 68.484375 -74.140625 67 -79.878906 65.25 -86.921875 C 63.5 -93.960938 62.347656 -99.007812 61.796875 -102.0625 C 61.296875 -99.226562 60.3125 -94.566406 58.84375 -88.078125 C 57.375 -81.585938 54.117188 -68.804688 49.078125 -49.734375 Z M 74.9375 -49.734375" transform="translate(1565.594 968.49)"/></g></g></g><g><g><g><path d="M 46 -44.25 L 46 0 L 13.140625 0 L 13.140625 -121.609375 L 52.984375 -121.609375 C 86.035156 -121.609375 102.5625 -109.628906 102.5625 -85.671875 C 102.5625 -71.585938 95.679688 -60.691406 81.921875 -52.984375 L 117.359375 0 L 80.09375 0 L 54.3125 -44.25 Z M 46 -68.953125 L 52.15625 -68.953125 C 63.632812 -68.953125 69.375 -74.023438 69.375 -84.171875 C 69.375 -92.546875 63.742188 -96.734375 52.484375 -96.734375 L 46 -96.734375 Z M 46 -68.953125" transform="translate(1689.276 968.49)"/></g></g></g><g><g><g><path d="M 13.140625 0 L 13.140625 -121.609375 L 46.15625 -121.609375 L 46.15625 0 Z M 13.140625 0" transform="translate(1804.557 968.49)"/></g></g></g><g><g><g><path d="M 66.125 0 L 41.25 -87.578125 L 40.5 -87.578125 C 41.664062 -72.660156 42.25 -61.070312 42.25 -52.8125 L 42.25 0 L 13.140625 0 L 13.140625 -121.609375 L 56.890625 -121.609375 L 82.265625 -35.265625 L 82.921875 -35.265625 L 107.796875 -121.609375 L 151.625 -121.609375 L 151.625 0 L 121.4375 0 L 121.4375 -53.3125 C 121.4375 -56.082031 121.476562 -59.160156 121.5625 -62.546875 C 121.644531 -65.929688 122.019531 -74.222656 122.6875 -87.421875 L 121.9375 -87.421875 L 97.40625 0 Z M 66.125 0" transform="translate(1245.276 1169.49)"/></g></g></g><g><g><g><path d="M 13.140625 0 L 13.140625 -121.609375 L 46.15625 -121.609375 L 46.15625 0 Z M 13.140625 0" transform="translate(1409.964 1169.49)"/></g></g></g><g><g><g><path d="M 116.359375 -63.375 C 116.359375 -43.082031 110.769531 -27.445312 99.59375 -16.46875 C 88.425781 -5.488281 72.722656 0 52.484375 0 L 13.140625 0 L 13.140625 -121.609375 L 55.234375 -121.609375 C 74.742188 -121.609375 89.804688 -116.613281 100.421875 -106.625 C 111.046875 -96.644531 116.359375 -82.226562 116.359375 -63.375 Z M 82.265625 -62.21875 C 82.265625 -73.363281 80.054688 -81.625 75.640625 -87 C 71.234375 -92.375 64.539062 -95.0625 55.5625 -95.0625 L 46 -95.0625 L 46 -26.953125 L 53.3125 -26.953125 C 63.289062 -26.953125 70.609375 -29.847656 75.265625 -35.640625 C 79.929688 -41.429688 82.265625 -50.289062 82.265625 -62.21875 Z M 82.265625 -62.21875" transform="translate(1469.268 1169.49)"/></g></g></g><g><g><g><path d="M 67.296875 -96.40625 C 59.472656 -96.40625 53.367188 -93.203125 48.984375 -86.796875 C 44.609375 -80.390625 42.421875 -71.554688 42.421875 -60.296875 C 42.421875 -36.898438 51.320312 -25.203125 69.125 -25.203125 C 74.5 -25.203125 79.707031 -25.945312 84.75 -27.4375 C 89.800781 -28.9375 94.878906 -30.742188 99.984375 -32.859375 L 99.984375 -5.078125 C 89.828125 -0.585938 78.347656 1.65625 65.546875 1.65625 C 47.191406 1.65625 33.117188 -3.664062 23.328125 -14.3125 C 13.546875 -24.957031 8.65625 -40.34375 8.65625 -60.46875 C 8.65625 -73.050781 11.023438 -84.113281 15.765625 -93.65625 C 20.503906 -103.195312 27.320312 -110.53125 36.21875 -115.65625 C 45.125 -120.78125 55.59375 -123.34375 67.625 -123.34375 C 80.757812 -123.34375 93.316406 -120.488281 105.296875 -114.78125 L 95.234375 -88.921875 C 90.742188 -91.023438 86.253906 -92.796875 81.765625 -94.234375 C 77.273438 -95.679688 72.453125 -96.40625 67.296875 -96.40625 Z M 67.296875 -96.40625" transform="translate(1594.28 1169.49)"/></g></g></g></svg>