<svg xmlns="http://www.w3.org/2000/svg" width="3750" viewBox="0 0 3750 1875" height="1875" version="1.0"><defs><clipPath id="a"><path d="M 737 1114 L 814 1114 L 814 1147.511719 L 737 1147.511719 Z M 737 1114"/></clipPath><clipPath id="b"><path d="M 690.449219 859 L 859.949219 859 L 859.949219 1128 L 690.449219 1128 Z M 690.449219 859"/></clipPath></defs><path fill="#004AAD" d="M 543.496094 725.382812 L 2153.378906 725.382812 L 2153.378906 1250.800781 L 543.496094 1250.800781 L 543.496094 725.382812"/><path fill="#77838D" d="M 543.496094 1253.589844 L 540.699219 1253.589844 L 540.699219 722.589844 L 2156.171875 722.589844 L 2156.171875 1253.589844 L 543.496094 1253.589844 M 546.289062 728.175781 L 546.289062 1248.007812 L 2150.585938 1248.007812 L 2150.585938 728.175781 L 546.289062 728.175781"/><path fill="#FFF" d="M 602.171875 784.570312 L 2094.144531 784.570312 L 2094.144531 1192.171875 L 602.171875 1192.171875 L 602.171875 784.570312"/><g clip-path="url(#a)"><path fill="#F9A72B" d="M 813.519531 1130.980469 C 813.519531 1139.925781 796.554688 1147.175781 775.628906 1147.175781 C 754.703125 1147.175781 737.738281 1139.925781 737.738281 1130.980469 C 737.738281 1122.039062 754.703125 1114.78125 775.628906 1114.78125 C 796.554688 1114.78125 813.519531 1122.039062 813.519531 1130.980469"/></g><path fill="#FCD24F" d="M 812.746094 1127.058594 C 812.746094 1136.007812 795.957031 1143.257812 775.242188 1143.257812 C 754.53125 1143.257812 737.738281 1136.007812 737.738281 1127.058594 C 737.738281 1118.113281 754.53125 1110.859375 775.242188 1110.859375 C 795.957031 1110.859375 812.746094 1118.113281 812.746094 1127.058594"/><g clip-path="url(#b)"><path fill="#E33924" d="M 776.6875 859.09375 C 776.1875 859.09375 775.695312 859.125 775.199219 859.136719 C 774.703125 859.125 774.207031 859.09375 773.710938 859.09375 C 727.707031 859.09375 690.410156 898.007812 690.410156 946.007812 C 690.410156 954.199219 693.585938 973.140625 698.351562 980.996094 L 775.199219 1127.058594 L 852.046875 980.996094 C 856.8125 973.140625 859.984375 954.199219 859.984375 946.007812 C 859.984375 898.007812 822.695312 859.09375 776.6875 859.09375"/></g><path fill="#FFF" d="M 821.203125 936.324219 C 821.203125 961.753906 800.605469 982.367188 775.199219 982.367188 C 749.792969 982.367188 729.191406 961.753906 729.191406 936.324219 C 729.191406 910.894531 749.792969 890.28125 775.199219 890.28125 C 800.605469 890.28125 821.203125 910.894531 821.203125 936.324219"/><g><g><g><path d="M 13.453125 -124.453125 L 56.859375 -124.453125 C 73.773438 -124.453125 86.332031 -121.941406 94.53125 -116.921875 C 102.738281 -111.898438 106.84375 -104.082031 106.84375 -93.46875 C 106.84375 -86.488281 105.050781 -80.53125 101.46875 -75.59375 C 97.894531 -70.65625 93.1875 -67.476562 87.34375 -66.0625 L 87.34375 -65.203125 C 95.0625 -63.160156 100.648438 -59.753906 104.109375 -54.984375 C 107.578125 -50.222656 109.3125 -44.039062 109.3125 -36.4375 C 109.3125 -25.144531 105.066406 -16.25 96.578125 -9.75 C 88.097656 -3.25 76.535156 0 61.890625 0 L 13.453125 0 Z M 47.078125 -76.703125 L 57.203125 -76.703125 C 62.023438 -76.703125 65.753906 -77.691406 68.390625 -79.671875 C 71.035156 -81.660156 72.359375 -84.613281 72.359375 -88.53125 C 72.359375 -95.507812 67.082031 -99 56.53125 -99 L 47.078125 -99 Z M 47.078125 -52.09375 L 47.078125 -25.96875 L 58.90625 -25.96875 C 69.40625 -25.96875 74.65625 -30.394531 74.65625 -39.25 C 74.65625 -43.382812 73.25 -46.554688 70.4375 -48.765625 C 67.632812 -50.984375 63.566406 -52.09375 58.234375 -52.09375 Z M 47.078125 -52.09375" transform="translate(1077.124 953.025)"/></g></g></g><g><g><g><path d="M 120.109375 0 L 86.328125 0 L 86.328125 -50.734375 L 47.25 -50.734375 L 47.25 0 L 13.453125 0 L 13.453125 -124.453125 L 47.25 -124.453125 L 47.25 -78.3125 L 86.328125 -78.3125 L 86.328125 -124.453125 L 120.109375 -124.453125 Z M 120.109375 0" transform="translate(1194.599 953.025)"/></g></g></g><g><g><g><path d="M 129.90625 -62.40625 C 129.90625 -41.457031 124.769531 -25.535156 114.5 -14.640625 C 104.226562 -3.742188 89.1875 1.703125 69.375 1.703125 C 49.851562 1.703125 34.882812 -3.769531 24.46875 -14.71875 C 14.0625 -25.675781 8.859375 -41.625 8.859375 -62.5625 C 8.859375 -83.28125 14.035156 -99.101562 24.390625 -110.03125 C 34.742188 -120.957031 49.796875 -126.421875 69.546875 -126.421875 C 89.359375 -126.421875 104.367188 -121 114.578125 -110.15625 C 124.796875 -99.3125 129.90625 -83.394531 129.90625 -62.40625 Z M 44.265625 -62.40625 C 44.265625 -38.34375 52.632812 -26.3125 69.375 -26.3125 C 77.894531 -26.3125 84.210938 -29.234375 88.328125 -35.078125 C 92.441406 -40.921875 94.5 -50.03125 94.5 -62.40625 C 94.5 -74.832031 92.410156 -84.007812 88.234375 -89.9375 C 84.066406 -95.863281 77.835938 -98.828125 69.546875 -98.828125 C 52.691406 -98.828125 44.265625 -86.6875 44.265625 -62.40625 Z M 44.265625 -62.40625" transform="translate(1328.163 953.025)"/></g></g></g><g><g><g><path d="M 94.828125 -37.796875 C 94.828125 -30.078125 92.867188 -23.222656 88.953125 -17.234375 C 85.035156 -11.242188 79.390625 -6.585938 72.015625 -3.265625 C 64.640625 0.046875 55.984375 1.703125 46.046875 1.703125 C 37.765625 1.703125 30.8125 1.125 25.1875 -0.03125 C 19.570312 -1.195312 13.726562 -3.226562 7.65625 -6.125 L 7.65625 -36.09375 C 14.070312 -32.800781 20.738281 -30.234375 27.65625 -28.390625 C 34.582031 -26.546875 40.941406 -25.625 46.734375 -25.625 C 51.734375 -25.625 55.394531 -26.488281 57.71875 -28.21875 C 60.039062 -29.945312 61.203125 -32.175781 61.203125 -34.90625 C 61.203125 -36.601562 60.734375 -38.085938 59.796875 -39.359375 C 58.859375 -40.640625 57.351562 -41.929688 55.28125 -43.234375 C 53.21875 -44.546875 47.703125 -47.21875 38.734375 -51.25 C 30.617188 -54.9375 24.53125 -58.507812 20.46875 -61.96875 C 16.414062 -65.4375 13.410156 -69.410156 11.453125 -73.890625 C 9.492188 -78.367188 8.515625 -83.675781 8.515625 -89.8125 C 8.515625 -101.269531 12.6875 -110.207031 21.03125 -116.625 C 29.375 -123.039062 40.835938 -126.25 55.421875 -126.25 C 68.304688 -126.25 81.441406 -123.269531 94.828125 -117.3125 L 84.53125 -91.34375 C 72.894531 -96.675781 62.847656 -99.34375 54.390625 -99.34375 C 50.023438 -99.34375 46.847656 -98.578125 44.859375 -97.046875 C 42.878906 -95.515625 41.890625 -93.613281 41.890625 -91.34375 C 41.890625 -88.90625 43.148438 -86.71875 45.671875 -84.78125 C 48.191406 -82.851562 55.046875 -79.335938 66.234375 -74.234375 C 76.953125 -69.410156 84.394531 -64.226562 88.5625 -58.6875 C 92.738281 -53.15625 94.828125 -46.191406 94.828125 -37.796875 Z M 94.828125 -37.796875" transform="translate(1467.09 953.025)"/></g></g></g><g><g><g><path d="M 89.8125 0 L 83.6875 -23.328125 L 43.25 -23.328125 L 36.953125 0 L 0 0 L 40.609375 -124.96875 L 85.46875 -124.96875 L 126.59375 0 Z M 76.703125 -50.90625 L 71.34375 -71.34375 C 70.09375 -75.875 68.570312 -81.742188 66.78125 -88.953125 C 65 -96.160156 63.820312 -101.328125 63.25 -104.453125 C 62.738281 -101.554688 61.726562 -96.785156 60.21875 -90.140625 C 58.71875 -83.503906 55.382812 -70.425781 50.21875 -50.90625 Z M 76.703125 -50.90625" transform="translate(1567.71 953.025)"/></g></g></g><g><g><g><path d="M 47.078125 -45.28125 L 47.078125 0 L 13.453125 0 L 13.453125 -124.453125 L 54.234375 -124.453125 C 88.054688 -124.453125 104.96875 -112.195312 104.96875 -87.6875 C 104.96875 -73.269531 97.929688 -62.117188 83.859375 -54.234375 L 120.109375 0 L 81.984375 0 L 55.59375 -45.28125 Z M 47.078125 -70.578125 L 53.375 -70.578125 C 65.125 -70.578125 71 -75.769531 71 -86.15625 C 71 -94.71875 65.238281 -99 53.71875 -99 L 47.078125 -99 Z M 47.078125 -70.578125" transform="translate(1694.293 953.025)"/></g></g></g><g><g><g><path d="M 13.453125 0 L 13.453125 -124.453125 L 47.25 -124.453125 L 47.25 0 Z M 13.453125 0" transform="translate(1812.28 953.025)"/></g></g></g><g><g><g><path d="M 67.671875 0 L 42.21875 -89.640625 L 41.453125 -89.640625 C 42.648438 -74.367188 43.25 -62.507812 43.25 -54.0625 L 43.25 0 L 13.453125 0 L 13.453125 -124.453125 L 58.234375 -124.453125 L 84.1875 -36.09375 L 84.875 -36.09375 L 110.328125 -124.453125 L 155.1875 -124.453125 L 155.1875 0 L 124.28125 0 L 124.28125 -54.5625 C 124.28125 -57.40625 124.320312 -60.554688 124.40625 -64.015625 C 124.5 -67.472656 124.882812 -75.957031 125.5625 -89.46875 L 124.796875 -89.46875 L 99.6875 0 Z M 67.671875 0" transform="translate(1239.885 1158.525)"/></g></g></g><g><g><g><path d="M 13.453125 0 L 13.453125 -124.453125 L 47.25 -124.453125 L 47.25 0 Z M 13.453125 0" transform="translate(1408.436 1158.525)"/></g></g></g><g><g><g><path d="M 119.09375 -64.875 C 119.09375 -44.101562 113.375 -28.097656 101.9375 -16.859375 C 90.5 -5.617188 74.425781 0 53.71875 0 L 13.453125 0 L 13.453125 -124.453125 L 56.53125 -124.453125 C 76.5 -124.453125 91.914062 -119.34375 102.78125 -109.125 C 113.65625 -98.914062 119.09375 -84.164062 119.09375 -64.875 Z M 84.1875 -63.671875 C 84.1875 -75.078125 81.929688 -83.53125 77.421875 -89.03125 C 72.910156 -94.539062 66.054688 -97.296875 56.859375 -97.296875 L 47.078125 -97.296875 L 47.078125 -27.578125 L 54.5625 -27.578125 C 64.78125 -27.578125 72.269531 -30.539062 77.03125 -36.46875 C 81.800781 -42.40625 84.1875 -51.472656 84.1875 -63.671875 Z M 84.1875 -63.671875" transform="translate(1469.132 1158.525)"/></g></g></g><g><g><g><path d="M 68.875 -98.671875 C 60.863281 -98.671875 54.617188 -95.390625 50.140625 -88.828125 C 45.660156 -82.273438 43.421875 -73.238281 43.421875 -61.71875 C 43.421875 -37.769531 52.523438 -25.796875 70.734375 -25.796875 C 76.242188 -25.796875 81.582031 -26.5625 86.75 -28.09375 C 91.914062 -29.625 97.109375 -31.46875 102.328125 -33.625 L 102.328125 -5.1875 C 91.941406 -0.59375 80.191406 1.703125 67.078125 1.703125 C 48.296875 1.703125 33.894531 -3.742188 23.875 -14.640625 C 13.863281 -25.535156 8.859375 -41.285156 8.859375 -61.890625 C 8.859375 -74.773438 11.28125 -86.097656 16.125 -95.859375 C 20.976562 -105.617188 27.957031 -113.125 37.0625 -118.375 C 46.175781 -123.625 56.890625 -126.25 69.203125 -126.25 C 82.660156 -126.25 95.515625 -123.328125 107.765625 -117.484375 L 97.46875 -91 C 92.875 -93.15625 88.273438 -94.972656 83.671875 -96.453125 C 79.078125 -97.929688 74.144531 -98.671875 68.875 -98.671875 Z M 68.875 -98.671875" transform="translate(1597.078 1158.525)"/></g></g></g></svg>
