<?xml version="1.0" encoding="utf-8"?>
<svg width="76px" height="29px" viewBox="0 0 76 29" version="1.1" xmlns:xlink="http://www.w3.org/1999/xlink" xmlns="http://www.w3.org/2000/svg">
  <defs>
    <filter filterUnits="userSpaceOnUse" color-interpolation-filters="sRGB" id="filter_1">
      <feFlood flood-opacity="0" result="BackgroundImageFix" />
      <feColorMatrix in="SourceAlpha" type="matrix" values="0 0 0 0 0 0 0 0 0 0 0 0 0 0 0 0 0 0 127 0" />
      <feOffset dx="0" dy="2" />
      <feGaussianBlur stdDeviation="2" />
      <feColorMatrix type="matrix" values="0 0 0 0 0.39215687 0 0 0 0 0.39215687 0 0 0 0 0.39215687 0 0 0 0.49803922 0" />
      <feBlend mode="normal" in2="BackgroundImageFix" result="effect0_dropShadow" />
      <feBlend mode="normal" in="SourceGraphic" in2="effect0_dropShadow" result="shape" />
    </filter>
    <path d="M7.499 0L54.501 0Q54.6851 0 54.869 0.00903287Q55.0528 0.0180657 55.236 0.0361097Q55.4192 0.0541537 55.6013 0.0811653Q55.7834 0.108177 55.964 0.144091Q56.1445 0.180005 56.3231 0.224736Q56.5017 0.269466 56.6778 0.322904Q56.854 0.376343 57.0273 0.438361Q57.2007 0.500379 57.3707 0.570827Q57.5408 0.641275 57.7072 0.719984Q57.8736 0.798693 58.036 0.885472Q58.1983 0.972252 58.3562 1.06689Q58.5141 1.16153 58.6672 1.26381Q58.8203 1.36608 58.9681 1.47575Q59.116 1.58541 59.2583 1.70219Q59.4006 1.81898 59.537 1.94261Q59.6734 2.06623 59.8036 2.19641Q59.9338 2.32658 60.0574 2.46298Q60.181 2.59938 60.2978 2.74168Q60.4146 2.88399 60.5242 3.03185Q60.6339 3.17971 60.7362 3.33278Q60.8385 3.48584 60.9331 3.64374Q61.0277 3.80164 61.1145 3.964Q61.2013 4.12635 61.28 4.29276Q61.3587 4.45918 61.4292 4.62926Q61.4996 4.79933 61.5616 4.97266Q61.6237 5.14599 61.6771 5.32216Q61.7305 5.49832 61.7753 5.67689Q61.82 5.85546 61.8559 6.03602Q61.8918 6.21657 61.9188 6.39867Q61.9458 6.58077 61.9639 6.76397Q61.9819 6.94717 61.991 7.13104Q62 7.31491 62 7.499L62 7.501Q62 7.68509 61.991 7.86896Q61.9819 8.05283 61.9639 8.23603Q61.9458 8.41923 61.9188 8.60133Q61.8918 8.78343 61.8559 8.96398Q61.82 9.14453 61.7753 9.32311Q61.7305 9.50168 61.6771 9.67784Q61.6237 9.85401 61.5616 10.0273Q61.4996 10.2007 61.4292 10.3707Q61.3587 10.5408 61.28 10.7072Q61.2013 10.8737 61.1145 11.036Q61.0277 11.1984 60.9331 11.3563Q60.8385 11.5142 60.7362 11.6672Q60.6339 11.8203 60.5242 11.9681Q60.4146 12.116 60.2978 12.2583Q60.181 12.4006 60.0574 12.537Q59.9338 12.6734 59.8036 12.8036Q59.6734 12.9338 59.537 13.0574Q59.4006 13.181 59.2583 13.2978Q59.116 13.4146 58.9681 13.5243Q58.8203 13.6339 58.6672 13.7362Q58.5141 13.8385 58.3562 13.9331Q58.1983 14.0277 58.036 14.1145Q57.8736 14.2013 57.7072 14.28Q57.5408 14.3587 57.3707 14.4292Q57.2007 14.4996 57.0273 14.5616Q56.854 14.6237 56.6778 14.6771Q56.5017 14.7305 56.3231 14.7753Q56.1445 14.82 55.964 14.8559Q55.7834 14.8918 55.6013 14.9188Q55.4192 14.9458 55.236 14.9639Q55.0528 14.9819 54.869 14.991Q54.6851 15 54.501 15L7.499 15Q7.31491 15 7.13104 14.991Q6.94717 14.9819 6.76397 14.9639Q6.58077 14.9458 6.39867 14.9188Q6.21657 14.8918 6.03602 14.8559Q5.85546 14.82 5.67689 14.7753Q5.49832 14.7305 5.32216 14.6771Q5.14599 14.6237 4.97266 14.5616Q4.79933 14.4996 4.62926 14.4292Q4.45918 14.3587 4.29276 14.28Q4.12635 14.2013 3.964 14.1145Q3.80164 14.0277 3.64374 13.9331Q3.48584 13.8385 3.33278 13.7362Q3.17971 13.6339 3.03185 13.5243Q2.88399 13.4146 2.74168 13.2978Q2.59938 13.181 2.46298 13.0574Q2.32658 12.9338 2.19641 12.8036Q2.06623 12.6734 1.94261 12.537Q1.81898 12.4006 1.70219 12.2583Q1.58541 12.116 1.47575 11.9681Q1.36608 11.8203 1.26381 11.6672Q1.16153 11.5142 1.06689 11.3563Q0.972252 11.1984 0.885472 11.036Q0.798693 10.8737 0.719984 10.7072Q0.641275 10.5408 0.570827 10.3707Q0.500379 10.2007 0.438361 10.0273Q0.376343 9.85401 0.322904 9.67784Q0.269466 9.50168 0.224736 9.32311Q0.180005 9.14453 0.144091 8.96398Q0.108177 8.78343 0.0811653 8.60133Q0.0541537 8.41923 0.0361097 8.23603Q0.0180657 8.05283 0.00903287 7.86896Q0 7.68509 0 7.501L0 7.499Q0 7.31491 0.00903287 7.13104Q0.0180657 6.94717 0.0361097 6.76397Q0.0541537 6.58077 0.0811653 6.39867Q0.108177 6.21657 0.144091 6.03602Q0.180005 5.85546 0.224736 5.67689Q0.269466 5.49832 0.322904 5.32216Q0.376343 5.14599 0.438361 4.97266Q0.500379 4.79933 0.570827 4.62926Q0.641275 4.45918 0.719984 4.29276Q0.798693 4.12635 0.885472 3.964Q0.972252 3.80164 1.06689 3.64374Q1.16153 3.48584 1.26381 3.33278Q1.36608 3.17971 1.47575 3.03185Q1.58541 2.88399 1.70219 2.74168Q1.81898 2.59938 1.94261 2.46298Q2.06623 2.32658 2.19641 2.19641Q2.32658 2.06623 2.46298 1.94261Q2.59938 1.81898 2.74168 1.70219Q2.88399 1.58541 3.03185 1.47575Q3.17971 1.36608 3.33278 1.26381Q3.48584 1.16153 3.64374 1.06689Q3.80164 0.972252 3.964 0.885472Q4.12635 0.798693 4.29276 0.719984Q4.45918 0.641275 4.62926 0.570827Q4.79933 0.500379 4.97266 0.438361Q5.14599 0.376343 5.32216 0.322904Q5.49832 0.269466 5.67689 0.224736Q5.85546 0.180005 6.03602 0.144091Q6.21657 0.108177 6.39867 0.0811653Q6.58077 0.0541537 6.76397 0.0361097Q6.94717 0.0180657 7.13104 0.00903287Q7.31491 0 7.499 0L7.499 0Z" id="path_1" />
  </defs>
  <g filter="url(#filter_1)">
    <g id="13.-Location---CHAKAN-INDUSTRIAL-ESTATE" transform="translate(7 5)">
      <g id="Rectangle">
        <use xlink:href="#path_1" fill="none" stroke="#2888E5" stroke-width="2" />
        <use stroke="none" fill="#FFFFFF" xlink:href="#path_1" fill-rule="evenodd" />
      </g>
      <g id="CHAKAN-" fill="#000000" fill-opacity="0.6392157" transform="translate(5.550537 0.94705963)">
        <path d="M7.70598 8.03076L6.16447 7.54199Q5.96574 8.40674 5.5092 8.80957Q5.05266 9.2124 4.41887 9.2124Q3.55949 9.2124 3.02238 8.57861Q2.48528 7.94482 2.48528 6.45166Q2.48528 5.04443 3.03044 4.41602Q3.57561 3.7876 4.4511 3.7876Q5.08488 3.7876 5.528 4.14209Q5.97112 4.49658 6.11076 5.10889L7.68449 4.73291Q7.41594 3.7876 6.87883 3.28271Q5.97649 2.42871 4.53166 2.42871Q2.87737 2.42871 1.86223 3.51636Q0.847092 4.604 0.847092 6.56982Q0.847092 8.42822 1.85686 9.49976Q2.86662 10.5713 4.43498 10.5713Q5.70256 10.5713 6.52702 9.94556Q7.35149 9.31982 7.70598 8.03076ZM9.07561 2.56299L9.07561 10.437L10.6655 10.437L10.6655 6.99414L13.7807 6.99414L13.7807 10.437L15.3705 10.437L15.3705 2.56299L13.7807 2.56299L13.7807 5.66211L10.6655 5.66211L10.6655 2.56299L9.07561 2.56299ZM24.1147 10.437L22.3852 10.437L21.6977 8.64844L18.5502 8.64844L17.9003 10.437L16.2138 10.437L19.2807 2.56299L20.9618 2.56299L24.1147 10.437ZM24.9794 2.56299L24.9794 10.437L26.5693 10.437L26.5693 8.05762L27.8583 6.7417L30.0229 10.437L32.08 10.437L28.954 5.62988L31.9189 2.56299L29.7812 2.56299L26.5693 6.05957L26.5693 2.56299L24.9794 2.56299ZM40.0024 10.437L38.2729 10.437L37.5854 8.64844L34.4379 8.64844L33.788 10.437L32.1015 10.437L35.1684 2.56299L36.8495 2.56299L40.0024 10.437ZM40.8617 2.56299L40.8617 10.437L42.3388 10.437L42.3388 5.30225L45.5131 10.437L47.1083 10.437L47.1083 2.56299L45.6313 2.56299L45.6313 7.82129L42.4086 2.56299L40.8617 2.56299ZM21.1874 7.32178L20.1025 4.3999L19.039 7.32178L21.1874 7.32178ZM37.0751 7.32178L35.9902 4.3999L34.9267 7.32178L37.0751 7.32178Z" />
      </g>
    </g>
  </g>
</svg>