<?xml version="1.0" encoding="utf-8"?>
<svg width="79px" height="29px" viewBox="0 0 79 29" version="1.1" xmlns:xlink="http://www.w3.org/1999/xlink" xmlns="http://www.w3.org/2000/svg">
  <defs>
    <filter filterUnits="userSpaceOnUse" color-interpolation-filters="sRGB" id="filter_1">
      <feFlood flood-opacity="0" result="BackgroundImageFix" />
      <feColorMatrix in="SourceAlpha" type="matrix" values="0 0 0 0 0 0 0 0 0 0 0 0 0 0 0 0 0 0 127 0" />
      <feOffset dx="0" dy="2" />
      <feGaussianBlur stdDeviation="2" />
      <feColorMatrix type="matrix" values="0 0 0 0 0.39215687 0 0 0 0 0.39215687 0 0 0 0 0.39215687 0 0 0 0.49803922 0" />
      <feBlend mode="normal" in2="BackgroundImageFix" result="effect0_dropShadow" />
      <feBlend mode="normal" in="SourceGraphic" in2="effect0_dropShadow" result="shape" />
    </filter>
    <path d="M7.499 0L57.501 0Q57.6851 0 57.869 0.00903287Q58.0528 0.0180657 58.236 0.0361097Q58.4192 0.0541537 58.6013 0.0811653Q58.7834 0.108177 58.964 0.144091Q59.1445 0.180005 59.3231 0.224736Q59.5017 0.269466 59.6778 0.322904Q59.854 0.376343 60.0273 0.438361Q60.2007 0.500379 60.3707 0.570827Q60.5408 0.641275 60.7072 0.719984Q60.8736 0.798693 61.036 0.885472Q61.1983 0.972252 61.3562 1.06689Q61.5141 1.16153 61.6672 1.26381Q61.8203 1.36608 61.9681 1.47575Q62.116 1.58541 62.2583 1.70219Q62.4006 1.81898 62.537 1.94261Q62.6734 2.06623 62.8036 2.19641Q62.9338 2.32658 63.0574 2.46298Q63.181 2.59938 63.2978 2.74168Q63.4146 2.88399 63.5243 3.03185Q63.6339 3.17971 63.7362 3.33278Q63.8385 3.48584 63.9331 3.64374Q64.0277 3.80164 64.1145 3.964Q64.2013 4.12635 64.28 4.29276Q64.3587 4.45918 64.4292 4.62926Q64.4996 4.79933 64.5616 4.97266Q64.6236 5.14599 64.6771 5.32216Q64.7305 5.49832 64.7753 5.67689Q64.82 5.85546 64.8559 6.03602Q64.8918 6.21657 64.9188 6.39867Q64.9458 6.58077 64.9639 6.76397Q64.9819 6.94717 64.991 7.13104Q65 7.31491 65 7.499L65 7.501Q65 7.68509 64.991 7.86896Q64.9819 8.05283 64.9639 8.23603Q64.9458 8.41923 64.9188 8.60133Q64.8918 8.78343 64.8559 8.96398Q64.82 9.14453 64.7753 9.32311Q64.7305 9.50168 64.6771 9.67784Q64.6236 9.85401 64.5616 10.0273Q64.4996 10.2007 64.4292 10.3707Q64.3587 10.5408 64.28 10.7072Q64.2013 10.8737 64.1145 11.036Q64.0277 11.1984 63.9331 11.3563Q63.8385 11.5142 63.7362 11.6672Q63.6339 11.8203 63.5243 11.9681Q63.4146 12.116 63.2978 12.2583Q63.181 12.4006 63.0574 12.537Q62.9338 12.6734 62.8036 12.8036Q62.6734 12.9338 62.537 13.0574Q62.4006 13.181 62.2583 13.2978Q62.116 13.4146 61.9681 13.5243Q61.8203 13.6339 61.6672 13.7362Q61.5141 13.8385 61.3563 13.9331Q61.1984 14.0277 61.036 14.1145Q60.8736 14.2013 60.7072 14.28Q60.5408 14.3587 60.3707 14.4292Q60.2007 14.4996 60.0273 14.5616Q59.854 14.6237 59.6778 14.6771Q59.5017 14.7305 59.3231 14.7753Q59.1445 14.82 58.964 14.8559Q58.7834 14.8918 58.6013 14.9188Q58.4192 14.9458 58.236 14.9639Q58.0528 14.9819 57.869 14.991Q57.6851 15 57.501 15L7.499 15Q7.31491 15 7.13104 14.991Q6.94717 14.9819 6.76397 14.9639Q6.58077 14.9458 6.39867 14.9188Q6.21657 14.8918 6.03602 14.8559Q5.85546 14.82 5.67689 14.7753Q5.49832 14.7305 5.32216 14.6771Q5.14599 14.6237 4.97266 14.5616Q4.79933 14.4996 4.62926 14.4292Q4.45918 14.3587 4.29276 14.28Q4.12635 14.2013 3.964 14.1145Q3.80164 14.0277 3.64374 13.9331Q3.48584 13.8385 3.33278 13.7362Q3.17971 13.6339 3.03185 13.5243Q2.88399 13.4146 2.74168 13.2978Q2.59938 13.181 2.46298 13.0574Q2.32658 12.9338 2.19641 12.8036Q2.06623 12.6734 1.94261 12.537Q1.81898 12.4006 1.70219 12.2583Q1.58541 12.116 1.47575 11.9681Q1.36608 11.8203 1.26381 11.6672Q1.16153 11.5142 1.06689 11.3563Q0.972252 11.1984 0.885472 11.036Q0.798693 10.8737 0.719984 10.7072Q0.641275 10.5408 0.570827 10.3707Q0.500379 10.2007 0.438361 10.0273Q0.376343 9.85401 0.322904 9.67784Q0.269466 9.50168 0.224736 9.32311Q0.180005 9.14453 0.144091 8.96398Q0.108177 8.78343 0.0811653 8.60133Q0.0541537 8.41923 0.0361097 8.23603Q0.0180657 8.05283 0.00903287 7.86896Q0 7.68509 0 7.501L0 7.499Q0 7.31491 0.00903287 7.13104Q0.0180657 6.94717 0.0361097 6.76397Q0.0541537 6.58077 0.0811653 6.39867Q0.108177 6.21657 0.144091 6.03602Q0.180005 5.85546 0.224736 5.67689Q0.269466 5.49832 0.322904 5.32216Q0.376343 5.14599 0.438361 4.97266Q0.500379 4.79933 0.570827 4.62926Q0.641275 4.45918 0.719984 4.29276Q0.798693 4.12635 0.885472 3.964Q0.972252 3.80164 1.06689 3.64374Q1.16153 3.48584 1.26381 3.33278Q1.36608 3.17971 1.47575 3.03185Q1.58541 2.88399 1.70219 2.74168Q1.81898 2.59938 1.94261 2.46298Q2.06623 2.32658 2.19641 2.19641Q2.32658 2.06623 2.46298 1.94261Q2.59938 1.81898 2.74168 1.70219Q2.88399 1.58541 3.03185 1.47575Q3.17971 1.36608 3.33278 1.26381Q3.48584 1.16153 3.64374 1.06689Q3.80164 0.972252 3.964 0.885472Q4.12635 0.798693 4.29276 0.719984Q4.45918 0.641275 4.62926 0.570827Q4.79933 0.500379 4.97266 0.438361Q5.14599 0.376343 5.32216 0.322904Q5.49832 0.269466 5.67689 0.224736Q5.85546 0.180005 6.03602 0.144091Q6.21657 0.108177 6.39867 0.0811653Q6.58077 0.0541537 6.76397 0.0361097Q6.94717 0.0180657 7.13104 0.00903287Q7.31491 0 7.499 0L7.499 0Z" id="path_1" />
  </defs>
  <g filter="url(#filter_1)">
    <g id="13.-Location---CHIKHALI" transform="translate(7 5)">
      <g id="Rectangle">
        <use xlink:href="#path_1" fill="none" stroke="#2888E5" stroke-width="2" />
        <use stroke="none" fill="#FFFFFF" xlink:href="#path_1" fill-rule="evenodd" />
      </g>
      <g id="CHIKHALI" fill="#000000" fill-opacity="0.6392157" transform="translate(5.819092 0.94705963)">
        <path d="M8.03306 8.05225L6.49156 7.56348Q6.29283 8.42822 5.83629 8.83105Q5.37974 9.23389 4.74595 9.23389Q3.88658 9.23389 3.34947 8.6001Q2.81236 7.96631 2.81236 6.47314Q2.81236 5.06592 3.35753 4.4375Q3.90269 3.80908 4.77818 3.80908Q5.41197 3.80908 5.85509 4.16357Q6.2982 4.51807 6.43785 5.13037L8.01158 4.75439Q7.74302 3.80908 7.20592 3.3042Q6.30357 2.4502 4.85875 2.4502Q3.20445 2.4502 2.18931 3.53784Q1.17418 4.62549 1.17418 6.59131Q1.17418 8.44971 2.18394 9.52124Q3.19371 10.5928 4.76207 10.5928Q6.02965 10.5928 6.85411 9.96704Q7.67857 9.34131 8.03306 8.05225ZM9.40269 2.58447L9.40269 10.4585L10.9925 10.4585L10.9925 7.01562L14.1078 7.01562L14.1078 10.4585L15.6976 10.4585L15.6976 2.58447L14.1078 2.58447L14.1078 5.68359L10.9925 5.68359L10.9925 2.58447L9.40269 2.58447ZM17.2928 10.4585L17.2928 2.58447L18.8827 2.58447L18.8827 10.4585L17.2928 10.4585ZM20.4188 2.58447L20.4188 10.4585L22.0086 10.4585L22.0086 8.0791L23.2977 6.76318L25.4623 10.4585L27.5194 10.4585L24.3934 5.65137L27.3583 2.58447L25.2206 2.58447L22.0086 6.08105L22.0086 2.58447L20.4188 2.58447ZM28.3465 10.4585L28.3465 2.58447L29.9364 2.58447L29.9364 5.68359L33.0516 5.68359L33.0516 2.58447L34.6415 2.58447L34.6415 10.4585L33.0516 10.4585L33.0516 7.01562L29.9364 7.01562L29.9364 10.4585L28.3465 10.4585ZM41.6561 10.4585L43.3856 10.4585L40.2328 2.58447L38.5516 2.58447L35.4847 10.4585L37.1712 10.4585L37.8212 8.66992L40.9686 8.66992L41.6561 10.4585ZM50.8998 2.58447L50.8998 10.4585L52.4896 10.4585L52.4896 2.58447L50.8998 2.58447ZM44.2718 10.4585L44.2718 2.64893L45.8617 2.64893L45.8617 9.13184L49.8148 9.13184L49.8148 10.4585L44.2718 10.4585ZM39.3734 4.42139L40.4584 7.34326L38.3099 7.34326L39.3734 4.42139Z" />
      </g>
    </g>
  </g>
</svg>