<svg xmlns="http://www.w3.org/2000/svg" width="3750" viewBox="0 0 3750 1875" height="1875" version="1.0"><defs><clipPath id="a"><path d="M 737 1114 L 814 1114 L 814 1147.511719 L 737 1147.511719 Z M 737 1114"/></clipPath><clipPath id="b"><path d="M 690.449219 859 L 859.949219 859 L 859.949219 1128 L 690.449219 1128 Z M 690.449219 859"/></clipPath></defs><path fill="#004AAD" d="M 543.496094 725.382812 L 2153.378906 725.382812 L 2153.378906 1250.800781 L 543.496094 1250.800781 L 543.496094 725.382812"/><path fill="#77838D" d="M 543.496094 1253.59375 L 540.699219 1253.59375 L 540.699219 722.59375 L 2156.171875 722.59375 L 2156.171875 1253.59375 L 543.496094 1253.59375 M 546.289062 728.175781 L 546.289062 1248.007812 L 2150.585938 1248.007812 L 2150.585938 728.175781 L 546.289062 728.175781"/><path fill="#FFF" d="M 602.171875 784.570312 L 2094.144531 784.570312 L 2094.144531 1192.171875 L 602.171875 1192.171875 L 602.171875 784.570312"/><g clip-path="url(#a)"><path fill="#F9A72B" d="M 813.519531 1130.980469 C 813.519531 1139.929688 796.554688 1147.179688 775.628906 1147.179688 C 754.703125 1147.179688 737.738281 1139.929688 737.738281 1130.980469 C 737.738281 1122.039062 754.703125 1114.785156 775.628906 1114.785156 C 796.554688 1114.785156 813.519531 1122.039062 813.519531 1130.980469"/></g><path fill="#FCD24F" d="M 812.746094 1127.0625 C 812.746094 1136.007812 795.957031 1143.257812 775.242188 1143.257812 C 754.53125 1143.257812 737.738281 1136.007812 737.738281 1127.0625 C 737.738281 1118.113281 754.53125 1110.863281 775.242188 1110.863281 C 795.957031 1110.863281 812.746094 1118.113281 812.746094 1127.0625"/><g clip-path="url(#b)"><path fill="#E33924" d="M 776.6875 859.097656 C 776.1875 859.097656 775.695312 859.125 775.199219 859.136719 C 774.703125 859.125 774.207031 859.097656 773.710938 859.097656 C 727.707031 859.097656 690.410156 898.011719 690.410156 946.011719 C 690.410156 954.203125 693.585938 973.140625 698.351562 981 L 775.199219 1127.0625 L 852.046875 981 C 856.8125 973.140625 859.984375 954.203125 859.984375 946.011719 C 859.984375 898.011719 822.695312 859.097656 776.6875 859.097656"/></g><path fill="#FFF" d="M 821.203125 936.328125 C 821.203125 961.757812 800.605469 982.367188 775.199219 982.367188 C 749.792969 982.367188 729.191406 961.757812 729.191406 936.328125 C 729.191406 910.894531 749.792969 890.285156 775.199219 890.285156 C 800.605469 890.285156 821.203125 910.894531 821.203125 936.328125"/><g><g><g><path d="M 71.234375 -102.0625 C 62.960938 -102.0625 56.503906 -98.671875 51.859375 -91.890625 C 47.222656 -85.109375 44.90625 -75.757812 44.90625 -63.84375 C 44.90625 -39.070312 54.328125 -26.6875 73.171875 -26.6875 C 78.867188 -26.6875 84.390625 -27.476562 89.734375 -29.0625 C 95.078125 -30.644531 100.445312 -32.550781 105.84375 -34.78125 L 105.84375 -5.375 C 95.101562 -0.613281 82.953125 1.765625 69.390625 1.765625 C 49.960938 1.765625 35.066406 -3.867188 24.703125 -15.140625 C 14.335938 -26.410156 9.15625 -42.703125 9.15625 -64.015625 C 9.15625 -77.335938 11.664062 -89.046875 16.6875 -99.140625 C 21.707031 -109.242188 28.925781 -117.007812 38.34375 -122.4375 C 47.769531 -127.875 58.851562 -130.59375 71.59375 -130.59375 C 85.507812 -130.59375 98.804688 -127.566406 111.484375 -121.515625 L 100.828125 -94.140625 C 96.066406 -96.367188 91.304688 -98.242188 86.546875 -99.765625 C 81.796875 -101.296875 76.691406 -102.0625 71.234375 -102.0625 Z M 71.234375 -102.0625" transform="translate(1035.698 1061.834)"/></g></g></g><g><g><g><path d="M 124.25 0 L 89.296875 0 L 89.296875 -52.484375 L 48.875 -52.484375 L 48.875 0 L 13.90625 0 L 13.90625 -128.734375 L 48.875 -128.734375 L 48.875 -81.015625 L 89.296875 -81.015625 L 89.296875 -128.734375 L 124.25 -128.734375 Z M 124.25 0" transform="translate(1152.725 1061.834)"/></g></g></g><g><g><g><path d="M 13.90625 0 L 13.90625 -128.734375 L 48.875 -128.734375 L 48.875 0 Z M 13.90625 0" transform="translate(1290.886 1061.834)"/></g></g></g><g><g><g><path d="M 123.890625 0 L 84.625 0 L 59.171875 -49.21875 L 48.875 -43.0625 L 48.875 0 L 13.90625 0 L 13.90625 -128.734375 L 48.875 -128.734375 L 48.875 -72.828125 C 50.632812 -76.285156 54.1875 -81.773438 59.53125 -89.296875 L 86.5625 -128.734375 L 124.609375 -128.734375 L 84 -71.0625 Z M 123.890625 0" transform="translate(1353.67 1061.834)"/></g></g></g><g><g><g><path d="M 124.25 0 L 89.296875 0 L 89.296875 -52.484375 L 48.875 -52.484375 L 48.875 0 L 13.90625 0 L 13.90625 -128.734375 L 48.875 -128.734375 L 48.875 -81.015625 L 89.296875 -81.015625 L 89.296875 -128.734375 L 124.25 -128.734375 Z M 124.25 0" transform="translate(1477.566 1061.834)"/></g></g></g><g><g><g><path d="M 92.90625 0 L 86.5625 -24.125 L 44.734375 -24.125 L 38.21875 0 L 0 0 L 42 -129.265625 L 88.40625 -129.265625 L 130.9375 0 Z M 79.34375 -52.65625 L 73.796875 -73.796875 C 72.503906 -78.492188 70.929688 -84.566406 69.078125 -92.015625 C 67.234375 -99.472656 66.015625 -104.816406 65.421875 -108.046875 C 64.898438 -105.054688 63.859375 -100.125 62.296875 -93.25 C 60.742188 -86.382812 57.296875 -72.851562 51.953125 -52.65625 Z M 79.34375 -52.65625" transform="translate(1615.726 1061.834)"/></g></g></g><g><g><g><path d="M 13.90625 0 L 13.90625 -128.734375 L 48.703125 -128.734375 L 48.703125 -28.09375 L 98.265625 -28.09375 L 98.265625 0 Z M 13.90625 0" transform="translate(1746.666 1061.834)"/></g></g></g><g><g><g><path d="M 13.90625 0 L 13.90625 -128.734375 L 48.875 -128.734375 L 48.875 0 Z M 13.90625 0" transform="translate(1851.63 1061.834)"/></g></g></g></svg>