<?xml version="1.0" encoding="utf-8"?>
<svg width="94px" height="29px" viewBox="0 0 94 29" version="1.1" xmlns:xlink="http://www.w3.org/1999/xlink" xmlns="http://www.w3.org/2000/svg">
  <defs>
    <filter filterUnits="userSpaceOnUse" color-interpolation-filters="sRGB" id="filter_1">
      <feFlood flood-opacity="0" result="BackgroundImageFix" />
      <feColorMatrix in="SourceAlpha" type="matrix" values="0 0 0 0 0 0 0 0 0 0 0 0 0 0 0 0 0 0 127 0" />
      <feOffset dx="0" dy="2" />
      <feGaussianBlur stdDeviation="2" />
      <feColorMatrix type="matrix" values="0 0 0 0 0.39215687 0 0 0 0 0.39215687 0 0 0 0 0.39215687 0 0 0 0.49803922 0" />
      <feBlend mode="normal" in2="BackgroundImageFix" result="effect0_dropShadow" />
      <feBlend mode="normal" in="SourceGraphic" in2="effect0_dropShadow" result="shape" />
    </filter>
    <path d="M7.499 0L72.501 0Q72.6851 0 72.869 0.00903287Q73.0528 0.0180657 73.236 0.0361097Q73.4192 0.0541537 73.6013 0.0811653Q73.7834 0.108177 73.964 0.144091Q74.1445 0.180005 74.3231 0.224736Q74.5017 0.269466 74.6778 0.322904Q74.854 0.376343 75.0273 0.438361Q75.2007 0.500379 75.3707 0.570827Q75.5408 0.641275 75.7072 0.719984Q75.8736 0.798693 76.036 0.885472Q76.1984 0.972252 76.3562 1.06689Q76.5141 1.16153 76.6672 1.26381Q76.8203 1.36608 76.9681 1.47575Q77.116 1.58541 77.2583 1.70219Q77.4006 1.81898 77.537 1.94261Q77.6734 2.06623 77.8036 2.19641Q77.9338 2.32658 78.0574 2.46298Q78.181 2.59938 78.2978 2.74168Q78.4146 2.88399 78.5242 3.03185Q78.6339 3.17971 78.7362 3.33278Q78.8385 3.48584 78.9331 3.64374Q79.0277 3.80164 79.1145 3.964Q79.2013 4.12635 79.28 4.29276Q79.3587 4.45918 79.4292 4.62926Q79.4996 4.79933 79.5616 4.97266Q79.6236 5.14599 79.6771 5.32216Q79.7305 5.49832 79.7752 5.67689Q79.82 5.85546 79.8559 6.03602Q79.8918 6.21657 79.9188 6.39867Q79.9458 6.58077 79.9639 6.76397Q79.9819 6.94717 79.991 7.13104Q80 7.31491 80 7.499L80 7.501Q80 7.68509 79.991 7.86896Q79.9819 8.05283 79.9639 8.23603Q79.9458 8.41923 79.9188 8.60133Q79.8918 8.78343 79.8559 8.96398Q79.82 9.14453 79.7753 9.32311Q79.7305 9.50168 79.6771 9.67784Q79.6236 9.85401 79.5616 10.0273Q79.4996 10.2007 79.4292 10.3707Q79.3587 10.5408 79.28 10.7072Q79.2013 10.8737 79.1145 11.036Q79.0277 11.1984 78.9331 11.3563Q78.8385 11.5142 78.7362 11.6672Q78.6339 11.8203 78.5242 11.9681Q78.4146 12.116 78.2978 12.2583Q78.181 12.4006 78.0574 12.537Q77.9338 12.6734 77.8036 12.8036Q77.6734 12.9338 77.537 13.0574Q77.4006 13.181 77.2583 13.2978Q77.116 13.4146 76.9681 13.5243Q76.8203 13.6339 76.6672 13.7362Q76.5141 13.8385 76.3562 13.9331Q76.1984 14.0277 76.036 14.1145Q75.8736 14.2013 75.7072 14.28Q75.5408 14.3587 75.3707 14.4292Q75.2007 14.4996 75.0273 14.5616Q74.854 14.6237 74.6778 14.6771Q74.5017 14.7305 74.3231 14.7753Q74.1445 14.82 73.964 14.8559Q73.7834 14.8918 73.6013 14.9188Q73.4192 14.9458 73.236 14.9639Q73.0528 14.9819 72.869 14.991Q72.6851 15 72.501 15L7.499 15Q7.31491 15 7.13104 14.991Q6.94717 14.9819 6.76397 14.9639Q6.58077 14.9458 6.39867 14.9188Q6.21657 14.8918 6.03602 14.8559Q5.85546 14.82 5.67689 14.7753Q5.49832 14.7305 5.32216 14.6771Q5.14599 14.6237 4.97266 14.5616Q4.79933 14.4996 4.62926 14.4292Q4.45918 14.3587 4.29276 14.28Q4.12635 14.2013 3.964 14.1145Q3.80164 14.0277 3.64374 13.9331Q3.48584 13.8385 3.33278 13.7362Q3.17971 13.6339 3.03185 13.5243Q2.88399 13.4146 2.74168 13.2978Q2.59938 13.181 2.46298 13.0574Q2.32658 12.9338 2.19641 12.8036Q2.06623 12.6734 1.94261 12.537Q1.81898 12.4006 1.70219 12.2583Q1.58541 12.116 1.47575 11.9681Q1.36608 11.8203 1.26381 11.6672Q1.16153 11.5142 1.06689 11.3563Q0.972252 11.1984 0.885472 11.036Q0.798693 10.8737 0.719984 10.7072Q0.641275 10.5408 0.570827 10.3707Q0.500379 10.2007 0.438361 10.0273Q0.376343 9.85401 0.322904 9.67784Q0.269466 9.50168 0.224736 9.32311Q0.180005 9.14453 0.144091 8.96398Q0.108177 8.78343 0.0811653 8.60133Q0.0541537 8.41923 0.0361097 8.23603Q0.0180657 8.05283 0.00903287 7.86896Q0 7.68509 0 7.501L0 7.499Q0 7.31491 0.00903287 7.13104Q0.0180657 6.94717 0.0361097 6.76397Q0.0541537 6.58077 0.0811653 6.39867Q0.108177 6.21657 0.144091 6.03602Q0.180005 5.85546 0.224736 5.67689Q0.269466 5.49832 0.322904 5.32216Q0.376343 5.14599 0.438361 4.97266Q0.500379 4.79933 0.570827 4.62926Q0.641275 4.45918 0.719984 4.29276Q0.798693 4.12635 0.885472 3.964Q0.972252 3.80164 1.06689 3.64374Q1.16153 3.48584 1.26381 3.33278Q1.36608 3.17971 1.47575 3.03185Q1.58541 2.88399 1.70219 2.74168Q1.81898 2.59938 1.94261 2.46298Q2.06623 2.32658 2.19641 2.19641Q2.32658 2.06623 2.46298 1.94261Q2.59938 1.81898 2.74168 1.70219Q2.88399 1.58541 3.03185 1.47575Q3.17971 1.36608 3.33278 1.26381Q3.48584 1.16153 3.64374 1.06689Q3.80164 0.972252 3.964 0.885472Q4.12635 0.798693 4.29276 0.719984Q4.45918 0.641275 4.62926 0.570827Q4.79933 0.500379 4.97266 0.438361Q5.14599 0.376343 5.32216 0.322904Q5.49832 0.269466 5.67689 0.224736Q5.85546 0.180005 6.03602 0.144091Q6.21657 0.108177 6.39867 0.0811653Q6.58077 0.0541537 6.76397 0.0361097Q6.94717 0.0180657 7.13104 0.00903287Q7.31491 0 7.499 0L7.499 0Z" id="path_1" />
  </defs>
  <g filter="url(#filter_1)">
    <g id="13.-Location---DEHUGAON" transform="translate(7 5)">
      <g id="Rectangle">
        <use xlink:href="#path_1" fill="none" stroke="#2888E5" stroke-width="2" />
        <use stroke="none" fill="#FFFFFF" xlink:href="#path_1" fill-rule="evenodd" />
      </g>
      <g id="DEHUGAON" fill="#000000" fill-opacity="0.6392157" transform="translate(7.1619873 0.94705963)">
        <path d="M36.6905 7.56348L36.6905 6.23682L40.1172 6.23682L40.1172 9.37354Q39.6177 9.85693 38.6697 10.2249Q37.7217 10.5928 36.7495 10.5928Q35.5142 10.5928 34.5957 10.0745Q33.6773 9.55615 33.2154 8.59204Q32.7535 7.62793 32.7535 6.49463Q32.7535 5.26465 33.2691 4.30859Q33.7847 3.35254 34.7784 2.84229Q35.5357 2.4502 36.6636 2.4502Q38.1299 2.4502 38.9544 3.06519Q39.7788 3.68018 40.0152 4.76514L38.4361 5.06055Q38.2696 4.48047 37.8103 4.14478Q37.3511 3.80908 36.6636 3.80908Q35.6216 3.80908 35.0066 4.46973Q34.3916 5.13037 34.3916 6.43018Q34.3916 7.83203 35.0147 8.53296Q35.6377 9.23389 36.6475 9.23389Q37.147 9.23389 37.6492 9.03784Q38.1514 8.8418 38.5113 8.5625L38.5113 7.56348L36.6905 7.56348ZM49.2051 6.56982Q49.2051 5.3667 49.565 4.55029Q49.8335 3.94873 50.2981 3.4707Q50.7627 2.99268 51.316 2.76172Q52.0518 2.4502 53.0132 2.4502Q54.7535 2.4502 55.7981 3.52979Q56.8428 4.60938 56.8428 6.53223Q56.8428 8.43896 55.8062 9.51587Q54.7696 10.5928 53.0347 10.5928Q51.2784 10.5928 50.2417 9.52124Q49.2051 8.44971 49.2051 6.56982ZM4.75932 2.58447L1.85355 2.58447L1.85355 10.4585L4.84525 10.4585Q5.72611 10.4585 6.25248 10.292Q6.95609 10.0664 7.36967 9.66357Q7.91752 9.13184 8.21293 8.27246Q8.45463 7.56885 8.45463 6.59668Q8.45463 5.49023 8.19682 4.7356Q7.939 3.98096 7.44486 3.45996Q6.95072 2.93896 6.25785 2.73486Q5.74223 2.58447 4.75932 2.58447ZM9.80277 2.58447L9.80277 10.4585L15.7915 10.4585L15.7915 9.13184L11.3926 9.13184L11.3926 6.98877L15.3457 6.98877L15.3457 5.66211L11.3926 5.66211L11.3926 3.9165L15.6412 3.9165L15.6412 2.58447L9.80277 2.58447ZM17.1451 10.4585L17.1451 2.58447L18.7349 2.58447L18.7349 5.68359L21.8501 5.68359L21.8501 2.58447L23.44 2.58447L23.44 10.4585L21.8501 10.4585L21.8501 7.01562L18.7349 7.01562L18.7349 10.4585L17.1451 10.4585ZM26.6626 2.58447L25.0728 2.58447L25.0728 6.78467Q25.0728 8.10596 25.2286 8.78271Q25.336 9.23926 25.6744 9.65552Q26.0127 10.0718 26.5955 10.3323Q27.1783 10.5928 28.3062 10.5928Q29.2408 10.5928 29.8208 10.3538Q30.4009 10.1147 30.7474 9.71191Q31.0938 9.30908 31.2227 8.72363Q31.3516 8.13818 31.3516 6.72021L31.3516 2.58447L29.7618 2.58447L29.7618 6.94043Q29.7618 7.875 29.6919 8.27783Q29.6221 8.68066 29.2784 8.95728Q28.9346 9.23389 28.2579 9.23389Q27.5918 9.23389 27.2078 8.94116Q26.8238 8.64844 26.7217 8.16504Q26.6626 7.86426 26.6626 6.84912L26.6626 2.58447ZM46.9546 10.4585L48.6841 10.4585L45.5313 2.58447L43.8501 2.58447L40.7832 10.4585L42.4698 10.4585L43.1197 8.66992L46.2671 8.66992L46.9546 10.4585ZM58.0996 2.58447L58.0996 10.4585L59.5767 10.4585L59.5767 5.32373L62.751 10.4585L64.3462 10.4585L64.3462 2.58447L62.8692 2.58447L62.8692 7.84277L59.6465 2.58447L58.0996 2.58447ZM50.8433 6.51611Q50.8433 7.85352 51.461 8.5437Q52.0787 9.23389 53.0293 9.23389Q53.98 9.23389 54.5896 8.54907Q55.1993 7.86426 55.1993 6.49463Q55.1993 5.14111 54.6058 4.4751Q54.0122 3.80908 53.0293 3.80908Q52.0464 3.80908 51.4449 4.48315Q50.8433 5.15723 50.8433 6.51611ZM3.4434 9.13184L3.4434 3.9165L4.15775 3.9165Q5.12992 3.9165 5.46293 3.9917Q5.90873 4.08838 6.19877 4.3623Q6.48881 4.63623 6.64994 5.125Q6.81107 5.61377 6.81107 6.52686Q6.81107 7.43994 6.64994 7.96899Q6.48881 8.49805 6.23368 8.729Q5.97855 8.95996 5.59184 9.05664Q5.29642 9.13184 4.63041 9.13184L3.4434 9.13184ZM44.6719 4.42139L45.7569 7.34326L43.6084 7.34326L44.6719 4.42139Z" />
      </g>
    </g>
  </g>
</svg>