<?xml version="1.0" encoding="utf-8"?>
<svg width="64px" height="29px" viewBox="0 0 64 29" version="1.1" xmlns:xlink="http://www.w3.org/1999/xlink" xmlns="http://www.w3.org/2000/svg">
  <defs>
    <filter filterUnits="userSpaceOnUse" color-interpolation-filters="sRGB" id="filter_1">
      <feFlood flood-opacity="0" result="BackgroundImageFix" />
      <feColorMatrix in="SourceAlpha" type="matrix" values="0 0 0 0 0 0 0 0 0 0 0 0 0 0 0 0 0 0 127 0" />
      <feOffset dx="0" dy="2" />
      <feGaussianBlur stdDeviation="2" />
      <feColorMatrix type="matrix" values="0 0 0 0 0.39215687 0 0 0 0 0.39215687 0 0 0 0 0.39215687 0 0 0 0.49803922 0" />
      <feBlend mode="normal" in2="BackgroundImageFix" result="effect0_dropShadow" />
      <feBlend mode="normal" in="SourceGraphic" in2="effect0_dropShadow" result="shape" />
    </filter>
    <path d="M7.499 0L42.501 0Q42.6851 0 42.869 0.00903287Q43.0528 0.0180657 43.236 0.0361097Q43.4192 0.0541537 43.6013 0.0811653Q43.7834 0.108177 43.964 0.144091Q44.1445 0.180005 44.3231 0.224736Q44.5017 0.269466 44.6778 0.322904Q44.854 0.376343 45.0273 0.438361Q45.2007 0.500379 45.3707 0.570827Q45.5408 0.641275 45.7072 0.719984Q45.8736 0.798693 46.036 0.885472Q46.1983 0.972252 46.3562 1.06689Q46.5141 1.16153 46.6672 1.26381Q46.8203 1.36608 46.9681 1.47575Q47.116 1.58541 47.2583 1.70219Q47.4006 1.81898 47.537 1.94261Q47.6734 2.06623 47.8036 2.19641Q47.9338 2.32658 48.0574 2.46298Q48.181 2.59938 48.2978 2.74168Q48.4146 2.88399 48.5242 3.03185Q48.6339 3.17971 48.7362 3.33278Q48.8385 3.48584 48.9331 3.64374Q49.0277 3.80164 49.1145 3.964Q49.2013 4.12635 49.28 4.29276Q49.3587 4.45918 49.4292 4.62926Q49.4996 4.79933 49.5616 4.97266Q49.6236 5.14599 49.6771 5.32216Q49.7305 5.49832 49.7753 5.67689Q49.82 5.85546 49.8559 6.03602Q49.8918 6.21657 49.9188 6.39867Q49.9458 6.58077 49.9639 6.76397Q49.9819 6.94717 49.991 7.13104Q50 7.31491 50 7.499L50 7.501Q50 7.68509 49.991 7.86896Q49.9819 8.05283 49.9639 8.23603Q49.9458 8.41923 49.9188 8.60133Q49.8918 8.78343 49.8559 8.96398Q49.82 9.14453 49.7753 9.32311Q49.7305 9.50168 49.6771 9.67784Q49.6236 9.85401 49.5616 10.0273Q49.4996 10.2007 49.4292 10.3707Q49.3587 10.5408 49.28 10.7072Q49.2013 10.8737 49.1145 11.036Q49.0277 11.1984 48.9331 11.3563Q48.8385 11.5142 48.7362 11.6672Q48.6339 11.8203 48.5242 11.9681Q48.4146 12.116 48.2978 12.2583Q48.181 12.4006 48.0574 12.537Q47.9338 12.6734 47.8036 12.8036Q47.6734 12.9338 47.537 13.0574Q47.4006 13.181 47.2583 13.2978Q47.116 13.4146 46.9681 13.5243Q46.8203 13.6339 46.6672 13.7362Q46.5141 13.8385 46.3562 13.9331Q46.1984 14.0277 46.036 14.1145Q45.8736 14.2013 45.7072 14.28Q45.5408 14.3587 45.3707 14.4292Q45.2007 14.4996 45.0273 14.5616Q44.854 14.6237 44.6778 14.6771Q44.5017 14.7305 44.3231 14.7753Q44.1445 14.82 43.964 14.8559Q43.7834 14.8918 43.6013 14.9188Q43.4192 14.9458 43.236 14.9639Q43.0528 14.9819 42.869 14.991Q42.6851 15 42.501 15L7.499 15Q7.31491 15 7.13104 14.991Q6.94717 14.9819 6.76397 14.9639Q6.58077 14.9458 6.39867 14.9188Q6.21657 14.8918 6.03602 14.8559Q5.85546 14.82 5.67689 14.7753Q5.49832 14.7305 5.32216 14.6771Q5.14599 14.6237 4.97266 14.5616Q4.79933 14.4996 4.62926 14.4292Q4.45918 14.3587 4.29276 14.28Q4.12635 14.2013 3.964 14.1145Q3.80164 14.0277 3.64374 13.9331Q3.48584 13.8385 3.33278 13.7362Q3.17971 13.6339 3.03185 13.5243Q2.88399 13.4146 2.74168 13.2978Q2.59938 13.181 2.46298 13.0574Q2.32658 12.9338 2.19641 12.8036Q2.06623 12.6734 1.94261 12.537Q1.81898 12.4006 1.70219 12.2583Q1.58541 12.116 1.47575 11.9681Q1.36608 11.8203 1.26381 11.6672Q1.16153 11.5142 1.06689 11.3563Q0.972252 11.1984 0.885472 11.036Q0.798693 10.8737 0.719984 10.7072Q0.641275 10.5408 0.570827 10.3707Q0.500379 10.2007 0.438361 10.0273Q0.376343 9.85401 0.322904 9.67784Q0.269466 9.50168 0.224736 9.32311Q0.180005 9.14453 0.144091 8.96398Q0.108177 8.78343 0.0811653 8.60133Q0.0541537 8.41923 0.0361097 8.23603Q0.0180657 8.05283 0.00903287 7.86896Q0 7.68509 0 7.501L0 7.499Q0 7.31491 0.00903287 7.13104Q0.0180657 6.94717 0.0361097 6.76397Q0.0541537 6.58077 0.0811653 6.39867Q0.108177 6.21657 0.144091 6.03602Q0.180005 5.85546 0.224736 5.67689Q0.269466 5.49832 0.322904 5.32216Q0.376343 5.14599 0.438361 4.97266Q0.500379 4.79933 0.570827 4.62926Q0.641275 4.45918 0.719984 4.29276Q0.798693 4.12635 0.885472 3.964Q0.972252 3.80164 1.06689 3.64374Q1.16153 3.48584 1.26381 3.33278Q1.36608 3.17971 1.47575 3.03185Q1.58541 2.88399 1.70219 2.74168Q1.81898 2.59938 1.94261 2.46298Q2.06623 2.32658 2.19641 2.19641Q2.32658 2.06623 2.46298 1.94261Q2.59938 1.81898 2.74168 1.70219Q2.88399 1.58541 3.03185 1.47575Q3.17971 1.36608 3.33278 1.26381Q3.48584 1.16153 3.64374 1.06689Q3.80164 0.972252 3.964 0.885472Q4.12635 0.798693 4.29276 0.719984Q4.45918 0.641275 4.62926 0.570827Q4.79933 0.500379 4.97266 0.438361Q5.14599 0.376343 5.32216 0.322904Q5.49832 0.269466 5.67689 0.224736Q5.85546 0.180005 6.03602 0.144091Q6.21657 0.108177 6.39867 0.0811653Q6.58077 0.0541537 6.76397 0.0361097Q6.94717 0.0180657 7.13104 0.00903287Q7.31491 0 7.499 0L7.499 0Z" id="path_1" />
  </defs>
  <g filter="url(#filter_1)">
    <g id="13.-Location---MOSHI" transform="translate(7 5)">
      <g id="Rectangle">
        <use xlink:href="#path_1" fill="none" stroke="#2888E5" stroke-width="2" />
        <use stroke="none" fill="#FFFFFF" xlink:href="#path_1" fill-rule="evenodd" />
      </g>
      <g id="MOSHI" fill="#000000" fill-opacity="0.6392157" transform="translate(2.9033203 0.94705963)">
        <path d="M13.3522 6.56982Q13.3522 5.3667 13.712 4.55029Q13.9806 3.94873 14.4452 3.4707Q14.9098 2.99268 15.463 2.76172Q16.1988 2.4502 17.1603 2.4502Q18.9005 2.4502 19.9452 3.52979Q20.9899 4.60938 20.9899 6.53223Q20.9899 8.43896 19.9532 9.51587Q18.9166 10.5928 17.1818 10.5928Q15.4254 10.5928 14.3888 9.52124Q13.3522 8.44971 13.3522 6.56982ZM23.3746 7.74609L21.8278 7.89648Q21.9835 9.21777 22.7838 9.90796Q23.5841 10.5981 25.0773 10.5981Q26.1031 10.5981 26.7906 10.3108Q27.4781 10.0234 27.8541 9.43262Q28.2301 8.8418 28.2301 8.16504Q28.2301 7.41846 27.9159 6.91089Q27.6017 6.40332 27.0458 6.1106Q26.4899 5.81787 25.3297 5.54395Q24.1695 5.27002 23.8688 5.01758Q23.6324 4.81885 23.6324 4.53955Q23.6324 4.2334 23.8849 4.05078Q24.277 3.76611 24.9698 3.76611Q25.6412 3.76611 25.9769 4.03198Q26.3126 4.29785 26.4147 4.90479L28.0045 4.83496Q27.9669 3.75 27.2176 3.1001Q26.4684 2.4502 24.986 2.4502Q24.0782 2.4502 23.4364 2.72412Q22.7945 2.99805 22.4535 3.52173Q22.1124 4.04541 22.1124 4.64697Q22.1124 5.58154 22.8375 6.23145Q23.3531 6.69336 24.6315 7.01025Q25.6251 7.25732 25.9044 7.354Q26.3126 7.49902 26.4764 7.69507Q26.6403 7.89111 26.6403 8.17041Q26.6403 8.60547 26.2508 8.93042Q25.8614 9.25537 25.0934 9.25537Q24.3683 9.25537 23.9413 8.89014Q23.5143 8.5249 23.3746 7.74609ZM4.48986 10.4585L4.48986 2.58447L6.86926 2.58447L8.29797 7.95557L9.71057 2.58447L12.0953 2.58447L12.0953 10.4585L10.6183 10.4585L10.6183 4.26025L9.05529 10.4585L7.52453 10.4585L5.96691 4.26025L5.96691 10.4585L4.48986 10.4585ZM29.5729 10.4585L29.5729 2.58447L31.1627 2.58447L31.1627 5.68359L34.2779 5.68359L34.2779 2.58447L35.8678 2.58447L35.8678 10.4585L34.2779 10.4585L34.2779 7.01562L31.1627 7.01562L31.1627 10.4585L29.5729 10.4585ZM37.463 2.58447L37.463 10.4585L39.0528 10.4585L39.0528 2.58447L37.463 2.58447ZM14.9904 6.51611Q14.9904 7.85352 15.608 8.5437Q16.2257 9.23389 17.1764 9.23389Q18.1271 9.23389 18.7367 8.54907Q19.3463 7.86426 19.3463 6.49463Q19.3463 5.14111 18.7528 4.4751Q18.1593 3.80908 17.1764 3.80908Q16.1935 3.80908 15.5919 4.48315Q14.9904 5.15723 14.9904 6.51611Z" />
      </g>
    </g>
  </g>
</svg>