<svg xmlns="http://www.w3.org/2000/svg" width="3750" viewBox="0 0 3750 1875" height="1875" version="1.0"><defs><clipPath id="a"><path d="M 737 1114 L 814 1114 L 814 1147.511719 L 737 1147.511719 Z M 737 1114"/></clipPath><clipPath id="b"><path d="M 690.449219 859 L 859.949219 859 L 859.949219 1128 L 690.449219 1128 Z M 690.449219 859"/></clipPath></defs><path fill="#004AAD" d="M 543.25 772.101562 L 2010.375 772.101562 L 2010.375 1251.503906 L 543.25 1251.503906 L 543.25 772.101562"/><path fill="#77838D" d="M 543.25 1254.050781 L 540.703125 1254.050781 L 540.703125 769.550781 L 2012.921875 769.550781 L 2012.921875 1254.050781 L 543.25 1254.050781 M 545.796875 774.648438 L 545.796875 1248.957031 L 2007.828125 1248.957031 L 2007.828125 774.648438 L 545.796875 774.648438"/><path fill="#FFF" d="M 596.722656 826.105469 L 1956.390625 826.105469 L 1956.390625 1198.011719 L 596.722656 1198.011719 L 596.722656 826.105469"/><g clip-path="url(#a)"><path fill="#F9A72B" d="M 813.519531 1130.980469 C 813.519531 1139.929688 796.554688 1147.179688 775.628906 1147.179688 C 754.703125 1147.179688 737.738281 1139.929688 737.738281 1130.980469 C 737.738281 1122.039062 754.703125 1114.785156 775.628906 1114.785156 C 796.554688 1114.785156 813.519531 1122.039062 813.519531 1130.980469"/></g><path fill="#FCD24F" d="M 812.746094 1127.0625 C 812.746094 1136.007812 795.957031 1143.257812 775.242188 1143.257812 C 754.53125 1143.257812 737.738281 1136.007812 737.738281 1127.0625 C 737.738281 1118.113281 754.53125 1110.863281 775.242188 1110.863281 C 795.957031 1110.863281 812.746094 1118.113281 812.746094 1127.0625"/><g clip-path="url(#b)"><path fill="#E33924" d="M 776.6875 859.09375 C 776.1875 859.09375 775.695312 859.125 775.199219 859.136719 C 774.703125 859.125 774.207031 859.09375 773.710938 859.09375 C 727.707031 859.09375 690.410156 898.011719 690.410156 946.011719 C 690.410156 954.203125 693.585938 973.140625 698.351562 981 L 775.199219 1127.0625 L 852.046875 981 C 856.8125 973.140625 859.984375 954.203125 859.984375 946.011719 C 859.984375 898.011719 822.695312 859.09375 776.6875 859.09375"/></g><path fill="#FFF" d="M 821.203125 936.324219 C 821.203125 961.757812 800.605469 982.367188 775.199219 982.367188 C 749.792969 982.367188 729.191406 961.757812 729.191406 936.324219 C 729.191406 910.894531 749.792969 890.285156 775.199219 890.285156 C 800.605469 890.285156 821.203125 910.894531 821.203125 936.324219"/><g><g><g><path d="M 77.640625 0 L 48.4375 -102.828125 L 47.5625 -102.828125 C 48.925781 -85.316406 49.609375 -71.710938 49.609375 -62.015625 L 49.609375 0 L 15.4375 0 L 15.4375 -142.78125 L 66.796875 -142.78125 L 96.578125 -41.40625 L 97.359375 -41.40625 L 126.5625 -142.78125 L 178.03125 -142.78125 L 178.03125 0 L 142.578125 0 L 142.578125 -62.59375 C 142.578125 -65.851562 142.625 -69.46875 142.71875 -73.4375 C 142.820312 -77.40625 143.265625 -87.140625 144.046875 -102.640625 L 143.171875 -102.640625 L 114.359375 0 Z M 77.640625 0" transform="translate(1070.526 1080.617)"/></g></g><g><g><path d="M 149.03125 -71.578125 C 149.03125 -47.554688 143.132812 -29.296875 131.34375 -16.796875 C 119.5625 -4.296875 102.3125 1.953125 79.59375 1.953125 C 57.195312 1.953125 40.023438 -4.328125 28.078125 -16.890625 C 16.128906 -29.460938 10.15625 -47.757812 10.15625 -71.78125 C 10.15625 -95.539062 16.09375 -113.6875 27.96875 -126.21875 C 39.851562 -138.75 57.125 -145.015625 79.78125 -145.015625 C 102.507812 -145.015625 119.734375 -138.796875 131.453125 -126.359375 C 143.171875 -113.929688 149.03125 -95.671875 149.03125 -71.578125 Z M 50.78125 -71.578125 C 50.78125 -43.972656 60.382812 -30.171875 79.59375 -30.171875 C 89.351562 -30.171875 96.59375 -33.523438 101.3125 -40.234375 C 106.039062 -46.941406 108.40625 -57.390625 108.40625 -71.578125 C 108.40625 -85.835938 106.007812 -96.367188 101.21875 -103.171875 C 96.4375 -109.972656 89.289062 -113.375 79.78125 -113.375 C 60.445312 -113.375 50.78125 -99.441406 50.78125 -71.578125 Z M 50.78125 -71.578125" transform="translate(1263.88 1080.617)"/></g></g><g><g><path d="M 108.796875 -43.359375 C 108.796875 -34.503906 106.546875 -26.640625 102.046875 -19.765625 C 97.554688 -12.898438 91.078125 -7.5625 82.609375 -3.75 C 74.148438 0.0507812 64.222656 1.953125 52.828125 1.953125 C 43.328125 1.953125 35.351562 1.285156 28.90625 -0.046875 C 22.457031 -1.378906 15.753906 -3.707031 8.796875 -7.03125 L 8.796875 -41.40625 C 16.148438 -37.632812 23.796875 -34.6875 31.734375 -32.5625 C 39.679688 -30.445312 46.972656 -29.390625 53.609375 -29.390625 C 59.335938 -29.390625 63.535156 -30.382812 66.203125 -32.375 C 68.878906 -34.363281 70.21875 -36.921875 70.21875 -40.046875 C 70.21875 -41.992188 69.679688 -43.695312 68.609375 -45.15625 C 67.535156 -46.625 65.804688 -48.109375 63.421875 -49.609375 C 61.046875 -51.109375 54.71875 -54.171875 44.4375 -58.796875 C 35.125 -63.023438 28.140625 -67.125 23.484375 -71.09375 C 18.828125 -75.0625 15.375 -79.617188 13.125 -84.765625 C 10.882812 -89.910156 9.765625 -96 9.765625 -103.03125 C 9.765625 -116.175781 14.550781 -126.425781 24.125 -133.78125 C 33.695312 -141.144531 46.847656 -144.828125 63.578125 -144.828125 C 78.359375 -144.828125 93.429688 -141.410156 108.796875 -134.578125 L 96.96875 -104.78125 C 83.625 -110.90625 72.101562 -113.96875 62.40625 -113.96875 C 57.394531 -113.96875 53.75 -113.085938 51.46875 -111.328125 C 49.1875 -109.566406 48.046875 -107.382812 48.046875 -104.78125 C 48.046875 -101.988281 49.492188 -99.484375 52.390625 -97.265625 C 55.285156 -95.054688 63.148438 -91.019531 75.984375 -85.15625 C 88.285156 -79.625 96.828125 -73.679688 101.609375 -67.328125 C 106.398438 -60.984375 108.796875 -52.992188 108.796875 -43.359375 Z M 108.796875 -43.359375" transform="translate(1423.251 1080.617)"/></g></g><g><g><path d="M 137.796875 0 L 99.03125 0 L 99.03125 -58.203125 L 54.203125 -58.203125 L 54.203125 0 L 15.4375 0 L 15.4375 -142.78125 L 54.203125 -142.78125 L 54.203125 -89.84375 L 99.03125 -89.84375 L 99.03125 -142.78125 L 137.796875 -142.78125 Z M 137.796875 0" transform="translate(1538.678 1080.617)"/></g></g><g><g><path d="M 15.4375 0 L 15.4375 -142.78125 L 54.203125 -142.78125 L 54.203125 0 Z M 15.4375 0" transform="translate(1691.897 1080.617)"/></g></g></g></svg>