<svg xmlns="http://www.w3.org/2000/svg" width="3750" viewBox="0 0 3750 1875" height="1875" version="1.0"><defs><clipPath id="a"><path d="M 737 1114 L 814 1114 L 814 1147.511719 L 737 1147.511719 Z M 737 1114"/></clipPath><clipPath id="b"><path d="M 690.449219 859 L 859.949219 859 L 859.949219 1128 L 690.449219 1128 Z M 690.449219 859"/></clipPath></defs><path fill="#004AAD" d="M 543.25 772.097656 L 2010.375 772.097656 L 2010.375 1251.5 L 543.25 1251.5 L 543.25 772.097656"/><path fill="#77838D" d="M 543.25 1254.046875 L 540.703125 1254.046875 L 540.703125 769.546875 L 2012.921875 769.546875 L 2012.921875 1254.046875 L 543.25 1254.046875 M 545.796875 774.644531 L 545.796875 1248.953125 L 2007.828125 1248.953125 L 2007.828125 774.644531 L 545.796875 774.644531"/><path fill="#FFF" d="M 596.722656 826.101562 L 1956.390625 826.101562 L 1956.390625 1198.007812 L 596.722656 1198.007812 L 596.722656 826.101562"/><g clip-path="url(#a)"><path fill="#F9A72B" d="M 813.519531 1130.980469 C 813.519531 1139.925781 796.554688 1147.175781 775.628906 1147.175781 C 754.703125 1147.175781 737.738281 1139.925781 737.738281 1130.980469 C 737.738281 1122.039062 754.703125 1114.78125 775.628906 1114.78125 C 796.554688 1114.78125 813.519531 1122.039062 813.519531 1130.980469"/></g><path fill="#FCD24F" d="M 812.746094 1127.058594 C 812.746094 1136.007812 795.957031 1143.257812 775.242188 1143.257812 C 754.53125 1143.257812 737.738281 1136.007812 737.738281 1127.058594 C 737.738281 1118.113281 754.53125 1110.859375 775.242188 1110.859375 C 795.957031 1110.859375 812.746094 1118.113281 812.746094 1127.058594"/><g clip-path="url(#b)"><path fill="#E33924" d="M 776.6875 859.09375 C 776.1875 859.09375 775.695312 859.125 775.199219 859.136719 C 774.703125 859.125 774.207031 859.09375 773.710938 859.09375 C 727.707031 859.09375 690.410156 898.007812 690.410156 946.007812 C 690.410156 954.199219 693.585938 973.140625 698.351562 980.996094 L 775.199219 1127.058594 L 852.046875 980.996094 C 856.8125 973.140625 859.984375 954.199219 859.984375 946.007812 C 859.984375 898.007812 822.695312 859.09375 776.6875 859.09375"/></g><path fill="#FFF" d="M 821.203125 936.324219 C 821.203125 961.753906 800.605469 982.367188 775.199219 982.367188 C 749.792969 982.367188 729.191406 961.753906 729.191406 936.324219 C 729.191406 910.894531 749.792969 890.28125 775.199219 890.28125 C 800.605469 890.28125 821.203125 910.894531 821.203125 936.324219"/><g><g><g><path d="M 151.375 0 L 100.78125 0 L 48.640625 -100.59375 L 47.75 -100.59375 C 48.988281 -84.769531 49.609375 -72.691406 49.609375 -64.359375 L 49.609375 0 L 15.4375 0 L 15.4375 -142.78125 L 65.828125 -142.78125 L 117.78125 -43.5625 L 118.359375 -43.5625 C 117.453125 -57.945312 117 -69.5 117 -78.21875 L 117 -142.78125 L 151.375 -142.78125 Z M 151.375 0" transform="translate(1128.645 1080.615)"/></g></g><g><g><path d="M 15.4375 0 L 15.4375 -142.78125 L 54.203125 -142.78125 L 54.203125 0 Z M 15.4375 0" transform="translate(1295.438 1080.615)"/></g></g><g><g><path d="M 72.75 -83.59375 L 134.375 -83.59375 L 134.375 -6.640625 C 117.644531 -0.910156 99.253906 1.953125 79.203125 1.953125 C 57.191406 1.953125 40.179688 -4.425781 28.171875 -17.1875 C 16.160156 -29.945312 10.15625 -48.144531 10.15625 -71.78125 C 10.15625 -94.820312 16.726562 -112.753906 29.875 -125.578125 C 43.03125 -138.410156 61.457031 -144.828125 85.15625 -144.828125 C 94.144531 -144.828125 102.625 -143.976562 110.59375 -142.28125 C 118.570312 -140.59375 125.523438 -138.445312 131.453125 -135.84375 L 119.234375 -105.5625 C 108.953125 -110.644531 97.660156 -113.1875 85.359375 -113.1875 C 74.085938 -113.1875 65.375 -109.523438 59.21875 -102.203125 C 53.070312 -94.878906 50 -84.410156 50 -70.796875 C 50 -57.453125 52.78125 -47.28125 58.34375 -40.28125 C 63.914062 -33.28125 71.941406 -29.78125 82.421875 -29.78125 C 88.148438 -29.78125 93.425781 -30.335938 98.25 -31.453125 L 98.25 -53.8125 L 72.75 -53.8125 Z M 72.75 -83.59375" transform="translate(1365.065 1080.615)"/></g></g><g><g><path d="M 136.625 -74.421875 C 136.625 -50.585938 130.0625 -32.222656 116.9375 -19.328125 C 103.820312 -6.441406 85.382812 0 61.625 0 L 15.4375 0 L 15.4375 -142.78125 L 64.84375 -142.78125 C 87.757812 -142.78125 105.453125 -136.921875 117.921875 -125.203125 C 130.390625 -113.484375 136.625 -96.554688 136.625 -74.421875 Z M 96.578125 -73.046875 C 96.578125 -86.128906 93.988281 -95.828125 88.8125 -102.140625 C 83.644531 -108.460938 75.785156 -111.625 65.234375 -111.625 L 54 -111.625 L 54 -31.640625 L 62.59375 -31.640625 C 74.3125 -31.640625 82.90625 -35.039062 88.375 -41.84375 C 93.84375 -48.644531 96.578125 -59.046875 96.578125 -73.046875 Z M 96.578125 -73.046875" transform="translate(1513.108 1080.615)"/></g></g><g><g><path d="M 15.4375 0 L 15.4375 -142.78125 L 54.203125 -142.78125 L 54.203125 0 Z M 15.4375 0" transform="translate(1659.882 1080.615)"/></g></g></g></svg>