<?xml version="1.0" encoding="utf-8"?>
<svg width="55px" height="29px" viewBox="0 0 55 29" version="1.1" xmlns:xlink="http://www.w3.org/1999/xlink" xmlns="http://www.w3.org/2000/svg">
  <defs>
    <filter filterUnits="userSpaceOnUse" color-interpolation-filters="sRGB" id="filter_1">
      <feFlood flood-opacity="0" result="BackgroundImageFix" />
      <feColorMatrix in="SourceAlpha" type="matrix" values="0 0 0 0 0 0 0 0 0 0 0 0 0 0 0 0 0 0 127 0" />
      <feOffset dx="0" dy="2" />
      <feGaussianBlur stdDeviation="2" />
      <feColorMatrix type="matrix" values="0 0 0 0 0.39215687 0 0 0 0 0.39215687 0 0 0 0 0.39215687 0 0 0 0.49803922 0" />
      <feBlend mode="normal" in2="BackgroundImageFix" result="effect0_dropShadow" />
      <feBlend mode="normal" in="SourceGraphic" in2="effect0_dropShadow" result="shape" />
    </filter>
    <path d="M7.499 0L33.501 0Q33.6851 0 33.869 0.00903287Q34.0528 0.0180657 34.236 0.0361097Q34.4192 0.0541537 34.6013 0.0811653Q34.7834 0.108177 34.964 0.144091Q35.1445 0.180005 35.3231 0.224736Q35.5017 0.269466 35.6778 0.322904Q35.854 0.376343 36.0273 0.438361Q36.2007 0.500379 36.3707 0.570827Q36.5408 0.641275 36.7072 0.719984Q36.8736 0.798693 37.036 0.885472Q37.1984 0.972252 37.3563 1.06689Q37.5142 1.16153 37.6672 1.26381Q37.8203 1.36608 37.9681 1.47575Q38.116 1.58541 38.2583 1.70219Q38.4006 1.81898 38.537 1.94261Q38.6734 2.06623 38.8036 2.19641Q38.9338 2.32658 39.0574 2.46298Q39.181 2.59938 39.2978 2.74168Q39.4146 2.88399 39.5242 3.03185Q39.6339 3.17971 39.7362 3.33278Q39.8385 3.48584 39.9331 3.64374Q40.0277 3.80164 40.1145 3.964Q40.2013 4.12635 40.28 4.29276Q40.3587 4.45918 40.4292 4.62926Q40.4996 4.79933 40.5616 4.97266Q40.6237 5.14599 40.6771 5.32216Q40.7305 5.49832 40.7753 5.67689Q40.82 5.85546 40.8559 6.03602Q40.8918 6.21657 40.9188 6.39867Q40.9458 6.58077 40.9639 6.76397Q40.9819 6.94717 40.991 7.13104Q41 7.31491 41 7.499L41 7.501Q41 7.68509 40.991 7.86896Q40.9819 8.05283 40.9639 8.23603Q40.9458 8.41923 40.9188 8.60133Q40.8918 8.78343 40.8559 8.96398Q40.82 9.14453 40.7753 9.32311Q40.7305 9.50168 40.6771 9.67784Q40.6237 9.85401 40.5616 10.0273Q40.4996 10.2007 40.4292 10.3707Q40.3587 10.5408 40.28 10.7072Q40.2013 10.8737 40.1145 11.036Q40.0277 11.1984 39.9331 11.3563Q39.8385 11.5142 39.7362 11.6672Q39.6339 11.8203 39.5243 11.9681Q39.4146 12.116 39.2978 12.2583Q39.181 12.4006 39.0574 12.537Q38.9338 12.6734 38.8036 12.8036Q38.6734 12.9338 38.537 13.0574Q38.4006 13.181 38.2583 13.2978Q38.116 13.4146 37.9681 13.5243Q37.8203 13.6339 37.6672 13.7362Q37.5142 13.8385 37.3563 13.9331Q37.1984 14.0277 37.036 14.1145Q36.8736 14.2013 36.7072 14.28Q36.5408 14.3587 36.3707 14.4292Q36.2007 14.4996 36.0273 14.5616Q35.854 14.6237 35.6778 14.6771Q35.5017 14.7305 35.3231 14.7753Q35.1445 14.82 34.964 14.8559Q34.7834 14.8918 34.6013 14.9188Q34.4192 14.9458 34.236 14.9639Q34.0528 14.9819 33.869 14.991Q33.6851 15 33.501 15L7.499 15Q7.31491 15 7.13104 14.991Q6.94717 14.9819 6.76397 14.9639Q6.58077 14.9458 6.39867 14.9188Q6.21657 14.8918 6.03602 14.8559Q5.85546 14.82 5.67689 14.7753Q5.49832 14.7305 5.32216 14.6771Q5.14599 14.6237 4.97266 14.5616Q4.79933 14.4996 4.62926 14.4292Q4.45918 14.3587 4.29276 14.28Q4.12635 14.2013 3.964 14.1145Q3.80164 14.0277 3.64374 13.9331Q3.48584 13.8385 3.33278 13.7362Q3.17971 13.6339 3.03185 13.5243Q2.88399 13.4146 2.74168 13.2978Q2.59938 13.181 2.46298 13.0574Q2.32658 12.9338 2.19641 12.8036Q2.06623 12.6734 1.94261 12.537Q1.81898 12.4006 1.70219 12.2583Q1.58541 12.116 1.47575 11.9681Q1.36608 11.8203 1.26381 11.6672Q1.16153 11.5142 1.06689 11.3563Q0.972252 11.1984 0.885472 11.036Q0.798693 10.8737 0.719984 10.7072Q0.641275 10.5408 0.570827 10.3707Q0.500379 10.2007 0.438361 10.0273Q0.376343 9.85401 0.322904 9.67784Q0.269466 9.50168 0.224736 9.32311Q0.180005 9.14453 0.144091 8.96398Q0.108177 8.78343 0.0811653 8.60133Q0.0541537 8.41923 0.0361097 8.23603Q0.0180657 8.05283 0.00903287 7.86896Q0 7.68509 0 7.501L0 7.499Q0 7.31491 0.00903287 7.13104Q0.0180657 6.94717 0.0361097 6.76397Q0.0541537 6.58077 0.0811653 6.39867Q0.108177 6.21657 0.144091 6.03602Q0.180005 5.85546 0.224736 5.67689Q0.269466 5.49832 0.322904 5.32216Q0.376343 5.14599 0.438361 4.97266Q0.500379 4.79933 0.570827 4.62926Q0.641275 4.45918 0.719984 4.29276Q0.798693 4.12635 0.885472 3.964Q0.972252 3.80164 1.06689 3.64374Q1.16153 3.48584 1.26381 3.33278Q1.36608 3.17971 1.47575 3.03185Q1.58541 2.88399 1.70219 2.74168Q1.81898 2.59938 1.94261 2.46298Q2.06623 2.32658 2.19641 2.19641Q2.32658 2.06623 2.46298 1.94261Q2.59938 1.81898 2.74168 1.70219Q2.88399 1.58541 3.03185 1.47575Q3.17971 1.36608 3.33278 1.26381Q3.48584 1.16153 3.64374 1.06689Q3.80164 0.972252 3.964 0.885472Q4.12635 0.798693 4.29276 0.719984Q4.45918 0.641275 4.62926 0.570827Q4.79933 0.500379 4.97266 0.438361Q5.14599 0.376343 5.32216 0.322904Q5.49832 0.269466 5.67689 0.224736Q5.85546 0.180005 6.03602 0.144091Q6.21657 0.108177 6.39867 0.0811653Q6.58077 0.0541537 6.76397 0.0361097Q6.94717 0.0180657 7.13104 0.00903287Q7.31491 0 7.499 0L7.499 0Z" id="path_1" />
  </defs>
  <g filter="url(#filter_1)">
    <g id="13.-Location---NIGDI" transform="translate(7 5)">
      <g id="Rectangle">
        <use xlink:href="#path_1" fill="none" stroke="#2888E5" stroke-width="2" />
        <use stroke="none" fill="#FFFFFF" xlink:href="#path_1" fill-rule="evenodd" />
      </g>
      <g id="NIGDI" fill="#000000" fill-opacity="0.6392157" transform="translate(4.5283203 0.947052)">
        <path d="M15.4634 6.23682L15.4634 7.56348L17.2842 7.56348L17.2842 8.5625Q16.9243 8.8418 16.4221 9.03784Q15.9199 9.23389 15.4204 9.23389Q14.4106 9.23389 13.7876 8.53296Q13.1646 7.83203 13.1646 6.43018Q13.1646 5.13037 13.7795 4.46973Q14.3945 3.80908 15.4365 3.80908Q16.124 3.80908 16.5833 4.14478Q17.0425 4.48047 17.209 5.06055L18.7881 4.76514Q18.5518 3.68018 17.7273 3.06519Q16.9028 2.4502 15.4365 2.4502Q14.3086 2.4502 13.5513 2.84229Q12.5576 3.35254 12.042 4.30859Q11.5264 5.26465 11.5264 6.49463Q11.5264 7.62793 11.9883 8.59204Q12.4502 9.55615 13.3687 10.0745Q14.2871 10.5928 15.5225 10.5928Q16.4946 10.5928 17.4426 10.2249Q18.3906 9.85693 18.8901 9.37354L18.8901 6.23682L15.4634 6.23682ZM0.816406 10.4585L0.816406 2.58447L2.36328 2.58447L5.58594 7.84277L5.58594 2.58447L7.06299 2.58447L7.06299 10.4585L5.46777 10.4585L2.29346 5.32373L2.29346 10.4585L0.816406 10.4585ZM8.6958 10.4585L8.6958 2.58447L10.2856 2.58447L10.2856 10.4585L8.6958 10.4585ZM20.3511 2.58447L23.2568 2.58447Q24.2397 2.58447 24.7554 2.73486Q25.4482 2.93896 25.9424 3.45996Q26.4365 3.98096 26.6943 4.7356Q26.9521 5.49023 26.9521 6.59668Q26.9521 7.56885 26.7104 8.27246Q26.415 9.13184 25.8672 9.66357Q25.4536 10.0664 24.75 10.292Q24.2236 10.4585 23.3428 10.4585L20.3511 10.4585L20.3511 2.58447ZM28.252 2.58447L28.252 10.4585L29.8418 10.4585L29.8418 2.58447L28.252 2.58447ZM21.9409 3.9165L21.9409 9.13184L23.1279 9.13184Q23.7939 9.13184 24.0894 9.05664Q24.4761 8.95996 24.7312 8.729Q24.9863 8.49805 25.1475 7.96899Q25.3086 7.43994 25.3086 6.52686Q25.3086 5.61377 25.1475 5.125Q24.9863 4.63623 24.6963 4.3623Q24.4062 4.08838 23.9604 3.9917Q23.6274 3.9165 22.6553 3.9165L21.9409 3.9165Z" />
      </g>
    </g>
  </g>
</svg>