<svg xmlns="http://www.w3.org/2000/svg" width="3750" viewBox="0 0 3750 1875" height="1875" version="1.0"><defs><clipPath id="a"><path d="M 737 1100 L 814 1100 L 814 1132.796875 L 737 1132.796875 Z M 737 1100"/></clipPath><clipPath id="b"><path d="M 690.449219 844.046875 L 859.949219 844.046875 L 859.949219 1113 L 690.449219 1113 Z M 690.449219 844.046875"/></clipPath></defs><path fill="#004AAD" d="M 543.496094 725.386719 L 2153.378906 725.386719 L 2153.378906 1250.804688 L 543.496094 1250.804688 L 543.496094 725.386719"/><path fill="#77838D" d="M 543.496094 1253.59375 L 540.699219 1253.59375 L 540.699219 722.59375 L 2156.171875 722.59375 L 2156.171875 1253.59375 L 543.496094 1253.59375 M 546.289062 728.179688 L 546.289062 1248.011719 L 2150.585938 1248.011719 L 2150.585938 728.179688 L 546.289062 728.179688"/><path fill="#FFF" d="M 602.171875 784.574219 L 2094.144531 784.574219 L 2094.144531 1192.175781 L 602.171875 1192.175781 L 602.171875 784.574219"/><g clip-path="url(#a)"><path fill="#F9A72B" d="M 813.519531 1116.265625 C 813.519531 1125.214844 796.554688 1132.464844 775.628906 1132.464844 C 754.703125 1132.464844 737.738281 1125.214844 737.738281 1116.265625 C 737.738281 1107.324219 754.703125 1100.066406 775.628906 1100.066406 C 796.554688 1100.066406 813.519531 1107.324219 813.519531 1116.265625"/></g><path fill="#FCD24F" d="M 812.746094 1112.347656 C 812.746094 1121.292969 795.957031 1128.542969 775.242188 1128.542969 C 754.53125 1128.542969 737.738281 1121.292969 737.738281 1112.347656 C 737.738281 1103.398438 754.53125 1096.148438 775.242188 1096.148438 C 795.957031 1096.148438 812.746094 1103.398438 812.746094 1112.347656"/><g clip-path="url(#b)"><path fill="#E33924" d="M 776.6875 844.378906 C 776.1875 844.378906 775.695312 844.410156 775.199219 844.421875 C 774.703125 844.410156 774.207031 844.378906 773.710938 844.378906 C 727.707031 844.378906 690.410156 883.296875 690.410156 931.296875 C 690.410156 939.488281 693.585938 958.425781 698.351562 966.285156 L 775.199219 1112.347656 L 852.046875 966.285156 C 856.8125 958.425781 859.984375 939.488281 859.984375 931.296875 C 859.984375 883.296875 822.695312 844.378906 776.6875 844.378906"/></g><path fill="#FFF" d="M 821.203125 921.609375 C 821.203125 947.042969 800.605469 967.652344 775.199219 967.652344 C 749.792969 967.652344 729.191406 947.042969 729.191406 921.609375 C 729.191406 896.179688 749.792969 875.570312 775.199219 875.570312 C 800.605469 875.570312 821.203125 896.179688 821.203125 921.609375"/><g><g><g><path d="M 97.515625 -79.765625 C 97.515625 -66.691406 93.660156 -56.59375 85.953125 -49.46875 C 78.253906 -42.351562 67.3125 -38.796875 53.125 -38.796875 L 44.234375 -38.796875 L 44.234375 0 L 12.640625 0 L 12.640625 -116.96875 L 53.125 -116.96875 C 67.894531 -116.96875 78.984375 -113.738281 86.390625 -107.28125 C 93.804688 -100.832031 97.515625 -91.660156 97.515625 -79.765625 Z M 44.234375 -64.5625 L 50 -64.5625 C 54.75 -64.5625 58.519531 -65.894531 61.3125 -68.5625 C 64.113281 -71.226562 65.515625 -74.910156 65.515625 -79.609375 C 65.515625 -87.492188 61.144531 -91.4375 52.40625 -91.4375 L 44.234375 -91.4375 Z M 44.234375 -64.5625" transform="translate(1222.635 955.273)"/></g></g></g><g><g><g><path d="M 112.078125 -116.96875 L 112.078125 -46.5625 C 112.078125 -31.25 107.742188 -19.394531 99.078125 -11 C 90.410156 -2.601562 77.914062 1.59375 61.59375 1.59375 C 45.65625 1.59375 33.40625 -2.484375 24.84375 -10.640625 C 16.28125 -18.796875 12 -30.53125 12 -45.84375 L 12 -116.96875 L 43.765625 -116.96875 L 43.765625 -48.328125 C 43.765625 -40.054688 45.3125 -34.050781 48.40625 -30.3125 C 51.5 -26.582031 56.054688 -24.71875 62.078125 -24.71875 C 68.535156 -24.71875 73.21875 -26.570312 76.125 -30.28125 C 79.03125 -33.988281 80.484375 -40.054688 80.484375 -48.484375 L 80.484375 -116.96875 Z M 112.078125 -116.96875" transform="translate(1326.155 955.273)"/></g></g></g><g><g><g><path d="M 124 0 L 82.5625 0 L 39.84375 -82.40625 L 39.125 -82.40625 C 40.132812 -69.445312 40.640625 -59.550781 40.640625 -52.71875 L 40.640625 0 L 12.640625 0 L 12.640625 -116.96875 L 53.921875 -116.96875 L 96.484375 -35.6875 L 96.96875 -35.6875 C 96.21875 -47.46875 95.84375 -56.929688 95.84375 -64.078125 L 95.84375 -116.96875 L 124 -116.96875 Z M 124 0" transform="translate(1450.155 955.273)"/></g></g></g><g><g><g><path d="M 82.078125 0 L 12.640625 0 L 12.640625 -116.96875 L 82.078125 -116.96875 L 82.078125 -91.609375 L 44.234375 -91.609375 L 44.234375 -73.203125 L 79.28125 -73.203125 L 79.28125 -47.84375 L 44.234375 -47.84375 L 44.234375 -25.765625 L 82.078125 -25.765625 Z M 82.078125 0" transform="translate(1586.795 955.273)"/></g></g></g><g><g><g><path d="M 84.40625 0 L 78.640625 -21.921875 L 40.640625 -21.921875 L 34.71875 0 L 0 0 L 38.15625 -117.4375 L 80.328125 -117.4375 L 118.96875 0 Z M 72.078125 -47.84375 L 67.046875 -67.046875 C 65.867188 -71.304688 64.4375 -76.820312 62.75 -83.59375 C 61.070312 -90.375 59.96875 -95.226562 59.4375 -98.15625 C 58.957031 -95.4375 58.007812 -90.957031 56.59375 -84.71875 C 55.1875 -78.476562 52.054688 -66.1875 47.203125 -47.84375 Z M 72.078125 -47.84375" transform="translate(1106.631 1148.023)"/></g></g></g><g><g><g><path d="M 12.640625 0 L 12.640625 -116.96875 L 44.40625 -116.96875 L 44.40625 0 Z M 12.640625 0" transform="translate(1225.591 1148.023)"/></g></g></g><g><g><g><path d="M 44.234375 -42.5625 L 44.234375 0 L 12.640625 0 L 12.640625 -116.96875 L 50.96875 -116.96875 C 82.75 -116.96875 98.640625 -105.445312 98.640625 -82.40625 C 98.640625 -68.851562 92.023438 -58.375 78.796875 -50.96875 L 112.875 0 L 77.046875 0 L 52.234375 -42.5625 Z M 44.234375 -66.328125 L 50.15625 -66.328125 C 61.195312 -66.328125 66.71875 -71.207031 66.71875 -80.96875 C 66.71875 -89.019531 61.304688 -93.046875 50.484375 -93.046875 L 44.234375 -93.046875 Z M 44.234375 -66.328125" transform="translate(1282.631 1148.023)"/></g></g></g><g><g><g><path d="M 97.515625 -79.765625 C 97.515625 -66.691406 93.660156 -56.59375 85.953125 -49.46875 C 78.253906 -42.351562 67.3125 -38.796875 53.125 -38.796875 L 44.234375 -38.796875 L 44.234375 0 L 12.640625 0 L 12.640625 -116.96875 L 53.125 -116.96875 C 67.894531 -116.96875 78.984375 -113.738281 86.390625 -107.28125 C 93.804688 -100.832031 97.515625 -91.660156 97.515625 -79.765625 Z M 44.234375 -64.5625 L 50 -64.5625 C 54.75 -64.5625 58.519531 -65.894531 61.3125 -68.5625 C 64.113281 -71.226562 65.515625 -74.910156 65.515625 -79.609375 C 65.515625 -87.492188 61.144531 -91.4375 52.40625 -91.4375 L 44.234375 -91.4375 Z M 44.234375 -64.5625" transform="translate(1393.511 1148.023)"/></g></g></g><g><g><g><path d="M 122.078125 -58.640625 C 122.078125 -38.960938 117.25 -24.003906 107.59375 -13.765625 C 97.945312 -3.523438 83.816406 1.59375 65.203125 1.59375 C 46.859375 1.59375 32.789062 -3.550781 23 -13.84375 C 13.207031 -24.132812 8.3125 -39.117188 8.3125 -58.796875 C 8.3125 -78.265625 13.175781 -93.128906 22.90625 -103.390625 C 32.644531 -113.660156 46.796875 -118.796875 65.359375 -118.796875 C 83.972656 -118.796875 98.078125 -113.703125 107.671875 -103.515625 C 117.273438 -93.328125 122.078125 -78.367188 122.078125 -58.640625 Z M 41.59375 -58.640625 C 41.59375 -36.023438 49.460938 -24.71875 65.203125 -24.71875 C 73.203125 -24.71875 79.132812 -27.460938 83 -32.953125 C 86.863281 -38.453125 88.796875 -47.015625 88.796875 -58.640625 C 88.796875 -70.316406 86.835938 -78.941406 82.921875 -84.515625 C 79.003906 -90.085938 73.148438 -92.875 65.359375 -92.875 C 49.515625 -92.875 41.59375 -81.460938 41.59375 -58.640625 Z M 41.59375 -58.640625" transform="translate(1497.03 1148.023)"/></g></g></g><g><g><g><path d="M 44.234375 -42.5625 L 44.234375 0 L 12.640625 0 L 12.640625 -116.96875 L 50.96875 -116.96875 C 82.75 -116.96875 98.640625 -105.445312 98.640625 -82.40625 C 98.640625 -68.851562 92.023438 -58.375 78.796875 -50.96875 L 112.875 0 L 77.046875 0 L 52.234375 -42.5625 Z M 44.234375 -66.328125 L 50.15625 -66.328125 C 61.195312 -66.328125 66.71875 -71.207031 66.71875 -80.96875 C 66.71875 -89.019531 61.304688 -93.046875 50.484375 -93.046875 L 44.234375 -93.046875 Z M 44.234375 -66.328125" transform="translate(1627.59 1148.023)"/></g></g></g><g><g><g><path d="M 64.234375 0 L 32.640625 0 L 32.640625 -91.125 L 4.078125 -91.125 L 4.078125 -116.96875 L 92.71875 -116.96875 L 92.71875 -91.125 L 64.234375 -91.125 Z M 64.234375 0" transform="translate(1738.47 1148.023)"/></g></g></g></svg>