<?xml version="1.0" encoding="utf-8"?>
<svg width="113px" height="29px" viewBox="0 0 113 29" version="1.1" xmlns:xlink="http://www.w3.org/1999/xlink" xmlns="http://www.w3.org/2000/svg">
  <defs>
    <filter filterUnits="userSpaceOnUse" color-interpolation-filters="sRGB" id="filter_1">
      <feFlood flood-opacity="0" result="BackgroundImageFix" />
      <feColorMatrix in="SourceAlpha" type="matrix" values="0 0 0 0 0 0 0 0 0 0 0 0 0 0 0 0 0 0 127 0" />
      <feOffset dx="0" dy="2" />
      <feGaussianBlur stdDeviation="2" />
      <feColorMatrix type="matrix" values="0 0 0 0 0.39215687 0 0 0 0 0.39215687 0 0 0 0 0.39215687 0 0 0 0.49803922 0" />
      <feBlend mode="normal" in2="BackgroundImageFix" result="effect0_dropShadow" />
      <feBlend mode="normal" in="SourceGraphic" in2="effect0_dropShadow" result="shape" />
    </filter>
    <path d="M7.499 0L91.501 0Q91.6851 0 91.869 0.00903287Q92.0528 0.0180657 92.236 0.0361097Q92.4192 0.0541537 92.6013 0.0811653Q92.7834 0.108177 92.964 0.144091Q93.1445 0.180005 93.3231 0.224736Q93.5017 0.269466 93.6778 0.322904Q93.854 0.376343 94.0273 0.438361Q94.2007 0.500379 94.3707 0.570827Q94.5408 0.641275 94.7072 0.719984Q94.8736 0.798693 95.036 0.885472Q95.1984 0.972252 95.3562 1.06689Q95.5141 1.16153 95.6672 1.26381Q95.8203 1.36608 95.9681 1.47575Q96.116 1.58541 96.2583 1.70219Q96.4006 1.81898 96.537 1.94261Q96.6734 2.06623 96.8036 2.19641Q96.9338 2.32658 97.0574 2.46298Q97.181 2.59938 97.2978 2.74168Q97.4146 2.88399 97.5242 3.03185Q97.6339 3.17971 97.7362 3.33278Q97.8385 3.48584 97.9331 3.64374Q98.0277 3.80164 98.1145 3.964Q98.2013 4.12635 98.28 4.29276Q98.3587 4.45918 98.4292 4.62926Q98.4996 4.79933 98.5616 4.97266Q98.6236 5.14599 98.6771 5.32216Q98.7305 5.49832 98.7753 5.67689Q98.82 5.85546 98.8559 6.03602Q98.8918 6.21657 98.9188 6.39867Q98.9458 6.58077 98.9639 6.76397Q98.9819 6.94717 98.991 7.13104Q99 7.31491 99 7.499L99 7.501Q99 7.68509 98.991 7.86896Q98.9819 8.05283 98.9639 8.23603Q98.9458 8.41923 98.9188 8.60133Q98.8918 8.78343 98.8559 8.96398Q98.82 9.14453 98.7753 9.32311Q98.7305 9.50168 98.6771 9.67784Q98.6236 9.85401 98.5616 10.0273Q98.4996 10.2007 98.4292 10.3707Q98.3587 10.5408 98.28 10.7072Q98.2013 10.8737 98.1145 11.036Q98.0277 11.1984 97.9331 11.3563Q97.8385 11.5142 97.7362 11.6672Q97.6339 11.8203 97.5242 11.9681Q97.4146 12.116 97.2978 12.2583Q97.181 12.4006 97.0574 12.537Q96.9338 12.6734 96.8036 12.8036Q96.6734 12.9338 96.537 13.0574Q96.4006 13.181 96.2583 13.2978Q96.116 13.4146 95.9681 13.5243Q95.8203 13.6339 95.6672 13.7362Q95.5141 13.8385 95.3562 13.9331Q95.1984 14.0277 95.036 14.1145Q94.8736 14.2013 94.7072 14.28Q94.5408 14.3587 94.3707 14.4292Q94.2007 14.4996 94.0273 14.5616Q93.854 14.6237 93.6778 14.6771Q93.5017 14.7305 93.3231 14.7753Q93.1445 14.82 92.964 14.8559Q92.7834 14.8918 92.6013 14.9188Q92.4192 14.9458 92.236 14.9639Q92.0528 14.9819 91.869 14.991Q91.6851 15 91.501 15L7.499 15Q7.31491 15 7.13104 14.991Q6.94717 14.9819 6.76397 14.9639Q6.58077 14.9458 6.39867 14.9188Q6.21657 14.8918 6.03602 14.8559Q5.85546 14.82 5.67689 14.7753Q5.49832 14.7305 5.32216 14.6771Q5.14599 14.6237 4.97266 14.5616Q4.79933 14.4996 4.62926 14.4292Q4.45918 14.3587 4.29276 14.28Q4.12635 14.2013 3.964 14.1145Q3.80164 14.0277 3.64374 13.9331Q3.48584 13.8385 3.33278 13.7362Q3.17971 13.6339 3.03185 13.5243Q2.88399 13.4146 2.74168 13.2978Q2.59938 13.181 2.46298 13.0574Q2.32658 12.9338 2.19641 12.8036Q2.06623 12.6734 1.94261 12.537Q1.81898 12.4006 1.70219 12.2583Q1.58541 12.116 1.47575 11.9681Q1.36608 11.8203 1.26381 11.6672Q1.16153 11.5142 1.06689 11.3563Q0.972252 11.1984 0.885472 11.036Q0.798693 10.8737 0.719984 10.7072Q0.641275 10.5408 0.570827 10.3707Q0.500379 10.2007 0.438361 10.0273Q0.376343 9.85401 0.322904 9.67784Q0.269466 9.50168 0.224736 9.32311Q0.180005 9.14453 0.144091 8.96398Q0.108177 8.78343 0.0811653 8.60133Q0.0541537 8.41923 0.0361097 8.23603Q0.0180657 8.05283 0.00903287 7.86896Q0 7.68509 0 7.501L0 7.499Q0 7.31491 0.00903287 7.13104Q0.0180657 6.94717 0.0361097 6.76397Q0.0541537 6.58077 0.0811653 6.39867Q0.108177 6.21657 0.144091 6.03602Q0.180005 5.85546 0.224736 5.67689Q0.269466 5.49832 0.322904 5.32216Q0.376343 5.14599 0.438361 4.97266Q0.500379 4.79933 0.570827 4.62926Q0.641275 4.45918 0.719984 4.29276Q0.798693 4.12635 0.885472 3.964Q0.972252 3.80164 1.06689 3.64374Q1.16153 3.48584 1.26381 3.33278Q1.36608 3.17971 1.47575 3.03185Q1.58541 2.88399 1.70219 2.74168Q1.81898 2.59938 1.94261 2.46298Q2.06623 2.32658 2.19641 2.19641Q2.32658 2.06623 2.46298 1.94261Q2.59938 1.81898 2.74168 1.70219Q2.88399 1.58541 3.03185 1.47575Q3.17971 1.36608 3.33278 1.26381Q3.48584 1.16153 3.64374 1.06689Q3.80164 0.972252 3.964 0.885472Q4.12635 0.798693 4.29276 0.719984Q4.45918 0.641275 4.62926 0.570827Q4.79933 0.500379 4.97266 0.438361Q5.14599 0.376343 5.32216 0.322904Q5.49832 0.269466 5.67689 0.224736Q5.85546 0.180005 6.03602 0.144091Q6.21657 0.108177 6.39867 0.0811653Q6.58077 0.0541537 6.76397 0.0361097Q6.94717 0.0180657 7.13104 0.00903287Q7.31491 0 7.499 0L7.499 0Z" id="path_1" />
  </defs>
  <g filter="url(#filter_1)">
    <g id="13.-Location---PUNE-AIRPORT" transform="translate(7 5)">
      <g id="Rectangle">
        <use xlink:href="#path_1" fill="none" stroke="#2888E5" stroke-width="2" />
        <use stroke="none" fill="#FFFFFF" xlink:href="#path_1" fill-rule="evenodd" />
      </g>
      <g id="PUNE-AIRPORT" fill="#000000" fill-opacity="0.6392157" transform="translate(7.9592285 0.94705963)">
        <path d="M60.7575 4.55029Q60.3976 5.3667 60.3976 6.56982Q60.3976 8.44971 61.4342 9.52124Q62.4709 10.5928 64.2272 10.5928Q65.9621 10.5928 66.9987 9.51587Q68.0353 8.43896 68.0353 6.53223Q68.0353 4.60938 66.9906 3.52979Q65.946 2.4502 64.2057 2.4502Q63.2443 2.4502 62.5085 2.76172Q61.9552 2.99268 61.4906 3.4707Q61.026 3.94873 60.7575 4.55029ZM0.821453 10.4585L0.821453 2.58447L3.37272 2.58447Q4.82292 2.58447 5.26335 2.70264Q5.94011 2.87988 6.39665 3.47339Q6.85319 4.06689 6.85319 5.00684Q6.85319 5.73193 6.59001 6.22607Q6.32682 6.72021 5.92131 7.0022Q5.51579 7.28418 5.09684 7.37549Q4.52751 7.48828 3.44792 7.48828L2.4113 7.48828L2.4113 10.4585L0.821453 10.4585ZM8.14762 2.58447L9.73747 2.58447L9.73747 6.84912Q9.73747 7.86426 9.79655 8.16504Q9.8986 8.64844 10.2826 8.94116Q10.6667 9.23389 11.3327 9.23389Q12.0094 9.23389 12.3532 8.95728Q12.6969 8.68066 12.7668 8.27783Q12.8366 7.875 12.8366 6.94043L12.8366 2.58447L14.4264 2.58447L14.4264 6.72021Q14.4264 8.13818 14.2975 8.72363Q14.1686 9.30908 13.8222 9.71191Q13.4757 10.1147 12.8957 10.3538Q12.3156 10.5928 11.381 10.5928Q10.2531 10.5928 9.67033 10.3323Q9.08757 10.0718 8.74919 9.65552Q8.41081 9.23926 8.30339 8.78271Q8.14762 8.10596 8.14762 6.78467L8.14762 2.58447ZM16.1183 2.58447L16.1183 10.4585L17.5954 10.4585L17.5954 5.32373L20.7697 10.4585L22.3649 10.4585L22.3649 2.58447L20.8879 2.58447L20.8879 7.84277L17.6652 2.58447L16.1183 2.58447ZM24.0461 10.4585L24.0461 2.58447L29.8844 2.58447L29.8844 3.9165L25.6359 3.9165L25.6359 5.66211L29.589 5.66211L29.589 6.98877L25.6359 6.98877L25.6359 9.13184L30.0348 9.13184L30.0348 10.4585L24.0461 10.4585ZM39.8102 10.4585L41.5397 10.4585L38.3869 2.58447L36.7057 2.58447L33.6388 10.4585L35.3254 10.4585L35.9753 8.66992L39.1227 8.66992L39.8102 10.4585ZM42.3346 10.4585L42.3346 2.58447L43.9245 2.58447L43.9245 10.4585L42.3346 10.4585ZM45.4445 2.58447L45.4445 10.4585L47.0343 10.4585L47.0343 7.17139L47.3566 7.17139Q47.9045 7.17139 48.1569 7.26001Q48.4093 7.34863 48.6349 7.58765Q48.8605 7.82666 49.4728 8.74512L50.6222 10.4585L52.5236 10.4585L51.5622 8.92236Q50.9928 8.00391 50.6571 7.64404Q50.3215 7.28418 49.8058 6.9834Q50.8424 6.83301 51.3634 6.25562Q51.8844 5.67822 51.8844 4.79199Q51.8844 4.09375 51.5407 3.55127Q51.1969 3.00879 50.6249 2.79663Q50.0529 2.58447 48.7907 2.58447L45.4445 2.58447ZM53.383 10.4585L53.383 2.58447L55.9342 2.58447Q57.3844 2.58447 57.8249 2.70264Q58.5016 2.87988 58.9582 3.47339Q59.4147 4.06689 59.4147 5.00684Q59.4147 5.73193 59.1515 6.22607Q58.8883 6.72021 58.4828 7.0022Q58.0773 7.28418 57.6584 7.37549Q57.089 7.48828 56.0094 7.48828L54.9728 7.48828L54.9728 10.4585L53.383 10.4585ZM69.2814 10.4585L69.2814 2.58447L72.6276 2.58447Q73.8898 2.58447 74.4618 2.79663Q75.0339 3.00879 75.3776 3.55127Q75.7214 4.09375 75.7214 4.79199Q75.7214 5.67822 75.2004 6.25562Q74.6794 6.83301 73.6427 6.9834Q74.1584 7.28418 74.4941 7.64404Q74.8298 8.00391 75.3991 8.92236L76.3605 10.4585L74.4592 10.4585L73.3097 8.74512Q72.6974 7.82666 72.4718 7.58765Q72.2463 7.34863 71.9938 7.26001Q71.7414 7.17139 71.1935 7.17139L70.8713 7.17139L70.8713 10.4585L69.2814 10.4585ZM78.9924 3.9165L78.9924 10.4585L80.5822 10.4585L80.5822 3.9165L82.9133 3.9165L82.9133 2.58447L76.6559 2.58447L76.6559 3.9165L78.9924 3.9165ZM62.6535 8.5437Q62.0358 7.85352 62.0358 6.51611Q62.0358 5.15723 62.6374 4.48315Q63.2389 3.80908 64.2218 3.80908Q65.2048 3.80908 65.7983 4.4751Q66.3918 5.14111 66.3918 6.49463Q66.3918 7.86426 65.7822 8.54907Q65.1725 9.23389 64.2218 9.23389Q63.2712 9.23389 62.6535 8.5437ZM2.4113 3.9165L2.4113 6.15088L3.28141 6.15088Q4.22136 6.15088 4.53825 6.02734Q4.85514 5.90381 5.03508 5.64062Q5.21501 5.37744 5.21501 5.02832Q5.21501 4.59863 4.96257 4.31934Q4.71012 4.04004 4.32341 3.97021Q4.03874 3.9165 3.17936 3.9165L2.4113 3.9165ZM48.2106 5.91455L47.0343 5.91455L47.0343 3.9165L48.2751 3.9165Q49.2419 3.9165 49.4352 3.94336Q49.8219 4.00781 50.0341 4.2522Q50.2463 4.49658 50.2463 4.89404Q50.2463 5.24854 50.0851 5.48486Q49.924 5.72119 49.6393 5.81787Q49.3547 5.91455 48.2106 5.91455ZM54.9728 3.9165L54.9728 6.15088L55.8429 6.15088Q56.7829 6.15088 57.0998 6.02734Q57.4167 5.90381 57.5966 5.64062Q57.7765 5.37744 57.7765 5.02832Q57.7765 4.59863 57.5241 4.31934Q57.2716 4.04004 56.8849 3.97021Q56.6003 3.9165 55.7409 3.9165L54.9728 3.9165ZM70.8713 5.91455L72.0475 5.91455Q73.1916 5.91455 73.4762 5.81787Q73.7609 5.72119 73.922 5.48486Q74.0832 5.24854 74.0832 4.89404Q74.0832 4.49658 73.871 4.2522Q73.6589 4.00781 73.2721 3.94336Q73.0788 3.9165 72.112 3.9165L70.8713 3.9165L70.8713 5.91455ZM37.5275 4.42139L38.6125 7.34326L36.464 7.34326L37.5275 4.42139Z" />
      </g>
    </g>
  </g>
</svg>