<svg xmlns="http://www.w3.org/2000/svg" width="3750" viewBox="0 0 3750 1875" height="1875" version="1.0"><defs><clipPath id="a"><path d="M 737 1114 L 814 1114 L 814 1147.511719 L 737 1147.511719 Z M 737 1114"/></clipPath><clipPath id="b"><path d="M 690.449219 859 L 859.949219 859 L 859.949219 1128 L 690.449219 1128 Z M 690.449219 859"/></clipPath></defs><path fill="#004AAD" d="M 543.496094 725.382812 L 2153.378906 725.382812 L 2153.378906 1250.800781 L 543.496094 1250.800781 L 543.496094 725.382812"/><path fill="#77838D" d="M 543.496094 1253.589844 L 540.699219 1253.589844 L 540.699219 722.589844 L 2156.171875 722.589844 L 2156.171875 1253.589844 L 543.496094 1253.589844 M 546.289062 728.175781 L 546.289062 1248.007812 L 2150.585938 1248.007812 L 2150.585938 728.175781 L 546.289062 728.175781"/><path fill="#FFF" d="M 602.171875 784.570312 L 2094.144531 784.570312 L 2094.144531 1192.171875 L 602.171875 1192.171875 L 602.171875 784.570312"/><g clip-path="url(#a)"><path fill="#F9A72B" d="M 813.519531 1130.980469 C 813.519531 1139.925781 796.554688 1147.175781 775.628906 1147.175781 C 754.703125 1147.175781 737.738281 1139.925781 737.738281 1130.980469 C 737.738281 1122.039062 754.703125 1114.78125 775.628906 1114.78125 C 796.554688 1114.78125 813.519531 1122.039062 813.519531 1130.980469"/></g><path fill="#FCD24F" d="M 812.746094 1127.058594 C 812.746094 1136.007812 795.957031 1143.257812 775.242188 1143.257812 C 754.53125 1143.257812 737.738281 1136.007812 737.738281 1127.058594 C 737.738281 1118.113281 754.53125 1110.859375 775.242188 1110.859375 C 795.957031 1110.859375 812.746094 1118.113281 812.746094 1127.058594"/><g clip-path="url(#b)"><path fill="#E33924" d="M 776.6875 859.09375 C 776.1875 859.09375 775.695312 859.125 775.199219 859.136719 C 774.703125 859.125 774.207031 859.09375 773.710938 859.09375 C 727.707031 859.09375 690.410156 898.007812 690.410156 946.007812 C 690.410156 954.199219 693.585938 973.140625 698.351562 980.996094 L 775.199219 1127.058594 L 852.046875 980.996094 C 856.8125 973.140625 859.984375 954.199219 859.984375 946.007812 C 859.984375 898.007812 822.695312 859.09375 776.6875 859.09375"/></g><path fill="#FFF" d="M 821.203125 936.324219 C 821.203125 961.753906 800.605469 982.367188 775.199219 982.367188 C 749.792969 982.367188 729.191406 961.753906 729.191406 936.324219 C 729.191406 910.894531 749.792969 890.28125 775.199219 890.28125 C 800.605469 890.28125 821.203125 910.894531 821.203125 936.324219"/><g><g><g><path d="M 64.40625 0 L 32.71875 0 L 32.71875 -91.359375 L 4.09375 -91.359375 L 4.09375 -117.265625 L 92.953125 -117.265625 L 92.953125 -91.359375 L 64.40625 -91.359375 Z M 64.40625 0" transform="translate(1003.329 955.275)"/></g></g></g><g><g><g><path d="M 84.625 0 L 78.84375 -21.984375 L 40.75 -21.984375 L 34.8125 0 L 0 0 L 38.265625 -117.75 L 80.53125 -117.75 L 119.265625 0 Z M 72.265625 -47.96875 L 67.21875 -67.21875 C 66.039062 -71.488281 64.609375 -77.019531 62.921875 -83.8125 C 61.234375 -90.601562 60.125 -95.472656 59.59375 -98.421875 C 59.113281 -95.691406 58.164062 -91.195312 56.75 -84.9375 C 55.332031 -78.6875 52.191406 -66.363281 47.328125 -47.96875 Z M 72.265625 -47.96875" transform="translate(1100.378 955.275)"/></g></g></g><g><g><g><path d="M 12.671875 0 L 12.671875 -117.265625 L 44.359375 -117.265625 L 44.359375 -25.59375 L 89.515625 -25.59375 L 89.515625 0 Z M 12.671875 0" transform="translate(1219.644 955.275)"/></g></g></g><g><g><g><path d="M 84.625 0 L 78.84375 -21.984375 L 40.75 -21.984375 L 34.8125 0 L 0 0 L 38.265625 -117.75 L 80.53125 -117.75 L 119.265625 0 Z M 72.265625 -47.96875 L 67.21875 -67.21875 C 66.039062 -71.488281 64.609375 -77.019531 62.921875 -83.8125 C 61.234375 -90.601562 60.125 -95.472656 59.59375 -98.421875 C 59.113281 -95.691406 58.164062 -91.195312 56.75 -84.9375 C 55.332031 -78.6875 52.191406 -66.363281 47.328125 -47.96875 Z M 72.265625 -47.96875" transform="translate(1315.25 955.275)"/></g></g></g><g><g><g><path d="M 139.328125 0 L 101.859375 0 L 90.640625 -51.09375 C 90.097656 -53.226562 89.253906 -57.476562 88.109375 -63.84375 C 86.960938 -70.207031 86.117188 -75.53125 85.578125 -79.8125 C 85.148438 -76.332031 84.453125 -72.007812 83.484375 -66.84375 C 82.523438 -61.6875 81.578125 -56.941406 80.640625 -52.609375 C 79.710938 -48.285156 75.828125 -30.75 68.984375 0 L 31.515625 0 L 2.484375 -117.265625 L 33.046875 -117.265625 L 45.796875 -58.46875 C 48.679688 -45.476562 50.660156 -35.132812 51.734375 -27.4375 C 52.429688 -32.882812 53.675781 -40.285156 55.46875 -49.640625 C 57.257812 -59.003906 58.929688 -66.757812 60.484375 -72.90625 L 70.828125 -117.265625 L 100.171875 -117.265625 L 110.203125 -72.90625 C 111.910156 -65.789062 113.644531 -57.582031 115.40625 -48.28125 C 117.175781 -38.976562 118.359375 -32.03125 118.953125 -27.4375 C 119.640625 -33.363281 121.535156 -43.65625 124.640625 -58.3125 L 137.640625 -117.265625 L 168.203125 -117.265625 Z M 139.328125 0" transform="translate(1434.516 955.275)"/></g></g></g><g><g><g><path d="M 84.625 0 L 78.84375 -21.984375 L 40.75 -21.984375 L 34.8125 0 L 0 0 L 38.265625 -117.75 L 80.53125 -117.75 L 119.265625 0 Z M 72.265625 -47.96875 L 67.21875 -67.21875 C 66.039062 -71.488281 64.609375 -77.019531 62.921875 -83.8125 C 61.234375 -90.601562 60.125 -95.472656 59.59375 -98.421875 C 59.113281 -95.691406 58.164062 -91.195312 56.75 -84.9375 C 55.332031 -78.6875 52.191406 -66.363281 47.328125 -47.96875 Z M 72.265625 -47.96875" transform="translate(1605.194 955.275)"/></g></g></g><g><g><g><path d="M 112.203125 -61.125 C 112.203125 -41.550781 106.816406 -26.46875 96.046875 -15.875 C 85.273438 -5.289062 70.128906 0 50.609375 0 L 12.671875 0 L 12.671875 -117.265625 L 53.265625 -117.265625 C 72.078125 -117.265625 86.601562 -112.453125 96.84375 -102.828125 C 107.082031 -93.203125 112.203125 -79.300781 112.203125 -61.125 Z M 79.328125 -60 C 79.328125 -70.75 77.203125 -78.710938 72.953125 -83.890625 C 68.703125 -89.078125 62.242188 -91.671875 53.578125 -91.671875 L 44.359375 -91.671875 L 44.359375 -25.984375 L 51.40625 -25.984375 C 61.03125 -25.984375 68.085938 -28.773438 72.578125 -34.359375 C 77.078125 -39.953125 79.328125 -48.5 79.328125 -60 Z M 79.328125 -60" transform="translate(1724.46 955.275)"/></g></g></g><g><g><g><path d="M 82.296875 0 L 12.671875 0 L 12.671875 -117.265625 L 82.296875 -117.265625 L 82.296875 -91.84375 L 44.359375 -91.84375 L 44.359375 -73.390625 L 79.484375 -73.390625 L 79.484375 -47.96875 L 44.359375 -47.96875 L 44.359375 -25.828125 L 82.296875 -25.828125 Z M 82.296875 0" transform="translate(1845.01 955.275)"/></g></g></g><g><g><g><path d="M 12.671875 0 L 12.671875 -117.265625 L 44.515625 -117.265625 L 44.515625 0 Z M 12.671875 0" transform="translate(1168.598 1148.775)"/></g></g></g><g><g><g><path d="M 64.40625 0 L 32.71875 0 L 32.71875 -91.359375 L 4.09375 -91.359375 L 4.09375 -117.265625 L 92.953125 -117.265625 L 92.953125 -91.359375 L 64.40625 -91.359375 Z M 64.40625 0" transform="translate(1225.785 1148.775)"/></g></g></g><g><g><g><path d="M 97.765625 -79.96875 C 97.765625 -66.863281 93.898438 -56.742188 86.171875 -49.609375 C 78.453125 -42.472656 67.484375 -38.90625 53.265625 -38.90625 L 44.359375 -38.90625 L 44.359375 0 L 12.671875 0 L 12.671875 -117.265625 L 53.265625 -117.265625 C 68.066406 -117.265625 79.179688 -114.03125 86.609375 -107.5625 C 94.046875 -101.09375 97.765625 -91.894531 97.765625 -79.96875 Z M 44.359375 -64.734375 L 50.125 -64.734375 C 54.882812 -64.734375 58.664062 -66.066406 61.46875 -68.734375 C 64.28125 -71.410156 65.6875 -75.101562 65.6875 -79.8125 C 65.6875 -87.71875 61.300781 -91.671875 52.53125 -91.671875 L 44.359375 -91.671875 Z M 44.359375 -64.734375" transform="translate(1365.504 1148.775)"/></g></g></g><g><g><g><path d="M 84.625 0 L 78.84375 -21.984375 L 40.75 -21.984375 L 34.8125 0 L 0 0 L 38.265625 -117.75 L 80.53125 -117.75 L 119.265625 0 Z M 72.265625 -47.96875 L 67.21875 -67.21875 C 66.039062 -71.488281 64.609375 -77.019531 62.921875 -83.8125 C 61.234375 -90.601562 60.125 -95.472656 59.59375 -98.421875 C 59.113281 -95.691406 58.164062 -91.195312 56.75 -84.9375 C 55.332031 -78.6875 52.191406 -66.363281 47.328125 -47.96875 Z M 72.265625 -47.96875" transform="translate(1469.29 1148.775)"/></g></g></g><g><g><g><path d="M 44.359375 -42.671875 L 44.359375 0 L 12.671875 0 L 12.671875 -117.265625 L 51.09375 -117.265625 C 82.957031 -117.265625 98.890625 -105.710938 98.890625 -82.609375 C 98.890625 -69.023438 92.257812 -58.519531 79 -51.09375 L 113.171875 0 L 77.234375 0 L 52.375 -42.671875 Z M 44.359375 -66.5 L 50.296875 -66.5 C 61.359375 -66.5 66.890625 -71.390625 66.890625 -81.171875 C 66.890625 -89.242188 61.460938 -93.28125 50.609375 -93.28125 L 44.359375 -93.28125 Z M 44.359375 -66.5" transform="translate(1588.557 1148.775)"/></g></g></g><g><g><g><path d="M 112.859375 0 L 77.078125 0 L 53.90625 -44.84375 L 44.515625 -39.21875 L 44.515625 0 L 12.671875 0 L 12.671875 -117.265625 L 44.515625 -117.265625 L 44.515625 -66.328125 C 46.117188 -69.484375 49.351562 -74.484375 54.21875 -81.328125 L 78.84375 -117.265625 L 113.5 -117.265625 L 76.515625 -64.734375 Z M 112.859375 0" transform="translate(1699.722 1148.775)"/></g></g></g></svg>