<?xml version="1.0" encoding="utf-8"?>
<svg width="134px" height="29px" viewBox="0 0 134 29" version="1.1" xmlns:xlink="http://www.w3.org/1999/xlink" xmlns="http://www.w3.org/2000/svg">
  <defs>
    <filter filterUnits="userSpaceOnUse" color-interpolation-filters="sRGB" id="filter_1">
      <feFlood flood-opacity="0" result="BackgroundImageFix" />
      <feColorMatrix in="SourceAlpha" type="matrix" values="0 0 0 0 0 0 0 0 0 0 0 0 0 0 0 0 0 0 127 0" />
      <feOffset dx="0" dy="2" />
      <feGaussianBlur stdDeviation="2" />
      <feColorMatrix type="matrix" values="0 0 0 0 0.39215687 0 0 0 0 0.39215687 0 0 0 0 0.39215687 0 0 0 0.49803922 0" />
      <feBlend mode="normal" in2="BackgroundImageFix" result="effect0_dropShadow" />
      <feBlend mode="normal" in="SourceGraphic" in2="effect0_dropShadow" result="shape" />
    </filter>
    <path d="M7.499 0L112.501 0Q112.685 0 112.869 0.00903287Q113.053 0.0180657 113.236 0.0361097Q113.419 0.0541537 113.601 0.0811653Q113.783 0.108177 113.964 0.144091Q114.145 0.180005 114.323 0.224736Q114.502 0.269466 114.678 0.322904Q114.854 0.376343 115.027 0.438361Q115.201 0.500379 115.371 0.570827Q115.541 0.641275 115.707 0.719984Q115.874 0.798693 116.036 0.885472Q116.198 0.972252 116.356 1.06689Q116.514 1.16153 116.667 1.26381Q116.82 1.36608 116.968 1.47575Q117.116 1.58541 117.258 1.70219Q117.401 1.81898 117.537 1.94261Q117.673 2.06623 117.804 2.19641Q117.934 2.32658 118.057 2.46298Q118.181 2.59938 118.298 2.74168Q118.415 2.88399 118.524 3.03185Q118.634 3.17971 118.736 3.33278Q118.838 3.48584 118.933 3.64374Q119.028 3.80164 119.115 3.964Q119.201 4.12635 119.28 4.29276Q119.359 4.45918 119.429 4.62926Q119.5 4.79933 119.562 4.97266Q119.624 5.14599 119.677 5.32216Q119.731 5.49832 119.775 5.67689Q119.82 5.85546 119.856 6.03602Q119.892 6.21657 119.919 6.39867Q119.946 6.58077 119.964 6.76397Q119.982 6.94717 119.991 7.13104Q120 7.31491 120 7.499L120 7.501Q120 7.68509 119.991 7.86896Q119.982 8.05283 119.964 8.23603Q119.946 8.41923 119.919 8.60133Q119.892 8.78343 119.856 8.96398Q119.82 9.14453 119.775 9.32311Q119.731 9.50168 119.677 9.67784Q119.624 9.85401 119.562 10.0273Q119.5 10.2007 119.429 10.3707Q119.359 10.5408 119.28 10.7072Q119.201 10.8737 119.115 11.036Q119.028 11.1984 118.933 11.3563Q118.838 11.5142 118.736 11.6672Q118.634 11.8203 118.524 11.9681Q118.415 12.116 118.298 12.2583Q118.181 12.4006 118.057 12.537Q117.934 12.6734 117.804 12.8036Q117.673 12.9338 117.537 13.0574Q117.401 13.181 117.258 13.2978Q117.116 13.4146 116.968 13.5243Q116.82 13.6339 116.667 13.7362Q116.514 13.8385 116.356 13.9331Q116.198 14.0277 116.036 14.1145Q115.874 14.2013 115.707 14.28Q115.541 14.3587 115.371 14.4292Q115.201 14.4996 115.027 14.5616Q114.854 14.6237 114.678 14.6771Q114.502 14.7305 114.323 14.7753Q114.145 14.82 113.964 14.8559Q113.783 14.8918 113.601 14.9188Q113.419 14.9458 113.236 14.9639Q113.053 14.9819 112.869 14.991Q112.685 15 112.501 15L7.499 15Q7.31491 15 7.13104 14.991Q6.94717 14.9819 6.76397 14.9639Q6.58077 14.9458 6.39867 14.9188Q6.21657 14.8918 6.03602 14.8559Q5.85546 14.82 5.67689 14.7753Q5.49832 14.7305 5.32216 14.6771Q5.14599 14.6237 4.97266 14.5616Q4.79933 14.4996 4.62926 14.4292Q4.45918 14.3587 4.29276 14.28Q4.12635 14.2013 3.964 14.1145Q3.80164 14.0277 3.64374 13.9331Q3.48584 13.8385 3.33278 13.7362Q3.17971 13.6339 3.03185 13.5243Q2.88399 13.4146 2.74168 13.2978Q2.59938 13.181 2.46298 13.0574Q2.32658 12.9338 2.19641 12.8036Q2.06623 12.6734 1.94261 12.537Q1.81898 12.4006 1.70219 12.2583Q1.58541 12.116 1.47575 11.9681Q1.36608 11.8203 1.26381 11.6672Q1.16153 11.5142 1.06689 11.3563Q0.972252 11.1984 0.885472 11.036Q0.798693 10.8737 0.719984 10.7072Q0.641275 10.5408 0.570827 10.3707Q0.500379 10.2007 0.438361 10.0273Q0.376343 9.85401 0.322904 9.67784Q0.269466 9.50168 0.224736 9.32311Q0.180005 9.14453 0.144091 8.96398Q0.108177 8.78343 0.0811653 8.60133Q0.0541537 8.41923 0.0361097 8.23603Q0.0180657 8.05283 0.00903287 7.86896Q0 7.68509 0 7.501L0 7.499Q0 7.31491 0.00903287 7.13104Q0.0180657 6.94717 0.0361097 6.76397Q0.0541537 6.58077 0.0811653 6.39867Q0.108177 6.21657 0.144091 6.03602Q0.180005 5.85546 0.224736 5.67689Q0.269466 5.49832 0.322904 5.32216Q0.376343 5.14599 0.438361 4.97266Q0.500379 4.79933 0.570827 4.62926Q0.641275 4.45918 0.719984 4.29276Q0.798693 4.12635 0.885472 3.964Q0.972252 3.80164 1.06689 3.64374Q1.16153 3.48584 1.26381 3.33278Q1.36608 3.17971 1.47575 3.03185Q1.58541 2.88399 1.70219 2.74168Q1.81898 2.59938 1.94261 2.46298Q2.06623 2.32658 2.19641 2.19641Q2.32658 2.06623 2.46298 1.94261Q2.59938 1.81898 2.74168 1.70219Q2.88399 1.58541 3.03185 1.47575Q3.17971 1.36608 3.33278 1.26381Q3.48584 1.16153 3.64374 1.06689Q3.80164 0.972252 3.964 0.885472Q4.12635 0.798693 4.29276 0.719984Q4.45918 0.641275 4.62926 0.570827Q4.79933 0.500379 4.97266 0.438361Q5.14599 0.376343 5.32216 0.322904Q5.49832 0.269466 5.67689 0.224736Q5.85546 0.180005 6.03602 0.144091Q6.21657 0.108177 6.39867 0.0811653Q6.58077 0.0541537 6.76397 0.0361097Q6.94717 0.0180657 7.13104 0.00903287Q7.31491 0 7.499 0L7.499 0Z" id="path_1" />
  </defs>
  <g filter="url(#filter_1)">
    <g id="13.-Location---TALAWADE-IT-PARK" transform="translate(7 5)">
      <g id="Rectangle">
        <use xlink:href="#path_1" fill="none" stroke="#2888E5" stroke-width="2" />
        <use stroke="none" fill="#FFFFFF" xlink:href="#path_1" fill-rule="evenodd" />
      </g>
      <g id="TALAWADE-IT-PARK" fill="#000000" fill-opacity="0.6392157" transform="translate(4.5283203 0.947052)">
        <path d="M2.57275 3.9165L2.57275 10.4585L4.1626 10.4585L4.1626 3.9165L6.49365 3.9165L6.49365 2.58447L0.236328 2.58447L0.236328 3.9165L2.57275 3.9165ZM12.8906 10.4585L14.6201 10.4585L11.4673 2.58447L9.78613 2.58447L6.71924 10.4585L8.40576 10.4585L9.05566 8.66992L12.2031 8.66992L12.8906 10.4585ZM27.5537 10.4585L29.2832 10.4585L26.1304 2.58447L24.4492 2.58447L21.3823 10.4585L23.0688 10.4585L23.7188 8.66992L26.8662 8.66992L27.5537 10.4585ZM31.2437 10.4585L29.3638 2.58447L30.9912 2.58447L32.1782 7.99316L33.6177 2.58447L35.5083 2.58447L36.8887 8.08447L38.0972 2.58447L39.6978 2.58447L37.7856 10.4585L36.0991 10.4585L34.5308 4.57178L32.9678 10.4585L31.2437 10.4585ZM45.8799 10.4585L47.6094 10.4585L44.4565 2.58447L42.7754 2.58447L39.7085 10.4585L41.395 10.4585L42.0449 8.66992L45.1924 8.66992L45.8799 10.4585ZM48.4473 2.58447L51.353 2.58447Q52.3359 2.58447 52.8516 2.73486Q53.5444 2.93896 54.0386 3.45996Q54.5327 3.98096 54.7905 4.7356Q55.0483 5.49023 55.0483 6.59668Q55.0483 7.56885 54.8066 8.27246Q54.5112 9.13184 53.9634 9.66357Q53.5498 10.0664 52.8462 10.292Q52.3198 10.4585 51.439 10.4585L48.4473 10.4585L48.4473 2.58447ZM56.3965 2.58447L56.3965 10.4585L62.3853 10.4585L62.3853 9.13184L57.9863 9.13184L57.9863 6.98877L61.9395 6.98877L61.9395 5.66211L57.9863 5.66211L57.9863 3.9165L62.2349 3.9165L62.2349 2.58447L56.3965 2.58447ZM66.7412 10.4585L66.7412 2.58447L68.3311 2.58447L68.3311 10.4585L66.7412 10.4585ZM71.6182 3.9165L71.6182 10.4585L73.208 10.4585L73.208 3.9165L75.5391 3.9165L75.5391 2.58447L69.2817 2.58447L69.2817 3.9165L71.6182 3.9165ZM79.6211 10.4585L79.6211 2.58447L82.1724 2.58447Q83.6226 2.58447 84.063 2.70264Q84.7397 2.87988 85.1963 3.47339Q85.6528 4.06689 85.6528 5.00684Q85.6528 5.73193 85.3896 6.22607Q85.1265 6.72021 84.7209 7.0022Q84.3154 7.28418 83.8965 7.37549Q83.3271 7.48828 82.2476 7.48828L81.2109 7.48828L81.2109 10.4585L79.6211 10.4585ZM92.3291 10.4585L94.0586 10.4585L90.9058 2.58447L89.2246 2.58447L86.1577 10.4585L87.8442 10.4585L88.4941 8.66992L91.6416 8.66992L92.3291 10.4585ZM94.9072 10.4585L94.9072 2.58447L98.2534 2.58447Q99.5156 2.58447 100.088 2.79663Q100.66 3.00879 101.003 3.55127Q101.347 4.09375 101.347 4.79199Q101.347 5.67822 100.826 6.25562Q100.305 6.83301 99.2686 6.9834Q99.7842 7.28418 100.12 7.64404Q100.456 8.00391 101.025 8.92236L101.986 10.4585L100.085 10.4585L98.9355 8.74512Q98.3232 7.82666 98.0977 7.58765Q97.8721 7.34863 97.6196 7.26001Q97.3672 7.17139 96.8193 7.17139L96.4971 7.17139L96.4971 10.4585L94.9072 10.4585ZM102.867 2.58447L102.867 10.4585L104.457 10.4585L104.457 8.0791L105.746 6.76318L107.911 10.4585L109.968 10.4585L106.842 5.65137L109.807 2.58447L107.669 2.58447L104.457 6.08105L104.457 2.58447L102.867 2.58447ZM15.5063 10.4585L15.5063 2.64893L17.0962 2.64893L17.0962 9.13184L21.0493 9.13184L21.0493 10.4585L15.5063 10.4585ZM50.0371 3.9165L50.0371 9.13184L51.2241 9.13184Q51.8901 9.13184 52.1855 9.05664Q52.5723 8.95996 52.8274 8.729Q53.0825 8.49805 53.2437 7.96899Q53.4048 7.43994 53.4048 6.52686Q53.4048 5.61377 53.2437 5.125Q53.0825 4.63623 52.7925 4.3623Q52.5024 4.08838 52.0566 3.9917Q51.7236 3.9165 50.7515 3.9165L50.0371 3.9165ZM81.2109 3.9165L81.2109 6.15088L82.0811 6.15088Q83.021 6.15088 83.3379 6.02734Q83.6548 5.90381 83.8347 5.64062Q84.0146 5.37744 84.0146 5.02832Q84.0146 4.59863 83.7622 4.31934Q83.5098 4.04004 83.123 3.97021Q82.8384 3.9165 81.979 3.9165L81.2109 3.9165ZM96.4971 5.91455L97.6733 5.91455Q98.8174 5.91455 99.1021 5.81787Q99.3867 5.72119 99.5479 5.48486Q99.709 5.24854 99.709 4.89404Q99.709 4.49658 99.4968 4.2522Q99.2847 4.00781 98.8979 3.94336Q98.7046 3.9165 97.7378 3.9165L96.4971 3.9165L96.4971 5.91455ZM10.6079 4.42139L11.6929 7.34326L9.54443 7.34326L10.6079 4.42139ZM25.271 4.42139L26.356 7.34326L24.2075 7.34326L25.271 4.42139ZM43.5972 4.42139L44.6821 7.34326L42.5337 7.34326L43.5972 4.42139ZM90.0464 4.42139L91.1313 7.34326L88.9829 7.34326L90.0464 4.42139Z" />
      </g>
    </g>
  </g>
</svg>