<svg xmlns="http://www.w3.org/2000/svg" width="3750" viewBox="0 0 3750 1875" height="1875" version="1.0"><defs><clipPath id="a"><path d="M 695 1105 L 772 1105 L 772 1138.640625 L 695 1138.640625 Z M 695 1105"/></clipPath><clipPath id="b"><path d="M 648.621094 850 L 818.121094 850 L 818.121094 1119 L 648.621094 1119 Z M 648.621094 850"/></clipPath></defs><path fill="#004AAD" d="M 543.496094 725.382812 L 2153.378906 725.382812 L 2153.378906 1250.800781 L 543.496094 1250.800781 L 543.496094 725.382812"/><path fill="#77838D" d="M 543.496094 1253.59375 L 540.699219 1253.59375 L 540.699219 722.59375 L 2156.171875 722.59375 L 2156.171875 1253.59375 L 543.496094 1253.59375 M 546.289062 728.175781 L 546.289062 1248.007812 L 2150.585938 1248.007812 L 2150.585938 728.175781 L 546.289062 728.175781"/><path fill="#FFF" d="M 602.171875 784.570312 L 2094.144531 784.570312 L 2094.144531 1192.171875 L 602.171875 1192.171875 L 602.171875 784.570312"/><g clip-path="url(#a)"><path fill="#F9A72B" d="M 771.691406 1122.109375 C 771.691406 1131.058594 754.726562 1138.308594 733.800781 1138.308594 C 712.875 1138.308594 695.910156 1131.058594 695.910156 1122.109375 C 695.910156 1113.167969 712.875 1105.910156 733.800781 1105.910156 C 754.726562 1105.910156 771.691406 1113.167969 771.691406 1122.109375"/></g><path fill="#FCD24F" d="M 770.917969 1118.191406 C 770.917969 1127.136719 754.128906 1134.386719 733.414062 1134.386719 C 712.703125 1134.386719 695.910156 1127.136719 695.910156 1118.191406 C 695.910156 1109.242188 712.703125 1101.992188 733.414062 1101.992188 C 754.128906 1101.992188 770.917969 1109.242188 770.917969 1118.191406"/><g clip-path="url(#b)"><path fill="#E33924" d="M 734.859375 850.222656 C 734.359375 850.222656 733.867188 850.253906 733.375 850.265625 C 732.875 850.253906 732.378906 850.222656 731.882812 850.222656 C 685.878906 850.222656 648.582031 889.140625 648.582031 937.140625 C 648.582031 945.332031 651.757812 964.269531 656.523438 972.128906 L 733.375 1118.191406 L 810.21875 972.128906 C 814.984375 964.269531 818.15625 945.332031 818.15625 937.140625 C 818.15625 889.140625 780.867188 850.222656 734.859375 850.222656"/></g><path fill="#FFF" d="M 779.375 927.453125 C 779.375 952.886719 758.777344 973.496094 733.375 973.496094 C 707.964844 973.496094 687.363281 952.886719 687.363281 927.453125 C 687.363281 902.023438 707.964844 881.414062 733.375 881.414062 C 758.777344 881.414062 779.375 902.023438 779.375 927.453125"/><g><g><g><path d="M 50.53125 -72.40625 C 44.664062 -72.40625 40.085938 -70 36.796875 -65.1875 C 33.503906 -60.375 31.859375 -53.742188 31.859375 -45.296875 C 31.859375 -27.710938 38.539062 -18.921875 51.90625 -18.921875 C 55.945312 -18.921875 59.863281 -19.484375 63.65625 -20.609375 C 67.445312 -21.734375 71.257812 -23.085938 75.09375 -24.671875 L 75.09375 -3.8125 C 67.46875 -0.4375 58.84375 1.25 49.21875 1.25 C 35.4375 1.25 24.867188 -2.742188 17.515625 -10.734375 C 10.171875 -18.734375 6.5 -30.296875 6.5 -45.421875 C 6.5 -54.867188 8.273438 -63.171875 11.828125 -70.328125 C 15.390625 -77.492188 20.515625 -83.003906 27.203125 -86.859375 C 33.890625 -90.710938 41.75 -92.640625 50.78125 -92.640625 C 60.65625 -92.640625 70.09375 -90.492188 79.09375 -86.203125 L 71.53125 -66.78125 C 68.15625 -68.363281 64.78125 -69.695312 61.40625 -70.78125 C 58.03125 -71.863281 54.40625 -72.40625 50.53125 -72.40625 Z M 50.53125 -72.40625" transform="translate(1166.51 960.68)"/></g></g></g><g><g><g><path d="M 88.140625 0 L 63.34375 0 L 63.34375 -37.234375 L 34.671875 -37.234375 L 34.671875 0 L 9.875 0 L 9.875 -91.328125 L 34.671875 -91.328125 L 34.671875 -57.46875 L 63.34375 -57.46875 L 63.34375 -91.328125 L 88.140625 -91.328125 Z M 88.140625 0" transform="translate(1249.52 960.68)"/></g></g></g><g><g><g><path d="M 65.90625 0 L 61.40625 -17.109375 L 31.734375 -17.109375 L 27.109375 0 L 0 0 L 29.796875 -91.703125 L 62.71875 -91.703125 L 92.890625 0 Z M 56.28125 -37.359375 L 52.34375 -52.34375 C 51.425781 -55.675781 50.3125 -59.988281 49 -65.28125 C 47.695312 -70.570312 46.835938 -74.363281 46.421875 -76.65625 C 46.046875 -74.53125 45.304688 -71.03125 44.203125 -66.15625 C 43.097656 -61.28125 40.648438 -51.679688 36.859375 -37.359375 Z M 56.28125 -37.359375" transform="translate(1347.522 960.68)"/></g></g></g><g><g><g><path d="M 87.890625 0 L 60.03125 0 L 41.984375 -34.921875 L 34.671875 -30.546875 L 34.671875 0 L 9.875 0 L 9.875 -91.328125 L 34.671875 -91.328125 L 34.671875 -51.65625 C 35.921875 -54.113281 38.441406 -58.007812 42.234375 -63.34375 L 61.40625 -91.328125 L 88.390625 -91.328125 L 59.59375 -50.40625 Z M 87.890625 0" transform="translate(1440.402 960.68)"/></g></g></g><g><g><g><path d="M 65.90625 0 L 61.40625 -17.109375 L 31.734375 -17.109375 L 27.109375 0 L 0 0 L 29.796875 -91.703125 L 62.71875 -91.703125 L 92.890625 0 Z M 56.28125 -37.359375 L 52.34375 -52.34375 C 51.425781 -55.675781 50.3125 -59.988281 49 -65.28125 C 47.695312 -70.570312 46.835938 -74.363281 46.421875 -76.65625 C 46.046875 -74.53125 45.304688 -71.03125 44.203125 -66.15625 C 43.097656 -61.28125 40.648438 -51.679688 36.859375 -37.359375 Z M 56.28125 -37.359375" transform="translate(1528.285 960.68)"/></g></g></g><g><g><g><path d="M 96.828125 0 L 64.46875 0 L 31.109375 -64.34375 L 30.546875 -64.34375 C 31.335938 -54.21875 31.734375 -46.492188 31.734375 -41.171875 L 31.734375 0 L 9.875 0 L 9.875 -91.328125 L 42.109375 -91.328125 L 75.34375 -27.859375 L 75.71875 -27.859375 C 75.132812 -37.066406 74.84375 -44.457031 74.84375 -50.03125 L 74.84375 -91.328125 L 96.828125 -91.328125 Z M 96.828125 0" transform="translate(1621.165 960.68)"/></g></g></g><g><g><g><path d="M 9.875 0 L 9.875 -91.328125 L 34.671875 -91.328125 L 34.671875 0 Z M 9.875 0" transform="translate(806.546 1111.426)"/></g></g></g><g><g><g><path d="M 96.828125 0 L 64.46875 0 L 31.109375 -64.34375 L 30.546875 -64.34375 C 31.335938 -54.21875 31.734375 -46.492188 31.734375 -41.171875 L 31.734375 0 L 9.875 0 L 9.875 -91.328125 L 42.109375 -91.328125 L 75.34375 -27.859375 L 75.71875 -27.859375 C 75.132812 -37.066406 74.84375 -44.457031 74.84375 -50.03125 L 74.84375 -91.328125 L 96.828125 -91.328125 Z M 96.828125 0" transform="translate(851.08 1111.426)"/></g></g></g><g><g><g><path d="M 87.390625 -47.609375 C 87.390625 -32.359375 83.191406 -20.609375 74.796875 -12.359375 C 66.410156 -4.117188 54.617188 0 39.421875 0 L 9.875 0 L 9.875 -91.328125 L 41.484375 -91.328125 C 56.140625 -91.328125 67.453125 -87.578125 75.421875 -80.078125 C 83.398438 -72.585938 87.390625 -61.765625 87.390625 -47.609375 Z M 61.78125 -46.734375 C 61.78125 -55.097656 60.125 -61.300781 56.8125 -65.34375 C 53.5 -69.382812 48.472656 -71.40625 41.734375 -71.40625 L 34.546875 -71.40625 L 34.546875 -20.234375 L 40.046875 -20.234375 C 47.535156 -20.234375 53.03125 -22.410156 56.53125 -26.765625 C 60.03125 -31.117188 61.78125 -37.773438 61.78125 -46.734375 Z M 61.78125 -46.734375" transform="translate(957.764 1111.426)"/></g></g></g><g><g><g><path d="M 87.515625 -91.328125 L 87.515625 -36.359375 C 87.515625 -24.398438 84.128906 -15.140625 77.359375 -8.578125 C 70.597656 -2.023438 60.84375 1.25 48.09375 1.25 C 35.644531 1.25 26.078125 -1.929688 19.390625 -8.296875 C 12.710938 -14.671875 9.375 -23.835938 9.375 -35.796875 L 9.375 -91.328125 L 34.171875 -91.328125 L 34.171875 -37.734375 C 34.171875 -31.273438 35.378906 -26.585938 37.796875 -23.671875 C 40.210938 -20.753906 43.769531 -19.296875 48.46875 -19.296875 C 53.507812 -19.296875 57.164062 -20.742188 59.4375 -23.640625 C 61.707031 -26.535156 62.84375 -31.273438 62.84375 -37.859375 L 62.84375 -91.328125 Z M 87.515625 -91.328125" transform="translate(1051.643 1111.426)"/></g></g></g><g><g><g><path d="M 69.59375 -27.734375 C 69.59375 -22.066406 68.15625 -17.035156 65.28125 -12.640625 C 62.40625 -8.253906 58.257812 -4.84375 52.84375 -2.40625 C 47.4375 0.03125 41.085938 1.25 33.796875 1.25 C 27.710938 1.25 22.609375 0.820312 18.484375 -0.03125 C 14.367188 -0.882812 10.082031 -2.375 5.625 -4.5 L 5.625 -26.484375 C 10.332031 -24.066406 15.222656 -22.179688 20.296875 -20.828125 C 25.378906 -19.472656 30.046875 -18.796875 34.296875 -18.796875 C 37.960938 -18.796875 40.648438 -19.429688 42.359375 -20.703125 C 44.066406 -21.972656 44.921875 -23.609375 44.921875 -25.609375 C 44.921875 -26.859375 44.578125 -27.953125 43.890625 -28.890625 C 43.203125 -29.828125 42.097656 -30.773438 40.578125 -31.734375 C 39.054688 -32.691406 35.003906 -34.648438 28.421875 -37.609375 C 22.460938 -40.316406 17.992188 -42.9375 15.015625 -45.46875 C 12.046875 -48.007812 9.84375 -50.925781 8.40625 -54.21875 C 6.96875 -57.507812 6.25 -61.40625 6.25 -65.90625 C 6.25 -74.320312 9.304688 -80.878906 15.421875 -85.578125 C 21.546875 -90.285156 29.960938 -92.640625 40.671875 -92.640625 C 50.117188 -92.640625 59.757812 -90.453125 69.59375 -86.078125 L 62.03125 -67.03125 C 53.488281 -70.945312 46.117188 -72.90625 39.921875 -72.90625 C 36.710938 -72.90625 34.378906 -72.34375 32.921875 -71.21875 C 31.460938 -70.09375 30.734375 -68.695312 30.734375 -67.03125 C 30.734375 -65.238281 31.660156 -63.632812 33.515625 -62.21875 C 35.367188 -60.800781 40.394531 -58.21875 48.59375 -54.46875 C 56.46875 -50.925781 61.9375 -47.125 65 -43.0625 C 68.0625 -39.007812 69.59375 -33.898438 69.59375 -27.734375 Z M 69.59375 -27.734375" transform="translate(1148.458 1111.426)"/></g></g></g><g><g><g><path d="M 50.15625 0 L 25.484375 0 L 25.484375 -71.15625 L 3.1875 -71.15625 L 3.1875 -91.328125 L 72.40625 -91.328125 L 72.40625 -71.15625 L 50.15625 -71.15625 Z M 50.15625 0" transform="translate(1222.287 1111.426)"/></g></g></g><g><g><g><path d="M 34.546875 -33.234375 L 34.546875 0 L 9.875 0 L 9.875 -91.328125 L 39.796875 -91.328125 C 64.617188 -91.328125 77.03125 -82.332031 77.03125 -64.34375 C 77.03125 -53.757812 71.863281 -45.578125 61.53125 -39.796875 L 88.140625 0 L 60.15625 0 L 40.796875 -33.234375 Z M 34.546875 -51.78125 L 39.171875 -51.78125 C 47.785156 -51.78125 52.09375 -55.59375 52.09375 -63.21875 C 52.09375 -69.507812 47.867188 -72.65625 39.421875 -72.65625 L 34.546875 -72.65625 Z M 34.546875 -51.78125" transform="translate(1297.865 1111.426)"/></g></g></g><g><g><g><path d="M 9.875 0 L 9.875 -91.328125 L 34.671875 -91.328125 L 34.671875 0 Z M 9.875 0" transform="translate(1384.436 1111.426)"/></g></g></g><g><g><g><path d="M 65.90625 0 L 61.40625 -17.109375 L 31.734375 -17.109375 L 27.109375 0 L 0 0 L 29.796875 -91.703125 L 62.71875 -91.703125 L 92.890625 0 Z M 56.28125 -37.359375 L 52.34375 -52.34375 C 51.425781 -55.675781 50.3125 -59.988281 49 -65.28125 C 47.695312 -70.570312 46.835938 -74.363281 46.421875 -76.65625 C 46.046875 -74.53125 45.304688 -71.03125 44.203125 -66.15625 C 43.097656 -61.28125 40.648438 -51.679688 36.859375 -37.359375 Z M 56.28125 -37.359375" transform="translate(1428.97 1111.426)"/></g></g></g><g><g><g><path d="M 9.875 0 L 9.875 -91.328125 L 34.546875 -91.328125 L 34.546875 -19.921875 L 69.71875 -19.921875 L 69.71875 0 Z M 9.875 0" transform="translate(1521.85 1111.426)"/></g></g></g><g><g><g><path d="M 64.09375 0 L 9.875 0 L 9.875 -91.328125 L 64.09375 -91.328125 L 64.09375 -71.53125 L 34.546875 -71.53125 L 34.546875 -57.15625 L 61.90625 -57.15625 L 61.90625 -37.359375 L 34.546875 -37.359375 L 34.546875 -20.109375 L 64.09375 -20.109375 Z M 64.09375 0" transform="translate(1629.534 1111.426)"/></g></g></g><g><g><g><path d="M 69.59375 -27.734375 C 69.59375 -22.066406 68.15625 -17.035156 65.28125 -12.640625 C 62.40625 -8.253906 58.257812 -4.84375 52.84375 -2.40625 C 47.4375 0.03125 41.085938 1.25 33.796875 1.25 C 27.710938 1.25 22.609375 0.820312 18.484375 -0.03125 C 14.367188 -0.882812 10.082031 -2.375 5.625 -4.5 L 5.625 -26.484375 C 10.332031 -24.066406 15.222656 -22.179688 20.296875 -20.828125 C 25.378906 -19.472656 30.046875 -18.796875 34.296875 -18.796875 C 37.960938 -18.796875 40.648438 -19.429688 42.359375 -20.703125 C 44.066406 -21.972656 44.921875 -23.609375 44.921875 -25.609375 C 44.921875 -26.859375 44.578125 -27.953125 43.890625 -28.890625 C 43.203125 -29.828125 42.097656 -30.773438 40.578125 -31.734375 C 39.054688 -32.691406 35.003906 -34.648438 28.421875 -37.609375 C 22.460938 -40.316406 17.992188 -42.9375 15.015625 -45.46875 C 12.046875 -48.007812 9.84375 -50.925781 8.40625 -54.21875 C 6.96875 -57.507812 6.25 -61.40625 6.25 -65.90625 C 6.25 -74.320312 9.304688 -80.878906 15.421875 -85.578125 C 21.546875 -90.285156 29.960938 -92.640625 40.671875 -92.640625 C 50.117188 -92.640625 59.757812 -90.453125 69.59375 -86.078125 L 62.03125 -67.03125 C 53.488281 -70.945312 46.117188 -72.90625 39.921875 -72.90625 C 36.710938 -72.90625 34.378906 -72.34375 32.921875 -71.21875 C 31.460938 -70.09375 30.734375 -68.695312 30.734375 -67.03125 C 30.734375 -65.238281 31.660156 -63.632812 33.515625 -62.21875 C 35.367188 -60.800781 40.394531 -58.21875 48.59375 -54.46875 C 56.46875 -50.925781 61.9375 -47.125 65 -43.0625 C 68.0625 -39.007812 69.59375 -33.898438 69.59375 -27.734375 Z M 69.59375 -27.734375" transform="translate(1699.74 1111.426)"/></g></g></g><g><g><g><path d="M 50.15625 0 L 25.484375 0 L 25.484375 -71.15625 L 3.1875 -71.15625 L 3.1875 -91.328125 L 72.40625 -91.328125 L 72.40625 -71.15625 L 50.15625 -71.15625 Z M 50.15625 0" transform="translate(1773.569 1111.426)"/></g></g></g><g><g><g><path d="M 65.90625 0 L 61.40625 -17.109375 L 31.734375 -17.109375 L 27.109375 0 L 0 0 L 29.796875 -91.703125 L 62.71875 -91.703125 L 92.890625 0 Z M 56.28125 -37.359375 L 52.34375 -52.34375 C 51.425781 -55.675781 50.3125 -59.988281 49 -65.28125 C 47.695312 -70.570312 46.835938 -74.363281 46.421875 -76.65625 C 46.046875 -74.53125 45.304688 -71.03125 44.203125 -66.15625 C 43.097656 -61.28125 40.648438 -51.679688 36.859375 -37.359375 Z M 56.28125 -37.359375" transform="translate(1849.147 1111.426)"/></g></g></g><g><g><g><path d="M 50.15625 0 L 25.484375 0 L 25.484375 -71.15625 L 3.1875 -71.15625 L 3.1875 -91.328125 L 72.40625 -91.328125 L 72.40625 -71.15625 L 50.15625 -71.15625 Z M 50.15625 0" transform="translate(1942.027 1111.426)"/></g></g></g><g><g><g><path d="M 64.09375 0 L 9.875 0 L 9.875 -91.328125 L 64.09375 -91.328125 L 64.09375 -71.53125 L 34.546875 -71.53125 L 34.546875 -57.15625 L 61.90625 -57.15625 L 61.90625 -37.359375 L 34.546875 -37.359375 L 34.546875 -20.109375 L 64.09375 -20.109375 Z M 64.09375 0" transform="translate(2017.605 1111.426)"/></g></g></g></svg>