<svg xmlns="http://www.w3.org/2000/svg" width="3750" viewBox="0 0 3750 1875" height="1875" version="1.0"><defs><clipPath id="a"><path d="M 737 1114 L 814 1114 L 814 1147.511719 L 737 1147.511719 Z M 737 1114"/></clipPath><clipPath id="b"><path d="M 690.449219 859 L 859.949219 859 L 859.949219 1128 L 690.449219 1128 Z M 690.449219 859"/></clipPath></defs><path fill="#004AAD" d="M 543.496094 725.382812 L 2153.378906 725.382812 L 2153.378906 1250.800781 L 543.496094 1250.800781 L 543.496094 725.382812"/><path fill="#77838D" d="M 543.496094 1253.59375 L 540.699219 1253.59375 L 540.699219 722.59375 L 2156.171875 722.59375 L 2156.171875 1253.59375 L 543.496094 1253.59375 M 546.289062 728.175781 L 546.289062 1248.007812 L 2150.585938 1248.007812 L 2150.585938 728.175781 L 546.289062 728.175781"/><path fill="#FFF" d="M 602.171875 784.570312 L 2094.144531 784.570312 L 2094.144531 1192.171875 L 602.171875 1192.171875 L 602.171875 784.570312"/><g clip-path="url(#a)"><path fill="#F9A72B" d="M 813.519531 1130.980469 C 813.519531 1139.929688 796.554688 1147.179688 775.628906 1147.179688 C 754.703125 1147.179688 737.738281 1139.929688 737.738281 1130.980469 C 737.738281 1122.039062 754.703125 1114.785156 775.628906 1114.785156 C 796.554688 1114.785156 813.519531 1122.039062 813.519531 1130.980469"/></g><path fill="#FCD24F" d="M 812.746094 1127.0625 C 812.746094 1136.007812 795.957031 1143.257812 775.242188 1143.257812 C 754.53125 1143.257812 737.738281 1136.007812 737.738281 1127.0625 C 737.738281 1118.113281 754.53125 1110.863281 775.242188 1110.863281 C 795.957031 1110.863281 812.746094 1118.113281 812.746094 1127.0625"/><g clip-path="url(#b)"><path fill="#E33924" d="M 776.6875 859.097656 C 776.1875 859.097656 775.695312 859.125 775.199219 859.136719 C 774.703125 859.125 774.207031 859.097656 773.710938 859.097656 C 727.707031 859.097656 690.410156 898.011719 690.410156 946.011719 C 690.410156 954.203125 693.585938 973.140625 698.351562 981 L 775.199219 1127.0625 L 852.046875 981 C 856.8125 973.140625 859.984375 954.203125 859.984375 946.011719 C 859.984375 898.011719 822.695312 859.097656 776.6875 859.097656"/></g><path fill="#FFF" d="M 821.203125 936.324219 C 821.203125 961.757812 800.605469 982.367188 775.199219 982.367188 C 749.792969 982.367188 729.191406 961.757812 729.191406 936.324219 C 729.191406 910.894531 749.792969 890.285156 775.199219 890.285156 C 800.605469 890.285156 821.203125 910.894531 821.203125 936.324219"/><g><g><g><path d="M 123.1875 -67.09375 C 123.1875 -45.613281 117.269531 -29.0625 105.4375 -17.4375 C 93.613281 -5.8125 76.988281 0 55.5625 0 L 13.90625 0 L 13.90625 -128.734375 L 58.46875 -128.734375 C 79.132812 -128.734375 95.085938 -123.453125 106.328125 -112.890625 C 117.566406 -102.328125 123.1875 -87.0625 123.1875 -67.09375 Z M 87.09375 -65.875 C 87.09375 -77.664062 84.757812 -86.410156 80.09375 -92.109375 C 75.425781 -97.804688 68.335938 -100.65625 58.828125 -100.65625 L 48.703125 -100.65625 L 48.703125 -28.53125 L 56.453125 -28.53125 C 67.015625 -28.53125 74.757812 -31.597656 79.6875 -37.734375 C 84.625 -43.867188 87.09375 -53.25 87.09375 -65.875 Z M 87.09375 -65.875" transform="translate(942.791 1061.834)"/></g></g></g><g><g><g><path d="M 90.34375 0 L 13.90625 0 L 13.90625 -128.734375 L 90.34375 -128.734375 L 90.34375 -100.828125 L 48.703125 -100.828125 L 48.703125 -80.578125 L 87.265625 -80.578125 L 87.265625 -52.65625 L 48.703125 -52.65625 L 48.703125 -28.359375 L 90.34375 -28.359375 Z M 90.34375 0" transform="translate(1075.14 1061.834)"/></g></g></g><g><g><g><path d="M 124.25 0 L 89.296875 0 L 89.296875 -52.484375 L 48.875 -52.484375 L 48.875 0 L 13.90625 0 L 13.90625 -128.734375 L 48.875 -128.734375 L 48.875 -81.015625 L 89.296875 -81.015625 L 89.296875 -128.734375 L 124.25 -128.734375 Z M 124.25 0" transform="translate(1174.116 1061.834)"/></g></g></g><g><g><g><path d="M 123.375 -128.734375 L 123.375 -51.25 C 123.375 -34.40625 118.601562 -21.359375 109.0625 -12.109375 C 99.519531 -2.859375 85.769531 1.765625 67.8125 1.765625 C 50.25 1.765625 36.753906 -2.722656 27.328125 -11.703125 C 17.910156 -20.691406 13.203125 -33.609375 13.203125 -50.453125 L 13.203125 -128.734375 L 48.171875 -128.734375 L 48.171875 -53.1875 C 48.171875 -44.082031 49.867188 -37.472656 53.265625 -33.359375 C 56.671875 -29.253906 61.691406 -27.203125 68.328125 -27.203125 C 75.429688 -27.203125 80.582031 -29.242188 83.78125 -33.328125 C 86.988281 -37.410156 88.59375 -44.085938 88.59375 -53.359375 L 88.59375 -128.734375 Z M 123.375 -128.734375" transform="translate(1312.277 1061.834)"/></g></g></g><g><g><g><path d="M 65.609375 -75.375 L 121.171875 -75.375 L 121.171875 -5.984375 C 106.078125 -0.816406 89.492188 1.765625 71.421875 1.765625 C 51.578125 1.765625 36.238281 -3.984375 25.40625 -15.484375 C 14.570312 -26.992188 9.15625 -43.40625 9.15625 -64.71875 C 9.15625 -85.5 15.082031 -101.671875 26.9375 -113.234375 C 38.800781 -124.804688 55.414062 -130.59375 76.78125 -130.59375 C 84.882812 -130.59375 92.53125 -129.828125 99.71875 -128.296875 C 106.914062 -126.773438 113.1875 -124.835938 118.53125 -122.484375 L 107.515625 -95.1875 C 98.242188 -99.769531 88.0625 -102.0625 76.96875 -102.0625 C 66.8125 -102.0625 58.957031 -98.757812 53.40625 -92.15625 C 47.863281 -85.550781 45.09375 -76.113281 45.09375 -63.84375 C 45.09375 -51.8125 47.597656 -42.640625 52.609375 -36.328125 C 57.628906 -30.015625 64.867188 -26.859375 74.328125 -26.859375 C 79.492188 -26.859375 84.25 -27.359375 88.59375 -28.359375 L 88.59375 -48.515625 L 65.609375 -48.515625 Z M 65.609375 -75.375" transform="translate(1448.765 1061.834)"/></g></g></g><g><g><g><path d="M 92.90625 0 L 86.5625 -24.125 L 44.734375 -24.125 L 38.21875 0 L 0 0 L 42 -129.265625 L 88.40625 -129.265625 L 130.9375 0 Z M 79.34375 -52.65625 L 73.796875 -73.796875 C 72.503906 -78.492188 70.929688 -84.566406 69.078125 -92.015625 C 67.234375 -99.472656 66.015625 -104.816406 65.421875 -108.046875 C 64.898438 -105.054688 63.859375 -100.125 62.296875 -93.25 C 60.742188 -86.382812 57.296875 -72.851562 51.953125 -52.65625 Z M 79.34375 -52.65625" transform="translate(1582.258 1061.834)"/></g></g></g><g><g><g><path d="M 134.375 -64.546875 C 134.375 -42.878906 129.0625 -26.410156 118.4375 -15.140625 C 107.8125 -3.867188 92.253906 1.765625 71.765625 1.765625 C 51.566406 1.765625 36.082031 -3.898438 25.3125 -15.234375 C 14.539062 -26.566406 9.15625 -43.0625 9.15625 -64.71875 C 9.15625 -86.144531 14.507812 -102.507812 25.21875 -113.8125 C 35.9375 -125.113281 51.507812 -130.765625 71.9375 -130.765625 C 92.425781 -130.765625 107.953125 -125.15625 118.515625 -113.9375 C 129.085938 -102.726562 134.375 -86.265625 134.375 -64.546875 Z M 45.796875 -64.546875 C 45.796875 -39.648438 54.453125 -27.203125 71.765625 -27.203125 C 80.566406 -27.203125 87.097656 -30.222656 91.359375 -36.265625 C 95.617188 -42.316406 97.75 -51.742188 97.75 -64.546875 C 97.75 -77.398438 95.585938 -86.894531 91.265625 -93.03125 C 86.953125 -99.164062 80.507812 -102.234375 71.9375 -102.234375 C 54.507812 -102.234375 45.796875 -89.671875 45.796875 -64.546875 Z M 45.796875 -64.546875" transform="translate(1713.198 1061.834)"/></g></g></g><g><g><g><path d="M 136.484375 0 L 90.875 0 L 43.859375 -90.703125 L 43.0625 -90.703125 C 44.175781 -76.429688 44.734375 -65.539062 44.734375 -58.03125 L 44.734375 0 L 13.90625 0 L 13.90625 -128.734375 L 59.34375 -128.734375 L 106.203125 -39.28125 L 106.734375 -39.28125 C 105.910156 -52.25 105.5 -62.664062 105.5 -70.53125 L 105.5 -128.734375 L 136.484375 -128.734375 Z M 136.484375 0" transform="translate(1856.907 1061.834)"/></g></g></g></svg>