<svg xmlns="http://www.w3.org/2000/svg" width="3750" viewBox="0 0 3750 1875" height="1875" version="1.0"><defs><clipPath id="a"><path d="M 737 1114 L 814 1114 L 814 1147.511719 L 737 1147.511719 Z M 737 1114"/></clipPath><clipPath id="b"><path d="M 690.449219 859 L 859.949219 859 L 859.949219 1128 L 690.449219 1128 Z M 690.449219 859"/></clipPath></defs><path fill="#004AAD" d="M 543.25 772.101562 L 2010.375 772.101562 L 2010.375 1251.503906 L 543.25 1251.503906 L 543.25 772.101562"/><path fill="#77838D" d="M 543.25 1254.050781 L 540.703125 1254.050781 L 540.703125 769.550781 L 2012.921875 769.550781 L 2012.921875 1254.050781 L 543.25 1254.050781 M 545.796875 774.648438 L 545.796875 1248.957031 L 2007.828125 1248.957031 L 2007.828125 774.648438 L 545.796875 774.648438"/><path fill="#FFF" d="M 596.722656 826.105469 L 1956.390625 826.105469 L 1956.390625 1198.011719 L 596.722656 1198.011719 L 596.722656 826.105469"/><g clip-path="url(#a)"><path fill="#F9A72B" d="M 813.519531 1130.980469 C 813.519531 1139.929688 796.554688 1147.179688 775.628906 1147.179688 C 754.703125 1147.179688 737.738281 1139.929688 737.738281 1130.980469 C 737.738281 1122.039062 754.703125 1114.785156 775.628906 1114.785156 C 796.554688 1114.785156 813.519531 1122.039062 813.519531 1130.980469"/></g><path fill="#FCD24F" d="M 812.746094 1127.0625 C 812.746094 1136.007812 795.957031 1143.257812 775.242188 1143.257812 C 754.53125 1143.257812 737.738281 1136.007812 737.738281 1127.0625 C 737.738281 1118.113281 754.53125 1110.863281 775.242188 1110.863281 C 795.957031 1110.863281 812.746094 1118.113281 812.746094 1127.0625"/><g clip-path="url(#b)"><path fill="#E33924" d="M 776.6875 859.09375 C 776.1875 859.09375 775.695312 859.125 775.199219 859.136719 C 774.703125 859.125 774.207031 859.09375 773.710938 859.09375 C 727.707031 859.09375 690.410156 898.011719 690.410156 946.011719 C 690.410156 954.203125 693.585938 973.140625 698.351562 981 L 775.199219 1127.0625 L 852.046875 981 C 856.8125 973.140625 859.984375 954.203125 859.984375 946.011719 C 859.984375 898.011719 822.695312 859.09375 776.6875 859.09375"/></g><path fill="#FFF" d="M 821.203125 936.324219 C 821.203125 961.757812 800.605469 982.367188 775.199219 982.367188 C 749.792969 982.367188 729.191406 961.757812 729.191406 936.324219 C 729.191406 910.894531 749.792969 890.285156 775.199219 890.285156 C 800.605469 890.285156 821.203125 910.894531 821.203125 936.324219"/><g><g><g><path d="M 69.859375 0 L 43.59375 -92.546875 L 42.796875 -92.546875 C 44.023438 -76.785156 44.640625 -64.539062 44.640625 -55.8125 L 44.640625 0 L 13.890625 0 L 13.890625 -128.484375 L 60.109375 -128.484375 L 86.921875 -37.265625 L 87.625 -37.265625 L 113.890625 -128.484375 L 160.203125 -128.484375 L 160.203125 0 L 128.3125 0 L 128.3125 -56.328125 C 128.3125 -59.265625 128.351562 -62.519531 128.4375 -66.09375 C 128.53125 -69.664062 128.925781 -78.421875 129.625 -92.359375 L 128.84375 -92.359375 L 102.90625 0 Z M 69.859375 0" transform="translate(1074.506 1068.761)"/></g></g></g><g><g><g><path d="M 134.109375 -64.421875 C 134.109375 -42.796875 128.804688 -26.359375 118.203125 -15.109375 C 107.597656 -3.867188 92.070312 1.75 71.625 1.75 C 51.46875 1.75 36.015625 -3.898438 25.265625 -15.203125 C 14.515625 -26.515625 9.140625 -42.976562 9.140625 -64.59375 C 9.140625 -85.976562 14.484375 -102.304688 25.171875 -113.578125 C 35.867188 -124.859375 51.410156 -130.5 71.796875 -130.5 C 92.242188 -130.5 107.738281 -124.90625 118.28125 -113.71875 C 128.832031 -102.53125 134.109375 -86.097656 134.109375 -64.421875 Z M 45.703125 -64.421875 C 45.703125 -39.578125 54.34375 -27.15625 71.625 -27.15625 C 80.414062 -27.15625 86.929688 -30.171875 91.171875 -36.203125 C 95.421875 -42.242188 97.546875 -51.648438 97.546875 -64.421875 C 97.546875 -77.253906 95.390625 -86.726562 91.078125 -92.84375 C 86.773438 -98.96875 80.347656 -102.03125 71.796875 -102.03125 C 54.398438 -102.03125 45.703125 -89.492188 45.703125 -64.421875 Z M 45.703125 -64.421875" transform="translate(1248.507 1068.761)"/></g></g></g><g><g><g><path d="M 97.90625 -39.015625 C 97.90625 -31.046875 95.882812 -23.972656 91.84375 -17.796875 C 87.800781 -11.617188 81.96875 -6.816406 74.34375 -3.390625 C 66.726562 0.0351562 57.796875 1.75 47.546875 1.75 C 38.992188 1.75 31.816406 1.148438 26.015625 -0.046875 C 20.210938 -1.242188 14.175781 -3.335938 7.90625 -6.328125 L 7.90625 -37.265625 C 14.53125 -33.867188 21.414062 -31.21875 28.5625 -29.3125 C 35.707031 -27.40625 42.269531 -26.453125 48.25 -26.453125 C 53.40625 -26.453125 57.179688 -27.34375 59.578125 -29.125 C 61.984375 -30.914062 63.1875 -33.21875 63.1875 -36.03125 C 63.1875 -37.789062 62.703125 -39.328125 61.734375 -40.640625 C 60.765625 -41.960938 59.210938 -43.296875 57.078125 -44.640625 C 54.941406 -45.992188 49.242188 -48.75 39.984375 -52.90625 C 31.609375 -56.71875 25.328125 -60.410156 21.140625 -63.984375 C 16.953125 -67.554688 13.84375 -71.65625 11.8125 -76.28125 C 9.789062 -80.90625 8.78125 -86.382812 8.78125 -92.71875 C 8.78125 -104.550781 13.085938 -113.773438 21.703125 -120.390625 C 30.316406 -127.015625 42.15625 -130.328125 57.21875 -130.328125 C 70.507812 -130.328125 84.070312 -127.253906 97.90625 -121.109375 L 87.265625 -94.296875 C 75.253906 -99.804688 64.882812 -102.5625 56.15625 -102.5625 C 51.644531 -102.5625 48.363281 -101.769531 46.3125 -100.1875 C 44.257812 -98.601562 43.234375 -96.640625 43.234375 -94.296875 C 43.234375 -91.773438 44.535156 -89.519531 47.140625 -87.53125 C 49.753906 -85.539062 56.832031 -81.910156 68.375 -76.640625 C 79.445312 -71.648438 87.132812 -66.300781 91.4375 -60.59375 C 95.75 -54.882812 97.90625 -47.691406 97.90625 -39.015625 Z M 97.90625 -39.015625" transform="translate(1391.926 1068.761)"/></g></g></g><g><g><g><path d="M 124 0 L 89.109375 0 L 89.109375 -52.375 L 48.78125 -52.375 L 48.78125 0 L 13.890625 0 L 13.890625 -128.484375 L 48.78125 -128.484375 L 48.78125 -80.859375 L 89.109375 -80.859375 L 89.109375 -128.484375 L 124 -128.484375 Z M 124 0" transform="translate(1495.8 1068.761)"/></g></g></g><g><g><g><path d="M 13.890625 0 L 13.890625 -128.484375 L 48.78125 -128.484375 L 48.78125 0 Z M 13.890625 0" transform="translate(1633.682 1068.761)"/></g></g></g></svg>