<svg xmlns="http://www.w3.org/2000/svg" width="3750" viewBox="0 0 3750 1875" height="1875" version="1.0"><defs><clipPath id="a"><path d="M 737 1114 L 814 1114 L 814 1147.511719 L 737 1147.511719 Z M 737 1114"/></clipPath><clipPath id="b"><path d="M 690.449219 859 L 859.949219 859 L 859.949219 1128 L 690.449219 1128 Z M 690.449219 859"/></clipPath></defs><path fill="#004AAD" d="M 543.496094 725.382812 L 2153.378906 725.382812 L 2153.378906 1250.800781 L 543.496094 1250.800781 L 543.496094 725.382812"/><path fill="#77838D" d="M 543.496094 1253.589844 L 540.699219 1253.589844 L 540.699219 722.589844 L 2156.171875 722.589844 L 2156.171875 1253.589844 L 543.496094 1253.589844 M 546.289062 728.175781 L 546.289062 1248.007812 L 2150.585938 1248.007812 L 2150.585938 728.175781 L 546.289062 728.175781"/><path fill="#FFF" d="M 602.171875 784.570312 L 2094.144531 784.570312 L 2094.144531 1192.171875 L 602.171875 1192.171875 L 602.171875 784.570312"/><g clip-path="url(#a)"><path fill="#F9A72B" d="M 813.519531 1130.980469 C 813.519531 1139.925781 796.554688 1147.175781 775.628906 1147.175781 C 754.703125 1147.175781 737.738281 1139.925781 737.738281 1130.980469 C 737.738281 1122.039062 754.703125 1114.78125 775.628906 1114.78125 C 796.554688 1114.78125 813.519531 1122.039062 813.519531 1130.980469"/></g><path fill="#FCD24F" d="M 812.746094 1127.058594 C 812.746094 1136.007812 795.957031 1143.257812 775.242188 1143.257812 C 754.53125 1143.257812 737.738281 1136.007812 737.738281 1127.058594 C 737.738281 1118.113281 754.53125 1110.859375 775.242188 1110.859375 C 795.957031 1110.859375 812.746094 1118.113281 812.746094 1127.058594"/><g clip-path="url(#b)"><path fill="#E33924" d="M 776.6875 859.09375 C 776.1875 859.09375 775.695312 859.125 775.199219 859.136719 C 774.703125 859.125 774.207031 859.09375 773.710938 859.09375 C 727.707031 859.09375 690.410156 898.007812 690.410156 946.007812 C 690.410156 954.199219 693.585938 973.140625 698.351562 980.996094 L 775.199219 1127.058594 L 852.046875 980.996094 C 856.8125 973.140625 859.984375 954.199219 859.984375 946.007812 C 859.984375 898.007812 822.695312 859.09375 776.6875 859.09375"/></g><path fill="#FFF" d="M 821.203125 936.324219 C 821.203125 961.753906 800.605469 982.367188 775.199219 982.367188 C 749.792969 982.367188 729.191406 961.753906 729.191406 936.324219 C 729.191406 910.894531 749.792969 890.28125 775.199219 890.28125 C 800.605469 890.28125 821.203125 910.894531 821.203125 936.324219"/><g><g><g><path d="M 62.84375 0 L 31.921875 0 L 31.921875 -89.125 L 3.984375 -89.125 L 3.984375 -114.40625 L 90.703125 -114.40625 L 90.703125 -89.125 L 62.84375 -89.125 Z M 62.84375 0" transform="translate(1015.188 950.734)"/></g></g></g><g><g><g><path d="M 82.5625 0 L 76.921875 -21.4375 L 39.75 -21.4375 L 33.96875 0 L 0 0 L 37.328125 -114.875 L 78.5625 -114.875 L 116.359375 0 Z M 70.5 -46.796875 L 65.578125 -65.578125 C 64.429688 -69.753906 63.035156 -75.15625 61.390625 -81.78125 C 59.742188 -88.40625 58.660156 -93.148438 58.140625 -96.015625 C 57.671875 -93.359375 56.742188 -88.976562 55.359375 -82.875 C 53.984375 -76.769531 50.921875 -64.742188 46.171875 -46.796875 Z M 70.5 -46.796875" transform="translate(1109.876 950.734)"/></g></g></g><g><g><g><path d="M 12.359375 0 L 12.359375 -114.40625 L 43.28125 -114.40625 L 43.28125 -24.96875 L 87.328125 -24.96875 L 87.328125 0 Z M 12.359375 0" transform="translate(1226.241 950.734)"/></g></g></g><g><g><g><path d="M 82.5625 0 L 76.921875 -21.4375 L 39.75 -21.4375 L 33.96875 0 L 0 0 L 37.328125 -114.875 L 78.5625 -114.875 L 116.359375 0 Z M 70.5 -46.796875 L 65.578125 -65.578125 C 64.429688 -69.753906 63.035156 -75.15625 61.390625 -81.78125 C 59.742188 -88.40625 58.660156 -93.148438 58.140625 -96.015625 C 57.671875 -93.359375 56.742188 -88.976562 55.359375 -82.875 C 53.984375 -76.769531 50.921875 -64.742188 46.171875 -46.796875 Z M 70.5 -46.796875" transform="translate(1319.52 950.734)"/></g></g></g><g><g><g><path d="M 135.921875 0 L 99.390625 0 L 88.421875 -49.84375 C 87.898438 -51.9375 87.078125 -56.085938 85.953125 -62.296875 C 84.835938 -68.503906 84.019531 -73.691406 83.5 -77.859375 C 83.082031 -74.472656 82.398438 -70.257812 81.453125 -65.21875 C 80.515625 -60.1875 79.585938 -55.554688 78.671875 -51.328125 C 77.765625 -47.109375 73.972656 -30 67.296875 0 L 30.75 0 L 2.421875 -114.40625 L 32.234375 -114.40625 L 44.6875 -57.046875 C 47.5 -44.367188 49.425781 -34.273438 50.46875 -26.765625 C 51.144531 -32.085938 52.359375 -39.3125 54.109375 -48.4375 C 55.859375 -57.570312 57.488281 -65.140625 59 -71.140625 L 69.09375 -114.40625 L 97.734375 -114.40625 L 107.515625 -71.140625 C 109.191406 -64.191406 110.890625 -56.179688 112.609375 -47.109375 C 114.328125 -38.035156 115.472656 -31.253906 116.046875 -26.765625 C 116.722656 -32.554688 118.578125 -42.597656 121.609375 -56.890625 L 134.28125 -114.40625 L 164.09375 -114.40625 Z M 135.921875 0" transform="translate(1435.886 950.734)"/></g></g></g><g><g><g><path d="M 82.5625 0 L 76.921875 -21.4375 L 39.75 -21.4375 L 33.96875 0 L 0 0 L 37.328125 -114.875 L 78.5625 -114.875 L 116.359375 0 Z M 70.5 -46.796875 L 65.578125 -65.578125 C 64.429688 -69.753906 63.035156 -75.15625 61.390625 -81.78125 C 59.742188 -88.40625 58.660156 -93.148438 58.140625 -96.015625 C 57.671875 -93.359375 56.742188 -88.976562 55.359375 -82.875 C 53.984375 -76.769531 50.921875 -64.742188 46.171875 -46.796875 Z M 70.5 -46.796875" transform="translate(1602.411 950.734)"/></g></g></g><g><g><g><path d="M 109.484375 -59.625 C 109.484375 -40.53125 104.222656 -25.816406 93.703125 -15.484375 C 83.191406 -5.160156 68.414062 0 49.375 0 L 12.359375 0 L 12.359375 -114.40625 L 51.96875 -114.40625 C 70.320312 -114.40625 84.492188 -109.707031 94.484375 -100.3125 C 104.484375 -90.925781 109.484375 -77.363281 109.484375 -59.625 Z M 77.390625 -58.53125 C 77.390625 -69.019531 75.316406 -76.789062 71.171875 -81.84375 C 67.023438 -86.90625 60.726562 -89.4375 52.28125 -89.4375 L 43.28125 -89.4375 L 43.28125 -25.359375 L 50.15625 -25.359375 C 59.550781 -25.359375 66.4375 -28.082031 70.8125 -33.53125 C 75.195312 -38.976562 77.390625 -47.3125 77.390625 -58.53125 Z M 77.390625 -58.53125" transform="translate(1718.776 950.734)"/></g></g></g><g><g><g><path d="M 80.296875 0 L 12.359375 0 L 12.359375 -114.40625 L 80.296875 -114.40625 L 80.296875 -89.609375 L 43.28125 -89.609375 L 43.28125 -71.609375 L 77.546875 -71.609375 L 77.546875 -46.796875 L 43.28125 -46.796875 L 43.28125 -25.203125 L 80.296875 -25.203125 Z M 80.296875 0" transform="translate(1836.393 950.734)"/></g></g></g><g><g><g><path d="M 12.359375 0 L 12.359375 -114.40625 L 43.4375 -114.40625 L 43.4375 0 Z M 12.359375 0" transform="translate(1176.427 1139.734)"/></g></g></g><g><g><g><path d="M 62.84375 0 L 31.921875 0 L 31.921875 -89.125 L 3.984375 -89.125 L 3.984375 -114.40625 L 90.703125 -114.40625 L 90.703125 -89.125 L 62.84375 -89.125 Z M 62.84375 0" transform="translate(1232.222 1139.734)"/></g></g></g><g><g><g><path d="M 95.390625 -78.015625 C 95.390625 -65.234375 91.617188 -55.359375 84.078125 -48.390625 C 76.546875 -41.429688 65.84375 -37.953125 51.96875 -37.953125 L 43.28125 -37.953125 L 43.28125 0 L 12.359375 0 L 12.359375 -114.40625 L 51.96875 -114.40625 C 66.414062 -114.40625 77.265625 -111.25 84.515625 -104.9375 C 91.765625 -98.625 95.390625 -89.648438 95.390625 -78.015625 Z M 43.28125 -63.15625 L 48.90625 -63.15625 C 53.550781 -63.15625 57.242188 -64.457031 59.984375 -67.0625 C 62.722656 -69.675781 64.09375 -73.273438 64.09375 -77.859375 C 64.09375 -85.578125 59.8125 -89.4375 51.25 -89.4375 L 43.28125 -89.4375 Z M 43.28125 -63.15625" transform="translate(1368.542 1139.734)"/></g></g></g><g><g><g><path d="M 82.5625 0 L 76.921875 -21.4375 L 39.75 -21.4375 L 33.96875 0 L 0 0 L 37.328125 -114.875 L 78.5625 -114.875 L 116.359375 0 Z M 70.5 -46.796875 L 65.578125 -65.578125 C 64.429688 -69.753906 63.035156 -75.15625 61.390625 -81.78125 C 59.742188 -88.40625 58.660156 -93.148438 58.140625 -96.015625 C 57.671875 -93.359375 56.742188 -88.976562 55.359375 -82.875 C 53.984375 -76.769531 50.921875 -64.742188 46.171875 -46.796875 Z M 70.5 -46.796875" transform="translate(1469.803 1139.734)"/></g></g></g><g><g><g><path d="M 43.28125 -41.625 L 43.28125 0 L 12.359375 0 L 12.359375 -114.40625 L 49.84375 -114.40625 C 80.9375 -114.40625 96.484375 -103.140625 96.484375 -80.609375 C 96.484375 -67.347656 90.015625 -57.09375 77.078125 -49.84375 L 110.421875 0 L 75.359375 0 L 51.09375 -41.625 Z M 43.28125 -64.875 L 49.0625 -64.875 C 59.863281 -64.875 65.265625 -69.644531 65.265625 -79.1875 C 65.265625 -87.070312 59.96875 -91.015625 49.375 -91.015625 L 43.28125 -91.015625 Z M 43.28125 -64.875" transform="translate(1586.168 1139.734)"/></g></g></g><g><g><g><path d="M 110.109375 0 L 75.203125 0 L 52.59375 -43.75 L 43.4375 -38.265625 L 43.4375 0 L 12.359375 0 L 12.359375 -114.40625 L 43.4375 -114.40625 L 43.4375 -64.71875 C 45 -67.789062 48.15625 -72.664062 52.90625 -79.34375 L 76.921875 -114.40625 L 110.734375 -114.40625 L 74.65625 -63.15625 Z M 110.109375 0" transform="translate(1694.63 1139.734)"/></g></g></g></svg>