<svg xmlns="http://www.w3.org/2000/svg" width="3750" viewBox="0 0 3750 1875" height="1875" version="1.0"><defs><clipPath id="a"><path d="M 2618 1202.449219 L 2964.464844 1202.449219 L 2964.464844 1352.449219 L 2618 1352.449219 Z M 2618 1202.449219"/></clipPath></defs><path fill="#FF1616" d="M 839.316406 725.386719 L 2370.453125 725.386719 L 2370.453125 1250.800781 L 839.316406 1250.800781 L 839.316406 725.386719"/><path fill="#77838D" d="M 839.316406 1253.59375 L 836.523438 1253.59375 L 836.523438 722.59375 L 2373.246094 722.59375 L 2373.246094 1253.59375 L 839.316406 1253.59375 M 842.113281 728.175781 L 842.113281 1248.007812 L 2367.660156 1248.007812 L 2367.660156 728.175781 L 842.113281 728.175781"/><path fill="#FFF" d="M 897.980469 784.570312 L 2311.234375 784.570312 L 2311.234375 1192.171875 L 897.980469 1192.171875 L 897.980469 784.570312"/><path fill="#FF1616" d="M 2376.222656 725.386719 L 3206.878906 725.386719 L 3206.878906 1250.800781 L 2376.222656 1250.800781 L 2376.222656 725.386719"/><path fill="#77838D" d="M 2376.222656 1253.59375 L 2373.429688 1253.59375 L 2373.429688 722.59375 L 3209.675781 722.59375 L 3209.675781 1253.59375 L 2376.222656 1253.59375 M 2379.019531 728.175781 L 2379.019531 1248.007812 L 3204.085938 1248.007812 L 3204.085938 728.175781 L 2379.019531 728.175781"/><path fill="#FFF" d="M 2434.917969 784.570312 L 3147.625 784.570312 L 3147.625 1192.171875 L 2434.917969 1192.171875 L 2434.917969 784.570312"/><g><g><g><path d="M 98.609375 0 L 5.359375 0 L 5.359375 -22.859375 L 36.734375 -54.578125 C 45.703125 -63.953125 51.5625 -70.351562 54.3125 -73.78125 C 57.070312 -77.207031 58.992188 -80.148438 60.078125 -82.609375 C 61.160156 -85.078125 61.703125 -87.660156 61.703125 -90.359375 C 61.703125 -93.691406 60.617188 -96.320312 58.453125 -98.25 C 56.285156 -100.1875 53.238281 -101.15625 49.3125 -101.15625 C 45.269531 -101.15625 41.179688 -100 37.046875 -97.6875 C 32.910156 -95.375 28.238281 -91.960938 23.03125 -87.453125 L 3.953125 -109.78125 C 10.578125 -115.695312 16.144531 -119.925781 20.65625 -122.46875 C 25.164062 -125.019531 30.070312 -126.96875 35.375 -128.3125 C 40.675781 -129.664062 46.640625 -130.34375 53.265625 -130.34375 C 61.585938 -130.34375 69.015625 -128.875 75.546875 -125.9375 C 82.078125 -123.007812 87.144531 -118.835938 90.75 -113.421875 C 94.351562 -108.003906 96.15625 -101.925781 96.15625 -95.1875 C 96.15625 -90.144531 95.523438 -85.484375 94.265625 -81.203125 C 93.003906 -76.929688 91.054688 -72.726562 88.421875 -68.59375 C 85.785156 -64.46875 82.285156 -60.117188 77.921875 -55.546875 C 73.554688 -50.972656 64.253906 -42.300781 50.015625 -29.53125 L 50.015625 -28.65625 L 98.609375 -28.65625 Z M 98.609375 0" transform="translate(2516.618 1042.133)"/></g></g><g><g><path d="M 3.78125 -34.546875 L 3.78125 -61.96875 L 53.4375 -61.96875 L 53.4375 -34.546875 Z M 3.78125 -34.546875" transform="translate(2622.087 1042.133)"/></g></g><g><g><path d="M 69.875 0 L 43.59375 -92.546875 L 42.796875 -92.546875 C 44.035156 -76.785156 44.65625 -64.539062 44.65625 -55.8125 L 44.65625 0 L 13.890625 0 L 13.890625 -128.5 L 60.125 -128.5 L 86.921875 -37.265625 L 87.625 -37.265625 L 113.90625 -128.5 L 160.21875 -128.5 L 160.21875 0 L 128.328125 0 L 128.328125 -56.34375 C 128.328125 -59.269531 128.367188 -62.519531 128.453125 -66.09375 C 128.535156 -69.664062 128.929688 -78.425781 129.640625 -92.375 L 128.84375 -92.375 L 102.921875 0 Z M 69.875 0" transform="translate(2679.303 1042.133)"/></g></g><g><g><path d="M 13.890625 0 L 13.890625 -128.5 L 48.78125 -128.5 L 48.78125 0 Z M 13.890625 0" transform="translate(2853.327 1042.133)"/></g></g><g><g><path d="M 136.234375 0 L 90.703125 0 L 43.765625 -90.53125 L 42.984375 -90.53125 C 44.097656 -76.289062 44.65625 -65.421875 44.65625 -57.921875 L 44.65625 0 L 13.890625 0 L 13.890625 -128.5 L 59.234375 -128.5 L 106 -39.203125 L 106.53125 -39.203125 C 105.707031 -52.148438 105.296875 -62.550781 105.296875 -70.40625 L 105.296875 -128.5 L 136.234375 -128.5 Z M 136.234375 0" transform="translate(2915.993 1042.133)"/></g></g></g><g><g><g><path d="M 13.890625 -128.5 L 58.71875 -128.5 C 76.175781 -128.5 89.132812 -125.90625 97.59375 -120.71875 C 106.0625 -115.53125 110.296875 -107.457031 110.296875 -96.5 C 110.296875 -89.289062 108.453125 -83.140625 104.765625 -78.046875 C 101.078125 -72.953125 96.210938 -69.671875 90.171875 -68.203125 L 90.171875 -67.328125 C 98.140625 -65.210938 103.910156 -61.691406 107.484375 -56.765625 C 111.066406 -51.847656 112.859375 -45.46875 112.859375 -37.625 C 112.859375 -25.957031 108.476562 -16.769531 99.71875 -10.0625 C 90.957031 -3.351562 79.015625 0 63.890625 0 L 13.890625 0 Z M 48.609375 -79.1875 L 59.0625 -79.1875 C 64.039062 -79.1875 67.890625 -80.210938 70.609375 -82.265625 C 73.335938 -84.316406 74.703125 -87.363281 74.703125 -91.40625 C 74.703125 -98.613281 69.253906 -102.21875 58.359375 -102.21875 L 48.609375 -102.21875 Z M 48.609375 -53.796875 L 48.609375 -26.8125 L 60.828125 -26.8125 C 71.660156 -26.8125 77.078125 -31.378906 77.078125 -40.515625 C 77.078125 -44.796875 75.625 -48.078125 72.71875 -50.359375 C 69.820312 -52.648438 65.625 -53.796875 60.125 -53.796875 Z M 48.609375 -53.796875" transform="translate(928.697 952.274)"/></g></g><g><g><path d="M 124.015625 0 L 89.125 0 L 89.125 -52.390625 L 48.78125 -52.390625 L 48.78125 0 L 13.890625 0 L 13.890625 -128.5 L 48.78125 -128.5 L 48.78125 -80.859375 L 89.125 -80.859375 L 89.125 -128.5 L 124.015625 -128.5 Z M 124.015625 0" transform="translate(1049.986 952.274)"/></g></g><g><g><path d="M 92.71875 0 L 86.390625 -24.078125 L 44.65625 -24.078125 L 38.140625 0 L 0 0 L 41.921875 -129.03125 L 88.25 -129.03125 L 130.6875 0 Z M 79.1875 -52.5625 L 73.65625 -73.65625 C 72.363281 -78.34375 70.796875 -84.40625 68.953125 -91.84375 C 67.109375 -99.289062 65.890625 -104.625 65.296875 -107.84375 C 64.773438 -104.851562 63.738281 -99.929688 62.1875 -93.078125 C 60.632812 -86.222656 57.191406 -72.71875 51.859375 -52.5625 Z M 79.1875 -52.5625" transform="translate(1187.886 952.274)"/></g></g><g><g><path d="M 48.609375 -46.765625 L 48.609375 0 L 13.890625 0 L 13.890625 -128.5 L 55.984375 -128.5 C 90.910156 -128.5 108.375 -115.84375 108.375 -90.53125 C 108.375 -75.644531 101.109375 -64.128906 86.578125 -55.984375 L 124.015625 0 L 84.640625 0 L 57.390625 -46.765625 Z M 48.609375 -72.859375 L 55.109375 -72.859375 C 67.234375 -72.859375 73.296875 -78.222656 73.296875 -88.953125 C 73.296875 -97.796875 67.347656 -102.21875 55.453125 -102.21875 L 48.609375 -102.21875 Z M 48.609375 -72.859375" transform="translate(1318.58 952.274)"/></g></g><g><g><path d="M 92.71875 0 L 86.390625 -24.078125 L 44.65625 -24.078125 L 38.140625 0 L 0 0 L 41.921875 -129.03125 L 88.25 -129.03125 L 130.6875 0 Z M 79.1875 -52.5625 L 73.65625 -73.65625 C 72.363281 -78.34375 70.796875 -84.40625 68.953125 -91.84375 C 67.109375 -99.289062 65.890625 -104.625 65.296875 -107.84375 C 64.773438 -104.851562 63.738281 -99.929688 62.1875 -93.078125 C 60.632812 -86.222656 57.191406 -72.71875 51.859375 -52.5625 Z M 79.1875 -52.5625" transform="translate(1440.396 952.274)"/></g></g><g><g><path d="M 70.578125 0 L 35.859375 0 L 35.859375 -100.109375 L 4.484375 -100.109375 L 4.484375 -128.5 L 101.859375 -128.5 L 101.859375 -100.109375 L 70.578125 -100.109375 Z M 70.578125 0" transform="translate(1571.09 952.274)"/></g></g><g><g><path d="M 69.875 0 L 43.59375 -92.546875 L 42.796875 -92.546875 C 44.035156 -76.785156 44.65625 -64.539062 44.65625 -55.8125 L 44.65625 0 L 13.890625 0 L 13.890625 -128.5 L 60.125 -128.5 L 86.921875 -37.265625 L 87.625 -37.265625 L 113.90625 -128.5 L 160.21875 -128.5 L 160.21875 0 L 128.328125 0 L 128.328125 -56.34375 C 128.328125 -59.269531 128.367188 -62.519531 128.453125 -66.09375 C 128.535156 -69.664062 128.929688 -78.425781 129.640625 -92.375 L 128.84375 -92.375 L 102.921875 0 Z M 69.875 0" transform="translate(1724.195 952.274)"/></g></g><g><g><path d="M 92.71875 0 L 86.390625 -24.078125 L 44.65625 -24.078125 L 38.140625 0 L 0 0 L 41.921875 -129.03125 L 88.25 -129.03125 L 130.6875 0 Z M 79.1875 -52.5625 L 73.65625 -73.65625 C 72.363281 -78.34375 70.796875 -84.40625 68.953125 -91.84375 C 67.109375 -99.289062 65.890625 -104.625 65.296875 -107.84375 C 64.773438 -104.851562 63.738281 -99.929688 62.1875 -93.078125 C 60.632812 -86.222656 57.191406 -72.71875 51.859375 -52.5625 Z M 79.1875 -52.5625" transform="translate(1898.218 952.274)"/></g></g><g><g><path d="M 70.578125 0 L 35.859375 0 L 35.859375 -100.109375 L 4.484375 -100.109375 L 4.484375 -128.5 L 101.859375 -128.5 L 101.859375 -100.109375 L 70.578125 -100.109375 Z M 70.578125 0" transform="translate(2028.911 952.274)"/></g></g><g><g><path d="M 92.71875 0 L 86.390625 -24.078125 L 44.65625 -24.078125 L 38.140625 0 L 0 0 L 41.921875 -129.03125 L 88.25 -129.03125 L 130.6875 0 Z M 79.1875 -52.5625 L 73.65625 -73.65625 C 72.363281 -78.34375 70.796875 -84.40625 68.953125 -91.84375 C 67.109375 -99.289062 65.890625 -104.625 65.296875 -107.84375 C 64.773438 -104.851562 63.738281 -99.929688 62.1875 -93.078125 C 60.632812 -86.222656 57.191406 -72.71875 51.859375 -52.5625 Z M 79.1875 -52.5625" transform="translate(2135.259 952.274)"/></g></g></g><g><g><g><path d="M 71.109375 -101.859375 C 62.847656 -101.859375 56.398438 -98.472656 51.765625 -91.703125 C 47.140625 -84.941406 44.828125 -75.613281 44.828125 -63.71875 C 44.828125 -38.988281 54.226562 -26.625 73.03125 -26.625 C 78.71875 -26.625 84.226562 -27.414062 89.5625 -29 C 94.894531 -30.582031 100.253906 -32.488281 105.640625 -34.71875 L 105.640625 -5.359375 C 94.921875 -0.609375 82.796875 1.765625 69.265625 1.765625 C 49.867188 1.765625 35 -3.859375 24.65625 -15.109375 C 14.3125 -26.367188 9.140625 -42.628906 9.140625 -63.890625 C 9.140625 -77.191406 11.644531 -88.878906 16.65625 -98.953125 C 21.664062 -109.035156 28.875 -116.785156 38.28125 -122.203125 C 47.6875 -127.628906 58.742188 -130.34375 71.453125 -130.34375 C 85.335938 -130.34375 98.609375 -127.328125 111.265625 -121.296875 L 100.640625 -93.953125 C 95.890625 -96.179688 91.140625 -98.054688 86.390625 -99.578125 C 81.648438 -101.097656 76.554688 -101.859375 71.109375 -101.859375 Z M 71.109375 -101.859375" transform="translate(1259.247 1164.524)"/></g></g><g><g><path d="M 124.015625 0 L 89.125 0 L 89.125 -52.390625 L 48.78125 -52.390625 L 48.78125 0 L 13.890625 0 L 13.890625 -128.5 L 48.78125 -128.5 L 48.78125 -80.859375 L 89.125 -80.859375 L 89.125 -128.5 L 124.015625 -128.5 Z M 124.015625 0" transform="translate(1376.054 1164.524)"/></g></g><g><g><path d="M 134.125 -64.421875 C 134.125 -42.804688 128.820312 -26.367188 118.21875 -15.109375 C 107.613281 -3.859375 92.082031 1.765625 71.625 1.765625 C 51.46875 1.765625 36.015625 -3.890625 25.265625 -15.203125 C 14.515625 -26.515625 9.140625 -42.976562 9.140625 -64.59375 C 9.140625 -85.988281 14.484375 -102.320312 25.171875 -113.59375 C 35.867188 -124.875 51.414062 -130.515625 71.8125 -130.515625 C 92.257812 -130.515625 107.753906 -124.914062 118.296875 -113.71875 C 128.847656 -102.53125 134.125 -86.097656 134.125 -64.421875 Z M 45.703125 -64.421875 C 45.703125 -39.578125 54.34375 -27.15625 71.625 -27.15625 C 80.414062 -27.15625 86.9375 -30.171875 91.1875 -36.203125 C 95.4375 -42.242188 97.5625 -51.648438 97.5625 -64.421875 C 97.5625 -77.253906 95.40625 -86.734375 91.09375 -92.859375 C 86.789062 -98.984375 80.363281 -102.046875 71.8125 -102.046875 C 54.40625 -102.046875 45.703125 -89.503906 45.703125 -64.421875 Z M 45.703125 -64.421875" transform="translate(1513.954 1164.524)"/></g></g><g><g><path d="M 152.671875 0 L 111.625 0 L 99.3125 -55.984375 C 98.726562 -58.328125 97.804688 -62.984375 96.546875 -69.953125 C 95.285156 -76.929688 94.363281 -82.765625 93.78125 -87.453125 C 93.3125 -83.640625 92.546875 -78.90625 91.484375 -73.25 C 90.429688 -67.601562 89.394531 -62.40625 88.375 -57.65625 C 87.351562 -52.90625 83.09375 -33.6875 75.59375 0 L 34.546875 0 L 2.71875 -128.5 L 36.21875 -128.5 L 50.1875 -64.078125 C 53.351562 -49.835938 55.519531 -38.5 56.6875 -30.0625 C 57.445312 -36.039062 58.804688 -44.15625 60.765625 -54.40625 C 62.734375 -64.65625 64.566406 -73.148438 66.265625 -79.890625 L 77.609375 -128.5 L 109.78125 -128.5 L 120.765625 -79.890625 C 122.640625 -72.097656 124.539062 -63.101562 126.46875 -52.90625 C 128.40625 -42.71875 129.695312 -35.101562 130.34375 -30.0625 C 131.101562 -36.5625 133.179688 -47.835938 136.578125 -63.890625 L 150.828125 -128.5 L 184.3125 -128.5 Z M 152.671875 0" transform="translate(1657.392 1164.524)"/></g></g><g><g><path d="M 123.65625 0 L 84.46875 0 L 59.0625 -49.125 L 48.78125 -42.984375 L 48.78125 0 L 13.890625 0 L 13.890625 -128.5 L 48.78125 -128.5 L 48.78125 -72.6875 C 50.539062 -76.144531 54.085938 -81.625 59.421875 -89.125 L 86.390625 -128.5 L 124.359375 -128.5 L 83.84375 -70.921875 Z M 123.65625 0" transform="translate(1844.423 1164.524)"/></g></g></g><g clip-path="url(#a)"><path fill="#FF1616" d="M 2791.207031 1352.449219 L 2964.21875 1202.449219 L 2618.210938 1202.449219 Z M 2791.207031 1352.449219"/></g></svg>