<svg xmlns="http://www.w3.org/2000/svg" xmlns:xlink="http://www.w3.org/1999/xlink" width="5000" zoomAndPan="magnify" viewBox="0 0 3750 1874.999927" height="2500" preserveAspectRatio="xMidYMid meet" version="1.0"><defs><g><g id="id1"/><g id="id2"/></g><clipPath id="id3"><path d="M 2618 1202.453125 L 2964.464844 1202.453125 L 2964.464844 1352.453125 L 2618 1352.453125 Z M 2618 1202.453125 " clip-rule="nonzero"/></clipPath></defs><path fill="rgb(97.648621%, 65.489197%, 16.859436%)" d="M 726.199219 849.777344 L 2370.601562 849.777344 L 2370.601562 1251.4375 L 726.199219 1251.4375 L 726.199219 849.777344 " fill-opacity="1" fill-rule="nonzero"/><path fill="rgb(46.669006%, 51.368713%, 55.288696%)" d="M 726.199219 1254.234375 L 723.40625 1254.234375 L 723.40625 846.984375 L 2373.394531 846.984375 L 2373.394531 1254.234375 L 726.199219 1254.234375 M 728.996094 852.574219 L 728.996094 1248.640625 L 2367.808594 1248.640625 L 2367.808594 852.574219 L 728.996094 852.574219 " fill-opacity="1" fill-rule="nonzero"/><path fill="rgb(100%, 100%, 100%)" d="M 784.867188 909.046875 L 2311.375 909.046875 L 2311.375 1192.730469 L 784.867188 1192.730469 L 784.867188 909.046875 " fill-opacity="1" fill-rule="nonzero"/><path fill="rgb(97.648621%, 65.489197%, 16.859436%)" d="M 2376.222656 849.78125 L 3206.882812 849.78125 L 3206.882812 1251.4375 L 2376.222656 1251.4375 L 2376.222656 849.78125 " fill-opacity="1" fill-rule="nonzero"/><path fill="rgb(46.669006%, 51.368713%, 55.288696%)" d="M 2376.222656 1254.230469 L 2373.425781 1254.230469 L 2373.425781 846.984375 L 3209.675781 846.984375 L 3209.675781 1254.230469 L 2376.222656 1254.230469 M 2379.015625 852.574219 L 2379.015625 1248.640625 L 3204.085938 1248.640625 L 3204.085938 852.574219 L 2379.015625 852.574219 " fill-opacity="1" fill-rule="nonzero"/><path fill="rgb(100%, 100%, 100%)" d="M 2434.914062 909.046875 L 3147.628906 909.046875 L 3147.628906 1192.726562 L 2434.914062 1192.726562 L 2434.914062 909.046875 " fill-opacity="1" fill-rule="nonzero"/><g fill="rgb(0%, 0%, 0%)" fill-opacity="1"><g transform="translate(2516.617832, 1115.25015)"><g><path d="M 98.609375 0 L 5.359375 0 L 5.359375 -22.859375 L 36.734375 -54.578125 C 45.703125 -63.953125 51.5625 -70.351562 54.3125 -73.78125 C 57.070312 -77.207031 58.992188 -80.148438 60.078125 -82.609375 C 61.160156 -85.078125 61.703125 -87.660156 61.703125 -90.359375 C 61.703125 -93.691406 60.617188 -96.320312 58.453125 -98.25 C 56.285156 -100.1875 53.238281 -101.15625 49.3125 -101.15625 C 45.269531 -101.15625 41.179688 -100 37.046875 -97.6875 C 32.910156 -95.375 28.238281 -91.960938 23.03125 -87.453125 L 3.953125 -109.78125 C 10.578125 -115.695312 16.144531 -119.925781 20.65625 -122.46875 C 25.164062 -125.019531 30.070312 -126.96875 35.375 -128.3125 C 40.675781 -129.664062 46.640625 -130.34375 53.265625 -130.34375 C 61.585938 -130.34375 69.015625 -128.875 75.546875 -125.9375 C 82.078125 -123.007812 87.144531 -118.835938 90.75 -113.421875 C 94.351562 -108.003906 96.15625 -101.925781 96.15625 -95.1875 C 96.15625 -90.144531 95.523438 -85.484375 94.265625 -81.203125 C 93.003906 -76.929688 91.054688 -72.726562 88.421875 -68.59375 C 85.785156 -64.46875 82.285156 -60.117188 77.921875 -55.546875 C 73.554688 -50.972656 64.253906 -42.300781 50.015625 -29.53125 L 50.015625 -28.65625 L 98.609375 -28.65625 Z M 98.609375 0 "/></g></g><g transform="translate(2622.086574, 1115.25015)"><g><path d="M 3.78125 -34.546875 L 3.78125 -61.96875 L 53.4375 -61.96875 L 53.4375 -34.546875 Z M 3.78125 -34.546875 "/></g></g><g transform="translate(2679.303365, 1115.25015)"><g><path d="M 69.875 0 L 43.59375 -92.546875 L 42.796875 -92.546875 C 44.035156 -76.785156 44.65625 -64.539062 44.65625 -55.8125 L 44.65625 0 L 13.890625 0 L 13.890625 -128.5 L 60.125 -128.5 L 86.921875 -37.265625 L 87.625 -37.265625 L 113.90625 -128.5 L 160.21875 -128.5 L 160.21875 0 L 128.328125 0 L 128.328125 -56.34375 C 128.328125 -59.269531 128.367188 -62.519531 128.453125 -66.09375 C 128.535156 -69.664062 128.929688 -78.425781 129.640625 -92.375 L 128.84375 -92.375 L 102.921875 0 Z M 69.875 0 "/></g></g><g transform="translate(2853.32679, 1115.25015)"><g><path d="M 13.890625 0 L 13.890625 -128.5 L 48.78125 -128.5 L 48.78125 0 Z M 13.890625 0 "/></g></g><g transform="translate(2915.9928, 1115.25015)"><g><path d="M 136.234375 0 L 90.703125 0 L 43.765625 -90.53125 L 42.984375 -90.53125 C 44.097656 -76.289062 44.65625 -65.421875 44.65625 -57.921875 L 44.65625 0 L 13.890625 0 L 13.890625 -128.5 L 59.234375 -128.5 L 106 -39.203125 L 106.53125 -39.203125 C 105.707031 -52.148438 105.296875 -62.550781 105.296875 -70.40625 L 105.296875 -128.5 L 136.234375 -128.5 Z M 136.234375 0 "/></g></g></g><g fill="rgb(0%, 0%, 0%)" fill-opacity="1"><g transform="translate(1230.748171, 1027.968421)"><g><path d="M 75.9375 -79.234375 L 75.9375 -31.546875 C 75.9375 -21.171875 73 -13.140625 67.125 -7.453125 C 61.25 -1.765625 52.785156 1.078125 41.734375 1.078125 C 30.929688 1.078125 22.628906 -1.679688 16.828125 -7.203125 C 11.023438 -12.734375 8.125 -20.6875 8.125 -31.0625 L 8.125 -79.234375 L 29.640625 -79.234375 L 29.640625 -32.734375 C 29.640625 -27.128906 30.6875 -23.0625 32.78125 -20.53125 C 34.882812 -18.007812 37.976562 -16.75 42.0625 -16.75 C 46.425781 -16.75 49.59375 -18.003906 51.5625 -20.515625 C 53.539062 -23.023438 54.53125 -27.132812 54.53125 -32.84375 L 54.53125 -79.234375 Z M 75.9375 -79.234375 "/></g></g><g transform="translate(1314.756953, 1027.968421)"><g><path d="M 66.0625 -54.03125 C 66.0625 -45.1875 63.453125 -38.347656 58.234375 -33.515625 C 53.015625 -28.691406 45.597656 -26.28125 35.984375 -26.28125 L 29.96875 -26.28125 L 29.96875 0 L 8.5625 0 L 8.5625 -79.234375 L 35.984375 -79.234375 C 45.992188 -79.234375 53.507812 -77.046875 58.53125 -72.671875 C 63.550781 -68.304688 66.0625 -62.09375 66.0625 -54.03125 Z M 29.96875 -43.734375 L 33.875 -43.734375 C 37.09375 -43.734375 39.648438 -44.632812 41.546875 -46.4375 C 43.441406 -48.25 44.390625 -50.742188 44.390625 -53.921875 C 44.390625 -59.273438 41.425781 -61.953125 35.5 -61.953125 L 29.96875 -61.953125 Z M 29.96875 -43.734375 "/></g></g><g transform="translate(1384.890737, 1027.968421)"><g><path d="M 43.84375 -62.8125 C 38.75 -62.8125 34.773438 -60.722656 31.921875 -56.546875 C 29.066406 -52.378906 27.640625 -46.628906 27.640625 -39.296875 C 27.640625 -24.046875 33.441406 -16.421875 45.046875 -16.421875 C 48.546875 -16.421875 51.9375 -16.90625 55.21875 -17.875 C 58.507812 -18.851562 61.816406 -20.03125 65.140625 -21.40625 L 65.140625 -3.3125 C 58.535156 -0.382812 51.054688 1.078125 42.703125 1.078125 C 30.742188 1.078125 21.578125 -2.390625 15.203125 -9.328125 C 8.828125 -16.265625 5.640625 -26.289062 5.640625 -39.40625 C 5.640625 -47.601562 7.179688 -54.804688 10.265625 -61.015625 C 13.359375 -67.234375 17.800781 -72.015625 23.59375 -75.359375 C 29.394531 -78.703125 36.21875 -80.375 44.0625 -80.375 C 52.625 -80.375 60.804688 -78.515625 68.609375 -74.796875 L 62.0625 -57.9375 C 59.132812 -59.3125 56.207031 -60.46875 53.28125 -61.40625 C 50.351562 -62.34375 47.207031 -62.8125 43.84375 -62.8125 Z M 43.84375 -62.8125 "/></g></g><g transform="translate(1456.921493, 1027.968421)"><g><path d="M 82.703125 -39.734375 C 82.703125 -26.398438 79.429688 -16.265625 72.890625 -9.328125 C 66.359375 -2.390625 56.785156 1.078125 44.171875 1.078125 C 31.742188 1.078125 22.210938 -2.40625 15.578125 -9.375 C 8.953125 -16.351562 5.640625 -26.507812 5.640625 -39.84375 C 5.640625 -53.03125 8.9375 -63.097656 15.53125 -70.046875 C 22.125 -77.003906 31.707031 -80.484375 44.28125 -80.484375 C 56.894531 -80.484375 66.453125 -77.03125 72.953125 -70.125 C 79.453125 -63.226562 82.703125 -53.097656 82.703125 -39.734375 Z M 28.1875 -39.734375 C 28.1875 -24.410156 33.515625 -16.75 44.171875 -16.75 C 49.585938 -16.75 53.601562 -18.609375 56.21875 -22.328125 C 58.84375 -26.046875 60.15625 -31.847656 60.15625 -39.734375 C 60.15625 -47.640625 58.828125 -53.476562 56.171875 -57.25 C 53.515625 -61.03125 49.550781 -62.921875 44.28125 -62.921875 C 33.550781 -62.921875 28.1875 -55.191406 28.1875 -39.734375 Z M 28.1875 -39.734375 "/></g></g><g transform="translate(1545.374611, 1027.968421)"><g><path d="M 43.09375 0 L 26.890625 -57.078125 L 26.390625 -57.078125 C 27.148438 -47.359375 27.53125 -39.804688 27.53125 -34.421875 L 27.53125 0 L 8.5625 0 L 8.5625 -79.234375 L 37.078125 -79.234375 L 53.609375 -22.984375 L 54.03125 -22.984375 L 70.25 -79.234375 L 98.8125 -79.234375 L 98.8125 0 L 79.125 0 L 79.125 -34.734375 C 79.125 -36.546875 79.148438 -38.550781 79.203125 -40.75 C 79.265625 -42.957031 79.507812 -48.363281 79.9375 -56.96875 L 79.453125 -56.96875 L 63.46875 0 Z M 43.09375 0 "/></g></g><g transform="translate(1652.689056, 1027.968421)"><g><path d="M 8.5625 0 L 8.5625 -79.234375 L 30.078125 -79.234375 L 30.078125 0 Z M 8.5625 0 "/></g></g><g transform="translate(1691.333095, 1027.968421)"><g><path d="M 84.015625 0 L 55.9375 0 L 26.984375 -55.828125 L 26.5 -55.828125 C 27.1875 -47.046875 27.53125 -40.34375 27.53125 -35.71875 L 27.53125 0 L 8.5625 0 L 8.5625 -79.234375 L 36.53125 -79.234375 L 65.359375 -24.171875 L 65.6875 -24.171875 C 65.1875 -32.160156 64.9375 -38.570312 64.9375 -43.40625 L 64.9375 -79.234375 L 84.015625 -79.234375 Z M 84.015625 0 "/></g></g><g transform="translate(1783.905354, 1027.968421)"><g><path d="M 40.375 -46.390625 L 74.578125 -46.390625 L 74.578125 -3.6875 C 65.296875 -0.507812 55.085938 1.078125 43.953125 1.078125 C 31.742188 1.078125 22.304688 -2.457031 15.640625 -9.53125 C 8.972656 -16.613281 5.640625 -26.71875 5.640625 -39.84375 C 5.640625 -52.625 9.285156 -62.570312 16.578125 -69.6875 C 23.878906 -76.8125 34.109375 -80.375 47.265625 -80.375 C 52.242188 -80.375 56.945312 -79.90625 61.375 -78.96875 C 65.800781 -78.03125 69.660156 -76.835938 72.953125 -75.390625 L 66.171875 -58.59375 C 60.460938 -61.40625 54.195312 -62.8125 47.375 -62.8125 C 41.125 -62.8125 36.289062 -60.78125 32.875 -56.71875 C 29.457031 -52.65625 27.75 -46.847656 27.75 -39.296875 C 27.75 -31.890625 29.289062 -26.242188 32.375 -22.359375 C 35.46875 -18.472656 39.925781 -16.53125 45.75 -16.53125 C 48.925781 -16.53125 51.851562 -16.835938 54.53125 -17.453125 L 54.53125 -29.859375 L 40.375 -29.859375 Z M 40.375 -46.390625 "/></g></g></g><g fill="rgb(0%, 0%, 0%)" fill-opacity="1"><g transform="translate(1090.838022, 1158.468411)"><g><path d="M 75.828125 -41.296875 C 75.828125 -28.078125 72.1875 -17.890625 64.90625 -10.734375 C 57.625 -3.578125 47.390625 0 34.203125 0 L 8.5625 0 L 8.5625 -79.234375 L 35.984375 -79.234375 C 48.703125 -79.234375 58.519531 -75.984375 65.4375 -69.484375 C 72.363281 -62.984375 75.828125 -53.585938 75.828125 -41.296875 Z M 53.609375 -40.546875 C 53.609375 -47.804688 52.171875 -53.1875 49.296875 -56.6875 C 46.421875 -60.195312 42.054688 -61.953125 36.203125 -61.953125 L 29.96875 -61.953125 L 29.96875 -17.5625 L 34.734375 -17.5625 C 41.242188 -17.5625 46.015625 -19.445312 49.046875 -23.21875 C 52.085938 -27 53.609375 -32.773438 53.609375 -40.546875 Z M 53.609375 -40.546875 "/></g></g><g transform="translate(1172.299441, 1158.468411)"><g><path d="M 8.5625 0 L 8.5625 -79.234375 L 30.078125 -79.234375 L 30.078125 0 Z M 8.5625 0 "/></g></g><g transform="translate(1210.943481, 1158.468411)"><g><path d="M 60.375 -24.0625 C 60.375 -19.144531 59.128906 -14.78125 56.640625 -10.96875 C 54.148438 -7.15625 50.554688 -4.191406 45.859375 -2.078125 C 41.160156 0.0234375 35.648438 1.078125 29.328125 1.078125 C 24.046875 1.078125 19.613281 0.707031 16.03125 -0.03125 C 12.457031 -0.769531 8.738281 -2.0625 4.875 -3.90625 L 4.875 -22.984375 C 8.957031 -20.890625 13.203125 -19.253906 17.609375 -18.078125 C 22.023438 -16.898438 26.070312 -16.3125 29.75 -16.3125 C 32.9375 -16.3125 35.269531 -16.863281 36.75 -17.96875 C 38.226562 -19.070312 38.96875 -20.488281 38.96875 -22.21875 C 38.96875 -23.300781 38.671875 -24.25 38.078125 -25.0625 C 37.484375 -25.875 36.523438 -26.695312 35.203125 -27.53125 C 33.878906 -28.363281 30.363281 -30.0625 24.65625 -32.625 C 19.488281 -34.976562 15.613281 -37.253906 13.03125 -39.453125 C 10.445312 -41.660156 8.53125 -44.191406 7.28125 -47.046875 C 6.039062 -49.898438 5.421875 -53.28125 5.421875 -57.1875 C 5.421875 -64.476562 8.078125 -70.164062 13.390625 -74.25 C 18.703125 -78.332031 26 -80.375 35.28125 -80.375 C 43.488281 -80.375 51.851562 -78.476562 60.375 -74.6875 L 53.8125 -58.15625 C 46.40625 -61.550781 40.015625 -63.25 34.640625 -63.25 C 31.847656 -63.25 29.820312 -62.757812 28.5625 -61.78125 C 27.300781 -60.8125 26.671875 -59.601562 26.671875 -58.15625 C 26.671875 -56.601562 27.472656 -55.210938 29.078125 -53.984375 C 30.679688 -52.753906 35.046875 -50.515625 42.171875 -47.265625 C 48.992188 -44.191406 53.734375 -40.894531 56.390625 -37.375 C 59.046875 -33.851562 60.375 -29.414062 60.375 -24.0625 Z M 60.375 -24.0625 "/></g></g><g transform="translate(1275.006953, 1158.468411)"><g><path d="M 43.515625 0 L 22.109375 0 L 22.109375 -61.734375 L 2.765625 -61.734375 L 2.765625 -79.234375 L 62.8125 -79.234375 L 62.8125 -61.734375 L 43.515625 -61.734375 Z M 43.515625 0 "/></g></g><g transform="translate(1340.588002, 1158.468411)"><g><path d="M 29.96875 -28.828125 L 29.96875 0 L 8.5625 0 L 8.5625 -79.234375 L 34.53125 -79.234375 C 56.0625 -79.234375 66.828125 -71.429688 66.828125 -55.828125 C 66.828125 -46.648438 62.347656 -39.550781 53.390625 -34.53125 L 76.46875 0 L 52.1875 0 L 35.390625 -28.828125 Z M 29.96875 -44.9375 L 33.984375 -44.9375 C 41.460938 -44.9375 45.203125 -48.238281 45.203125 -54.84375 C 45.203125 -60.300781 41.535156 -63.03125 34.203125 -63.03125 L 29.96875 -63.03125 Z M 29.96875 -44.9375 "/></g></g><g transform="translate(1415.708113, 1158.468411)"><g><path d="M 8.5625 0 L 8.5625 -79.234375 L 30.078125 -79.234375 L 30.078125 0 Z M 8.5625 0 "/></g></g><g transform="translate(1454.352153, 1158.468411)"><g><path d="M 43.84375 -62.8125 C 38.75 -62.8125 34.773438 -60.722656 31.921875 -56.546875 C 29.066406 -52.378906 27.640625 -46.628906 27.640625 -39.296875 C 27.640625 -24.046875 33.441406 -16.421875 45.046875 -16.421875 C 48.546875 -16.421875 51.9375 -16.90625 55.21875 -17.875 C 58.507812 -18.851562 61.816406 -20.03125 65.140625 -21.40625 L 65.140625 -3.3125 C 58.535156 -0.382812 51.054688 1.078125 42.703125 1.078125 C 30.742188 1.078125 21.578125 -2.390625 15.203125 -9.328125 C 8.828125 -16.265625 5.640625 -26.289062 5.640625 -39.40625 C 5.640625 -47.601562 7.179688 -54.804688 10.265625 -61.015625 C 13.359375 -67.234375 17.800781 -72.015625 23.59375 -75.359375 C 29.394531 -78.703125 36.21875 -80.375 44.0625 -80.375 C 52.625 -80.375 60.804688 -78.515625 68.609375 -74.796875 L 62.0625 -57.9375 C 59.132812 -59.3125 56.207031 -60.46875 53.28125 -61.40625 C 50.351562 -62.34375 47.207031 -62.8125 43.84375 -62.8125 Z M 43.84375 -62.8125 "/></g></g><g transform="translate(1526.382908, 1158.468411)"><g><path d="M 43.515625 0 L 22.109375 0 L 22.109375 -61.734375 L 2.765625 -61.734375 L 2.765625 -79.234375 L 62.8125 -79.234375 L 62.8125 -61.734375 L 43.515625 -61.734375 Z M 43.515625 0 "/></g></g><g transform="translate(1591.963957, 1158.468411)"><g/></g><g transform="translate(1620.79794, 1158.468411)"><g><path d="M 43.84375 -62.8125 C 38.75 -62.8125 34.773438 -60.722656 31.921875 -56.546875 C 29.066406 -52.378906 27.640625 -46.628906 27.640625 -39.296875 C 27.640625 -24.046875 33.441406 -16.421875 45.046875 -16.421875 C 48.546875 -16.421875 51.9375 -16.90625 55.21875 -17.875 C 58.507812 -18.851562 61.816406 -20.03125 65.140625 -21.40625 L 65.140625 -3.3125 C 58.535156 -0.382812 51.054688 1.078125 42.703125 1.078125 C 30.742188 1.078125 21.578125 -2.390625 15.203125 -9.328125 C 8.828125 -16.265625 5.640625 -26.289062 5.640625 -39.40625 C 5.640625 -47.601562 7.179688 -54.804688 10.265625 -61.015625 C 13.359375 -67.234375 17.800781 -72.015625 23.59375 -75.359375 C 29.394531 -78.703125 36.21875 -80.375 44.0625 -80.375 C 52.625 -80.375 60.804688 -78.515625 68.609375 -74.796875 L 62.0625 -57.9375 C 59.132812 -59.3125 56.207031 -60.46875 53.28125 -61.40625 C 50.351562 -62.34375 47.207031 -62.8125 43.84375 -62.8125 Z M 43.84375 -62.8125 "/></g></g><g transform="translate(1692.828696, 1158.468411)"><g><path d="M 82.703125 -39.734375 C 82.703125 -26.398438 79.429688 -16.265625 72.890625 -9.328125 C 66.359375 -2.390625 56.785156 1.078125 44.171875 1.078125 C 31.742188 1.078125 22.210938 -2.40625 15.578125 -9.375 C 8.953125 -16.351562 5.640625 -26.507812 5.640625 -39.84375 C 5.640625 -53.03125 8.9375 -63.097656 15.53125 -70.046875 C 22.125 -77.003906 31.707031 -80.484375 44.28125 -80.484375 C 56.894531 -80.484375 66.453125 -77.03125 72.953125 -70.125 C 79.453125 -63.226562 82.703125 -53.097656 82.703125 -39.734375 Z M 28.1875 -39.734375 C 28.1875 -24.410156 33.515625 -16.75 44.171875 -16.75 C 49.585938 -16.75 53.601562 -18.609375 56.21875 -22.328125 C 58.84375 -26.046875 60.15625 -31.847656 60.15625 -39.734375 C 60.15625 -47.640625 58.828125 -53.476562 56.171875 -57.25 C 53.515625 -61.03125 49.550781 -62.921875 44.28125 -62.921875 C 33.550781 -62.921875 28.1875 -55.191406 28.1875 -39.734375 Z M 28.1875 -39.734375 "/></g></g><g transform="translate(1781.281814, 1158.468411)"><g><path d="M 75.9375 -79.234375 L 75.9375 -31.546875 C 75.9375 -21.171875 73 -13.140625 67.125 -7.453125 C 61.25 -1.765625 52.785156 1.078125 41.734375 1.078125 C 30.929688 1.078125 22.628906 -1.679688 16.828125 -7.203125 C 11.023438 -12.734375 8.125 -20.6875 8.125 -31.0625 L 8.125 -79.234375 L 29.640625 -79.234375 L 29.640625 -32.734375 C 29.640625 -27.128906 30.6875 -23.0625 32.78125 -20.53125 C 34.882812 -18.007812 37.976562 -16.75 42.0625 -16.75 C 46.425781 -16.75 49.59375 -18.003906 51.5625 -20.515625 C 53.539062 -23.023438 54.53125 -27.132812 54.53125 -32.84375 L 54.53125 -79.234375 Z M 75.9375 -79.234375 "/></g></g><g transform="translate(1865.290596, 1158.468411)"><g><path d="M 29.96875 -28.828125 L 29.96875 0 L 8.5625 0 L 8.5625 -79.234375 L 34.53125 -79.234375 C 56.0625 -79.234375 66.828125 -71.429688 66.828125 -55.828125 C 66.828125 -46.648438 62.347656 -39.550781 53.390625 -34.53125 L 76.46875 0 L 52.1875 0 L 35.390625 -28.828125 Z M 29.96875 -44.9375 L 33.984375 -44.9375 C 41.460938 -44.9375 45.203125 -48.238281 45.203125 -54.84375 C 45.203125 -60.300781 41.535156 -63.03125 34.203125 -63.03125 L 29.96875 -63.03125 Z M 29.96875 -44.9375 "/></g></g><g transform="translate(1940.410707, 1158.468411)"><g><path d="M 43.515625 0 L 22.109375 0 L 22.109375 -61.734375 L 2.765625 -61.734375 L 2.765625 -79.234375 L 62.8125 -79.234375 L 62.8125 -61.734375 L 43.515625 -61.734375 Z M 43.515625 0 "/></g></g></g><g clip-path="url(#id3)"><path fill="rgb(97.648621%, 65.489197%, 16.859436%)" d="M 2791.207031 1352.453125 L 2964.21875 1202.453125 L 2618.210938 1202.453125 Z M 2791.207031 1352.453125 " fill-opacity="1" fill-rule="nonzero"/></g></svg>