<svg xmlns="http://www.w3.org/2000/svg" width="3750" viewBox="0 0 3750 1875" height="1875" version="1.0"><defs><clipPath id="a"><path d="M 832.316406 1190.804688 L 1178.816406 1190.804688 L 1178.816406 1340.804688 L 832.316406 1340.804688 Z M 832.316406 1190.804688"/></clipPath></defs><path fill="#FF1616" d="M 776.324219 903.722656 L 2370.316406 903.722656 L 2370.316406 1251.210938 L 776.324219 1251.210938 L 776.324219 903.722656"/><path fill="#77838D" d="M 776.324219 1254.09375 L 773.445312 1254.09375 L 773.445312 900.84375 L 2373.195312 900.84375 L 2373.195312 1254.09375 L 776.324219 1254.09375 M 779.203125 906.605469 L 779.203125 1248.332031 L 2367.4375 1248.332031 L 2367.4375 906.605469 L 779.203125 906.605469"/><path fill="#FFF" d="M 836.792969 964.800781 L 2309.273438 964.800781 L 2309.273438 1190.710938 L 836.792969 1190.710938 L 836.792969 964.800781"/><path fill="#FF1616" d="M 2376.304688 903.726562 L 3196.296875 903.726562 L 3196.296875 1251.210938 L 2376.304688 1251.210938 L 2376.304688 903.726562"/><path fill="#77838D" d="M 2376.304688 1254.09375 L 2373.425781 1254.09375 L 2373.425781 900.84375 L 3199.175781 900.84375 L 3199.175781 1254.09375 L 2376.304688 1254.09375 M 2379.1875 906.605469 L 2379.1875 1248.332031 L 3193.417969 1248.332031 L 3193.417969 906.605469 L 2379.1875 906.605469"/><path fill="#FFF" d="M 2436.78125 964.800781 L 3135.246094 964.800781 L 3135.246094 1190.710938 L 2436.78125 1190.710938 L 2436.78125 964.800781"/><g clip-path="url(#a)"><path fill="#FF1616" d="M 1005.5625 1340.804688 L 1178.570312 1190.804688 L 832.5625 1190.804688 Z M 1005.5625 1340.804688"/></g><g><g><g><path d="M 82.796875 0 L 47.546875 0 L 47.546875 -68.03125 C 47.546875 -76.289062 47.722656 -83.847656 48.078125 -90.703125 C 45.910156 -88.066406 43.210938 -85.3125 39.984375 -82.4375 L 25.40625 -70.40625 L 7.390625 -92.546875 L 51.5 -128.5 L 82.796875 -128.5 Z M 82.796875 0" transform="translate(2448.654 1152.426)"/></g></g><g><g><path d="M 58.359375 -84.203125 C 65.742188 -84.203125 72.410156 -82.488281 78.359375 -79.0625 C 84.304688 -75.632812 88.929688 -70.785156 92.234375 -64.515625 C 95.546875 -58.242188 97.203125 -51.003906 97.203125 -42.796875 C 97.203125 -28.441406 92.878906 -17.425781 84.234375 -9.75 C 75.597656 -2.070312 62.519531 1.765625 45 1.765625 C 30 1.765625 17.753906 -0.550781 8.265625 -5.1875 L 8.265625 -33.65625 C 13.359375 -31.3125 19.113281 -29.378906 25.53125 -27.859375 C 31.945312 -26.335938 37.46875 -25.578125 42.09375 -25.578125 C 48.539062 -25.578125 53.492188 -26.9375 56.953125 -29.65625 C 60.410156 -32.382812 62.140625 -36.414062 62.140625 -41.75 C 62.140625 -46.664062 60.378906 -50.5 56.859375 -53.25 C 53.347656 -56.007812 48.019531 -57.390625 40.875 -57.390625 C 35.425781 -57.390625 29.535156 -56.363281 23.203125 -54.3125 L 10.453125 -60.640625 L 15.296875 -128.5 L 88.59375 -128.5 L 88.59375 -99.578125 L 44.828125 -99.578125 L 43.25 -82.625 C 47.8125 -83.5 51.0625 -83.976562 53 -84.0625 C 54.9375 -84.15625 56.722656 -84.203125 58.359375 -84.203125 Z M 58.359375 -84.203125" transform="translate(2554.123 1152.426)"/></g></g><g><g><path d="M 3.78125 -34.546875 L 3.78125 -61.96875 L 53.4375 -61.96875 L 53.4375 -34.546875 Z M 3.78125 -34.546875" transform="translate(2659.592 1152.426)"/></g></g><g><g><path d="M 69.875 0 L 43.59375 -92.546875 L 42.796875 -92.546875 C 44.035156 -76.785156 44.65625 -64.539062 44.65625 -55.8125 L 44.65625 0 L 13.890625 0 L 13.890625 -128.5 L 60.125 -128.5 L 86.921875 -37.265625 L 87.625 -37.265625 L 113.90625 -128.5 L 160.21875 -128.5 L 160.21875 0 L 128.328125 0 L 128.328125 -56.34375 C 128.328125 -59.269531 128.367188 -62.519531 128.453125 -66.09375 C 128.535156 -69.664062 128.929688 -78.425781 129.640625 -92.375 L 128.84375 -92.375 L 102.921875 0 Z M 69.875 0" transform="translate(2716.809 1152.426)"/></g></g><g><g><path d="M 13.890625 0 L 13.890625 -128.5 L 48.78125 -128.5 L 48.78125 0 Z M 13.890625 0" transform="translate(2890.832 1152.426)"/></g></g><g><g><path d="M 136.234375 0 L 90.703125 0 L 43.765625 -90.53125 L 42.984375 -90.53125 C 44.097656 -76.289062 44.65625 -65.421875 44.65625 -57.921875 L 44.65625 0 L 13.890625 0 L 13.890625 -128.5 L 59.234375 -128.5 L 106 -39.203125 L 106.53125 -39.203125 C 105.707031 -52.148438 105.296875 -62.550781 105.296875 -70.40625 L 105.296875 -128.5 L 136.234375 -128.5 Z M 136.234375 0" transform="translate(2953.498 1152.426)"/></g></g></g><g><g><g><path d="M 136.234375 0 L 90.703125 0 L 43.765625 -90.53125 L 42.984375 -90.53125 C 44.097656 -76.289062 44.65625 -65.421875 44.65625 -57.921875 L 44.65625 0 L 13.890625 0 L 13.890625 -128.5 L 59.234375 -128.5 L 106 -39.203125 L 106.53125 -39.203125 C 105.707031 -52.148438 105.296875 -62.550781 105.296875 -70.40625 L 105.296875 -128.5 L 136.234375 -128.5 Z M 136.234375 0" transform="translate(878.593 1152.426)"/></g></g><g><g><path d="M 92.71875 0 L 86.390625 -24.078125 L 44.65625 -24.078125 L 38.140625 0 L 0 0 L 41.921875 -129.03125 L 88.25 -129.03125 L 130.6875 0 Z M 79.1875 -52.5625 L 73.65625 -73.65625 C 72.363281 -78.34375 70.796875 -84.40625 68.953125 -91.84375 C 67.109375 -99.289062 65.890625 -104.625 65.296875 -107.84375 C 64.773438 -104.851562 63.738281 -99.929688 62.1875 -93.078125 C 60.632812 -86.222656 57.191406 -72.71875 51.859375 -52.5625 Z M 79.1875 -52.5625" transform="translate(1028.71 1152.426)"/></g></g><g><g><path d="M 97.90625 -39.03125 C 97.90625 -31.0625 95.882812 -23.984375 91.84375 -17.796875 C 87.800781 -11.617188 81.972656 -6.8125 74.359375 -3.375 C 66.742188 0.0507812 57.804688 1.765625 47.546875 1.765625 C 38.992188 1.765625 31.816406 1.164062 26.015625 -0.03125 C 20.210938 -1.238281 14.175781 -3.335938 7.90625 -6.328125 L 7.90625 -37.265625 C 14.53125 -33.867188 21.414062 -31.21875 28.5625 -29.3125 C 35.707031 -27.40625 42.269531 -26.453125 48.25 -26.453125 C 53.40625 -26.453125 57.179688 -27.34375 59.578125 -29.125 C 61.984375 -30.914062 63.1875 -33.21875 63.1875 -36.03125 C 63.1875 -37.789062 62.703125 -39.328125 61.734375 -40.640625 C 60.773438 -41.960938 59.222656 -43.296875 57.078125 -44.640625 C 54.941406 -45.992188 49.242188 -48.75 39.984375 -52.90625 C 31.609375 -56.71875 25.328125 -60.410156 21.140625 -63.984375 C 16.953125 -67.554688 13.847656 -71.65625 11.828125 -76.28125 C 9.804688 -80.914062 8.796875 -86.394531 8.796875 -92.71875 C 8.796875 -104.5625 13.097656 -113.789062 21.703125 -120.40625 C 30.316406 -127.03125 42.15625 -130.34375 57.21875 -130.34375 C 70.519531 -130.34375 84.082031 -127.265625 97.90625 -121.109375 L 87.28125 -94.3125 C 75.269531 -99.8125 64.894531 -102.5625 56.15625 -102.5625 C 51.644531 -102.5625 48.363281 -101.769531 46.3125 -100.1875 C 44.269531 -98.613281 43.25 -96.65625 43.25 -94.3125 C 43.25 -91.789062 44.550781 -89.53125 47.15625 -87.53125 C 49.757812 -85.539062 56.832031 -81.910156 68.375 -76.640625 C 79.445312 -71.660156 87.132812 -66.3125 91.4375 -60.59375 C 95.75 -54.882812 97.90625 -47.695312 97.90625 -39.03125 Z M 97.90625 -39.03125" transform="translate(1159.404 1152.426)"/></g></g><g><g><path d="M 124.015625 0 L 89.125 0 L 89.125 -52.390625 L 48.78125 -52.390625 L 48.78125 0 L 13.890625 0 L 13.890625 -128.5 L 48.78125 -128.5 L 48.78125 -80.859375 L 89.125 -80.859375 L 89.125 -128.5 L 124.015625 -128.5 Z M 124.015625 0" transform="translate(1263.29 1152.426)"/></g></g><g><g><path d="M 13.890625 0 L 13.890625 -128.5 L 48.78125 -128.5 L 48.78125 0 Z M 13.890625 0" transform="translate(1401.19 1152.426)"/></g></g><g><g><path d="M 123.65625 0 L 84.46875 0 L 59.0625 -49.125 L 48.78125 -42.984375 L 48.78125 0 L 13.890625 0 L 13.890625 -128.5 L 48.78125 -128.5 L 48.78125 -72.6875 C 50.539062 -76.144531 54.085938 -81.625 59.421875 -89.125 L 86.390625 -128.5 L 124.359375 -128.5 L 83.84375 -70.921875 Z M 123.65625 0" transform="translate(1463.857 1152.426)"/></g></g><g><g><path d="M 107.140625 -87.625 C 107.140625 -73.269531 102.90625 -62.179688 94.4375 -54.359375 C 85.96875 -46.535156 73.941406 -42.625 58.359375 -42.625 L 48.609375 -42.625 L 48.609375 0 L 13.890625 0 L 13.890625 -128.5 L 58.359375 -128.5 C 74.585938 -128.5 86.773438 -124.953125 94.921875 -117.859375 C 103.066406 -110.773438 107.140625 -100.695312 107.140625 -87.625 Z M 48.609375 -70.921875 L 54.9375 -70.921875 C 60.144531 -70.921875 64.285156 -72.382812 67.359375 -75.3125 C 70.441406 -78.25 71.984375 -82.296875 71.984375 -87.453125 C 71.984375 -96.117188 67.175781 -100.453125 57.5625 -100.453125 L 48.609375 -100.453125 Z M 48.609375 -70.921875" transform="translate(1634.277 1152.426)"/></g></g><g><g><path d="M 124.015625 0 L 89.125 0 L 89.125 -52.390625 L 48.78125 -52.390625 L 48.78125 0 L 13.890625 0 L 13.890625 -128.5 L 48.78125 -128.5 L 48.78125 -80.859375 L 89.125 -80.859375 L 89.125 -128.5 L 124.015625 -128.5 Z M 124.015625 0" transform="translate(1748.007 1152.426)"/></g></g><g><g><path d="M 92.71875 0 L 86.390625 -24.078125 L 44.65625 -24.078125 L 38.140625 0 L 0 0 L 41.921875 -129.03125 L 88.25 -129.03125 L 130.6875 0 Z M 79.1875 -52.5625 L 73.65625 -73.65625 C 72.363281 -78.34375 70.796875 -84.40625 68.953125 -91.84375 C 67.109375 -99.289062 65.890625 -104.625 65.296875 -107.84375 C 64.773438 -104.851562 63.738281 -99.929688 62.1875 -93.078125 C 60.632812 -86.222656 57.191406 -72.71875 51.859375 -52.5625 Z M 79.1875 -52.5625" transform="translate(1885.908 1152.426)"/></g></g><g><g><path d="M 70.578125 0 L 35.859375 0 L 35.859375 -100.109375 L 4.484375 -100.109375 L 4.484375 -128.5 L 101.859375 -128.5 L 101.859375 -100.109375 L 70.578125 -100.109375 Z M 70.578125 0" transform="translate(2016.601 1152.426)"/></g></g><g><g><path d="M 92.71875 0 L 86.390625 -24.078125 L 44.65625 -24.078125 L 38.140625 0 L 0 0 L 41.921875 -129.03125 L 88.25 -129.03125 L 130.6875 0 Z M 79.1875 -52.5625 L 73.65625 -73.65625 C 72.363281 -78.34375 70.796875 -84.40625 68.953125 -91.84375 C 67.109375 -99.289062 65.890625 -104.625 65.296875 -107.84375 C 64.773438 -104.851562 63.738281 -99.929688 62.1875 -93.078125 C 60.632812 -86.222656 57.191406 -72.71875 51.859375 -52.5625 Z M 79.1875 -52.5625" transform="translate(2122.949 1152.426)"/></g></g></g></svg>