<svg xmlns="http://www.w3.org/2000/svg" width="3750" viewBox="0 0 3750 1875" height="1875" version="1.0"><defs><clipPath id="a"><path d="M 2411.390625 1175.410156 L 3171 1175.410156 L 3171 1504.660156 L 2411.390625 1504.660156 Z M 2411.390625 1175.410156"/></clipPath></defs><path fill="#FF1616" d="M 787.101562 851.546875 L 2370.761719 851.546875 L 2370.761719 1250.960938 L 787.101562 1250.960938 L 787.101562 851.546875"/><path fill="#77838D" d="M 787.101562 1253.753906 L 784.308594 1253.753906 L 784.308594 848.753906 L 2373.554688 848.753906 L 2373.554688 1253.753906 L 787.101562 1253.753906 M 789.894531 854.335938 L 789.894531 1248.167969 L 2367.96875 1248.167969 L 2367.96875 854.335938 L 789.894531 854.335938"/><path fill="#FFF" d="M 845.773438 910.742188 L 2311.53125 910.742188 L 2311.53125 1192.320312 L 845.773438 1192.320312 L 845.773438 910.742188"/><path fill="#FF1616" d="M 2376.222656 851.546875 L 3206.882812 851.546875 L 3206.882812 1250.957031 L 2376.222656 1250.957031 L 2376.222656 851.546875"/><path fill="#77838D" d="M 2376.222656 1253.75 L 2373.425781 1253.75 L 2373.425781 848.753906 L 3209.675781 848.753906 L 3209.675781 1253.75 L 2376.222656 1253.75 M 2379.015625 854.339844 L 2379.015625 1248.167969 L 3204.085938 1248.167969 L 3204.085938 854.339844 L 2379.015625 854.339844"/><path fill="#FFF" d="M 2434.914062 910.742188 L 3147.628906 910.742188 L 3147.628906 1192.320312 L 2434.914062 1192.320312 L 2434.914062 910.742188"/><g clip-path="url(#a)"><path fill="#FF1616" d="M 2791.253906 1504.660156 L 3170.609375 1175.410156 L 2411.925781 1175.410156 Z M 2791.253906 1504.660156"/></g><g><g><g><path d="M 82.796875 0 L 47.546875 0 L 47.546875 -68.03125 C 47.546875 -76.289062 47.722656 -83.847656 48.078125 -90.703125 C 45.910156 -88.066406 43.210938 -85.3125 39.984375 -82.4375 L 25.40625 -70.40625 L 7.390625 -92.546875 L 51.5 -128.5 L 82.796875 -128.5 Z M 82.796875 0" transform="translate(2463.881 1115.25)"/></g></g><g><g><path d="M 58.359375 -84.203125 C 65.742188 -84.203125 72.410156 -82.488281 78.359375 -79.0625 C 84.304688 -75.632812 88.929688 -70.785156 92.234375 -64.515625 C 95.546875 -58.242188 97.203125 -51.003906 97.203125 -42.796875 C 97.203125 -28.441406 92.878906 -17.425781 84.234375 -9.75 C 75.597656 -2.070312 62.519531 1.765625 45 1.765625 C 30 1.765625 17.753906 -0.550781 8.265625 -5.1875 L 8.265625 -33.65625 C 13.359375 -31.3125 19.113281 -29.378906 25.53125 -27.859375 C 31.945312 -26.335938 37.46875 -25.578125 42.09375 -25.578125 C 48.539062 -25.578125 53.492188 -26.9375 56.953125 -29.65625 C 60.410156 -32.382812 62.140625 -36.414062 62.140625 -41.75 C 62.140625 -46.664062 60.378906 -50.5 56.859375 -53.25 C 53.347656 -56.007812 48.019531 -57.390625 40.875 -57.390625 C 35.425781 -57.390625 29.535156 -56.363281 23.203125 -54.3125 L 10.453125 -60.640625 L 15.296875 -128.5 L 88.59375 -128.5 L 88.59375 -99.578125 L 44.828125 -99.578125 L 43.25 -82.625 C 47.8125 -83.5 51.0625 -83.976562 53 -84.0625 C 54.9375 -84.15625 56.722656 -84.203125 58.359375 -84.203125 Z M 58.359375 -84.203125" transform="translate(2569.35 1115.25)"/></g></g><g><g><path d="M 3.78125 -34.546875 L 3.78125 -61.96875 L 53.4375 -61.96875 L 53.4375 -34.546875 Z M 3.78125 -34.546875" transform="translate(2674.819 1115.25)"/></g></g><g><g><path d="M 69.875 0 L 43.59375 -92.546875 L 42.796875 -92.546875 C 44.035156 -76.785156 44.65625 -64.539062 44.65625 -55.8125 L 44.65625 0 L 13.890625 0 L 13.890625 -128.5 L 60.125 -128.5 L 86.921875 -37.265625 L 87.625 -37.265625 L 113.90625 -128.5 L 160.21875 -128.5 L 160.21875 0 L 128.328125 0 L 128.328125 -56.34375 C 128.328125 -59.269531 128.367188 -62.519531 128.453125 -66.09375 C 128.535156 -69.664062 128.929688 -78.425781 129.640625 -92.375 L 128.84375 -92.375 L 102.921875 0 Z M 69.875 0" transform="translate(2732.035 1115.25)"/></g></g><g><g><path d="M 13.890625 0 L 13.890625 -128.5 L 48.78125 -128.5 L 48.78125 0 Z M 13.890625 0" transform="translate(2906.059 1115.25)"/></g></g><g><g><path d="M 136.234375 0 L 90.703125 0 L 43.765625 -90.53125 L 42.984375 -90.53125 C 44.097656 -76.289062 44.65625 -65.421875 44.65625 -57.921875 L 44.65625 0 L 13.890625 0 L 13.890625 -128.5 L 59.234375 -128.5 L 106 -39.203125 L 106.53125 -39.203125 C 105.707031 -52.148438 105.296875 -62.550781 105.296875 -70.40625 L 105.296875 -128.5 L 136.234375 -128.5 Z M 136.234375 0" transform="translate(2968.725 1115.25)"/></g></g></g><g><g><g><path d="M 136.234375 0 L 90.703125 0 L 43.765625 -90.53125 L 42.984375 -90.53125 C 44.097656 -76.289062 44.65625 -65.421875 44.65625 -57.921875 L 44.65625 0 L 13.890625 0 L 13.890625 -128.5 L 59.234375 -128.5 L 106 -39.203125 L 106.53125 -39.203125 C 105.707031 -52.148438 105.296875 -62.550781 105.296875 -70.40625 L 105.296875 -128.5 L 136.234375 -128.5 Z M 136.234375 0" transform="translate(879.96 1121.104)"/></g></g><g><g><path d="M 13.890625 0 L 13.890625 -128.5 L 48.78125 -128.5 L 48.78125 0 Z M 13.890625 0" transform="translate(1030.078 1121.104)"/></g></g><g><g><path d="M 65.484375 -75.234375 L 120.9375 -75.234375 L 120.9375 -5.984375 C 105.875 -0.816406 89.320312 1.765625 71.28125 1.765625 C 51.476562 1.765625 36.171875 -3.976562 25.359375 -15.46875 C 14.546875 -26.957031 9.140625 -43.332031 9.140625 -64.59375 C 9.140625 -85.34375 15.054688 -101.488281 26.890625 -113.03125 C 38.734375 -124.570312 55.316406 -130.34375 76.640625 -130.34375 C 84.722656 -130.34375 92.351562 -129.578125 99.53125 -128.046875 C 106.707031 -126.523438 112.960938 -124.59375 118.296875 -122.25 L 107.3125 -95.015625 C 98.050781 -99.578125 87.882812 -101.859375 76.8125 -101.859375 C 66.675781 -101.859375 58.835938 -98.5625 53.296875 -91.96875 C 47.765625 -85.382812 45 -75.96875 45 -63.71875 C 45 -51.707031 47.503906 -42.550781 52.515625 -36.25 C 57.523438 -29.957031 64.75 -26.8125 74.1875 -26.8125 C 79.34375 -26.8125 84.085938 -27.304688 88.421875 -28.296875 L 88.421875 -48.421875 L 65.484375 -48.421875 Z M 65.484375 -75.234375" transform="translate(1092.744 1121.104)"/></g></g><g><g><path d="M 122.953125 -66.96875 C 122.953125 -45.53125 117.050781 -29.007812 105.25 -17.40625 C 93.445312 -5.800781 76.847656 0 55.453125 0 L 13.890625 0 L 13.890625 -128.5 L 58.359375 -128.5 C 78.984375 -128.5 94.90625 -123.222656 106.125 -112.671875 C 117.34375 -102.128906 122.953125 -86.894531 122.953125 -66.96875 Z M 86.921875 -65.75 C 86.921875 -77.519531 84.59375 -86.242188 79.9375 -91.921875 C 75.28125 -97.609375 68.207031 -100.453125 58.71875 -100.453125 L 48.609375 -100.453125 L 48.609375 -28.484375 L 56.34375 -28.484375 C 66.882812 -28.484375 74.613281 -31.539062 79.53125 -37.65625 C 84.457031 -43.78125 86.921875 -53.144531 86.921875 -65.75 Z M 86.921875 -65.75" transform="translate(1225.986 1121.104)"/></g></g><g><g><path d="M 13.890625 0 L 13.890625 -128.5 L 48.78125 -128.5 L 48.78125 0 Z M 13.890625 0" transform="translate(1358.085 1121.104)"/></g></g><g><g><path d="M 48.078125 0 L 13.890625 0 L 13.890625 -128.5 L 89.828125 -128.5 L 89.828125 -100.640625 L 48.078125 -100.640625 L 48.078125 -76.109375 L 86.578125 -76.109375 L 86.578125 -48.25 L 48.078125 -48.25 Z M 48.078125 0" transform="translate(1467.51 1121.104)"/></g></g><g><g><path d="M 13.890625 0 L 13.890625 -128.5 L 48.609375 -128.5 L 48.609375 -28.03125 L 98.09375 -28.03125 L 98.09375 0 Z M 13.890625 0" transform="translate(1564.54 1121.104)"/></g></g><g><g><path d="M 59.765625 -80.859375 L 81.921875 -128.5 L 119.53125 -128.5 L 77.25 -50.1875 L 77.25 0 L 42.28125 0 L 42.28125 -49.125 L 0 -128.5 L 37.796875 -128.5 Z M 59.765625 -80.859375" transform="translate(1669.306 1121.104)"/></g></g><g><g><path d="M 134.125 -64.421875 C 134.125 -42.804688 128.820312 -26.367188 118.21875 -15.109375 C 107.613281 -3.859375 92.082031 1.765625 71.625 1.765625 C 51.46875 1.765625 36.015625 -3.890625 25.265625 -15.203125 C 14.515625 -26.515625 9.140625 -42.976562 9.140625 -64.59375 C 9.140625 -85.988281 14.484375 -102.320312 25.171875 -113.59375 C 35.867188 -124.875 51.414062 -130.515625 71.8125 -130.515625 C 92.257812 -130.515625 107.753906 -124.914062 118.296875 -113.71875 C 128.847656 -102.53125 134.125 -86.097656 134.125 -64.421875 Z M 45.703125 -64.421875 C 45.703125 -39.578125 54.34375 -27.15625 71.625 -27.15625 C 80.414062 -27.15625 86.9375 -30.171875 91.1875 -36.203125 C 95.4375 -42.242188 97.5625 -51.648438 97.5625 -64.421875 C 97.5625 -77.253906 95.40625 -86.734375 91.09375 -92.859375 C 86.789062 -98.984375 80.363281 -102.046875 71.8125 -102.046875 C 54.40625 -102.046875 45.703125 -89.503906 45.703125 -64.421875 Z M 45.703125 -64.421875" transform="translate(1788.837 1121.104)"/></g></g><g><g><path d="M 86.046875 -128.5 L 124.890625 -128.5 L 82.796875 0 L 41.921875 0 L 0 -128.5 L 39.03125 -128.5 L 56.515625 -63.375 C 60.148438 -48.894531 62.140625 -38.816406 62.484375 -33.140625 C 62.898438 -37.234375 63.722656 -42.359375 64.953125 -48.515625 C 66.179688 -54.671875 67.265625 -59.503906 68.203125 -63.015625 Z M 86.046875 -128.5" transform="translate(1932.275 1121.104)"/></g></g><g><g><path d="M 90.171875 0 L 13.890625 0 L 13.890625 -128.5 L 90.171875 -128.5 L 90.171875 -100.640625 L 48.609375 -100.640625 L 48.609375 -80.421875 L 87.09375 -80.421875 L 87.09375 -52.5625 L 48.609375 -52.5625 L 48.609375 -28.296875 L 90.171875 -28.296875 Z M 90.171875 0" transform="translate(2057.167 1121.104)"/></g></g><g><g><path d="M 48.609375 -46.765625 L 48.609375 0 L 13.890625 0 L 13.890625 -128.5 L 55.984375 -128.5 C 90.910156 -128.5 108.375 -115.84375 108.375 -90.53125 C 108.375 -75.644531 101.109375 -64.128906 86.578125 -55.984375 L 124.015625 0 L 84.640625 0 L 57.390625 -46.765625 Z M 48.609375 -72.859375 L 55.109375 -72.859375 C 67.234375 -72.859375 73.296875 -78.222656 73.296875 -88.953125 C 73.296875 -97.796875 67.347656 -102.21875 55.453125 -102.21875 L 48.609375 -102.21875 Z M 48.609375 -72.859375" transform="translate(2155.956 1121.104)"/></g></g></g></svg>