<svg xmlns="http://www.w3.org/2000/svg" xmlns:xlink="http://www.w3.org/1999/xlink" width="5000" zoomAndPan="magnify" viewBox="0 0 3750 1874.999927" height="2500" preserveAspectRatio="xMidYMid meet" version="1.0"><defs><g><g id="id1"/><g id="id2"/></g><clipPath id="id3"><path d="M 2618 1202.453125 L 2964.464844 1202.453125 L 2964.464844 1352.453125 L 2618 1352.453125 Z M 2618 1202.453125 " clip-rule="nonzero"/></clipPath></defs><path fill="rgb(97.648621%, 65.489197%, 16.859436%)" d="M 543.496094 725.382812 L 2370.878906 725.382812 L 2370.878906 1250.800781 L 543.496094 1250.800781 L 543.496094 725.382812 " fill-opacity="1" fill-rule="nonzero"/><path fill="rgb(46.669006%, 51.368713%, 55.288696%)" d="M 543.496094 1253.59375 L 540.699219 1253.59375 L 540.699219 722.59375 L 2373.675781 722.59375 L 2373.675781 1253.59375 L 543.496094 1253.59375 M 546.289062 728.175781 L 546.289062 1248.007812 L 2368.085938 1248.007812 L 2368.085938 728.175781 L 546.289062 728.175781 " fill-opacity="1" fill-rule="nonzero"/><path fill="rgb(100%, 100%, 100%)" d="M 602.171875 784.570312 L 2311.644531 784.570312 L 2311.644531 1192.171875 L 602.171875 1192.171875 L 602.171875 784.570312 " fill-opacity="1" fill-rule="nonzero"/><path fill="rgb(97.648621%, 65.489197%, 16.859436%)" d="M 2376.222656 725.382812 L 3206.878906 725.382812 L 3206.878906 1250.800781 L 2376.222656 1250.800781 L 2376.222656 725.382812 " fill-opacity="1" fill-rule="nonzero"/><path fill="rgb(46.669006%, 51.368713%, 55.288696%)" d="M 2376.222656 1253.59375 L 2373.429688 1253.59375 L 2373.429688 722.59375 L 3209.675781 722.59375 L 3209.675781 1253.59375 L 2376.222656 1253.59375 M 2379.019531 728.175781 L 2379.019531 1248.007812 L 3204.085938 1248.007812 L 3204.085938 728.175781 L 2379.019531 728.175781 " fill-opacity="1" fill-rule="nonzero"/><path fill="rgb(100%, 100%, 100%)" d="M 2434.917969 784.570312 L 3147.625 784.570312 L 3147.625 1192.171875 L 2434.917969 1192.171875 L 2434.917969 784.570312 " fill-opacity="1" fill-rule="nonzero"/><g fill="rgb(0%, 0%, 0%)" fill-opacity="1"><g transform="translate(2516.617832, 1042.13418)"><g><path d="M 58.359375 -84.203125 C 65.742188 -84.203125 72.410156 -82.488281 78.359375 -79.0625 C 84.304688 -75.632812 88.929688 -70.785156 92.234375 -64.515625 C 95.546875 -58.242188 97.203125 -51.003906 97.203125 -42.796875 C 97.203125 -28.441406 92.878906 -17.425781 84.234375 -9.75 C 75.597656 -2.070312 62.519531 1.765625 45 1.765625 C 30 1.765625 17.753906 -0.550781 8.265625 -5.1875 L 8.265625 -33.65625 C 13.359375 -31.3125 19.113281 -29.378906 25.53125 -27.859375 C 31.945312 -26.335938 37.46875 -25.578125 42.09375 -25.578125 C 48.539062 -25.578125 53.492188 -26.9375 56.953125 -29.65625 C 60.410156 -32.382812 62.140625 -36.414062 62.140625 -41.75 C 62.140625 -46.664062 60.378906 -50.5 56.859375 -53.25 C 53.347656 -56.007812 48.019531 -57.390625 40.875 -57.390625 C 35.425781 -57.390625 29.535156 -56.363281 23.203125 -54.3125 L 10.453125 -60.640625 L 15.296875 -128.5 L 88.59375 -128.5 L 88.59375 -99.578125 L 44.828125 -99.578125 L 43.25 -82.625 C 47.8125 -83.5 51.0625 -83.976562 53 -84.0625 C 54.9375 -84.15625 56.722656 -84.203125 58.359375 -84.203125 Z M 58.359375 -84.203125 "/></g></g><g transform="translate(2622.086574, 1042.13418)"><g><path d="M 3.78125 -34.546875 L 3.78125 -61.96875 L 53.4375 -61.96875 L 53.4375 -34.546875 Z M 3.78125 -34.546875 "/></g></g><g transform="translate(2679.303365, 1042.13418)"><g><path d="M 69.875 0 L 43.59375 -92.546875 L 42.796875 -92.546875 C 44.035156 -76.785156 44.65625 -64.539062 44.65625 -55.8125 L 44.65625 0 L 13.890625 0 L 13.890625 -128.5 L 60.125 -128.5 L 86.921875 -37.265625 L 87.625 -37.265625 L 113.90625 -128.5 L 160.21875 -128.5 L 160.21875 0 L 128.328125 0 L 128.328125 -56.34375 C 128.328125 -59.269531 128.367188 -62.519531 128.453125 -66.09375 C 128.535156 -69.664062 128.929688 -78.425781 129.640625 -92.375 L 128.84375 -92.375 L 102.921875 0 Z M 69.875 0 "/></g></g><g transform="translate(2853.32679, 1042.13418)"><g><path d="M 13.890625 0 L 13.890625 -128.5 L 48.78125 -128.5 L 48.78125 0 Z M 13.890625 0 "/></g></g><g transform="translate(2915.9928, 1042.13418)"><g><path d="M 136.234375 0 L 90.703125 0 L 43.765625 -90.53125 L 42.984375 -90.53125 C 44.097656 -76.289062 44.65625 -65.421875 44.65625 -57.921875 L 44.65625 0 L 13.890625 0 L 13.890625 -128.5 L 59.234375 -128.5 L 106 -39.203125 L 106.53125 -39.203125 C 105.707031 -52.148438 105.296875 -62.550781 105.296875 -70.40625 L 105.296875 -128.5 L 136.234375 -128.5 Z M 136.234375 0 "/></g></g></g><g fill="rgb(0%, 0%, 0%)" fill-opacity="1"><g transform="translate(824.197565, 902.991143)"><g><path d="M 65.875 -53.875 C 65.875 -45.050781 63.269531 -38.234375 58.0625 -33.421875 C 52.851562 -28.609375 45.457031 -26.203125 35.875 -26.203125 L 29.890625 -26.203125 L 29.890625 0 L 8.53125 0 L 8.53125 -79 L 35.875 -79 C 45.851562 -79 53.347656 -76.816406 58.359375 -72.453125 C 63.367188 -68.097656 65.875 -61.90625 65.875 -53.875 Z M 29.890625 -43.609375 L 33.78125 -43.609375 C 36.976562 -43.609375 39.523438 -44.507812 41.421875 -46.3125 C 43.316406 -48.113281 44.265625 -50.597656 44.265625 -53.765625 C 44.265625 -59.097656 41.304688 -61.765625 35.390625 -61.765625 L 29.890625 -61.765625 Z M 29.890625 -43.609375 "/></g></g></g><g fill="rgb(0%, 0%, 0%)" fill-opacity="1"><g transform="translate(894.116623, 902.991143)"><g><path d="M 75.703125 -79 L 75.703125 -31.453125 C 75.703125 -21.109375 72.773438 -13.097656 66.921875 -7.421875 C 61.066406 -1.753906 52.628906 1.078125 41.609375 1.078125 C 30.835938 1.078125 22.5625 -1.675781 16.78125 -7.1875 C 11 -12.695312 8.109375 -20.625 8.109375 -30.96875 L 8.109375 -79 L 29.5625 -79 L 29.5625 -32.640625 C 29.5625 -27.054688 30.601562 -23.003906 32.6875 -20.484375 C 34.78125 -17.960938 37.863281 -16.703125 41.9375 -16.703125 C 46.289062 -16.703125 49.445312 -17.953125 51.40625 -20.453125 C 53.375 -22.953125 54.359375 -27.050781 54.359375 -32.75 L 54.359375 -79 Z M 75.703125 -79 "/></g></g></g><g fill="rgb(0%, 0%, 0%)" fill-opacity="1"><g transform="translate(977.868199, 902.991143)"><g><path d="M 83.765625 0 L 55.765625 0 L 26.90625 -55.65625 L 26.421875 -55.65625 C 27.109375 -46.90625 27.453125 -40.222656 27.453125 -35.609375 L 27.453125 0 L 8.53125 0 L 8.53125 -79 L 36.421875 -79 L 65.171875 -24.09375 L 65.5 -24.09375 C 64.988281 -32.0625 64.734375 -38.457031 64.734375 -43.28125 L 64.734375 -79 L 83.765625 -79 Z M 83.765625 0 "/></g></g></g><g fill="rgb(0%, 0%, 0%)" fill-opacity="1"><g transform="translate(1070.157032, 902.991143)"><g><path d="M 55.4375 0 L 8.53125 0 L 8.53125 -79 L 55.4375 -79 L 55.4375 -61.875 L 29.890625 -61.875 L 29.890625 -49.453125 L 53.546875 -49.453125 L 53.546875 -32.3125 L 29.890625 -32.3125 L 29.890625 -17.40625 L 55.4375 -17.40625 Z M 55.4375 0 "/></g></g></g><g fill="rgb(0%, 0%, 0%)" fill-opacity="1"><g transform="translate(1130.890434, 902.991143)"><g/></g></g><g fill="rgb(0%, 0%, 0%)" fill-opacity="1"><g transform="translate(1159.636136, 902.991143)"><g><path d="M 8.53125 0 L 8.53125 -79 L 29.984375 -79 L 29.984375 0 Z M 8.53125 0 "/></g></g></g><g fill="rgb(0%, 0%, 0%)" fill-opacity="1"><g transform="translate(1198.161867, 902.991143)"><g><path d="M 83.765625 0 L 55.765625 0 L 26.90625 -55.65625 L 26.421875 -55.65625 C 27.109375 -46.90625 27.453125 -40.222656 27.453125 -35.609375 L 27.453125 0 L 8.53125 0 L 8.53125 -79 L 36.421875 -79 L 65.171875 -24.09375 L 65.5 -24.09375 C 64.988281 -32.0625 64.734375 -38.457031 64.734375 -43.28125 L 64.734375 -79 L 83.765625 -79 Z M 83.765625 0 "/></g></g></g><g fill="rgb(0%, 0%, 0%)" fill-opacity="1"><g transform="translate(1290.4507, 902.991143)"><g><path d="M 43.390625 0 L 22.046875 0 L 22.046875 -61.546875 L 2.75 -61.546875 L 2.75 -79 L 62.625 -79 L 62.625 -61.546875 L 43.390625 -61.546875 Z M 43.390625 0 "/></g></g></g><g fill="rgb(0%, 0%, 0%)" fill-opacity="1"><g transform="translate(1355.830974, 902.991143)"><g><path d="M 55.4375 0 L 8.53125 0 L 8.53125 -79 L 55.4375 -79 L 55.4375 -61.875 L 29.890625 -61.875 L 29.890625 -49.453125 L 53.546875 -49.453125 L 53.546875 -32.3125 L 29.890625 -32.3125 L 29.890625 -17.40625 L 55.4375 -17.40625 Z M 55.4375 0 "/></g></g></g><g fill="rgb(0%, 0%, 0%)" fill-opacity="1"><g transform="translate(1416.564398, 902.991143)"><g><path d="M 29.890625 -28.75 L 29.890625 0 L 8.53125 0 L 8.53125 -79 L 34.421875 -79 C 55.890625 -79 66.625 -71.21875 66.625 -55.65625 C 66.625 -46.507812 62.160156 -39.429688 53.234375 -34.421875 L 76.25 0 L 52.046875 0 L 35.28125 -28.75 Z M 29.890625 -44.796875 L 33.875 -44.796875 C 41.332031 -44.796875 45.0625 -48.09375 45.0625 -54.6875 C 45.0625 -60.125 41.40625 -62.84375 34.09375 -62.84375 L 29.890625 -62.84375 Z M 29.890625 -44.796875 "/></g></g></g><g fill="rgb(0%, 0%, 0%)" fill-opacity="1"><g transform="translate(1491.454529, 902.991143)"><g><path d="M 83.765625 0 L 55.765625 0 L 26.90625 -55.65625 L 26.421875 -55.65625 C 27.109375 -46.90625 27.453125 -40.222656 27.453125 -35.609375 L 27.453125 0 L 8.53125 0 L 8.53125 -79 L 36.421875 -79 L 65.171875 -24.09375 L 65.5 -24.09375 C 64.988281 -32.0625 64.734375 -38.457031 64.734375 -43.28125 L 64.734375 -79 L 83.765625 -79 Z M 83.765625 0 "/></g></g></g><g fill="rgb(0%, 0%, 0%)" fill-opacity="1"><g transform="translate(1583.74334, 902.991143)"><g><path d="M 57.015625 0 L 53.125 -14.8125 L 27.453125 -14.8125 L 23.453125 0 L 0 0 L 25.78125 -79.328125 L 54.25 -79.328125 L 80.359375 0 Z M 48.6875 -32.3125 L 45.28125 -45.28125 C 44.488281 -48.164062 43.523438 -51.894531 42.390625 -56.46875 C 41.253906 -61.039062 40.507812 -64.320312 40.15625 -66.3125 C 39.832031 -64.46875 39.191406 -61.4375 38.234375 -57.21875 C 37.273438 -53.007812 35.160156 -44.707031 31.890625 -32.3125 Z M 48.6875 -32.3125 "/></g></g></g><g fill="rgb(0%, 0%, 0%)" fill-opacity="1"><g transform="translate(1664.090838, 902.991143)"><g><path d="M 43.390625 0 L 22.046875 0 L 22.046875 -61.546875 L 2.75 -61.546875 L 2.75 -79 L 62.625 -79 L 62.625 -61.546875 L 43.390625 -61.546875 Z M 43.390625 0 "/></g></g></g><g fill="rgb(0%, 0%, 0%)" fill-opacity="1"><g transform="translate(1729.471112, 902.991143)"><g><path d="M 8.53125 0 L 8.53125 -79 L 29.984375 -79 L 29.984375 0 Z M 8.53125 0 "/></g></g></g><g fill="rgb(0%, 0%, 0%)" fill-opacity="1"><g transform="translate(1767.996866, 902.991143)"><g><path d="M 82.46875 -39.609375 C 82.46875 -26.316406 79.207031 -16.210938 72.6875 -9.296875 C 66.164062 -2.378906 56.617188 1.078125 44.046875 1.078125 C 31.648438 1.078125 22.144531 -2.394531 15.53125 -9.34375 C 8.925781 -16.300781 5.625 -26.425781 5.625 -39.71875 C 5.625 -52.863281 8.910156 -62.90625 15.484375 -69.84375 C 22.054688 -76.78125 31.613281 -80.25 44.15625 -80.25 C 56.726562 -80.25 66.253906 -76.804688 72.734375 -69.921875 C 79.222656 -63.046875 82.46875 -52.941406 82.46875 -39.609375 Z M 28.09375 -39.609375 C 28.09375 -24.335938 33.410156 -16.703125 44.046875 -16.703125 C 49.441406 -16.703125 53.445312 -18.554688 56.0625 -22.265625 C 58.675781 -25.972656 59.984375 -31.753906 59.984375 -39.609375 C 59.984375 -47.492188 58.660156 -53.316406 56.015625 -57.078125 C 53.367188 -60.847656 49.414062 -62.734375 44.15625 -62.734375 C 33.445312 -62.734375 28.09375 -55.023438 28.09375 -39.609375 Z M 28.09375 -39.609375 "/></g></g></g><g fill="rgb(0%, 0%, 0%)" fill-opacity="1"><g transform="translate(1856.179171, 902.991143)"><g><path d="M 83.765625 0 L 55.765625 0 L 26.90625 -55.65625 L 26.421875 -55.65625 C 27.109375 -46.90625 27.453125 -40.222656 27.453125 -35.609375 L 27.453125 0 L 8.53125 0 L 8.53125 -79 L 36.421875 -79 L 65.171875 -24.09375 L 65.5 -24.09375 C 64.988281 -32.0625 64.734375 -38.457031 64.734375 -43.28125 L 64.734375 -79 L 83.765625 -79 Z M 83.765625 0 "/></g></g></g><g fill="rgb(0%, 0%, 0%)" fill-opacity="1"><g transform="translate(1948.467982, 902.991143)"><g><path d="M 57.015625 0 L 53.125 -14.8125 L 27.453125 -14.8125 L 23.453125 0 L 0 0 L 25.78125 -79.328125 L 54.25 -79.328125 L 80.359375 0 Z M 48.6875 -32.3125 L 45.28125 -45.28125 C 44.488281 -48.164062 43.523438 -51.894531 42.390625 -56.46875 C 41.253906 -61.039062 40.507812 -64.320312 40.15625 -66.3125 C 39.832031 -64.46875 39.191406 -61.4375 38.234375 -57.21875 C 37.273438 -53.007812 35.160156 -44.707031 31.890625 -32.3125 Z M 48.6875 -32.3125 "/></g></g></g><g fill="rgb(0%, 0%, 0%)" fill-opacity="1"><g transform="translate(2028.815479, 902.991143)"><g><path d="M 8.53125 0 L 8.53125 -79 L 29.890625 -79 L 29.890625 -17.234375 L 60.3125 -17.234375 L 60.3125 0 Z M 8.53125 0 "/></g></g></g><g fill="rgb(0%, 0%, 0%)" fill-opacity="1"><g transform="translate(657.40461, 1033.491133)"><g><path d="M 55.4375 0 L 8.53125 0 L 8.53125 -79 L 55.4375 -79 L 55.4375 -61.875 L 29.890625 -61.875 L 29.890625 -49.453125 L 53.546875 -49.453125 L 53.546875 -32.3125 L 29.890625 -32.3125 L 29.890625 -17.40625 L 55.4375 -17.40625 Z M 55.4375 0 "/></g></g></g><g fill="rgb(0%, 0%, 0%)" fill-opacity="1"><g transform="translate(718.138011, 1033.491133)"><g><path d="M 79.703125 0 L 55.015625 0 L 39.609375 -24.703125 L 24.375 0 L 0.21875 0 L 26.421875 -40.421875 L 1.78125 -79 L 25.453125 -79 L 39.71875 -54.578125 L 53.4375 -79 L 77.8125 -79 L 52.796875 -38.75 Z M 79.703125 0 "/></g></g></g><g fill="rgb(0%, 0%, 0%)" fill-opacity="1"><g transform="translate(798.161297, 1033.491133)"><g><path d="M 76.25 0 L 54.796875 0 L 54.796875 -32.203125 L 29.984375 -32.203125 L 29.984375 0 L 8.53125 0 L 8.53125 -79 L 29.984375 -79 L 29.984375 -49.71875 L 54.796875 -49.71875 L 54.796875 -79 L 76.25 -79 Z M 76.25 0 "/></g></g></g><g fill="rgb(0%, 0%, 0%)" fill-opacity="1"><g transform="translate(882.939511, 1033.491133)"><g><path d="M 8.53125 0 L 8.53125 -79 L 29.984375 -79 L 29.984375 0 Z M 8.53125 0 "/></g></g></g><g fill="rgb(0%, 0%, 0%)" fill-opacity="1"><g transform="translate(921.465242, 1033.491133)"><g><path d="M 8.53125 -79 L 36.09375 -79 C 46.832031 -79 54.800781 -77.40625 60 -74.21875 C 65.207031 -71.03125 67.8125 -66.066406 67.8125 -59.328125 C 67.8125 -54.898438 66.675781 -51.117188 64.40625 -47.984375 C 62.144531 -44.847656 59.15625 -42.832031 55.4375 -41.9375 L 55.4375 -41.390625 C 60.34375 -40.097656 63.894531 -37.9375 66.09375 -34.90625 C 68.289062 -31.882812 69.390625 -27.957031 69.390625 -23.125 C 69.390625 -15.957031 66.695312 -10.3125 61.3125 -6.1875 C 55.925781 -2.0625 48.582031 0 39.28125 0 L 8.53125 0 Z M 29.890625 -48.6875 L 36.3125 -48.6875 C 39.375 -48.6875 41.742188 -49.316406 43.421875 -50.578125 C 45.097656 -51.835938 45.9375 -53.710938 45.9375 -56.203125 C 45.9375 -60.628906 42.582031 -62.84375 35.875 -62.84375 L 29.890625 -62.84375 Z M 29.890625 -33.078125 L 29.890625 -16.484375 L 37.390625 -16.484375 C 44.054688 -16.484375 47.390625 -19.289062 47.390625 -24.90625 C 47.390625 -27.539062 46.5 -29.5625 44.71875 -30.96875 C 42.9375 -32.375 40.351562 -33.078125 36.96875 -33.078125 Z M 29.890625 -33.078125 "/></g></g></g><g fill="rgb(0%, 0%, 0%)" fill-opacity="1"><g transform="translate(996.031161, 1033.491133)"><g><path d="M 8.53125 0 L 8.53125 -79 L 29.984375 -79 L 29.984375 0 Z M 8.53125 0 "/></g></g></g><g fill="rgb(0%, 0%, 0%)" fill-opacity="1"><g transform="translate(1034.556892, 1033.491133)"><g><path d="M 43.390625 0 L 22.046875 0 L 22.046875 -61.546875 L 2.75 -61.546875 L 2.75 -79 L 62.625 -79 L 62.625 -61.546875 L 43.390625 -61.546875 Z M 43.390625 0 "/></g></g></g><g fill="rgb(0%, 0%, 0%)" fill-opacity="1"><g transform="translate(1099.937166, 1033.491133)"><g><path d="M 8.53125 0 L 8.53125 -79 L 29.984375 -79 L 29.984375 0 Z M 8.53125 0 "/></g></g></g><g fill="rgb(0%, 0%, 0%)" fill-opacity="1"><g transform="translate(1138.46292, 1033.491133)"><g><path d="M 82.46875 -39.609375 C 82.46875 -26.316406 79.207031 -16.210938 72.6875 -9.296875 C 66.164062 -2.378906 56.617188 1.078125 44.046875 1.078125 C 31.648438 1.078125 22.144531 -2.394531 15.53125 -9.34375 C 8.925781 -16.300781 5.625 -26.425781 5.625 -39.71875 C 5.625 -52.863281 8.910156 -62.90625 15.484375 -69.84375 C 22.054688 -76.78125 31.613281 -80.25 44.15625 -80.25 C 56.726562 -80.25 66.253906 -76.804688 72.734375 -69.921875 C 79.222656 -63.046875 82.46875 -52.941406 82.46875 -39.609375 Z M 28.09375 -39.609375 C 28.09375 -24.335938 33.410156 -16.703125 44.046875 -16.703125 C 49.441406 -16.703125 53.445312 -18.554688 56.0625 -22.265625 C 58.675781 -25.972656 59.984375 -31.753906 59.984375 -39.609375 C 59.984375 -47.492188 58.660156 -53.316406 56.015625 -57.078125 C 53.367188 -60.847656 49.414062 -62.734375 44.15625 -62.734375 C 33.445312 -62.734375 28.09375 -55.023438 28.09375 -39.609375 Z M 28.09375 -39.609375 "/></g></g></g><g fill="rgb(0%, 0%, 0%)" fill-opacity="1"><g transform="translate(1226.645225, 1033.491133)"><g><path d="M 83.765625 0 L 55.765625 0 L 26.90625 -55.65625 L 26.421875 -55.65625 C 27.109375 -46.90625 27.453125 -40.222656 27.453125 -35.609375 L 27.453125 0 L 8.53125 0 L 8.53125 -79 L 36.421875 -79 L 65.171875 -24.09375 L 65.5 -24.09375 C 64.988281 -32.0625 64.734375 -38.457031 64.734375 -43.28125 L 64.734375 -79 L 83.765625 -79 Z M 83.765625 0 "/></g></g></g><g fill="rgb(0%, 0%, 0%)" fill-opacity="1"><g transform="translate(1318.934036, 1033.491133)"><g/></g></g><g fill="rgb(0%, 0%, 0%)" fill-opacity="1"><g transform="translate(1347.679761, 1033.491133)"><g><path d="M 61.65625 0 L 56.3125 -5.515625 C 53.0625 -3.460938 50.398438 -2.046875 48.328125 -1.265625 C 46.265625 -0.492188 43.941406 0.0859375 41.359375 0.484375 C 38.785156 0.878906 35.84375 1.078125 32.53125 1.078125 C 26.84375 1.078125 21.804688 0.109375 17.421875 -1.828125 C 13.046875 -3.773438 9.695312 -6.492188 7.375 -9.984375 C 5.050781 -13.484375 3.890625 -17.46875 3.890625 -21.9375 C 3.890625 -31.375 8.789062 -38.597656 18.59375 -43.609375 C 16.351562 -46.128906 14.613281 -48.800781 13.375 -51.625 C 12.132812 -54.457031 11.515625 -57.65625 11.515625 -61.21875 C 11.515625 -66.988281 13.738281 -71.566406 18.1875 -74.953125 C 22.632812 -78.335938 28.75 -80.03125 36.53125 -80.03125 C 44.132812 -80.03125 50.050781 -78.34375 54.28125 -74.96875 C 58.507812 -71.601562 60.625 -67.019531 60.625 -61.21875 C 60.625 -57.226562 59.476562 -53.53125 57.1875 -50.125 C 54.90625 -46.71875 51.296875 -43.519531 46.359375 -40.53125 L 57.125 -30.3125 C 59.820312 -34.457031 61.691406 -39.140625 62.734375 -44.359375 L 84.671875 -44.359375 C 83.597656 -39.390625 81.898438 -34.410156 79.578125 -29.421875 C 77.253906 -24.429688 74.628906 -20.15625 71.703125 -16.59375 L 89 0 Z M 25.671875 -23.453125 C 25.671875 -21.179688 26.476562 -19.320312 28.09375 -17.875 C 29.71875 -16.4375 31.863281 -15.71875 34.53125 -15.71875 C 36.582031 -15.71875 38.382812 -15.988281 39.9375 -16.53125 C 41.488281 -17.070312 42.675781 -17.6875 43.5 -18.375 L 30.09375 -31.984375 C 27.144531 -29.785156 25.671875 -26.941406 25.671875 -23.453125 Z M 41.609375 -61.21875 C 41.609375 -62.988281 41.09375 -64.257812 40.0625 -65.03125 C 39.039062 -65.8125 37.753906 -66.203125 36.203125 -66.203125 C 34.691406 -66.203125 33.367188 -65.75 32.234375 -64.84375 C 31.097656 -63.945312 30.53125 -62.507812 30.53125 -60.53125 C 30.53125 -57.820312 32.113281 -55.023438 35.28125 -52.140625 C 37.34375 -53.296875 38.910156 -54.675781 39.984375 -56.28125 C 41.066406 -57.882812 41.609375 -59.53125 41.609375 -61.21875 Z M 41.609375 -61.21875 "/></g></g></g><g fill="rgb(0%, 0%, 0%)" fill-opacity="1"><g transform="translate(1436.078222, 1033.491133)"><g/></g></g><g fill="rgb(0%, 0%, 0%)" fill-opacity="1"><g transform="translate(1464.823948, 1033.491133)"><g><path d="M 43.71875 -62.625 C 38.632812 -62.625 34.671875 -60.539062 31.828125 -56.375 C 28.984375 -52.21875 27.5625 -46.484375 27.5625 -39.171875 C 27.5625 -23.972656 33.34375 -16.375 44.90625 -16.375 C 48.394531 -16.375 51.78125 -16.859375 55.0625 -17.828125 C 58.34375 -18.804688 61.640625 -19.976562 64.953125 -21.34375 L 64.953125 -3.296875 C 58.359375 -0.378906 50.898438 1.078125 42.578125 1.078125 C 30.660156 1.078125 21.519531 -2.378906 15.15625 -9.296875 C 8.800781 -16.210938 5.625 -26.207031 5.625 -39.28125 C 5.625 -47.457031 7.160156 -54.644531 10.234375 -60.84375 C 13.316406 -67.039062 17.75 -71.804688 23.53125 -75.140625 C 29.3125 -78.472656 36.113281 -80.140625 43.9375 -80.140625 C 52.46875 -80.140625 60.625 -78.285156 68.40625 -74.578125 L 61.875 -57.765625 C 58.957031 -59.140625 56.039062 -60.289062 53.125 -61.21875 C 50.207031 -62.15625 47.070312 -62.625 43.71875 -62.625 Z M 43.71875 -62.625 "/></g></g></g><g fill="rgb(0%, 0%, 0%)" fill-opacity="1"><g transform="translate(1536.634153, 1033.491133)"><g><path d="M 82.46875 -39.609375 C 82.46875 -26.316406 79.207031 -16.210938 72.6875 -9.296875 C 66.164062 -2.378906 56.617188 1.078125 44.046875 1.078125 C 31.648438 1.078125 22.144531 -2.394531 15.53125 -9.34375 C 8.925781 -16.300781 5.625 -26.425781 5.625 -39.71875 C 5.625 -52.863281 8.910156 -62.90625 15.484375 -69.84375 C 22.054688 -76.78125 31.613281 -80.25 44.15625 -80.25 C 56.726562 -80.25 66.253906 -76.804688 72.734375 -69.921875 C 79.222656 -63.046875 82.46875 -52.941406 82.46875 -39.609375 Z M 28.09375 -39.609375 C 28.09375 -24.335938 33.410156 -16.703125 44.046875 -16.703125 C 49.441406 -16.703125 53.445312 -18.554688 56.0625 -22.265625 C 58.675781 -25.972656 59.984375 -31.753906 59.984375 -39.609375 C 59.984375 -47.492188 58.660156 -53.316406 56.015625 -57.078125 C 53.367188 -60.847656 49.414062 -62.734375 44.15625 -62.734375 C 33.445312 -62.734375 28.09375 -55.023438 28.09375 -39.609375 Z M 28.09375 -39.609375 "/></g></g></g><g fill="rgb(0%, 0%, 0%)" fill-opacity="1"><g transform="translate(1624.816458, 1033.491133)"><g><path d="M 83.765625 0 L 55.765625 0 L 26.90625 -55.65625 L 26.421875 -55.65625 C 27.109375 -46.90625 27.453125 -40.222656 27.453125 -35.609375 L 27.453125 0 L 8.53125 0 L 8.53125 -79 L 36.421875 -79 L 65.171875 -24.09375 L 65.5 -24.09375 C 64.988281 -32.0625 64.734375 -38.457031 64.734375 -43.28125 L 64.734375 -79 L 83.765625 -79 Z M 83.765625 0 "/></g></g></g><g fill="rgb(0%, 0%, 0%)" fill-opacity="1"><g transform="translate(1717.105269, 1033.491133)"><g><path d="M 52.90625 -79 L 76.796875 -79 L 50.90625 0 L 25.78125 0 L 0 -79 L 24 -79 L 34.75 -38.96875 C 36.976562 -30.0625 38.203125 -23.863281 38.421875 -20.375 C 38.671875 -22.894531 39.171875 -26.046875 39.921875 -29.828125 C 40.679688 -33.609375 41.351562 -36.582031 41.9375 -38.75 Z M 52.90625 -79 "/></g></g></g><g fill="rgb(0%, 0%, 0%)" fill-opacity="1"><g transform="translate(1793.886513, 1033.491133)"><g><path d="M 55.4375 0 L 8.53125 0 L 8.53125 -79 L 55.4375 -79 L 55.4375 -61.875 L 29.890625 -61.875 L 29.890625 -49.453125 L 53.546875 -49.453125 L 53.546875 -32.3125 L 29.890625 -32.3125 L 29.890625 -17.40625 L 55.4375 -17.40625 Z M 55.4375 0 "/></g></g></g><g fill="rgb(0%, 0%, 0%)" fill-opacity="1"><g transform="translate(1854.619937, 1033.491133)"><g><path d="M 83.765625 0 L 55.765625 0 L 26.90625 -55.65625 L 26.421875 -55.65625 C 27.109375 -46.90625 27.453125 -40.222656 27.453125 -35.609375 L 27.453125 0 L 8.53125 0 L 8.53125 -79 L 36.421875 -79 L 65.171875 -24.09375 L 65.5 -24.09375 C 64.988281 -32.0625 64.734375 -38.457031 64.734375 -43.28125 L 64.734375 -79 L 83.765625 -79 Z M 83.765625 0 "/></g></g></g><g fill="rgb(0%, 0%, 0%)" fill-opacity="1"><g transform="translate(1946.908748, 1033.491133)"><g><path d="M 43.390625 0 L 22.046875 0 L 22.046875 -61.546875 L 2.75 -61.546875 L 2.75 -79 L 62.625 -79 L 62.625 -61.546875 L 43.390625 -61.546875 Z M 43.390625 0 "/></g></g></g><g fill="rgb(0%, 0%, 0%)" fill-opacity="1"><g transform="translate(2012.289022, 1033.491133)"><g><path d="M 8.53125 0 L 8.53125 -79 L 29.984375 -79 L 29.984375 0 Z M 8.53125 0 "/></g></g></g><g fill="rgb(0%, 0%, 0%)" fill-opacity="1"><g transform="translate(2050.814776, 1033.491133)"><g><path d="M 82.46875 -39.609375 C 82.46875 -26.316406 79.207031 -16.210938 72.6875 -9.296875 C 66.164062 -2.378906 56.617188 1.078125 44.046875 1.078125 C 31.648438 1.078125 22.144531 -2.394531 15.53125 -9.34375 C 8.925781 -16.300781 5.625 -26.425781 5.625 -39.71875 C 5.625 -52.863281 8.910156 -62.90625 15.484375 -69.84375 C 22.054688 -76.78125 31.613281 -80.25 44.15625 -80.25 C 56.726562 -80.25 66.253906 -76.804688 72.734375 -69.921875 C 79.222656 -63.046875 82.46875 -52.941406 82.46875 -39.609375 Z M 28.09375 -39.609375 C 28.09375 -24.335938 33.410156 -16.703125 44.046875 -16.703125 C 49.441406 -16.703125 53.445312 -18.554688 56.0625 -22.265625 C 58.675781 -25.972656 59.984375 -31.753906 59.984375 -39.609375 C 59.984375 -47.492188 58.660156 -53.316406 56.015625 -57.078125 C 53.367188 -60.847656 49.414062 -62.734375 44.15625 -62.734375 C 33.445312 -62.734375 28.09375 -55.023438 28.09375 -39.609375 Z M 28.09375 -39.609375 "/></g></g></g><g fill="rgb(0%, 0%, 0%)" fill-opacity="1"><g transform="translate(2138.997081, 1033.491133)"><g><path d="M 83.765625 0 L 55.765625 0 L 26.90625 -55.65625 L 26.421875 -55.65625 C 27.109375 -46.90625 27.453125 -40.222656 27.453125 -35.609375 L 27.453125 0 L 8.53125 0 L 8.53125 -79 L 36.421875 -79 L 65.171875 -24.09375 L 65.5 -24.09375 C 64.988281 -32.0625 64.734375 -38.457031 64.734375 -43.28125 L 64.734375 -79 L 83.765625 -79 Z M 83.765625 0 "/></g></g></g><g fill="rgb(0%, 0%, 0%)" fill-opacity="1"><g transform="translate(2231.279464, 1033.491133)"><g/></g></g><g fill="rgb(0%, 0%, 0%)" fill-opacity="1"><g transform="translate(1245.791281, 1163.991122)"><g><path d="M 43.71875 -62.625 C 38.632812 -62.625 34.671875 -60.539062 31.828125 -56.375 C 28.984375 -52.21875 27.5625 -46.484375 27.5625 -39.171875 C 27.5625 -23.972656 33.34375 -16.375 44.90625 -16.375 C 48.394531 -16.375 51.78125 -16.859375 55.0625 -17.828125 C 58.34375 -18.804688 61.640625 -19.976562 64.953125 -21.34375 L 64.953125 -3.296875 C 58.359375 -0.378906 50.898438 1.078125 42.578125 1.078125 C 30.660156 1.078125 21.519531 -2.378906 15.15625 -9.296875 C 8.800781 -16.210938 5.625 -26.207031 5.625 -39.28125 C 5.625 -47.457031 7.160156 -54.644531 10.234375 -60.84375 C 13.316406 -67.039062 17.75 -71.804688 23.53125 -75.140625 C 29.3125 -78.472656 36.113281 -80.140625 43.9375 -80.140625 C 52.46875 -80.140625 60.625 -78.285156 68.40625 -74.578125 L 61.875 -57.765625 C 58.957031 -59.140625 56.039062 -60.289062 53.125 -61.21875 C 50.207031 -62.15625 47.070312 -62.625 43.71875 -62.625 Z M 43.71875 -62.625 "/></g></g></g><g fill="rgb(0%, 0%, 0%)" fill-opacity="1"><g transform="translate(1317.60151, 1163.991122)"><g><path d="M 55.4375 0 L 8.53125 0 L 8.53125 -79 L 55.4375 -79 L 55.4375 -61.875 L 29.890625 -61.875 L 29.890625 -49.453125 L 53.546875 -49.453125 L 53.546875 -32.3125 L 29.890625 -32.3125 L 29.890625 -17.40625 L 55.4375 -17.40625 Z M 55.4375 0 "/></g></g></g><g fill="rgb(0%, 0%, 0%)" fill-opacity="1"><g transform="translate(1378.334911, 1163.991122)"><g><path d="M 83.765625 0 L 55.765625 0 L 26.90625 -55.65625 L 26.421875 -55.65625 C 27.109375 -46.90625 27.453125 -40.222656 27.453125 -35.609375 L 27.453125 0 L 8.53125 0 L 8.53125 -79 L 36.421875 -79 L 65.171875 -24.09375 L 65.5 -24.09375 C 64.988281 -32.0625 64.734375 -38.457031 64.734375 -43.28125 L 64.734375 -79 L 83.765625 -79 Z M 83.765625 0 "/></g></g></g><g fill="rgb(0%, 0%, 0%)" fill-opacity="1"><g transform="translate(1470.623744, 1163.991122)"><g><path d="M 43.390625 0 L 22.046875 0 L 22.046875 -61.546875 L 2.75 -61.546875 L 2.75 -79 L 62.625 -79 L 62.625 -61.546875 L 43.390625 -61.546875 Z M 43.390625 0 "/></g></g></g><g fill="rgb(0%, 0%, 0%)" fill-opacity="1"><g transform="translate(1536.003996, 1163.991122)"><g><path d="M 29.890625 -28.75 L 29.890625 0 L 8.53125 0 L 8.53125 -79 L 34.421875 -79 C 55.890625 -79 66.625 -71.21875 66.625 -55.65625 C 66.625 -46.507812 62.160156 -39.429688 53.234375 -34.421875 L 76.25 0 L 52.046875 0 L 35.28125 -28.75 Z M 29.890625 -44.796875 L 33.875 -44.796875 C 41.332031 -44.796875 45.0625 -48.09375 45.0625 -54.6875 C 45.0625 -60.125 41.40625 -62.84375 34.09375 -62.84375 L 29.890625 -62.84375 Z M 29.890625 -44.796875 "/></g></g></g><g fill="rgb(0%, 0%, 0%)" fill-opacity="1"><g transform="translate(1610.894127, 1163.991122)"><g><path d="M 55.4375 0 L 8.53125 0 L 8.53125 -79 L 55.4375 -79 L 55.4375 -61.875 L 29.890625 -61.875 L 29.890625 -49.453125 L 53.546875 -49.453125 L 53.546875 -32.3125 L 29.890625 -32.3125 L 29.890625 -17.40625 L 55.4375 -17.40625 Z M 55.4375 0 "/></g></g></g><g fill="rgb(0%, 0%, 0%)" fill-opacity="1"><g transform="translate(1458.709236, 1294.491112)"><g/></g></g><g clip-path="url(#id3)"><path fill="rgb(97.648621%, 65.489197%, 16.859436%)" d="M 2791.207031 1352.453125 L 2964.21875 1202.453125 L 2618.210938 1202.453125 Z M 2791.207031 1352.453125 " fill-opacity="1" fill-rule="nonzero"/></g></svg>